<svg width="12" height="16" viewBox="0 0 12 16" fill="none" xmlns="http://www.w3.org/2000/svg">
<path d="M10.5 0C10.8978 0 11.2794 0.168571 11.5607 0.468629C11.842 0.768687 12 1.17565 12 1.6V14.4C12 14.8243 11.842 15.2313 11.5607 15.5314C11.2794 15.8314 10.8978 16 10.5 16H1.5C1.10218 16 0.720644 15.8314 0.43934 15.5314C0.158035 15.2313 0 14.8243 0 14.4V1.6C0 1.17565 0.158035 0.768687 0.43934 0.468629C0.720644 0.168571 1.10218 0 1.5 0H10.5ZM10.5 1.6H6.75V8L4.875 6.2L3 8V1.6H1.5V14.4H10.5V1.6Z" fill="white"/>
</svg>
