<svg width="13" height="14" viewBox="0 0 13 14" fill="none" xmlns="http://www.w3.org/2000/svg">
<path d="M3.16667 1.83334H1.83333C1.47971 1.83334 1.14057 1.97382 0.890524 2.22387C0.640476 2.47392 0.5 2.81305 0.5 3.16668V11.1667C0.5 11.5203 0.640476 11.8594 0.890524 12.1095C1.14057 12.3595 1.47971 12.5 1.83333 12.5H5.63133M9.83333 7.83334V10.5H12.5M9.83333 5.83334V3.16668C9.83333 2.81305 9.69286 2.47392 9.44281 2.22387C9.19276 1.97382 8.85362 1.83334 8.5 1.83334H7.16667" stroke="white" stroke-linecap="round" stroke-linejoin="round"/>
<path d="M3.16675 5.83333H5.83341M3.16675 8.5H5.16675M3.16675 1.83333C3.16675 1.47971 3.30722 1.14057 3.55727 0.890524C3.80732 0.640476 4.14646 0.5 4.50008 0.5H5.83341C6.18704 0.5 6.52617 0.640476 6.77622 0.890524C7.02627 1.14057 7.16675 1.47971 7.16675 1.83333C7.16675 2.18696 7.02627 2.52609 6.77622 2.77614C6.52617 3.02619 6.18704 3.16667 5.83341 3.16667H4.50008C4.14646 3.16667 3.80732 3.02619 3.55727 2.77614C3.30722 2.52609 3.16675 2.18696 3.16675 1.83333ZM7.16675 10.5C7.16675 11.2072 7.4477 11.8855 7.9478 12.3856C8.44789 12.8857 9.12617 13.1667 9.83341 13.1667C10.5407 13.1667 11.2189 12.8857 11.719 12.3856C12.2191 11.8855 12.5001 11.2072 12.5001 10.5C12.5001 9.79276 12.2191 9.11448 11.719 8.61438C11.2189 8.11429 10.5407 7.83333 9.83341 7.83333C9.12617 7.83333 8.44789 8.11429 7.9478 8.61438C7.4477 9.11448 7.16675 9.79276 7.16675 10.5Z" stroke="white" stroke-linecap="round" stroke-linejoin="round"/>
</svg>
