<svg width="16" height="16" viewBox="0 0 16 16" fill="none" xmlns="http://www.w3.org/2000/svg">
<path d="M5.16582 10.8571L10.8801 5.14285M0.571533 12.5714C0.571533 12.8741 0.691627 13.1645 0.90546 13.3787C1.11929 13.593 1.4094 13.7137 1.7121 13.7143H14.2881C14.5908 13.7137 14.8809 13.593 15.0947 13.3787C15.3086 13.1645 15.4287 12.8741 15.4287 12.5714V10.2468C14.9352 10.113 14.4995 9.82051 14.1889 9.41442C13.8783 9.00833 13.71 8.51127 13.71 7.99999C13.71 7.48871 13.8783 6.99166 14.1889 6.58557C14.4995 6.17948 14.9352 5.88694 15.4287 5.75313V3.42856C15.4287 3.12585 15.3086 2.83551 15.0947 2.62125C14.8809 2.40699 14.5908 2.28631 14.2881 2.28571H1.7121C1.4094 2.28631 1.11929 2.40699 0.90546 2.62125C0.691627 2.83551 0.571533 3.12585 0.571533 3.42856V5.74856C1.06893 5.87939 1.509 6.17124 1.82303 6.57854C2.13706 6.98585 2.30737 7.48568 2.30737 7.99999C2.30737 8.5143 2.13706 9.01413 1.82303 9.42144C1.509 9.82875 1.06893 10.1206 0.571533 10.2514V12.5714Z" stroke="white" stroke-linecap="round" stroke-linejoin="round"/>
<path d="M5.7372 6.28571C5.88875 6.28571 6.0341 6.22551 6.14126 6.11834C6.24842 6.01118 6.30863 5.86583 6.30863 5.71428C6.30863 5.56273 6.24842 5.41738 6.14126 5.31022C6.0341 5.20306 5.88875 5.14285 5.7372 5.14285C5.58565 5.14285 5.4403 5.20306 5.33314 5.31022C5.22598 5.41738 5.16577 5.56273 5.16577 5.71428C5.16577 5.86583 5.22598 6.01118 5.33314 6.11834C5.4403 6.22551 5.58565 6.28571 5.7372 6.28571ZM10.3086 10.8571C10.4602 10.8571 10.6055 10.7969 10.7127 10.6898C10.8199 10.5826 10.8801 10.4373 10.8801 10.2857C10.8801 10.1342 10.8199 9.98881 10.7127 9.88165C10.6055 9.77449 10.4602 9.71428 10.3086 9.71428C10.1571 9.71428 10.0117 9.77449 9.90457 9.88165C9.7974 9.98881 9.7372 10.1342 9.7372 10.2857C9.7372 10.4373 9.7974 10.5826 9.90457 10.6898C10.0117 10.7969 10.1571 10.8571 10.3086 10.8571Z" stroke="white" stroke-linecap="round" stroke-linejoin="round"/>
</svg>
