<svg width="43" height="43" viewBox="0 0 43 43" fill="none" xmlns="http://www.w3.org/2000/svg">
<path fill-rule="evenodd" clip-rule="evenodd" d="M21.5 3.03746e-07C21.7166 -0.000137519 21.9306 0.0466284 22.1274 0.137083C22.3242 0.227537 22.4991 0.359535 22.64 0.524L28.64 7.524C28.8989 7.82635 29.027 8.21914 28.9962 8.61597C28.9655 9.01279 28.7783 9.38115 28.476 9.64C28.1737 9.89885 27.7809 10.027 27.384 9.99624C26.9872 9.96548 26.6189 9.77835 26.36 9.476L23 5.556V27.5C23 27.8978 22.842 28.2794 22.5607 28.5607C22.2794 28.842 21.8978 29 21.5 29C21.1022 29 20.7206 28.842 20.4393 28.5607C20.158 28.2794 20 27.8978 20 27.5V5.554L16.64 9.476C16.5118 9.62571 16.3554 9.7487 16.1797 9.83797C16.004 9.92723 15.8125 9.98101 15.616 9.99624C15.4195 10.0115 15.2219 9.98785 15.0346 9.92672C14.8472 9.8656 14.6737 9.76817 14.524 9.64C14.3743 9.51183 14.2513 9.35543 14.162 9.17972C14.0728 9.00402 14.019 8.81245 14.0038 8.61597C13.9885 8.41948 14.0122 8.22191 14.0733 8.03455C14.1344 7.84719 14.2318 7.67371 14.36 7.524L20.36 0.524C20.5009 0.359535 20.6758 0.227537 20.8726 0.137083C21.0694 0.0466284 21.2834 -0.000137519 21.5 3.03746e-07ZM11.492 14.004C11.8898 14.0019 12.2722 14.1579 12.555 14.4377C12.8378 14.7175 12.9979 15.0982 13 15.496C13.0021 15.8938 12.8461 16.2762 12.5663 16.559C12.2865 16.8418 11.9058 17.0019 11.508 17.004C9.322 17.016 7.772 17.072 6.594 17.288C5.462 17.498 4.804 17.832 4.318 18.318C3.764 18.872 3.404 19.65 3.206 21.118C3.004 22.628 3 24.63 3 27.5V29.5C3 32.372 3.004 34.374 3.206 35.884C3.404 37.352 3.766 38.128 4.318 38.684C4.872 39.236 5.648 39.596 7.118 39.794C8.626 39.998 10.63 40 13.5 40H29.5C32.37 40 34.372 39.998 35.884 39.794C37.352 39.596 38.128 39.236 38.682 38.682C39.236 38.128 39.596 37.352 39.794 35.884C39.996 34.374 40 32.372 40 29.5V27.5C40 24.63 39.996 22.628 39.794 21.116C39.596 19.65 39.234 18.872 38.682 18.318C38.194 17.832 37.538 17.498 36.406 17.288C35.228 17.072 33.678 17.016 31.492 17.004C31.295 17.0029 31.1002 16.9631 30.9186 16.8868C30.737 16.8104 30.5722 16.699 30.4337 16.559C30.2951 16.419 30.1855 16.253 30.1111 16.0706C30.0367 15.8882 29.9989 15.693 30 15.496C30.0011 15.299 30.0409 15.1042 30.1172 14.9226C30.1936 14.741 30.305 14.5762 30.445 14.4377C30.585 14.2991 30.751 14.1895 30.9334 14.1151C31.1158 14.0407 31.311 14.0029 31.508 14.004C33.672 14.016 35.474 14.068 36.948 14.338C38.464 14.618 39.754 15.148 40.804 16.198C42.008 17.4 42.524 18.918 42.768 20.718C43 22.45 43 24.656 43 27.39V29.61C43 32.346 43 34.55 42.768 36.284C42.524 38.084 42.008 39.6 40.804 40.804C39.6 42.008 38.084 42.524 36.284 42.768C34.55 43 32.344 43 29.61 43H13.39C10.656 43 8.45 43 6.716 42.768C4.916 42.526 3.4 42.008 2.196 40.804C0.992 39.6 0.476 38.084 0.234 36.284C-2.98023e-08 34.55 0 32.344 0 29.61V27.39C0 24.656 -2.98023e-08 22.45 0.234 20.716C0.474 18.916 0.994 17.4 2.196 16.196C3.246 15.148 4.536 14.616 6.052 14.338C7.526 14.068 9.328 14.016 11.492 14.004Z" fill="#152B52"/>
</svg>
