<svg width="23" height="25" viewBox="0 0 23 25" fill="none" xmlns="http://www.w3.org/2000/svg">
<path d="M9.05676 24.5H7.83465C6.10658 24.5 5.24255 24.5 4.70604 23.972C4.16831 23.4452 4.16831 22.5968 4.16831 20.9V12.5H9.05676V24.5ZM9.05676 24.5V16.1H18.8337C20.5642 16.1 21.4282 16.1 21.9623 16.628C22.5 17.1548 22.5 18.0032 22.5 19.7V20.9C22.5 22.5968 22.5 23.4452 21.9623 23.972C21.427 24.5 20.563 24.5 18.8337 24.5H9.05676ZM22.5 5.3L21.2779 6.5M21.2779 6.5H17.0005M21.2779 6.5L17.6115 10.1H16.3894M21.2779 6.5V10.7M6.61254 2.9V0.5M11.8297 10.2416C11.3812 11.336 11.1576 11.882 10.6932 12.1916C10.2288 12.5 9.62749 12.5 8.42737 12.5H4.79403C3.59392 12.5 2.99264 12.5 2.52824 12.1916C2.06383 11.882 1.83896 11.336 1.39167 10.2416L1.20835 9.7916C0.597298 8.3 0.29177 7.5548 0.658404 7.0268C1.02137 6.5 1.84263 6.5 3.48515 6.5H9.73381C11.3763 6.5 12.1976 6.5 12.5618 7.028C12.9284 7.5548 12.6229 8.3 12.0118 9.7916L11.8297 10.2416ZM9.05187 6.5H4.1732C3.1784 4.9784 2.76288 4.2176 3.02319 3.6152C3.37027 3.0608 4.35163 2.9 6.14813 2.9H7.07694C8.87344 2.9 9.85602 3.0608 10.2031 3.6152C10.4634 4.2176 10.0479 4.9784 9.05187 6.5Z" stroke="white" stroke-linecap="round" stroke-linejoin="round"/>
</svg>
