<svg width="24" height="19" viewBox="0 0 24 19" fill="none" xmlns="http://www.w3.org/2000/svg">
<path d="M4.5 8.5C4.71094 8.5 4.90625 8.53906 5.08594 8.61719C5.26562 8.69531 5.42188 8.80078 5.55469 8.93359C5.6875 9.06641 5.79688 9.22656 5.88281 9.41406C5.96875 9.60156 6.00781 9.79688 6 10C6 10.2109 5.96094 10.4062 5.88281 10.5859C5.80469 10.7656 5.69922 10.9219 5.56641 11.0547C5.43359 11.1875 5.27344 11.2969 5.08594 11.3828C4.89844 11.4688 4.70312 11.5078 4.5 11.5C4.28906 11.5 4.09375 11.4609 3.91406 11.3828C3.73438 11.3047 3.57812 11.1992 3.44531 11.0664C3.3125 10.9336 3.20313 10.7734 3.11719 10.5859C3.03125 10.3984 2.99219 10.2031 3 10C3 9.78906 3.03906 9.59375 3.11719 9.41406C3.19531 9.23438 3.30078 9.07812 3.43359 8.94531C3.56641 8.8125 3.72656 8.70312 3.91406 8.61719C4.10156 8.53125 4.29688 8.49219 4.5 8.5ZM19.5 8.5C19.7109 8.5 19.9062 8.53906 20.0859 8.61719C20.2656 8.69531 20.4219 8.80078 20.5547 8.93359C20.6875 9.06641 20.7969 9.22656 20.8828 9.41406C20.9688 9.60156 21.0078 9.79688 21 10C21 10.2109 20.9609 10.4062 20.8828 10.5859C20.8047 10.7656 20.6992 10.9219 20.5664 11.0547C20.4336 11.1875 20.2734 11.2969 20.0859 11.3828C19.8984 11.4688 19.7031 11.5078 19.5 11.5C19.2891 11.5 19.0938 11.4609 18.9141 11.3828C18.7344 11.3047 18.5781 11.1992 18.4453 11.0664C18.3125 10.9336 18.2031 10.7734 18.1172 10.5859C18.0312 10.3984 17.9922 10.2031 18 10C18 9.78906 18.0391 9.59375 18.1172 9.41406C18.1953 9.23438 18.3008 9.07812 18.4336 8.94531C18.5664 8.8125 18.7266 8.70312 18.9141 8.61719C19.1016 8.53125 19.2969 8.49219 19.5 8.5ZM23.5664 5.5L22.793 6.26172C22.8086 6.30078 22.8477 6.41797 22.9102 6.61328C22.9727 6.80859 23.0469 7.03906 23.1328 7.30469C23.2188 7.57031 23.3164 7.85547 23.4258 8.16016C23.5352 8.46484 23.6289 8.74219 23.707 8.99219C23.7852 9.24219 23.8555 9.45312 23.918 9.625C23.9805 9.79688 24.0078 9.88281 24 9.88281V17.5C24 17.7109 23.9609 17.9062 23.8828 18.0859C23.8047 18.2656 23.6992 18.4219 23.5664 18.5547C23.4336 18.6875 23.2734 18.7969 23.0859 18.8828C22.8984 18.9688 22.7031 19.0078 22.5 19H21C20.7891 19 20.5938 18.9609 20.4141 18.8828C20.2344 18.8047 20.0781 18.6992 19.9453 18.5664C19.8125 18.4336 19.7031 18.2734 19.6172 18.0859C19.5312 17.8984 19.4922 17.7031 19.5 17.5H4.5C4.5 17.7109 4.46094 17.9062 4.38281 18.0859C4.30469 18.2656 4.19922 18.4219 4.06641 18.5547C3.93359 18.6875 3.77344 18.7969 3.58594 18.8828C3.39844 18.9688 3.20313 19.0078 3 19H1.5C1.28906 19 1.09375 18.9609 0.914062 18.8828C0.734375 18.8047 0.578125 18.6992 0.445312 18.5664C0.3125 18.4336 0.203125 18.2734 0.117188 18.0859C0.03125 17.8984 -0.0078125 17.7031 1.16415e-10 17.5V9.88281L0.0820312 9.63672L0.292969 9.00391L0.574219 8.16016C0.675781 7.85547 0.769531 7.57031 0.855469 7.30469C0.941406 7.03906 1.01953 6.80859 1.08984 6.61328C1.16016 6.41797 1.19922 6.30078 1.20703 6.26172L0.433594 5.5H1.16415e-10V4H1.06641L1.73438 4.67969L2.60156 2.06641C2.72656 1.68359 2.90625 1.33594 3.14062 1.02344C3.375 0.710938 3.65234 0.441406 3.97266 0.214844C4.29297 -0.0117188 4.63281 -0.1875 4.99219 -0.3125C5.35156 -0.4375 5.74219 -0.5 6.16406 -0.5H17.8359C18.2422 -0.5 18.6289 -0.4375 18.9961 -0.3125C19.3633 -0.1875 19.707 -0.015625 20.0273 0.203125C20.3477 0.421875 20.6211 0.691406 20.8477 1.01172C21.0742 1.33203 21.2578 1.68359 21.3984 2.06641L22.2656 4.67969L22.9336 4H24V5.5H23.5664ZM6.16406 1C5.67188 1 5.23438 1.14062 4.85156 1.42188C4.46875 1.70312 4.19531 2.07422 4.03125 2.53516L3.03516 5.5H20.9648L19.9688 2.53516C19.8125 2.07422 19.543 1.70312 19.1602 1.42188C18.7773 1.14062 18.3359 1 17.8359 1H6.16406ZM16.5 15.4258L15.2812 13H8.71875L7.5 15.4258V16H16.5V15.4258ZM22.5 16V10.1172L22.4297 9.90625C22.3828 9.76562 22.3242 9.58203 22.2539 9.35547C22.1836 9.12891 22.1016 8.89062 22.0078 8.64062C21.9141 8.39062 21.832 8.14453 21.7617 7.90234C21.6914 7.66016 21.625 7.46094 21.5625 7.30469C21.5 7.14844 21.4648 7.04688 21.457 7H2.54297C2.52734 7.03906 2.49219 7.14062 2.4375 7.30469C2.38281 7.46875 2.31641 7.66406 2.23828 7.89062C2.16016 8.11719 2.07812 8.36328 1.99219 8.62891C1.90625 8.89453 1.82812 9.13672 1.75781 9.35547C1.6875 9.57422 1.625 9.75391 1.57031 9.89453C1.51562 10.0352 1.49219 10.1094 1.5 10.1172V16H6V15.0742L7.78125 11.5H16.2188L18 15.0742V16H22.5Z" fill="black"/>
</svg>
