<svg width="24" height="24" viewBox="0 0 24 24" fill="none" xmlns="http://www.w3.org/2000/svg">
<g clip-path="url(#clip0_2722_3382)">
<path d="M3.45155 16.372C3.55267 16.3263 3.63563 16.2949 3.71132 16.2531C4.74922 15.6846 5.78348 15.1104 6.82562 14.5487C7.10477 14.3978 7.39846 14.2659 7.6982 14.1567C8.49873 13.8653 9.2932 13.9196 10.0895 14.2047C11.1262 14.5761 12.1677 14.9378 13.2486 15.1835C13.4545 15.2304 13.6585 15.2886 13.8668 15.3184C14.9496 15.4703 15.6417 16.4988 15.1972 17.4988C15.1827 17.5319 15.176 17.5679 15.1573 17.6308C15.3752 17.6165 15.5418 17.5336 15.7041 17.4445C16.9157 16.7794 18.1238 16.1092 19.3379 15.4486C19.9313 15.1258 20.5048 14.7658 21.1582 14.5504C21.6595 14.3853 22.1706 14.2967 22.7023 14.4001C23.4489 14.5453 23.9703 15.1344 23.9975 15.856C24.0127 16.2554 23.9691 16.6434 23.6954 16.9645C23.5591 17.1245 23.3938 17.2771 23.2103 17.3851C21.8406 18.1896 20.463 18.9815 19.0878 19.7786C17.9022 20.466 16.7099 21.1437 15.5339 21.8459C14.6692 22.3624 13.7566 22.5458 12.7605 22.3047C12.0284 22.127 11.2987 21.9396 10.5685 21.7556C9.49726 21.4853 8.42606 21.2162 7.35607 20.942C7.19924 20.902 7.06117 20.9111 6.9225 20.9917C6.76083 21.0854 6.5943 21.1716 6.39266 21.2819C6.49802 21.4648 6.58825 21.6305 6.68695 21.791C6.91342 22.1584 6.94188 22.5304 6.70088 22.8972C6.62942 23.0064 6.52648 23.1109 6.41143 23.1772C6.00693 23.4103 5.59637 23.6343 5.17915 23.8457C4.58936 24.144 4.03771 24.0063 3.70224 23.4601C3.05976 22.415 2.43424 21.3602 1.80205 20.3094C1.27463 19.4323 0.748412 18.5553 0.219775 17.6788C0.104117 17.4868 0.00783552 17.2936 -3.65097e-05 17.0645C-0.0133584 16.6628 0.164671 16.3651 0.526784 16.1657C0.936129 15.9406 1.34729 15.7183 1.76451 15.5063C2.25924 15.2549 2.79817 15.4023 3.13303 15.8743C3.24385 16.0303 3.33892 16.1954 3.45155 16.3714V16.372ZM5.98634 20.622C6.27397 20.4706 6.52224 20.3471 6.76264 20.2111C6.911 20.1272 7.06178 20.1049 7.22649 20.1409C7.34457 20.1666 7.46325 20.1894 7.57952 20.2191C9.35133 20.6677 11.1237 21.1134 12.8937 21.5688C13.6059 21.7522 14.2732 21.6642 14.9029 21.3156C15.3201 21.0848 15.7283 20.8385 16.14 20.5991C17.3414 19.8992 18.5422 19.1986 19.743 18.4987C20.747 17.9136 21.7492 17.3262 22.7556 16.7451C22.9766 16.6177 23.1122 16.444 23.1698 16.2091C23.3163 15.612 22.9203 15.1287 22.2754 15.1435C22.0368 15.1492 21.7879 15.1784 21.5651 15.2538C21.206 15.3749 20.8493 15.5166 20.5187 15.6955C19.0666 16.4806 17.6254 17.2845 16.177 18.0764C15.7906 18.2879 15.3746 18.417 14.9265 18.4776C14.3313 18.5576 13.7578 18.4496 13.1911 18.3284C12.4347 18.1667 11.6887 17.9622 10.9391 17.7725C10.7737 17.7308 10.6096 17.6816 10.4492 17.6256C10.2378 17.5519 10.1464 17.3988 10.1833 17.2028C10.2179 17.0177 10.3759 16.9034 10.6072 16.9217C10.7568 16.9337 10.9051 16.9691 11.0505 17.0068C11.5949 17.1479 12.1344 17.3062 12.6818 17.4348C13.0318 17.5171 13.3903 17.5885 13.7494 17.6119C14.1315 17.6365 14.3761 17.4388 14.4893 17.0999C14.5965 16.78 14.4984 16.4571 14.2011 16.2674C14.0552 16.1743 13.879 16.1132 13.707 16.0686C13.3382 15.9726 12.9561 15.9183 12.5928 15.808C11.6045 15.5081 10.6175 15.2018 9.64138 14.8692C9.04856 14.667 8.47451 14.6561 7.90833 14.9052C7.45235 15.1058 7.00789 15.3309 6.56947 15.5635C5.72596 16.0109 4.8891 16.4708 4.05103 16.9274C3.98503 16.9634 3.92811 17.0142 3.85181 17.0685C4.56211 18.2519 5.26151 19.4169 5.98573 20.6237L5.98634 20.622ZM2.29194 16.1252C2.18294 16.1634 2.1133 16.1789 2.05335 16.2109C1.70093 16.396 1.34729 16.5788 1.00153 16.7737C0.747806 16.9165 0.727823 17.0097 0.876786 17.2651C1.06572 17.5902 1.2613 17.9119 1.45447 18.2341C2.07394 19.2684 2.69401 20.3031 3.31348 21.3374C3.65561 21.9082 3.99653 22.4801 4.34108 23.0498C4.49065 23.2978 4.58754 23.3178 4.85216 23.1766C5.17673 23.0035 5.50372 22.8344 5.82708 22.6595C6.13046 22.4956 6.15044 22.4024 5.97604 22.1127C5.09014 20.6414 4.20666 19.1684 3.32196 17.6965C3.05371 17.2496 2.78969 16.8011 2.51477 16.3583C2.45846 16.268 2.36399 16.1989 2.29194 16.1252Z" fill="#152B52"/>
<path d="M8.69847 11.8506C8.74207 11.738 8.76872 11.6569 8.80444 11.5792C8.9092 11.3523 9.01336 11.1255 9.12599 10.9021C9.19199 10.7718 9.18472 10.6598 9.11872 10.525C8.93342 10.1456 8.76327 9.7593 8.60219 9.36962C8.54951 9.2422 8.47624 9.16335 8.34181 9.11763C8.08567 9.03078 7.83316 8.93479 7.57883 8.84337C7.33298 8.7548 7.2149 8.58853 7.21732 8.33883C7.22156 7.77716 7.21672 7.21548 7.22338 6.65438C7.22762 6.32926 7.31602 6.2287 7.64907 6.11214C7.88523 6.02928 8.11716 5.93558 8.35453 5.85615C8.48048 5.81387 8.54709 5.73731 8.59553 5.62303C8.76448 5.22648 8.93948 4.8328 9.12054 4.44083C9.17806 4.31683 9.17806 4.20713 9.11811 4.08657C9.01093 3.87115 8.91889 3.64945 8.80565 3.4369C8.67546 3.19177 8.70695 2.98436 8.91586 2.79009C9.36154 2.37583 9.80298 1.95815 10.242 1.5376C10.4079 1.37876 10.5896 1.36447 10.7943 1.4519C11.0516 1.5616 11.3114 1.6656 11.5663 1.78044C11.6953 1.83815 11.8031 1.83244 11.9369 1.77644C12.3414 1.60674 12.752 1.44961 13.1668 1.30391C13.3151 1.25191 13.3969 1.17363 13.4477 1.0365C13.5373 0.794229 13.6482 0.558817 13.739 0.316549C13.8201 0.0988503 13.9691 1.86381e-07 14.2162 0.00171435C14.8514 0.00685684 15.4872 0.00457129 16.1224 -0.000571201C16.3664 -0.00285675 16.5202 0.0948505 16.602 0.313121C16.6959 0.56396 16.8091 0.808514 16.9036 1.05992C16.952 1.18963 17.041 1.24848 17.1754 1.29591C17.5896 1.44333 17.999 1.60274 18.4035 1.77244C18.5343 1.8273 18.6402 1.84387 18.7723 1.78159C19.0157 1.66674 19.2706 1.57417 19.514 1.45932C19.7332 1.3559 19.9252 1.37876 20.0954 1.53703C20.5616 1.97186 21.0255 2.40897 21.4869 2.84837C21.6486 3.00264 21.6583 3.18434 21.5662 3.37633C21.45 3.61917 21.3361 3.86258 21.2168 4.10428C21.1617 4.2157 21.1696 4.31169 21.2247 4.42711C21.4051 4.8088 21.5765 5.19449 21.7327 5.58532C21.7872 5.72131 21.8532 5.81216 22.0046 5.85958C22.2529 5.93729 22.4927 6.04128 22.741 6.11956C23.0092 6.2047 23.1273 6.37726 23.1261 6.63553C23.1243 7.20634 23.12 7.77773 23.1225 8.34855C23.1237 8.59824 23.0122 8.76337 22.7616 8.84965C22.506 8.93765 22.2541 9.03535 21.9986 9.12449C21.8678 9.1702 21.7872 9.2422 21.7352 9.37304C21.5807 9.76444 21.4142 10.1524 21.2356 10.5347C21.1787 10.6575 21.1569 10.7575 21.2205 10.8827C21.3379 11.1141 21.4415 11.3523 21.5487 11.5877C21.674 11.8632 21.6407 11.9849 21.4136 12.1957C21.0255 12.5557 20.6409 12.9196 20.2589 13.2853C19.9076 13.6225 19.8241 13.6407 19.3584 13.4493C19.1646 13.3693 18.9709 13.2888 18.7801 13.2019C18.6415 13.1385 18.5185 13.1516 18.3774 13.2116C17.9735 13.3836 17.566 13.5476 17.1524 13.6985C17.0156 13.7482 16.9363 13.8179 16.8878 13.9441C16.7915 14.1944 16.6807 14.4401 16.582 14.6892C16.5057 14.8818 16.367 14.9795 16.1472 14.9789C15.5017 14.9789 14.8562 14.9789 14.2107 14.9818C13.9806 14.9829 13.831 14.8869 13.7511 14.6812C13.6579 14.4401 13.5464 14.2047 13.458 13.9624C13.4041 13.815 13.3163 13.735 13.1559 13.6796C12.7598 13.5419 12.3693 13.387 11.986 13.2202C11.8146 13.1459 11.6711 13.1322 11.5009 13.2145C11.2678 13.327 11.025 13.4225 10.7834 13.5179C10.5793 13.599 10.3958 13.5756 10.2311 13.4179C9.77815 12.9842 9.31552 12.5591 8.865 12.1231C8.78628 12.0471 8.74692 11.9351 8.69545 11.8494L8.69847 11.8506ZM9.62374 3.23177C9.75333 3.51632 9.87201 3.77802 9.99312 4.03914C10.0743 4.21341 10.0985 4.38312 9.98767 4.55739C9.67945 5.04193 9.44208 5.55446 9.30159 6.10528C9.25497 6.28812 9.14415 6.40183 8.95341 6.46468C8.70574 6.54582 8.46655 6.6481 8.2207 6.73438C8.1002 6.77666 8.04691 6.84751 8.04873 6.96979C8.05357 7.32176 8.05418 7.67431 8.04933 8.02628C8.04752 8.15028 8.10262 8.22056 8.22312 8.26055C8.43264 8.32969 8.63731 8.4114 8.84865 8.47539C9.12538 8.55882 9.2804 8.72509 9.34156 8.9965C9.45116 9.48504 9.66916 9.93758 9.94225 10.3615C10.0785 10.5735 10.0876 10.7615 9.97556 10.9786C9.84779 11.2255 9.7394 11.4809 9.63343 11.7089C9.99736 12.0631 10.3377 12.3951 10.6822 12.7299C10.9711 12.61 11.2526 12.5042 11.5221 12.3763C11.7129 12.286 11.8836 12.282 12.0635 12.3894C12.5624 12.6865 13.1062 12.8882 13.676 13.0254C13.9055 13.0802 14.0406 13.2059 14.1132 13.4145C14.1853 13.6225 14.2791 13.823 14.356 14.0299C14.4057 14.163 14.4887 14.2298 14.6455 14.227C14.9985 14.2207 15.3516 14.2224 15.7046 14.2258C15.8445 14.2276 15.9298 14.1744 15.9771 14.0487C16.0618 13.8247 16.1612 13.6059 16.2441 13.3813C16.3047 13.2173 16.404 13.0928 16.5862 13.0488C17.1966 12.9025 17.7737 12.6814 18.3108 12.3711C18.4616 12.2837 18.6106 12.2843 18.771 12.3551C19.0084 12.4603 19.2524 12.5517 19.4904 12.6545C19.6 12.702 19.6963 12.7214 19.7932 12.6294C20.0984 12.3403 20.406 12.0534 20.7239 11.7557C20.5937 11.4803 20.4738 11.2198 20.3473 10.9621C20.251 10.7661 20.2522 10.5861 20.3727 10.393C20.6549 9.94043 20.891 9.46675 21.0079 8.94907C21.0588 8.72223 21.1914 8.57596 21.4209 8.49939C21.6486 8.42283 21.8726 8.33598 22.1015 8.26112C22.2353 8.2177 22.2904 8.14285 22.288 8.00686C22.2814 7.67374 22.282 7.34062 22.2898 7.0075C22.2929 6.86408 22.242 6.78123 22.0924 6.73266C21.8732 6.66181 21.6667 6.55553 21.4463 6.48982C21.1962 6.41497 21.0679 6.26641 21.0097 6.02986C20.8929 5.55389 20.6961 5.10249 20.4254 4.68824C20.257 4.43054 20.2419 4.20256 20.3866 3.93915C20.5102 3.71345 20.6058 3.47461 20.7348 3.19691C20.4199 2.91693 20.1087 2.6461 19.8047 2.3684C19.7084 2.28041 19.6158 2.27927 19.5031 2.32726C19.2549 2.43297 19.0054 2.53525 18.7559 2.6381C18.5857 2.70838 18.4259 2.69009 18.266 2.59867C17.7713 2.31583 17.2463 2.09871 16.6819 1.973C16.4409 1.91929 16.2998 1.78444 16.2241 1.5656C16.1521 1.35762 16.0552 1.1582 15.9765 0.951932C15.9298 0.829655 15.8572 0.765088 15.7112 0.767374C15.3479 0.772516 14.9852 0.771374 14.6219 0.767374C14.4923 0.76566 14.4148 0.817085 14.3712 0.929648C14.2882 1.14392 14.1956 1.35533 14.1156 1.57075C14.0357 1.78559 13.8934 1.91872 13.6506 1.97243C13.0965 2.09414 12.58 2.30841 12.0943 2.58724C11.9036 2.69695 11.7207 2.70495 11.5215 2.61353C11.2944 2.50954 11.0649 2.41069 10.83 2.32441C10.7579 2.29812 10.6314 2.28841 10.5865 2.32783C10.2577 2.62038 9.94286 2.92722 9.62192 3.23063L9.62374 3.23177Z" fill="#152B52"/>
<path d="M2.031 17.7753C1.79665 17.7696 1.6265 17.5902 1.638 17.3605C1.6489 17.1382 1.81603 16.9868 2.04492 16.9914C2.28714 16.9959 2.44216 17.1616 2.43247 17.4045C2.42339 17.6302 2.25989 17.781 2.031 17.7759V17.7753Z" fill="#152B52"/>
<path d="M15.1549 11.2203C13.0676 11.2752 11.1184 9.5319 11.2086 7.3572C11.2867 5.46762 12.8387 3.75974 15.1609 3.75174C17.5141 3.74317 19.1115 5.50819 19.1381 7.44862C19.1678 9.58789 17.2561 11.2815 15.1549 11.2203ZM17.8156 9.03022C18.4811 8.23713 18.6489 6.3727 17.1877 5.22763C15.8373 4.16942 13.9123 4.32598 12.7703 5.58361C11.914 6.52697 11.782 8.3697 12.5456 9.01593C12.8405 8.42969 13.3013 7.99258 13.9044 7.70231C13.5121 6.98979 13.4812 6.90066 13.5145 6.49497C13.5508 6.05443 13.7646 5.70017 14.1182 5.41448C14.6686 4.96937 15.5654 4.95451 16.1674 5.37505C16.4998 5.60704 16.702 5.9173 16.7995 6.28699C16.9358 6.80466 16.7487 7.25892 16.4217 7.69489C17.0666 7.98915 17.5056 8.44683 17.8156 9.03022ZM15.167 10.4678C15.8682 10.4444 16.4992 10.2547 17.0611 9.86387C17.178 9.78274 17.2168 9.69189 17.1514 9.5719C17.0418 9.3702 16.9521 9.15193 16.808 8.9748C16.2945 8.34227 15.5969 8.11143 14.777 8.24856C13.9971 8.37941 13.4848 8.83195 13.2069 9.52333C13.1191 9.74217 13.1342 9.75703 13.3377 9.90044C13.8833 10.2838 14.5082 10.4335 15.167 10.4678ZM14.3416 6.63668C14.3423 7.08864 14.7128 7.43719 15.1846 7.42919C15.646 7.42176 15.9972 7.08236 16.0002 6.64182C16.0033 6.18071 15.6502 5.83788 15.1749 5.84073C14.691 5.84359 14.3404 6.17842 14.3416 6.63668Z" fill="#152B52"/>
</g>
<defs>
<clipPath id="clip0_2722_3382">
<rect width="24" height="24" fill="white"/>
</clipPath>
</defs>
</svg>
