<svg width="16" height="16" viewBox="0 0 16 16" fill="none" xmlns="http://www.w3.org/2000/svg">
<path d="M14.3333 8.00001H12.926M12.926 8.00001C12.926 9.30655 12.4073 10.5592 11.4834 11.4831C10.5595 12.407 9.3065 12.926 7.99996 12.926M12.926 8.00001C12.926 6.69346 12.4073 5.44009 11.4834 4.51623C10.5595 3.59236 9.3065 3.07401 7.99996 3.07401M7.99996 1.66667V3.07401M7.99996 3.07401C6.6935 3.07401 5.44056 3.59233 4.51675 4.51613C3.59295 5.43993 3.07396 6.69288 3.07396 7.99934C3.07396 9.30579 3.59295 10.5587 4.51675 11.4825C5.44056 12.4064 6.6935 12.926 7.99996 12.926M1.66663 8.00001H3.07396M7.99996 14.3333V12.926" stroke="white" stroke-miterlimit="10" stroke-linecap="round"/>
<path d="M7.99997 10.8147C8.74647 10.8147 9.46239 10.5181 9.99024 9.99027C10.5181 9.46242 10.8146 8.7465 10.8146 8C10.8146 7.2535 10.5181 6.53758 9.99024 6.00973C9.46239 5.48188 8.74647 5.18533 7.99997 5.18533C7.25347 5.18533 6.53755 5.48188 6.0097 6.00973C5.48185 6.53758 5.1853 7.2535 5.1853 8C5.1853 8.7465 5.48185 9.46242 6.0097 9.99027C6.53755 10.5181 7.25347 10.8147 7.99997 10.8147Z" stroke="white" stroke-miterlimit="10" stroke-linecap="round"/>
</svg>
