<svg width="16" height="16" viewBox="0 0 16 16" fill="none" xmlns="http://www.w3.org/2000/svg">
<path fill-rule="evenodd" clip-rule="evenodd" d="M2.80004 3.46667L7.84004 7.24667C7.8862 7.28129 7.94234 7.3 8.00004 7.3C8.05774 7.3 8.11388 7.28129 8.16004 7.24667L13.2 3.46667H2.80004ZM13.8667 3.96667L8.64004 7.88667C8.4554 8.02515 8.23083 8.10001 8.00004 8.10001C7.76925 8.10001 7.54468 8.02515 7.36004 7.88667L2.13337 3.96667V12.5333H13.8667V3.96667ZM2.00004 2.66667H14C14.1769 2.66667 14.3464 2.73691 14.4714 2.86193C14.5965 2.98696 14.6667 3.15653 14.6667 3.33334V12.6667C14.6667 12.8435 14.5965 13.0131 14.4714 13.1381C14.3464 13.2631 14.1769 13.3333 14 13.3333H2.00004C1.82323 13.3333 1.65366 13.2631 1.52864 13.1381C1.40361 13.0131 1.33337 12.8435 1.33337 12.6667V3.33334C1.33337 3.15653 1.40361 2.98696 1.52864 2.86193C1.65366 2.73691 1.82323 2.66667 2.00004 2.66667Z" fill="white"/>
</svg>
