<svg width="16" height="16" viewBox="0 0 16 16" fill="none" xmlns="http://www.w3.org/2000/svg">
<path d="M11.086 9.26066L11.39 8.95866L10.684 8.24933L10.3813 8.55133L11.086 9.26066ZM12.4093 8.83199L13.6833 9.52466L14.16 8.64599L12.8866 7.95399L12.4093 8.83199ZM13.928 10.9007L12.9813 11.8427L13.686 12.5513L14.6326 11.61L13.928 10.9007ZM12.404 12.1453C11.4373 12.236 8.93729 12.1553 6.22929 9.46333L5.52395 10.172C8.47862 13.11 11.2913 13.254 12.4973 13.1413L12.404 12.1453ZM6.22929 9.46333C3.64862 6.89666 3.22062 4.73866 3.16729 3.80199L2.16862 3.85866C2.23529 5.03733 2.76529 7.42933 5.52395 10.172L6.22929 9.46333ZM7.14595 5.34333L7.33729 5.15266L6.63329 4.44399L6.44195 4.63399L7.14595 5.34333ZM7.48929 2.72933L6.64929 1.60666L5.84862 2.20666L6.68862 3.32866L7.48929 2.72933ZM3.82195 1.36199L2.77529 2.40199L3.48062 3.11133L4.52662 2.07133L3.82195 1.36199ZM6.79395 4.98866C6.44062 4.63399 6.44062 4.63399 6.44062 4.63533H6.43929L6.43729 4.63799C6.4056 4.66994 6.37724 4.705 6.35262 4.74266C6.31662 4.79599 6.27729 4.86599 6.24395 4.95466C6.1628 5.18354 6.14259 5.4296 6.18529 5.66866C6.27462 6.24533 6.67195 7.00733 7.68929 8.01933L8.39462 7.30999C7.44195 6.36333 7.21529 5.78733 7.17329 5.51533C7.15329 5.38599 7.17395 5.32199 7.17995 5.30733C7.18395 5.29844 7.18395 5.2971 7.17995 5.30333C7.17401 5.31253 7.16732 5.32122 7.15995 5.32933L7.15329 5.33599L7.14662 5.34199L6.79395 4.98866ZM7.68929 8.01933C8.70729 9.03133 9.47329 9.42599 10.0506 9.51399C10.346 9.55933 10.584 9.52333 10.7646 9.45599C10.8658 9.41898 10.9604 9.36585 11.0446 9.29866L11.078 9.26866L11.0826 9.26466L11.0846 9.26266L11.0853 9.26133C11.0853 9.26133 11.086 9.26066 10.7333 8.90599C10.38 8.55133 10.382 8.55066 10.382 8.55066L10.3833 8.54933L10.3846 8.54799L10.3886 8.54466L10.3953 8.53799L10.4206 8.51799C10.4268 8.51399 10.4253 8.51444 10.416 8.51933C10.3993 8.52533 10.334 8.54599 10.2026 8.52599C9.92662 8.48333 9.34662 8.25666 8.39462 7.30999L7.68929 8.01933ZM6.64929 1.60599C5.96929 0.699327 4.63329 0.555327 3.82195 1.36199L4.52662 2.07133C4.88129 1.71866 5.51062 1.75533 5.84862 2.20666L6.64929 1.60599ZM3.16795 3.80266C3.15462 3.57199 3.26062 3.33066 3.48062 3.11199L2.77462 2.40266C2.41662 2.75866 2.13462 3.26266 2.16862 3.85866L3.16795 3.80266ZM12.9813 11.8427C12.7986 12.0253 12.6013 12.128 12.4046 12.146L12.4973 13.1413C12.9873 13.0953 13.388 12.8487 13.6866 12.552L12.9813 11.8427ZM7.33729 5.15266C7.99395 4.49999 8.04262 3.46866 7.48995 2.72999L6.68929 3.32933C6.95795 3.68866 6.91795 4.15999 6.63262 4.44466L7.33729 5.15266ZM13.684 9.52533C14.2286 9.82133 14.3133 10.5187 13.9286 10.9013L14.634 11.61C15.5273 10.7213 15.252 9.23933 14.1606 8.64666L13.684 9.52533ZM11.39 8.95933C11.646 8.70466 12.058 8.64199 12.41 8.83266L12.8873 7.95466C12.1646 7.56133 11.2686 7.66999 10.6846 8.24999L11.39 8.95933Z" fill="white"/>
</svg>
