<svg width="24" height="24" viewBox="0 0 24 24" fill="none" xmlns="http://www.w3.org/2000/svg">
<path d="M15.289 10.539H16.173V8.846H18.25C18.5493 8.846 18.8037 8.74134 19.013 8.532C19.2223 8.32267 19.327 8.06834 19.327 7.769V6.54C19.327 6.24 19.2223 5.98567 19.013 5.777C18.8037 5.56767 18.5493 5.463 18.25 5.463H15.288L15.289 10.539ZM16.173 7.962V6.346H18.443V7.962H16.173ZM13.616 13C13.1553 13 12.771 12.846 12.463 12.538C12.155 12.23 12.0007 11.8433 12 11.378V4.622C12 4.15734 12.1543 3.77067 12.463 3.462C12.7717 3.15334 13.158 2.99934 13.622 3H20.378C20.8427 3 21.2293 3.15434 21.538 3.463C21.8467 3.77167 22.0007 4.158 22 4.622V11.378C22 11.8427 21.846 12.2293 21.538 12.538C21.23 12.8467 20.8457 13.0007 20.385 13H17.5V20H16.5V13H13.616ZM13.616 12H20.385C20.5643 12 20.7117 11.9423 20.827 11.827C20.9423 11.7117 21 11.5643 21 11.385V4.615C21 4.43567 20.9423 4.28834 20.827 4.173C20.7117 4.05767 20.5643 4 20.385 4H13.615C13.4357 4 13.2883 4.05767 13.173 4.173C13.0577 4.28834 13 4.436 13 4.616V11.385C13 11.5643 13.0577 11.7117 13.173 11.827C13.2883 11.9423 13.436 12 13.616 12ZM9.558 20C9.416 20 9.29733 19.952 9.202 19.856C9.10667 19.76 9.05867 19.6413 9.058 19.5V18H3V17H9.289V12.154H3V11.154H8.873L7.4 7H3V6H7.635C7.78633 6 7.92367 6.046 8.047 6.138C8.17033 6.23 8.256 6.35067 8.304 6.5L10.289 12.154V19.5C10.289 19.642 10.241 19.7607 10.145 19.856C10.049 19.9513 9.93033 19.9993 9.789 20H9.558ZM6.87 15.692C7.18133 15.692 7.44433 15.5833 7.659 15.366C7.87367 15.148 7.981 14.8837 7.981 14.573C7.981 14.2617 7.872 13.9983 7.654 13.783C7.43667 13.569 7.17233 13.462 6.861 13.462C6.54967 13.462 6.28667 13.5707 6.072 13.788C5.85733 14.0053 5.75 14.2697 5.75 14.581C5.75 14.8923 5.859 15.1557 6.077 15.371C6.29433 15.585 6.55867 15.692 6.87 15.692Z" fill="white"/>
</svg>
