<svg width="24" height="24" viewBox="0 0 24 24" fill="none" xmlns="http://www.w3.org/2000/svg">
<path d="M12.5 8L10 12H14L11.5 16" stroke="#152B52" stroke-width="1.5" stroke-linecap="round" stroke-linejoin="round"/>
<path d="M21.011 14.14C21.533 13.995 21.794 13.924 21.897 13.786C22 13.648 22 13.428 22 12.986V11.014C22 10.572 22 10.351 21.897 10.214C21.794 10.076 21.533 10.004 21.011 9.86101C19.061 9.32401 17.84 7.24401 18.343 5.26701C18.482 4.72301 18.551 4.45101 18.485 4.29201C18.419 4.13301 18.229 4.02201 17.85 3.80201L16.125 2.80401C15.753 2.58801 15.567 2.48001 15.4 2.50401C15.233 2.52601 15.044 2.71801 14.667 3.10201C14.3182 3.4547 13.903 3.7347 13.4453 3.9258C12.9876 4.1169 12.4965 4.2153 12.0005 4.2153C11.5045 4.2153 11.0134 4.1169 10.5557 3.9258C10.098 3.7347 9.68275 3.4547 9.334 3.10201C8.957 2.71801 8.769 2.52601 8.602 2.50301C8.435 2.48001 8.249 2.58801 7.877 2.80301L6.152 3.80301C5.772 4.02301 5.582 4.13301 5.517 4.29201C5.451 4.45201 5.52 4.72301 5.658 5.26701C6.161 7.24401 4.94 9.32401 2.989 9.86101C2.467 10.005 2.206 10.076 2.103 10.214C2 10.352 2 10.572 2 11.014V12.987C2 13.428 2 13.649 2.103 13.787C2.206 13.924 2.467 13.995 2.989 14.139C4.939 14.676 6.16 16.756 5.657 18.733C5.518 19.277 5.449 19.549 5.515 19.708C5.581 19.867 5.771 19.978 6.15 20.198L7.875 21.197C8.247 21.412 8.433 21.52 8.6 21.497C8.767 21.474 8.956 21.282 9.333 20.898C9.6818 20.5449 10.0972 20.2645 10.5552 20.0731C11.0132 19.8818 11.5046 19.7832 12.001 19.7832C12.4974 19.7832 12.9888 19.8818 13.4468 20.0731C13.9048 20.2645 14.3202 20.5449 14.669 20.898C15.046 21.282 15.234 21.474 15.401 21.497C15.568 21.52 15.754 21.412 16.127 21.197L17.851 20.197C18.231 19.977 18.421 19.867 18.486 19.708C18.552 19.548 18.483 19.277 18.345 18.733C17.841 16.756 19.061 14.676 21.011 14.139V14.14Z" stroke="#152B52" stroke-width="1.5" stroke-linecap="round"/>
</svg>
