<svg width="24" height="24" viewBox="0 0 24 24" fill="none" xmlns="http://www.w3.org/2000/svg">
<path d="M11.76 15.759L13.3735 16.353H19.264C20.813 16.353 21.2 17.597 21.1885 18.1505L14.6415 20.595C14.2555 20.739 13.8025 20.7065 13.4055 20.595L8.0435 19.09V11.07H9.7185L16.1935 13.5105C17.3135 13.9325 16.9135 15.4365 15.925 15.5405M4.52 11.1085C5.5 11.1085 6.29 11.911 6.29 12.9085V18.9785C6.29 19.9755 5.5 20.7785 4.52 20.7785C3.5395 20.7785 2.75 19.9755 2.75 18.9785V12.9085C2.75 11.911 3.5395 11.1085 4.52 11.1085ZM17.216 11.6785L20.0455 8.83751C21.1195 7.75851 21.2715 7.01301 21.248 5.85451C21.2205 4.49751 19.939 3.28951 18.3665 3.22351C17.6535 3.19351 16.793 3.52101 15.9655 4.21501C15.138 3.52101 14.2775 3.19351 13.5645 3.22351C11.992 3.28951 10.7105 4.49751 10.683 5.85451C10.6595 7.01301 10.8115 7.75851 11.8855 8.83751L14.7155 11.6785C15.0095 11.9735 15.361 12.205 15.9655 12.205C16.57 12.205 16.922 11.974 17.216 11.6785Z" stroke="#152B52" stroke-linecap="round" stroke-linejoin="round"/>
</svg>
