<svg width="24" height="24" viewBox="0 0 24 24" fill="none" xmlns="http://www.w3.org/2000/svg">
<g clip-path="url(#clip0_2625_1977)">
<path d="M10.9999 19.67C10.9522 19.3244 10.8545 18.9875 10.7099 18.67C10.5859 18.4064 10.3923 18.1817 10.1499 18.02C9.61888 17.7129 9.03584 17.5061 8.42994 17.41C7.59504 17.2775 6.75396 17.1873 5.90993 17.14C5.51367 17.1227 5.11925 17.0759 4.72994 17C4.5521 16.9681 4.38622 16.8886 4.24994 16.77C4.13994 16.66 4.17994 16.45 4.18994 16.25C4.18994 15.89 4.27994 15.52 4.29994 15.25C4.29994 14.6 4.40993 13.96 4.44993 13.31V11.98C4.44393 11.6095 4.36934 11.2433 4.22994 10.9C4.12003 10.634 3.94038 10.4025 3.70994 10.23C3.38075 10.0781 3.02247 9.99963 2.65994 10C2.15883 9.93304 1.65104 9.93304 1.14994 10C1.11146 10.0071 1.07482 10.0219 1.04222 10.0436C1.00962 10.0652 0.981732 10.0932 0.960243 10.1259C0.938755 10.1586 0.924106 10.1953 0.917178 10.2338C0.910251 10.2724 0.911189 10.3119 0.919935 10.35C0.927148 10.3888 0.941923 10.4257 0.963419 10.4587C0.984914 10.4918 1.01271 10.5202 1.04521 10.5425C1.07771 10.5648 1.11429 10.5805 1.15285 10.5886C1.19141 10.5968 1.23119 10.5972 1.26994 10.59C1.63209 10.5486 1.99778 10.5486 2.35993 10.59C2.69078 10.6008 3.01377 10.6936 3.29994 10.86C3.42938 10.9779 3.51415 11.1368 3.53994 11.31C3.57312 11.5288 3.57312 11.7513 3.53994 11.97C3.53994 12.28 3.53994 12.59 3.45994 12.9C3.37994 13.65 3.24994 14.39 3.14994 15.14C3.05594 15.6287 3.00927 16.122 3.00994 16.62C3.02394 16.947 3.14693 17.26 3.35994 17.51C3.57827 17.7318 3.84535 17.8996 4.13994 18C4.68243 18.141 5.23954 18.2182 5.79994 18.23C6.49994 18.23 7.39993 18.23 8.22993 18.38C8.71993 18.425 9.19794 18.56 9.63994 18.78C9.7789 18.8685 9.88716 18.9977 9.94993 19.15C10.0419 19.3587 10.1086 19.5753 10.1499 19.8C10.2533 20.232 10.3299 20.6687 10.3799 21.11C10.4059 21.55 10.4059 21.99 10.3799 22.43C10.3746 22.5202 10.4054 22.6088 10.4654 22.6763C10.5254 22.7438 10.6098 22.7847 10.6999 22.79C10.7901 22.7953 10.8787 22.7646 10.9462 22.7046C11.0137 22.6446 11.0546 22.5602 11.0599 22.47C11.0866 22 11.0866 21.53 11.0599 21.06C11.0648 20.5959 11.0447 20.1319 10.9999 19.67ZM7.99994 6.87001C8.42258 6.90541 8.84817 6.87163 9.25994 6.77001C9.68284 6.67353 10.0834 6.49702 10.4399 6.25001C10.9623 5.83342 11.3631 5.28418 11.6006 4.6597C11.8381 4.03521 11.9035 3.3584 11.7899 2.70001C11.7283 2.03232 11.4395 1.40597 10.9718 0.925512C10.5041 0.445052 9.88573 0.139552 9.21994 0.0600052C7.21994 -0.159995 6.60993 0.260005 6.07994 0.660005C5.38313 1.17355 4.90483 1.93026 4.73993 2.78001C4.66163 3.26121 4.68245 3.75334 4.8011 4.22622C4.91974 4.6991 5.13373 5.14276 5.42993 5.53001C5.74207 5.91926 6.1317 6.23939 6.57412 6.47007C7.01654 6.70075 7.50209 6.83694 7.99994 6.87001ZM9.10993 0.790005C9.58358 0.879001 10.0136 1.12455 10.3309 1.48724C10.6483 1.84994 10.8346 2.30874 10.8599 2.79001C10.9183 3.26856 10.847 3.75402 10.6535 4.19558C10.46 4.63715 10.1514 5.01859 9.75994 5.30001C9.53211 5.46776 9.27406 5.58999 8.99994 5.66001C8.70518 5.7286 8.40175 5.7522 8.09994 5.73001C7.75242 5.70602 7.41313 5.61324 7.10177 5.45704C6.79041 5.30085 6.51317 5.08436 6.28617 4.82014C6.05917 4.55592 5.88691 4.24924 5.77941 3.9179C5.6719 3.58656 5.63129 3.23717 5.65993 2.89001C5.67993 2.65001 5.99994 0.260005 9.10993 0.790005Z" fill="white"/>
<path d="M15.998 13.46C15.326 13.0723 14.6067 12.7732 13.858 12.57C13.1195 12.3518 12.3573 12.2242 11.588 12.19C11.2096 12.1793 10.842 12.0614 10.528 11.85C10.387 11.7512 10.2675 11.625 10.1764 11.479C10.0853 11.333 10.0247 11.17 9.998 11C9.99407 10.1591 9.92385 9.31985 9.788 8.49C9.288 7.22 6.998 6.92 6.119 8.8C5.72321 9.87738 5.54973 11.0238 5.609 12.17C5.639 13.01 5.978 13.811 6.559 14.42C7.10226 15.0029 7.76365 15.4631 8.499 15.77C9.379 16.15 10.699 15.9 11.679 16.23C11.8353 16.2715 11.9811 16.3455 12.1069 16.4471C12.2327 16.5488 12.3357 16.6759 12.409 16.82C12.7298 17.4649 12.9297 18.1631 12.999 18.88C13.073 19.617 13.073 20.361 12.999 21.1C12.9161 21.8854 13.1381 22.6726 13.619 23.299C13.8068 23.5185 14.0399 23.6948 14.3023 23.8156C14.5647 23.9365 14.8501 23.999 15.139 23.999C15.7796 24.0166 16.4025 23.7875 16.879 23.359C17.346 22.949 17.665 22.399 17.789 21.789C18.1031 20.08 18.1031 18.328 17.789 16.619C17.7168 15.9994 17.5212 15.4006 17.2138 14.8579C16.9063 14.3151 16.4933 13.8395 15.999 13.459M16.619 21.579C16.5459 21.9342 16.3558 22.2547 16.079 22.489C15.9553 22.6073 15.8095 22.6999 15.6499 22.7617C15.4903 22.8235 15.3201 22.8532 15.149 22.849C14.9813 22.8518 14.8159 22.8097 14.67 22.7271C14.524 22.6445 14.4028 22.5243 14.319 22.379C14.1273 22.0171 14.0472 21.6064 14.089 21.199C14.174 20.384 14.174 19.563 14.089 18.749C13.9945 17.9047 13.7472 17.0847 13.359 16.329C13.2203 16.065 13.0275 15.8333 12.7931 15.6489C12.5588 15.4645 12.2882 15.3317 11.999 15.259C10.999 14.959 9.739 15.259 8.869 14.909C8.24304 14.6695 7.67416 14.3016 7.199 13.829C6.7501 13.3819 6.47411 12.7902 6.42 12.159C6.33534 11.1252 6.45773 10.0849 6.78 9.099C7.36 7.799 8.88 7.909 9.15 8.689C9.25089 9.47806 9.28434 10.2743 9.25 11.069C9.28382 11.3457 9.37513 11.6124 9.51807 11.8517C9.661 12.0911 9.85241 12.298 10.08 12.459C10.51 12.78 11.024 12.969 11.56 12.999C12.24 13.061 12.911 13.202 13.56 13.419C14.22 13.621 14.852 13.906 15.44 14.269C16.184 14.9175 16.6407 15.8345 16.71 16.819C16.965 18.398 16.934 20.009 16.62 21.579M22.638 3.44C22.3371 2.56705 21.7722 1.8093 21.0214 1.27178C20.2707 0.734247 19.3713 0.443561 18.448 0.440002C17.523 0.511898 16.6348 0.833306 15.878 1.37C15.4793 1.67067 15.1093 2.004 14.768 2.37C14.5307 2.622 14.3207 2.89534 14.138 3.19C13.5578 4.20496 13.3161 5.37838 13.448 6.54C13.5034 7.14549 13.6961 7.73038 14.0115 8.25022C14.3269 8.77006 14.7566 9.21116 15.268 9.54C15.72 9.819 16.203 10.04 16.708 10.2C17.2244 10.3544 17.7592 10.4385 18.298 10.45C19.3476 10.4406 20.3657 10.0896 21.198 9.45C22.0269 8.81856 22.6329 7.93933 22.928 6.94C23.2149 5.77288 23.1131 4.54399 22.638 3.44ZM21.998 6.64C21.7268 7.42098 21.2202 8.09872 20.548 8.58C19.8932 9.06211 19.1011 9.32148 18.288 9.32C17.8601 9.31027 17.4359 9.23956 17.028 9.11C16.6137 8.97998 16.2172 8.79857 15.848 8.57C15.473 8.33064 15.1575 8.00903 14.9254 7.62959C14.6932 7.25014 14.5505 6.82281 14.508 6.38C14.3823 5.43471 14.5536 4.47372 14.998 3.63C15.164 3.32 15.3673 3.03667 15.608 2.78C15.858 2.516 16.1247 2.26934 16.408 2.04C16.9233 1.63602 17.5205 1.34935 18.158 1.2C20.208 0.740002 21.538 2.64 21.928 3.73C22.2629 4.66738 22.2874 5.6876 21.998 6.64Z" fill="white"/>
<path d="M19.5879 5.72999H18.8979C18.3779 5.67999 18.7879 5.45999 18.8079 5.08999V4.46999C18.8079 4.01999 18.7079 3.56999 18.6279 2.96999C18.6293 2.93059 18.6228 2.89131 18.609 2.8544C18.5951 2.81749 18.5741 2.78367 18.5472 2.75488C18.5202 2.72609 18.4879 2.70289 18.452 2.68661C18.4161 2.67033 18.3773 2.66128 18.3379 2.65999C18.2982 2.65725 18.2583 2.66271 18.2208 2.67605C18.1833 2.68939 18.1489 2.71032 18.1198 2.73752C18.0907 2.76473 18.0676 2.79764 18.0517 2.83419C18.0359 2.87075 18.0278 2.91017 18.0279 2.94999C17.9079 3.54999 17.7979 3.94999 17.7279 4.42999C17.7279 4.64999 17.7279 4.85999 17.6779 5.07999C17.6533 5.35066 17.6533 5.62066 17.6779 5.88999C17.6983 6.07056 17.7836 6.23757 17.9179 6.35999C18.1079 6.51299 18.3439 6.60099 18.5879 6.60999C18.9413 6.58154 19.2921 6.52807 19.6379 6.44999C19.6826 6.44744 19.7263 6.4361 19.7666 6.41661C19.8069 6.39712 19.8429 6.36987 19.8727 6.33643C19.9024 6.30298 19.9252 6.264 19.9399 6.22171C19.9545 6.17942 19.9606 6.13466 19.9579 6.08999C19.9628 6.04063 19.9565 5.99079 19.9395 5.94419C19.9225 5.8976 19.8952 5.85543 19.8597 5.82084C19.8241 5.78624 19.7812 5.76011 19.7342 5.74438C19.6871 5.72865 19.6371 5.72374 19.5879 5.72999Z" fill="white"/>
</g>
<defs>
<clipPath id="clip0_2625_1977">
<rect width="24" height="24" fill="white"/>
</clipPath>
</defs>
</svg>
