<svg width="104" height="105" viewBox="0 0 104 105" fill="none" xmlns="http://www.w3.org/2000/svg">
<g clip-path="url(#clip0_1694_408)">
<path d="M15.7458 13.4155C18.1093 6.28221 22.8278 1.76889 30.0997 0.341645C39.1571 -1.43879 47.8522 3.89962 50.7966 12.796C50.9576 13.2824 51.156 13.4329 51.6564 13.4271C54.3333 13.401 57.0103 13.4213 59.6873 13.4097C60.478 13.4068 61.0876 13.6877 61.5649 14.3361C63.109 16.4292 64.6674 18.5107 66.2259 20.5894C66.6083 21.0989 66.7866 21.6518 66.7808 22.2945C66.7636 24.2371 66.778 26.1796 66.7751 28.1222C66.7751 29.5234 66.085 30.2095 64.6847 30.2153C64.2879 30.2153 63.8911 30.2153 63.4655 30.2153V77.2621C64.8745 77.2621 66.2604 77.2679 67.6463 77.2506C67.7958 77.2506 67.9712 77.1319 68.0863 77.019C76.951 68.0994 85.813 59.1741 94.672 50.2488C94.9682 49.9506 95.2586 49.6495 95.5576 49.36C96.4403 48.5118 97.2225 48.5089 98.1052 49.3716C99.0282 50.2748 99.9339 51.1954 100.843 52.1103C101.446 52.7153 102.047 53.3233 102.643 53.9341C103.755 55.0777 103.752 55.7898 102.634 56.916C97.3691 62.2081 92.1014 67.5002 86.8395 72.7951C84.6628 74.9838 82.489 77.1753 80.3325 79.3842C80.183 79.5376 80.1341 79.8503 80.1341 80.0906C80.1226 86.8446 80.1255 93.6016 80.1255 100.356C80.1255 100.969 80.1312 101.58 80.1255 102.194C80.1082 103.401 79.4066 104.11 78.2076 104.145C78.0696 104.148 77.9287 104.145 77.7907 104.145C53.7468 104.145 29.7029 104.145 5.65895 104.145C3.95098 104.145 3.34427 103.531 3.34427 101.797C3.34427 78.2059 3.34427 54.6145 3.34427 31.023V30.2095C2.89859 30.2095 2.47016 30.2095 2.0446 30.2095C0.724802 30.2008 0.0088334 29.4886 0.00595802 28.1656C0.000207269 26.171 -0.0227957 24.1734 0.0232103 22.1816C0.0347118 21.7039 0.181356 21.151 0.454517 20.7718C2.0331 18.5744 3.66631 16.4205 5.28227 14.2493C5.73658 13.6413 6.35191 13.401 7.09664 13.4039C9.79087 13.4126 12.4851 13.4068 15.1793 13.4068C15.3835 13.4068 15.5905 13.4068 15.7371 13.4068L15.7458 13.4155ZM6.72284 30.2182V90.666H10.0266C10.0266 90.3968 10.0266 90.1681 10.0266 89.9423C10.0266 76.3965 10.0266 62.8508 10.0266 49.305C10.0266 47.652 10.6535 47.0208 12.2982 47.0208C20.8007 47.0208 29.3003 47.0208 37.8028 47.0208C39.4446 47.0208 40.0715 47.652 40.0715 49.305C40.0715 62.8681 40.0715 76.4313 40.0715 89.9944V90.6747H60.064V73.9039C59.8167 73.9039 59.6096 73.9039 59.4026 73.9039C54.8135 73.9039 50.2244 73.9039 45.6324 73.9039C44.0654 73.9039 43.4098 73.2468 43.4098 71.6748C43.4098 64.2027 43.4098 56.7278 43.4098 49.2558C43.4098 47.6751 44.0567 47.0179 45.6238 47.0179C50.2302 47.0179 54.8365 47.0179 59.4458 47.0179H60.0697V30.2153H59.4716C55.8199 30.2153 52.171 30.2269 48.5193 30.2037C47.8637 30.2008 47.418 30.3456 46.9264 30.8696C42.9066 35.1687 37.9437 37.2357 32.0722 36.8246C27.1035 36.4772 22.9141 34.4217 19.639 30.5974C19.3774 30.2935 19.1243 30.2066 18.7534 30.2066C15.8148 30.2182 12.8761 30.2124 9.94039 30.2124C8.88225 30.2124 7.82411 30.2124 6.72571 30.2124L6.72284 30.2182ZM13.3851 100.752H36.69V50.4109H13.3851V100.752ZM32.9492 33.5359C40.8909 34.0222 47.8724 27.5779 48.3957 19.3677C48.9535 10.5842 41.9721 3.65065 34.0332 3.31482C26.0856 2.97611 18.9259 9.31618 18.3739 17.3585C17.7413 26.6052 25.3093 33.6314 32.9492 33.5359ZM60.0611 70.5197V50.4225H46.7711V70.5197H60.0611ZM76.7526 100.764V80.6667H63.4627V100.764H76.7526ZM60.0582 100.764V94.1053H40.0945V100.764H60.0582ZM17.0368 26.8368C16.5911 25.7049 16.1685 24.625 15.7343 23.522H3.37878V26.8368H17.0368ZM49.7759 26.8252H63.3994V23.4931C59.3336 23.4931 55.3023 23.4931 51.2711 23.5017C51.1618 23.5017 50.9864 23.5915 50.9519 23.6841C50.5493 24.7205 50.1698 25.7628 49.7759 26.8252ZM15.0758 16.8403C15.0471 16.8172 15.0356 16.7969 15.0212 16.7969C12.5742 16.7882 10.1273 16.7795 7.68034 16.7853C7.55382 16.7853 7.38993 16.8895 7.30942 16.9967C6.69696 17.7986 6.09888 18.615 5.49793 19.4285C5.34266 19.6398 5.19026 19.8569 5.02062 20.0914H15.0758V16.8403ZM51.7714 16.7766V20.103H61.8122C60.987 18.9971 60.2106 17.952 59.4199 16.9185C59.3509 16.8287 59.1812 16.7824 59.0547 16.7795C56.6423 16.7708 54.2298 16.7737 51.7714 16.7737V16.7766ZM6.72284 94.0909V100.746H9.99502V94.0909H6.72284ZM85.882 63.6903C85.9021 63.7337 85.9193 63.7772 85.9395 63.8206C87.6359 63.8206 89.3353 63.8264 91.0318 63.809C91.1784 63.809 91.3509 63.6816 91.466 63.5658C92.3343 62.7089 93.194 61.8404 94.0509 60.9719C94.1774 60.8445 94.2838 60.6969 94.4075 60.5492C94.3183 60.5 94.2924 60.4711 94.2637 60.4711C92.6305 60.4653 90.9944 60.4624 89.3612 60.4682C89.2318 60.4682 89.065 60.5058 88.9816 60.5898C87.9407 61.6146 86.9114 62.6539 85.8791 63.6903H85.882ZM79.2025 70.4097C79.2226 70.4531 79.2398 70.4965 79.26 70.5399C80.9564 70.5399 82.6558 70.5457 84.3523 70.5283C84.4989 70.5283 84.6714 70.401 84.7864 70.2852C85.6548 69.4282 86.5145 68.5597 87.3714 67.6912C87.4979 67.5639 87.6043 67.4162 87.728 67.2686C87.6417 67.2193 87.6129 67.1904 87.5842 67.1904C85.951 67.1846 84.3149 67.1817 82.6817 67.1875C82.5523 67.1875 82.3855 67.2251 82.2992 67.3091C81.2584 68.3339 80.229 69.3732 79.1967 70.4068L79.2025 70.4097ZM81.1146 74.0197C80.9679 73.9416 80.9392 73.9126 80.9104 73.9126C79.2772 73.9097 77.6411 73.9039 76.0079 73.9126C75.8642 73.9126 75.6859 73.9705 75.5881 74.0689C74.576 75.0764 73.5782 76.1012 72.5776 77.1203C72.5632 77.1348 72.5834 77.1811 72.592 77.2679C73.9003 77.2679 75.2201 77.2013 76.5312 77.2911C77.483 77.3548 78.1702 77.0798 78.7942 76.356C79.4986 75.5425 80.3095 74.8216 81.1146 74.0226V74.0197ZM92.6017 57.0636C92.665 57.0752 92.7282 57.0984 92.7886 57.0984C94.3873 57.0984 95.986 57.1042 97.5847 57.0955C97.7314 57.0955 97.9125 57.055 98.0161 56.9623C98.5509 56.4991 99.0684 56.0127 99.5112 55.6074C98.5279 54.5797 97.6566 53.6678 96.8372 52.8109C95.4282 54.2236 94.0222 55.6364 92.5988 57.0636H92.6017Z" fill="#E68531"/>
<path d="M24.9918 67.1847C22.9417 67.1847 20.8886 67.1847 18.8385 67.1847C17.3836 67.1847 16.7021 66.4957 16.6992 65.0308C16.6992 61.9853 16.6992 58.9397 16.6992 55.8942C16.6992 54.4264 17.3807 53.7432 18.8414 53.7432C22.9963 53.7432 27.1512 53.7432 31.3061 53.7432C32.6892 53.7432 33.3879 54.4467 33.3879 55.8449C33.3879 58.9252 33.3879 62.0055 33.3879 65.0858C33.3879 66.4899 32.6978 67.1789 31.3004 67.1818C29.1956 67.1847 27.0937 67.1818 24.9889 67.1818L24.9918 67.1847ZM20.0634 57.1245V63.7918H30.0151V57.1245H20.0634Z" fill="#E68531"/>
<path d="M33.3495 80.6058H30.0889V73.9357H33.3495V80.6058Z" fill="#E68531"/>
<path d="M40.0797 25.1432V23.522C39.8756 23.5133 39.7088 23.496 39.542 23.496C38.1848 23.496 36.8305 23.496 35.4734 23.4931C35.2663 23.4931 35.0536 23.4815 34.8523 23.4352C33.5814 23.1514 33.0609 21.9761 33.7481 20.8731C34.4411 19.7614 35.1801 18.6815 35.9018 17.5901C37.3452 15.4073 38.7858 13.2216 40.2407 11.0445C40.9481 9.99072 41.9142 9.78228 42.7596 10.4771C43.2599 10.8853 43.4008 11.4498 43.4008 12.0722C43.4008 14.5388 43.4008 17.0082 43.4008 19.4748V20.1088H45.034V23.4786H43.4209V25.1432H40.074H40.0797ZM40.0251 20.1146V17.2659C39.358 18.2762 38.7714 19.165 38.1446 20.1146H40.0251Z" fill="#E68531"/>
<path d="M21.7266 15.0946C21.8617 12.4369 23.4374 10.532 25.9304 10.1643C27.831 9.88642 29.4728 10.4509 30.6431 11.9969C31.8536 13.5949 32.0549 15.4188 31.2239 17.2455C30.8645 18.0359 30.2808 18.7452 29.7057 19.411C29.0128 20.2129 28.222 20.928 27.3796 21.7762H31.6897V25.1576C31.5604 25.1634 31.4453 25.1721 31.3274 25.1721C28.7885 25.1721 26.2495 25.1953 23.7134 25.1518C23.2448 25.1431 22.7071 24.9637 22.3275 24.6857C21.5943 24.1473 21.5454 23.2151 22.1234 22.5087C22.3994 22.1729 22.7157 21.8689 23.0205 21.5591C24.5186 20.0479 26.0253 18.5454 27.5204 17.0284C28.061 16.4784 28.4377 15.8501 28.3917 15.028C28.3457 14.1768 27.7677 13.5023 26.9655 13.4068C26.0741 13.2996 25.2834 13.7744 25.0994 14.6285C25.0102 15.0511 24.8233 15.1032 24.4725 15.0946C23.5726 15.0772 22.6697 15.0888 21.7266 15.0888V15.0946Z" fill="#E68531"/>
<path d="M65.1074 87.1978C65.116 84.5459 67.4595 82.2415 70.1796 82.3428C73.1355 82.4528 75.0275 84.462 75.0879 87.3396C75.1454 90.0928 72.7904 92.3769 70.0588 92.3798C67.3617 92.3856 65.1017 90.0146 65.1103 87.1949L65.1074 87.1978ZM71.784 87.3107C71.7812 86.3669 71.0681 85.6431 70.1451 85.6431C69.1588 85.6431 68.4285 86.3727 68.4285 87.357C68.4285 88.321 69.1445 89.0419 70.1048 89.0477C71.0911 89.0535 71.7869 88.3326 71.784 87.3107Z" fill="#E68531"/>
</g>
<defs>
<clipPath id="clip0_1694_408">
<rect width="103.479" height="104.151" fill="white"/>
</clipPath>
</defs>
</svg>
