<svg width="147" height="105" viewBox="0 0 147 105" fill="none" xmlns="http://www.w3.org/2000/svg">
<g clip-path="url(#clip0_1694_467)">
<path d="M11.3191 28.4156C9.16721 28.4156 7.02235 28.4156 4.87749 28.4156C1.8571 28.412 0.0497942 26.7165 0.0286972 23.7025C-0.0134968 17.4667 -0.00646442 11.2309 0.0322134 4.99502C0.046278 2.40409 1.23123 0.712063 3.29521 0.179778C3.82616 0.0423008 4.39577 0.0141003 4.94781 0.0141003C10.1342 0 15.324 0 20.5104 0C23.3971 0.00352507 25.1517 1.58628 25.222 4.49798C25.3275 8.93252 25.2923 13.367 25.2959 17.8051C25.2959 19.9836 25.3205 22.1656 25.2044 24.3406C25.0814 26.6918 23.2705 28.3627 20.9077 28.3979C18.7312 28.4332 16.5547 28.3979 14.3782 28.3909C14.2305 28.3909 14.0793 28.405 13.8683 28.4156V101.758H29.3289C28.6327 99.2376 28.9984 96.6961 29.0546 94.1827C29.1742 88.9903 29.4098 83.7979 29.5961 78.6054C29.6418 77.3153 29.7754 76.0216 29.7192 74.7349C29.6032 72.0559 29.3957 69.3839 29.2129 66.7083C29.132 65.5451 29.016 64.3853 28.9175 63.2256C28.7663 61.4807 29.466 60.1129 30.8198 59.0695C31.7199 58.3751 32.6622 57.7335 33.594 57.0779C34.4625 56.4645 35.1095 55.6925 35.5068 54.6843C36.0799 53.2285 36.7128 51.7973 37.3739 50.2287C36.5124 50.1335 35.7494 50.0383 34.9864 49.9608C33.4534 49.8056 31.9062 49.7316 30.3837 49.4954C28.6643 49.2311 27.7783 47.8492 28.0174 46.129C28.3584 43.6897 29.5153 41.8954 31.9273 41.1128C32.5392 40.9154 33.2178 40.8696 33.8647 40.8485C35.0532 40.8062 36.2417 40.8238 37.4337 40.8344C39.1812 40.852 40.011 41.5958 40.2607 43.3301C40.2712 43.3971 40.3239 43.4605 40.4189 43.6474C40.556 43.4006 40.658 43.2279 40.7459 43.0481C43.5061 37.3974 46.6108 31.9477 50.3802 26.9068C52.416 24.189 55.1551 22.8777 58.5623 22.8883C66.0271 22.9129 73.4919 22.8988 80.9603 22.8988C89.9441 22.8988 98.9279 22.9094 107.912 22.8918C110.531 22.8847 113.035 23.2725 115.081 25.0456C116.027 25.8669 116.881 26.8328 117.613 27.8515C121.101 32.7161 124.072 37.8909 126.653 43.2913C126.706 43.4041 126.772 43.5099 126.888 43.7284C126.969 43.4641 127.036 43.2984 127.068 43.1221C127.317 41.7156 128.035 40.9366 129.417 40.8767C131.055 40.8026 132.715 40.7674 134.346 40.9154C137.191 41.1798 138.903 43.1644 139.311 46.4392C139.501 47.955 138.548 49.2698 137.04 49.506C136.192 49.64 135.334 49.7034 134.476 49.781C133.021 49.9149 131.561 50.0383 130.116 50.1652C130.085 50.2287 130.035 50.2851 130.046 50.3168C130.791 52.1146 131.473 53.9406 132.328 55.6819C132.63 56.2953 133.33 56.7359 133.9 57.1836C134.793 57.8886 135.763 58.4949 136.646 59.2105C137.957 60.2716 138.544 61.6745 138.386 63.3666C138.098 66.3911 137.803 69.4156 137.514 72.4436C137.483 72.7714 137.462 73.1028 137.476 73.4306C137.75 81.0272 138.038 88.6237 138.305 96.2237C138.351 97.4892 138.355 98.7582 138.305 100.024C138.284 100.591 138.084 101.152 137.95 101.804C138.189 101.804 138.432 101.804 138.671 101.804C140.619 101.804 142.567 101.8 144.518 101.807C144.87 101.807 145.313 101.747 145.552 101.931C145.935 102.223 146.364 102.66 146.442 103.098C146.54 103.651 146.076 104.071 145.489 104.19C145.197 104.25 144.884 104.236 144.582 104.236C98.4215 104.236 52.2613 104.236 6.10111 104.236C4.94078 104.236 4.2481 103.771 4.26568 103.002C4.27974 102.312 5.01462 101.818 6.11166 101.807C7.83107 101.793 9.54695 101.804 11.3191 101.804V28.4156ZM83.6572 95.2966V95.3037C86.7444 95.3037 89.8316 95.3037 92.9187 95.3037C105.369 95.3037 117.82 95.3037 130.267 95.3037C132.008 95.3037 132.813 94.6797 132.985 93.1322C133.27 90.6153 133.513 88.0949 133.773 85.5745C134.139 82.0494 134.504 78.5208 134.87 74.9958C135.274 71.09 135.675 67.1878 136.087 63.282C136.196 62.2597 135.862 61.4313 135.035 60.8321C134.135 60.1799 133.214 59.5489 132.307 58.9074C131.252 58.1636 130.408 57.2471 129.898 56.038C127.159 49.5554 124.149 43.1997 120.703 37.0661C119.009 34.0521 117.071 31.1651 115.113 28.3133C113.636 26.163 111.452 25.1972 108.829 25.2888C108.147 25.3135 107.462 25.3205 106.779 25.3205C90.6614 25.3205 74.5397 25.3135 58.4216 25.3135C55.774 25.3135 53.5236 26.2194 52.0433 28.4755C50.018 31.5564 47.9857 34.6479 46.1784 37.8592C42.9751 43.5487 40.1095 49.4144 37.6411 55.4634C37.0574 56.8946 36.1819 58.0473 34.9055 58.9179C33.9632 59.5595 33.049 60.2398 32.1383 60.9202C31.3859 61.4842 31.0835 62.2632 31.1784 63.1903C31.625 67.6002 32.0645 72.01 32.5321 76.4164C33.1053 81.8309 33.7171 87.2383 34.2867 92.6528C34.4977 94.6586 35.1306 95.2931 37.1207 95.2931C52.634 95.2931 68.1438 95.2931 83.6572 95.2931V95.2966ZM22.8697 14.132C22.8697 14.132 22.8838 14.132 22.8908 14.132C22.8908 11.0652 22.8943 8.0019 22.8873 4.93509C22.8873 4.55791 22.8521 4.17368 22.7713 3.80707C22.5638 2.86588 22.0118 2.42525 21.0589 2.42877C15.4928 2.4323 9.93022 2.43935 4.36413 2.45345C3.11237 2.45345 2.52869 3.01746 2.42321 4.28295C2.39859 4.58611 2.40562 4.88927 2.40562 5.19595C2.41617 9.14754 2.43024 13.0991 2.43375 17.0543C2.43375 19.335 2.41266 21.6157 2.42672 23.8929C2.43375 25.3628 3.11589 26.0185 4.57861 26.0079C5.59127 26.0009 6.60041 25.9656 7.61306 25.9656C11.9872 25.9621 16.3648 25.9656 20.7389 25.9656C22.0645 25.9656 22.6447 25.458 22.8099 24.1678C22.8556 23.8189 22.8662 23.4593 22.8662 23.1068C22.8697 20.1175 22.8662 17.1283 22.8662 14.139L22.8697 14.132ZM121.28 97.7747C121.094 97.7395 120.974 97.7007 120.858 97.6972C119.163 97.6619 117.469 97.6055 115.774 97.602C93.6817 97.595 71.5862 97.5985 49.4941 97.5985C48.5342 97.5985 47.5708 97.5668 46.6108 97.6161C46.3999 97.6267 46.0342 97.8981 46.0307 98.0603C45.9815 99.2905 46.0026 100.521 46.0026 101.769H121.284V97.7747H121.28ZM43.5588 97.6373C41.2592 97.6373 39.0863 97.6373 36.9098 97.6373C33.8085 97.6302 31.748 95.4024 31.9625 92.3038C31.9871 91.9337 31.9625 91.5601 31.9625 91.0137C31.8289 91.2357 31.7902 91.2745 31.7797 91.3203C31.0905 94.2744 31.4843 97.2707 31.4351 100.249C31.421 101.039 32.279 101.779 33.158 101.79C36.2206 101.829 39.2832 101.818 42.3422 101.797C42.9786 101.793 43.5026 101.458 43.5412 100.76C43.594 99.7558 43.5553 98.7441 43.5553 97.6337L43.5588 97.6373ZM135.893 91.2357C135.848 91.2322 135.802 91.2287 135.756 91.2252C135.549 92.2369 135.383 93.2591 135.12 94.2532C134.62 96.125 133.073 97.4152 131.143 97.5809C130.341 97.6514 129.529 97.6267 128.72 97.6302C127.078 97.6373 125.44 97.6302 123.738 97.6302C123.738 98.6842 123.699 99.636 123.748 100.588C123.791 101.395 124.199 101.793 125.014 101.8C128.049 101.825 131.083 101.829 134.118 101.8C135.025 101.793 135.876 100.972 135.883 100.122C135.907 97.1614 135.893 94.1968 135.893 91.2357ZM129.371 47.7646C129.497 47.8281 129.543 47.8739 129.585 47.8704C131.92 47.6448 134.258 47.4262 136.593 47.1724C136.755 47.1548 137.001 46.9186 137.022 46.7565C137.251 45.0574 135.805 43.309 134.09 43.2455C132.701 43.1926 131.308 43.2385 129.919 43.2244C129.543 43.2208 129.364 43.3301 129.367 43.7355C129.381 45.075 129.371 46.4181 129.371 47.7646ZM37.9048 47.8739C37.9048 46.3969 37.9189 44.9869 37.8802 43.5804C37.8802 43.4605 37.5286 43.2561 37.3387 43.2526C35.9217 43.2279 34.5047 43.1821 33.0947 43.2772C32.5286 43.316 31.9133 43.591 31.4456 43.9294C30.6123 44.5322 30.4646 45.5262 30.2747 46.4815C30.1693 47.0032 30.3767 47.183 30.8444 47.2218C31.6742 47.2958 32.504 47.3839 33.3338 47.458C34.8141 47.5954 36.2909 47.7259 37.9048 47.8704V47.8739Z" fill="#E68531"/>
<path d="M83.5183 54.9063C72.1294 54.9063 60.7405 54.9063 49.3517 54.9063C47.3615 54.9063 46.4157 54.374 46.1203 52.8547C45.9902 52.185 46.1027 51.3636 46.3805 50.7362C49.1618 44.5003 51.9853 38.2821 54.8369 32.078C56.2188 29.0711 58.5781 27.58 61.936 27.5836C76.3382 27.6118 90.7369 27.6259 105.139 27.573C108.631 27.5589 111.043 29.0359 112.477 32.1697C115.076 37.8521 117.657 43.5415 120.238 49.231C120.572 49.9677 120.937 50.6974 121.169 51.4694C121.676 53.1579 120.642 54.6525 118.894 54.8499C118.567 54.8852 118.237 54.9063 117.91 54.9063C106.444 54.9063 94.981 54.9063 83.5147 54.9063H83.5183ZM48.1949 52.4705H119.049C118.806 51.7902 118.638 51.198 118.385 50.641C115.969 45.2935 113.539 39.953 111.11 34.6125C110.881 34.1049 110.642 33.6044 110.406 33.0968C109.443 31.0311 107.868 30.0123 105.544 30.0158C93.9507 30.044 82.3614 30.0264 70.7686 30.0264C67.7061 30.0264 64.6435 30.037 61.5809 30.037C59.7314 30.037 58.3109 30.8231 57.3299 32.3741C56.9536 32.9698 56.6337 33.6079 56.3418 34.2495C53.9438 39.5194 51.5563 44.7964 49.1724 50.0735C48.8348 50.8208 48.55 51.5928 48.1913 52.4705H48.1949Z" fill="#E68531"/>
<path d="M84.3353 79.7335C80.471 79.4233 77.324 79.1483 74.1735 78.9262C72.3522 78.7993 70.5589 78.5913 68.843 77.9004C66.5399 76.9733 64.8944 75.3694 63.9204 73.1134C63.1398 71.305 62.4331 69.4614 61.765 67.6072C61.0547 65.6403 62.1236 63.8707 64.2158 63.6627C65.4113 63.5428 66.6349 63.6768 67.8444 63.7261C74.2579 63.9905 80.6749 64.477 87.0884 64.4699C92.4154 64.4699 97.7389 63.8953 103.062 63.5675C104.951 63.4512 106.385 64.4347 106.628 66.0985C106.688 66.5039 106.621 66.9657 106.48 67.3534C105.749 69.3733 105.063 71.4143 104.198 73.3778C102.83 76.4904 100.278 78.2494 97.004 78.6477C92.5701 79.1871 88.0975 79.4197 84.3353 79.7299V79.7335ZM85.5765 77.3118C89.49 76.991 93.0764 76.7724 96.6418 76.3776C98.85 76.1344 100.794 75.098 101.793 73.0499C102.785 71.016 103.428 68.8128 104.219 66.6837C104.409 66.1761 104.159 65.9505 103.681 65.961C103.126 65.9716 102.574 66.0386 102.022 66.0703C99.5989 66.2043 97.1728 66.3382 94.7501 66.4616C91.1144 66.6484 87.4717 67.0503 83.843 66.9551C77.5772 66.7894 71.3184 66.3206 65.0561 65.9646C63.8255 65.8941 63.6215 66.1161 64.061 67.2688C64.6271 68.7564 65.1932 70.244 65.7875 71.7245C66.7122 74.0334 68.4668 75.4963 70.805 76.078C72.4049 76.4763 74.0997 76.5221 75.7593 76.6455C79.1348 76.9028 82.5174 77.1073 85.5765 77.3118Z" fill="#E68531"/>
<path d="M61.5471 93.6504C56.5682 93.4812 51.5893 93.3155 46.6104 93.1393C45.7525 93.1076 44.891 93.0758 44.0366 92.9877C42.0851 92.7868 40.96 91.2604 41.4311 89.3498C41.7933 87.8799 42.2399 86.424 42.7392 84.9964C43.4494 82.9589 44.9895 81.926 47.1625 82.0177C50.7244 82.1693 54.2862 82.3702 57.8446 82.5606C63.0977 82.839 68.3509 83.1281 73.6005 83.4136C75.5204 83.5194 77.4402 83.611 79.3565 83.7415C80.9353 83.8472 81.9303 84.7496 82.0956 86.276C82.2187 87.4075 82.296 88.5496 82.2819 89.6847C82.2503 92.1628 80.2531 94.1439 77.7742 94.1968C76.8635 94.2179 75.9528 94.158 75.0457 94.1263C70.545 93.9747 66.0478 93.8231 61.5471 93.6716C61.5471 93.6645 61.5471 93.6539 61.5471 93.6469V93.6504ZM61.0091 91.2111C61.0091 91.2111 61.0091 91.2428 61.0091 91.2604C61.4627 91.2604 61.9198 91.2463 62.3734 91.2604C67.3277 91.4332 72.282 91.62 77.2362 91.7751C79.0541 91.8315 80.007 90.8127 79.9085 88.9903C79.8734 88.3346 79.7503 87.6789 79.7503 87.0233C79.7503 86.3112 79.4128 86.1596 78.7693 86.1279C71.6983 85.7613 64.6273 85.37 57.5563 84.9752C54.1983 84.7884 50.8439 84.5734 47.486 84.3689C45.8299 84.2667 45.204 84.6862 44.6977 86.2866C44.3847 87.2736 44.0858 88.2676 43.794 89.2617C43.4072 90.5871 43.4107 90.6048 44.775 90.6506C50.1864 90.8409 55.5942 91.0242 61.0056 91.2075L61.0091 91.2111Z" fill="#E68531"/>
<path d="M93.0232 94.2003C91.986 94.2003 90.9487 94.2109 89.9149 94.2003C86.8524 94.1616 84.7462 91.8703 84.9853 88.8281C85.0591 87.894 85.1259 86.9563 85.2947 86.0398C85.5268 84.7672 86.3144 84.0094 87.5907 83.8613C88.8706 83.7133 90.1611 83.671 91.448 83.6005C99.0499 83.1774 106.648 82.7615 114.25 82.3455C116.321 82.2327 118.392 82.0988 120.463 82.0565C122.429 82.0177 124.029 83.1951 124.641 85.0739C125.094 86.4663 125.506 87.8764 125.889 89.2899C126.427 91.2851 125.323 92.8784 123.276 93.0159C121.209 93.1534 119.134 93.2309 117.063 93.3014C110.569 93.52 104.071 93.7139 97.5731 93.9289C96.0577 93.9782 94.5422 94.0628 93.0267 94.1334C93.0267 94.158 93.0267 94.1827 93.0267 94.2074L93.0232 94.2003ZM106.94 91.1688C109.774 91.0842 113.54 90.9819 117.306 90.855C119.226 90.7916 121.146 90.6717 123.065 90.5942C123.649 90.5695 123.807 90.358 123.617 89.7799C123.185 88.4615 122.847 87.1079 122.397 85.793C122.025 84.6967 121.465 84.3407 120.337 84.3865C118.34 84.4676 116.346 84.5663 114.352 84.6791C108.421 85.014 102.489 85.3595 96.5605 85.6943C93.8108 85.8494 91.0577 85.9869 88.308 86.1702C88.0584 86.1878 87.6505 86.4381 87.6189 86.632C87.4642 87.5802 87.3587 88.5426 87.3376 89.5014C87.3095 90.8127 88.2448 91.7398 89.5598 91.7892C90.14 91.8103 90.7237 91.7927 91.3038 91.7716C96.2054 91.5882 101.107 91.3979 106.94 91.1723V91.1688Z" fill="#E68531"/>
<path d="M34.2461 65.524C34.5098 64.5299 34.661 63.4865 35.0618 62.5488C36.071 60.18 38.3319 58.9462 40.86 59.4362C44.1089 60.0636 47.3508 60.7404 50.5576 61.5406C53.1173 62.1787 54.9633 63.9518 56.6195 65.9047C57.2242 66.6167 57.7622 67.3852 58.3107 68.1466C58.8382 68.8798 58.8417 69.6553 58.381 70.4238C57.9134 71.2028 57.2137 71.6399 56.303 71.5694C54.2109 71.4143 52.1223 71.2099 50.0302 71.0231C46.2784 70.6882 42.5231 70.3744 38.7784 70.0008C37.9381 69.9162 37.0485 69.7717 36.2995 69.4051C34.7384 68.6436 34.3832 67.1666 34.2461 65.5204V65.524ZM56.0428 69.2429C56.078 69.1724 56.1166 69.1019 56.1518 69.0314C54.457 67.0538 52.8818 64.9423 50.3677 63.8637C50.2517 63.8143 50.1286 63.7755 50.0055 63.7509C46.7461 63.0811 43.4901 62.3726 40.2165 61.7662C38.9683 61.5336 37.8396 62.0377 37.3333 63.2362C36.9606 64.1104 36.8129 65.1186 36.7496 66.0774C36.6793 67.1349 37.045 67.4486 38.1139 67.5967C38.6132 67.6672 39.116 67.713 39.6188 67.7553C43.5674 68.0937 47.5196 68.418 51.4683 68.7635C52.9943 68.8974 54.5168 69.0772 56.0428 69.2394V69.2429Z" fill="#E68531"/>
<path d="M132.936 65.6792C132.926 68.397 131.678 69.7295 128.801 69.9903C124.019 70.4239 119.234 70.8363 114.448 71.2558C113.267 71.3581 112.082 71.5343 110.901 71.5378C109.055 71.5449 107.986 69.6308 109.005 68.1079C110.538 65.8202 112.339 63.7157 114.789 62.4079C116.115 61.6994 117.669 61.3715 119.157 61.0155C121.512 60.448 123.889 59.9545 126.27 59.5174C129.473 58.9251 131.934 60.5925 132.683 63.8074C132.827 64.4172 132.859 65.0552 132.94 65.6827L132.936 65.6792ZM111.09 69.169C111.474 69.169 111.73 69.1901 111.984 69.169C115.584 68.8447 119.185 68.5169 122.782 68.189C124.895 67.9951 127.012 67.8118 129.125 67.6003C130.148 67.4981 130.51 67.1879 130.503 66.1656C130.496 65.3478 130.384 64.4877 130.099 63.7263C129.557 62.2775 128.404 61.5725 126.868 61.8192C124.55 62.1894 122.258 62.7005 119.958 63.1729C118.531 63.4654 117.057 63.617 115.792 64.4595C113.953 65.6827 112.525 67.3113 111.09 69.1725V69.169Z" fill="#E68531"/>
<path d="M84.485 60.0107C77.3261 60.0107 70.1637 60.0107 63.0048 60.0107C62.5512 60.0107 62.087 60.0142 61.644 59.9332C61.0427 59.8204 60.5962 59.4432 60.6243 58.7981C60.6489 58.1742 61.0603 57.7864 61.6932 57.7053C62.1433 57.6489 62.6004 57.6066 63.054 57.6066C77.5019 57.596 91.9463 57.5925 106.394 57.589C106.721 57.589 107.059 57.5996 107.375 57.6736C107.994 57.8216 108.325 58.2376 108.286 58.8897C108.247 59.5313 107.906 59.9296 107.252 59.9931C106.851 60.0319 106.443 60.0248 106.039 60.0248C98.852 60.0248 91.6685 60.0248 84.4815 60.0248V60.0142L84.485 60.0107Z" fill="#E68531"/>
<path d="M9.58757 15.4255C9.58757 17.4383 9.58757 19.3595 9.58757 21.2771C9.58757 21.6296 9.59108 21.9892 9.54889 22.3382C9.47856 22.9163 9.0953 23.2194 8.5503 23.3252C7.97013 23.438 7.53764 23.1948 7.34074 22.659C7.20361 22.2888 7.13328 21.8729 7.13328 21.4745C7.11922 16.765 7.1157 12.052 7.12625 7.34255C7.12625 5.9431 7.55522 5.51657 8.92653 5.50951C10.6705 5.49894 12.4181 5.49189 14.1621 5.50951C17.084 5.54477 19.3168 7.75851 19.2922 10.568C19.2711 13.3246 17.0524 15.4079 14.1305 15.4185C12.6396 15.422 11.1523 15.4185 9.59108 15.4185L9.58757 15.4255ZM9.61921 12.9897C11.3351 12.9897 12.9771 13.0285 14.6157 12.9756C15.9237 12.9333 16.8836 11.8864 16.9715 10.5398C17.0489 9.36241 16.1698 8.07224 15.0341 8.00526C13.2549 7.90303 11.4617 7.97706 9.61921 7.97706V12.9862V12.9897Z" fill="#E68531"/>
</g>
<defs>
<clipPath id="clip0_1694_467">
<rect width="146.452" height="104.254" fill="white"/>
</clipPath>
</defs>
</svg>
