<svg width="104" height="104" viewBox="0 0 104 104" fill="none" xmlns="http://www.w3.org/2000/svg">
<g clip-path="url(#clip0_1694_425)">
<path d="M13.7892 10.4242C13.7892 10.0133 13.7892 9.66337 13.7892 9.31345C13.8055 7.84461 13.777 6.37169 13.8503 4.90692C13.9764 2.44528 15.7789 0.00805622 19.4408 0.00398739C24.4089 -8.14273e-05 29.3769 -0.00821907 34.3449 0.012125C35.4191 0.0161939 36.5217 0.012125 37.5674 0.223704C39.7117 0.654999 41.3474 2.59176 41.4613 4.78485C41.5508 6.48562 41.5305 8.19452 41.5223 9.90343C41.5223 10.3103 41.6078 10.408 42.0187 10.408C43.9433 10.3958 45.8719 10.3551 47.7924 10.4609C51.6578 10.6765 54.8274 13.7363 55.2668 17.5732C55.3034 17.8743 55.3726 18.1835 55.3441 18.4805C55.2953 18.9972 55.515 19.0827 55.9788 19.0827C61.5531 19.0664 67.1315 19.042 72.7058 19.0827C77.9098 19.1193 81.7019 21.4792 83.9764 26.1828C85.2459 28.8112 86.4665 31.46 87.6872 34.1129C87.8703 34.5117 88.0941 34.6419 88.5335 34.6378C91.3735 34.6093 94.2095 34.5849 97.0495 34.6175C100.183 34.6541 102.547 36.3223 103.458 39.0606C104.703 42.7876 102.331 46.6449 98.3475 47.361C97.5663 47.5034 96.7851 47.6255 96.0038 47.7638C95.8777 47.7842 95.7557 47.8289 95.5563 47.8859C95.8655 48.2236 96.1259 48.5003 96.3782 48.7892C98.0545 50.6974 99.503 52.7441 100.089 55.2667C100.26 55.9991 100.337 56.7722 100.341 57.5249C100.362 64.7918 100.366 72.0587 100.349 79.3216C100.341 82.5319 99.3077 85.3801 97.1635 87.801C97.017 87.9678 96.9397 88.2486 96.9397 88.4764C96.9234 91.7559 96.9315 95.0313 96.9315 98.3108C96.9315 101.541 94.6571 103.828 91.4183 103.84C88.1225 103.848 84.8268 103.848 81.5351 103.84C78.512 103.832 76.2334 101.607 76.1805 98.5834C76.1399 96.4391 76.1521 94.2908 76.1561 92.1465C76.1561 91.8129 76.0626 91.7234 75.7248 91.7234C69.3205 91.7356 62.9162 91.7315 56.5159 91.7315H55.3767C55.3767 92.1994 55.3929 92.6307 55.3767 93.062C55.3156 94.478 55.4133 95.9265 55.1325 97.2976C54.4124 100.821 51.7473 103.226 48.183 103.73C47.5686 103.816 46.9379 103.836 46.3154 103.836C33.7265 103.84 21.1416 103.84 8.55266 103.836C4.22344 103.836 0.964311 101.139 0.166822 96.8826C0.06917 96.3537 0.0203441 95.8085 0.0162753 95.2714C0 69.768 0 44.2687 0 18.7694C0 14.2327 3.43815 10.6114 7.97082 10.4324C9.89131 10.3551 11.8159 10.4202 13.7892 10.4202V10.4242ZM51.91 57.1424C51.91 44.3175 51.91 31.4926 51.91 18.6677C51.91 16.3973 50.4656 14.4809 48.2359 14.017C47.2268 13.8095 46.1567 13.8583 45.1151 13.8543C33.6451 13.8461 22.171 13.8461 10.701 13.8502C9.73669 13.8502 8.77238 13.838 7.81214 13.8909C5.71669 14.0089 3.88166 15.5835 3.56429 17.6627C3.3934 18.7694 3.46664 19.9168 3.46664 21.0479C3.4585 45.8677 3.45036 70.6916 3.46664 95.5114C3.46664 96.1706 3.58056 96.8826 3.84911 97.4726C4.7768 99.5111 6.4206 100.423 8.66659 100.41C15.5592 100.378 22.4518 100.39 29.3443 100.39C35.3092 100.39 41.2741 100.41 47.235 100.39C49.8715 100.382 51.9141 98.2782 51.9141 95.6701C51.9141 82.8289 51.9141 69.9877 51.9141 57.1465L51.91 57.1424ZM55.3685 65.7114C55.6086 65.7114 55.7917 65.7114 55.9707 65.7114C60.129 65.7114 64.2833 65.7114 68.4376 65.7114C68.7916 65.7114 69.1496 65.7317 69.4955 65.7968C70.3418 65.9555 70.9236 66.6757 70.9277 67.5179C70.9277 68.3521 70.3336 69.0397 69.4548 69.1943C69.1903 69.2391 68.9177 69.2391 68.6492 69.2391C64.4257 69.2391 60.2023 69.2513 55.9788 69.2309C55.4743 69.2309 55.3645 69.3896 55.3685 69.8616C55.3848 72.9213 55.3848 75.977 55.3645 79.0368C55.3645 79.5088 55.4906 79.6308 55.9585 79.6308C59.6408 79.6105 63.3231 79.6268 67.0094 79.6064C67.9778 79.6023 68.6654 79.9482 69.1659 80.8108C70.5045 83.1178 71.9205 85.376 73.251 87.6871C73.5317 88.1713 73.841 88.2852 74.3374 88.2852C79.0165 88.2649 83.6957 88.2771 88.3789 88.2404C89.1479 88.2364 89.9332 88.1265 90.6737 87.9353C93.6399 87.1663 96.956 83.9723 96.9356 79.6959C96.9234 76.3676 96.9356 73.0393 96.9356 69.711C96.9356 69.5686 96.9112 69.4221 96.899 69.2472C96.6467 69.2472 96.4473 69.2472 96.2439 69.2472C92.0205 69.2472 87.797 69.2472 83.5736 69.2472C81.5514 69.2472 80.0337 68.2015 79.7448 66.4682C79.4275 64.564 79.5007 62.6435 80.2901 60.8451C81.8159 57.3744 84.5216 55.5353 88.3097 55.4173C90.8405 55.34 93.3795 55.401 95.9103 55.401C96.1015 55.401 96.2968 55.401 96.5776 55.401C96.4677 55.1325 96.4067 54.9616 96.3294 54.7988C95.1982 52.4918 93.6358 50.5225 91.6828 48.8543C91.3084 48.5328 90.9341 48.3945 90.4418 48.4311C89.8192 48.4759 89.1926 48.4677 88.566 48.4677C77.7023 48.4677 66.8385 48.4759 55.9748 48.4677C55.5272 48.4677 55.3726 48.5654 55.3726 49.0536C55.3889 53.566 55.3767 58.0783 55.3726 62.5865C55.3726 63.5997 55.3726 64.6128 55.3726 65.7195L55.3685 65.7114ZM89.0299 45.0255C88.92 44.7692 88.8549 44.6023 88.7776 44.4355C87.8377 42.454 86.8815 40.4806 85.9579 38.495C84.2572 34.8412 82.6378 31.1508 80.8719 27.5296C79.2566 24.2135 76.5345 22.4964 72.8075 22.4924C67.3838 22.4883 61.9641 22.5005 56.5403 22.5046C55.7591 22.5046 55.3685 22.8952 55.3685 23.6764C55.3685 30.569 55.3645 37.4616 55.3604 44.3541C55.3604 45.0214 55.3522 45.0214 56.0033 45.0214C66.7653 45.0214 77.5233 45.0214 88.2853 45.0214H89.0299V45.0255ZM38.0557 10.3795C38.0557 8.56886 38.1045 6.86402 38.0394 5.16325C37.9947 4.01178 37.3436 3.47469 36.1922 3.45842C35.3133 3.44621 34.4344 3.46655 33.5596 3.46655C28.8642 3.46655 24.1688 3.46249 19.4774 3.46655C17.8459 3.46655 17.3088 3.99957 17.3006 5.61896C17.2925 7.00236 17.3413 8.38983 17.3128 9.77323C17.3006 10.2778 17.4593 10.3876 17.9394 10.3876C24.4414 10.3754 30.9434 10.3795 37.4454 10.3795C37.6447 10.3795 37.84 10.3795 38.0638 10.3795H38.0557ZM93.469 90.5353C93.2086 90.6329 93.0702 90.6817 92.9319 90.7346C91.4142 91.345 89.8396 91.6908 88.1999 91.6949C85.4982 91.6949 82.7964 91.6949 80.0907 91.6949C79.8506 91.6949 79.5699 91.5972 79.5699 92.0245C79.578 94.2379 79.5455 96.4513 79.5821 98.6607C79.5984 99.7227 80.3023 100.361 81.3805 100.382C82.3611 100.402 83.3417 100.382 84.3182 100.382C86.6984 100.382 89.0828 100.386 91.463 100.374C92.7569 100.366 93.3876 99.7389 93.4405 98.4573C93.4446 98.3555 93.4405 98.2538 93.4405 98.1521C93.4486 95.8044 93.4568 93.4567 93.4649 91.109C93.4649 90.9462 93.4649 90.7875 93.4649 90.5271L93.469 90.5353ZM96.9193 58.8188C96.6264 58.8188 96.3782 58.8188 96.13 58.8188C93.3469 58.8473 90.5557 58.7822 87.7767 58.9246C84.5338 59.0914 82.4628 61.9518 83.1586 65.6748H96.9193V58.8147V58.8188ZM69.5728 88.2608C69.5484 88.1753 69.5443 88.0899 69.5036 88.0248C68.5759 86.4542 67.6564 84.8837 66.7043 83.3294C66.6147 83.1788 66.3421 83.0649 66.155 83.0649C62.725 83.0568 59.299 83.0771 55.869 83.0771C55.4947 83.0771 55.3645 83.2032 55.3685 83.5776C55.3848 84.6924 55.3767 85.8073 55.3767 86.9221C55.3767 87.3534 55.3767 87.7847 55.3767 88.2649H69.5728V88.2608ZM89.5955 38.1329C89.689 38.3608 89.7541 38.5276 89.8314 38.6944C90.6696 40.4969 91.5078 42.2994 92.35 44.1019C92.6959 44.8383 92.7 44.8505 93.4893 44.7203C95.0355 44.464 96.5898 44.2443 98.1196 43.9106C99.678 43.5729 100.553 42.2017 100.366 40.6068C100.231 39.4594 99.1287 38.0312 97.3669 38.0963C95.2593 38.1777 93.1475 38.1248 91.0358 38.1288C90.5842 38.1288 90.1285 38.1288 89.5914 38.1288L89.5955 38.1329Z" fill="#E68531"/>
<path d="M17.4402 82.4466C17.603 81.7549 17.8267 80.7336 18.0749 79.7205C19.3444 74.5978 20.6139 69.4752 21.8956 64.3566C21.9769 64.0352 21.8956 63.8724 21.627 63.7015C18.6364 61.8299 15.654 59.9419 12.6675 58.0662C11.9148 57.5942 11.2149 57.0775 10.8324 56.2352C10.1041 54.6362 10.3401 53.1551 11.4875 51.8572C12.7407 50.4412 14.059 49.0823 15.3488 47.6948C20.6098 42.0229 25.8708 36.3509 31.1318 30.6749C31.6607 30.1053 32.1612 29.5112 32.6902 28.9416C33.6789 27.8715 34.871 27.4321 36.3033 27.8552C37.7274 28.2743 38.4719 29.3159 38.8381 30.6953C39.0375 31.4521 38.8788 32.1722 38.6591 32.8843C37.056 38.1249 35.4407 43.3615 33.8335 48.6021C33.7806 48.7812 33.7236 48.9561 33.6707 49.1352C33.3981 50.0384 33.3941 50.0506 34.2119 50.5674C37.0479 52.3658 39.8798 54.1683 42.732 55.9464C43.7736 56.5974 44.5711 57.4111 44.8966 58.6318C45.275 60.0396 44.7623 61.1992 43.8753 62.2205C41.6049 64.8367 39.3101 67.4286 37.0234 70.0285C33.1133 74.4839 29.2113 78.9474 25.3012 83.3987C24.7234 84.0578 24.1416 84.717 23.5272 85.3436C22.4367 86.4585 21.0859 86.7595 19.7839 86.2265C18.4086 85.6569 17.4484 84.2409 17.4484 82.4385L17.4402 82.4466ZM35.5261 31.2323C35.4692 31.2039 35.4163 31.1794 35.3593 31.151C35.2413 31.2568 35.107 31.3503 35.0012 31.4683C31.5061 35.2523 28.0232 39.0485 24.52 42.8285C21.2364 46.3724 17.9366 49.9042 14.649 53.44C14.3845 53.7248 14.1119 54.0096 13.9085 54.3351C13.8352 54.4572 13.9085 54.7298 13.998 54.8763C14.0875 55.0187 14.2869 55.1 14.4456 55.1977C17.3059 56.992 20.1541 58.7986 23.0267 60.5726C24.7844 61.6549 25.704 63.1767 25.0855 65.6017C23.6614 71.1556 22.3025 76.7258 20.9231 82.292C20.8784 82.4751 20.854 82.6663 20.8214 82.8535C20.8621 82.8738 20.9028 82.8942 20.9435 82.9145C21.0696 82.7965 21.2039 82.6866 21.3178 82.5564C22.7012 80.9818 24.0683 79.399 25.4599 77.8325C30.5866 72.0589 35.7214 66.3015 40.84 60.5197C41.7596 59.4781 42.0891 59.5595 40.5796 58.5992C37.7843 56.8293 34.985 55.0716 32.1897 53.2976C30.1756 52.0199 29.6589 50.5063 30.3669 48.24C32.0432 42.8814 33.6992 37.5187 35.3552 32.1519C35.4447 31.8549 35.4692 31.5416 35.5261 31.2323Z" fill="#E68531"/>
<path d="M84.7929 72.6937C87.5882 72.6164 90.0214 75.1838 90.001 77.9588C89.9766 80.929 87.2383 83.1669 84.7034 83.057C81.9163 82.9349 79.5564 80.575 79.6093 77.7919C79.6622 74.96 82.0099 72.653 84.7929 72.6896V72.6937ZM83.1085 77.8489C83.08 78.8458 83.7554 79.5822 84.7197 79.6148C85.7573 79.6473 86.5385 78.9149 86.5547 77.8896C86.571 76.9538 85.8224 76.1685 84.8865 76.1481C83.8368 76.1237 83.1369 76.7951 83.1085 77.853V77.8489Z" fill="#E68531"/>
<path d="M74.4467 39.7523C73.7794 39.7727 73.344 39.3943 72.9331 38.9833C71.688 37.7423 70.4511 36.4973 69.2142 35.2522C67.1391 33.1731 65.0518 31.102 62.993 29.0107C62.106 28.1074 62.1873 26.9478 63.1313 26.313C63.7294 25.9102 64.4374 25.9224 65.0192 26.3537C65.1698 26.4636 65.3081 26.5897 65.4383 26.7199C68.7259 29.9994 72.0054 33.2829 75.2971 36.5624C75.9277 37.189 76.3224 37.8644 75.9359 38.7758C75.6673 39.4106 75.118 39.7605 74.4548 39.7523H74.4467Z" fill="#E68531"/>
<path d="M72.9544 26.0161C73.1293 26.1016 73.5281 26.1992 73.8007 26.4433C74.4435 27.013 75.0498 27.6274 75.6194 28.2702C76.2704 29.0026 76.2338 29.9507 75.591 30.5935C74.9237 31.2568 73.9716 31.2893 73.231 30.6017C72.576 29.9954 71.9494 29.3525 71.3634 28.6812C70.9118 28.1645 70.8915 27.5419 71.221 26.9316C71.5465 26.3294 72.0674 26.0365 72.9544 26.0161Z" fill="#E68531"/>
</g>
<defs>
<clipPath id="clip0_1694_425">
<rect width="103.787" height="103.84" fill="white"/>
</clipPath>
</defs>
</svg>
