<svg width="104" height="104" viewBox="0 0 104 104" fill="none" xmlns="http://www.w3.org/2000/svg">
<g clip-path="url(#clip0_1694_434)">
<path d="M62.3033 69.2345C62.3033 69.576 62.3033 69.8601 62.3033 70.1412C62.3033 71.9485 62.2912 73.7558 62.3063 75.5662C62.3094 76.0044 62.1764 76.1495 61.723 76.1404C60.221 76.1132 58.7189 76.1283 57.1775 76.1283C57.1564 76.3157 57.1261 76.4608 57.1261 76.6058C57.1261 84.3278 57.1292 92.0497 57.1231 99.7716C57.1231 100.222 57.25 100.379 57.7276 100.376C62.527 100.361 67.3263 100.376 72.1227 100.355C72.6274 100.355 72.709 100.524 72.6939 100.965C72.6667 101.89 72.6849 102.818 72.6849 103.782H31.2191C31.2191 103.329 31.2252 102.863 31.2191 102.398C31.2101 101.89 31.201 101.386 31.1647 100.878C31.1375 100.488 31.2554 100.361 31.6755 100.361C36.4567 100.373 41.238 100.361 46.0223 100.361C46.7355 100.361 46.7234 100.358 46.7234 99.6417C46.7234 92.0225 46.7234 84.4003 46.7234 76.7811C46.7234 76.1313 46.7325 76.1283 46.0978 76.1283C44.6109 76.1283 43.1269 76.1283 41.5583 76.1283V69.2315C41.2652 69.2315 41.0536 69.2315 40.839 69.2315C32.5761 69.2315 24.3132 69.2587 16.0503 69.2194C11.3536 69.1982 7.29472 67.5722 4.10621 64.0452C1.75487 61.4461 0.419021 58.3815 0.125859 54.8817C0.0563467 54.0415 0.0291462 53.1952 0.0291462 52.352C0.0231016 40.0846 -0.0282772 27.8171 0.0442576 15.5497C0.080525 7.9335 5.53575 1.52323 13.167 0.232716C14.1795 0.063468 15.2191 0.00906685 16.2467 0.00906685C40.1409 0 64.0321 0 87.9232 0C95.3671 0 101.62 4.84472 103.349 12.0075C103.642 13.2285 103.808 14.51 103.811 15.7642C103.845 28.2342 103.845 40.7041 103.826 53.1771C103.817 58.5779 101.693 63.0056 97.3588 66.2364C94.5753 68.3097 91.3293 69.2254 87.8567 69.2315C79.5424 69.2436 71.2311 69.2345 62.9168 69.2345H62.2973H62.3033ZM62.2973 65.7014H63.6603C71.3974 65.7014 79.1374 65.7014 86.8745 65.7014C87.8869 65.7014 88.9115 65.777 89.9088 65.6561C95.5031 64.9761 100.432 59.9319 100.405 53.5367C100.348 40.8311 100.396 28.1254 100.363 15.4197C100.363 14.3377 100.182 13.2255 99.8945 12.1798C98.5435 7.26255 93.865 3.42425 87.9323 3.43634C63.8568 3.48772 39.7812 3.45145 15.7057 3.4726C14.6691 3.4726 13.6052 3.58745 12.5988 3.83528C7.21614 5.16206 3.48362 9.95541 3.45944 15.5345C3.43828 19.7597 3.45944 23.9818 3.45944 28.207C3.46246 36.7903 3.42619 45.3736 3.48362 53.9568C3.51988 59.1884 7.07107 63.7642 12.0639 65.2753C13.5932 65.7377 15.1557 65.7165 16.7303 65.7135C24.7907 65.6984 32.8481 65.7075 40.9086 65.7075C41.0929 65.7075 41.2773 65.7075 41.5221 65.7075V58.8469H62.2912V65.7045L62.2973 65.7014ZM58.7884 62.3225H45.0702V72.6074H58.7884V62.3225ZM53.6838 88.3111H53.6868C53.6868 84.4426 53.6807 80.5741 53.6958 76.7025C53.6958 76.2401 53.5719 76.086 53.1005 76.1102C52.3419 76.1495 51.5772 76.1646 50.8217 76.1132C50.2988 76.0769 50.1658 76.2401 50.1688 76.7509C50.19 79.9092 50.1749 83.0705 50.1749 86.2288C50.1749 90.7743 50.1839 95.3198 50.1749 99.8653C50.1749 100.27 50.2958 100.397 50.6947 100.385C51.5379 100.361 52.3842 100.367 53.2274 100.385C53.578 100.391 53.6898 100.279 53.6898 99.9197C53.6777 96.0512 53.6807 92.1827 53.6807 88.3111H53.6838Z" fill="#E68531"/>
<path d="M14.9365 34.584C15.0211 34.8016 15.0664 34.9557 15.136 35.0978C15.6981 36.2311 16.2723 37.3584 16.8284 38.4918C16.9765 38.794 17.1156 39.1053 17.2062 39.4287C17.4057 40.1359 17.0823 40.8582 16.4265 41.239C15.7585 41.6289 14.9939 41.5564 14.4801 41.0003C14.2111 40.7071 13.9875 40.3565 13.8061 39.9999C13.0415 38.4978 12.298 36.9837 11.5455 35.4755C11.4397 35.264 11.3732 35.0101 11.21 34.859C11.0468 34.7079 10.7869 34.6625 10.5693 34.5719C10.5028 34.7442 10.3789 34.9134 10.3789 35.0857C10.3728 36.5364 10.391 37.9901 10.4 39.4408C10.4031 40.0664 10.3033 40.6557 9.75931 41.0698C9.20623 41.4929 8.60178 41.6198 7.95501 41.3206C7.1813 40.961 6.95463 40.2568 6.91534 39.4861C6.87908 38.7789 6.90628 38.0687 6.90628 37.3584C6.90628 33.777 6.90628 30.1986 6.9093 26.6172C6.9093 26.3513 6.93348 26.0762 6.98788 25.8163C7.19642 24.8039 7.76158 24.2629 8.80427 24.2478C11.0166 24.2145 13.2289 24.2175 15.4412 24.2659C16.6501 24.2931 17.3029 24.9973 17.3241 26.2636C17.3604 28.4246 17.3573 30.5855 17.3241 32.7494C17.306 33.904 16.6199 34.5356 15.4624 34.584C15.3143 34.59 15.1692 34.584 14.9335 34.584H14.9365ZM13.788 27.6811C12.7514 27.6811 11.7601 27.6841 10.7688 27.6811C10.4907 27.6811 10.3819 27.7748 10.3879 28.0679C10.4061 28.9776 10.3849 29.8873 10.4091 30.797C10.4121 30.9119 10.5995 31.1174 10.7053 31.1204C11.7268 31.1446 12.7484 31.1355 13.788 31.1355V27.6841V27.6811Z" fill="#E68531"/>
<path d="M59.9628 34.6414C60.2015 35.1431 60.4101 35.5783 60.6186 36.0105C61.1264 37.0743 61.6825 38.12 62.1328 39.2081C62.6224 40.3928 61.6009 41.6349 60.3315 41.4597C59.6424 41.3629 59.2435 40.8794 58.9503 40.3082C58.1857 38.8061 57.4361 37.2949 56.6806 35.7898C56.5295 35.4876 56.4207 35.1521 56.2091 34.9013C56.061 34.723 55.7709 34.6656 55.5442 34.5537C55.4868 34.7321 55.384 34.9104 55.381 35.0917C55.3719 36.6452 55.4022 38.1986 55.381 39.7521C55.3629 40.8764 54.3081 41.6984 53.2805 41.4385C52.5068 41.2451 51.9598 40.4955 51.9386 39.5586C51.9205 38.7154 51.9356 37.8692 51.9356 37.026C51.9356 33.5292 51.9356 30.0324 51.9356 26.5386C51.9356 24.9399 52.6247 24.2296 54.2023 24.2296C56.1789 24.2296 58.1554 24.2296 60.129 24.2477C61.6129 24.2598 62.2778 24.8764 62.302 26.3694C62.3383 28.4638 62.3383 30.5583 62.305 32.6527C62.2839 34.0007 61.6401 34.5809 60.268 34.6081C60.2015 34.6081 60.1381 34.6232 59.9658 34.6444L59.9628 34.6414ZM58.7992 27.6448C57.962 27.6448 57.1702 27.6297 56.3814 27.6478C55.381 27.672 55.381 27.6841 55.378 28.6965C55.378 29.4975 55.378 30.2984 55.378 31.1537H58.8022V27.6418L58.7992 27.6448Z" fill="#E68531"/>
<path d="M86.519 32.9067C86.519 30.7609 86.5039 28.615 86.5311 26.4692C86.5371 26.0249 86.6369 25.5595 86.8091 25.1515C87.0509 24.5712 87.5979 24.2811 88.1933 24.2781C89.6924 24.275 91.2156 24.1874 92.6875 24.4171C94.9361 24.7646 96.4835 26.4994 96.822 28.7631C96.9247 29.4431 96.9398 30.1413 96.9368 30.8304C96.9247 32.8039 96.9972 34.7896 96.825 36.751C96.5711 39.6041 94.38 41.49 91.4937 41.5413C90.5477 41.5595 89.6017 41.5534 88.6557 41.5474C87.2111 41.5383 86.5371 40.8915 86.522 39.4439C86.5009 37.2648 86.516 35.0857 86.516 32.9067H86.522H86.519ZM90.0732 27.6207V38.102C90.5568 38.102 91.0071 38.111 91.4604 38.102C92.8416 38.0657 93.4854 37.3887 93.4763 36.0015C93.4642 34.0944 93.4612 32.1874 93.4491 30.2833C93.4491 29.8965 93.4491 29.5036 93.3977 29.1228C93.295 28.3732 92.8416 27.8685 92.1132 27.7386C91.4604 27.6237 90.7804 27.657 90.0732 27.6237V27.6207Z" fill="#E68531"/>
<path d="M32.8917 27.6207V31.1779C33.345 31.1779 33.7802 31.1779 34.2124 31.1779C35.3609 31.1719 36.5093 31.1417 37.6578 31.1628C39.1417 31.19 39.7764 31.8368 39.7855 33.3207C39.7976 35.397 39.7946 37.4764 39.7764 39.5527C39.7674 40.7555 39.1659 41.4507 37.9721 41.4839C35.7447 41.5474 33.5142 41.5564 31.2868 41.5323C30.232 41.5202 29.5127 40.7706 29.5097 39.8307C29.5037 38.8636 30.1565 38.1624 31.2536 38.1171C32.8554 38.0506 34.4602 38.0717 36.0651 38.0566C36.1315 38.0566 36.195 38.0566 36.3068 38.0566V34.6082C35.9623 34.6082 35.6298 34.6082 35.3004 34.6082C34.0855 34.6082 32.8675 34.6173 31.6525 34.6022C30.1414 34.581 29.5007 33.9947 29.4704 32.4956C29.4281 30.4344 29.4311 28.3732 29.4674 26.3151C29.4916 24.8855 30.1595 24.2569 31.583 24.2448C33.6261 24.2297 35.6691 24.2357 37.7152 24.2448C38.4164 24.2448 39.0571 24.405 39.4802 25.0427C40.1451 26.0461 39.6011 27.4424 38.4013 27.5633C37.2498 27.6811 36.0771 27.6116 34.9136 27.6207C34.2577 27.6267 33.6019 27.6207 32.9007 27.6207H32.8917Z" fill="#E68531"/>
<path d="M45.0561 27.6418V31.199C45.5971 31.199 46.1321 31.1688 46.661 31.205C47.7278 31.2806 48.4048 31.9455 48.4078 32.8703C48.4109 33.8254 47.7157 34.5205 46.6519 34.59C46.1351 34.6232 45.6152 34.596 45.0652 34.596V38.0717C45.715 38.0717 46.3497 38.0566 46.9843 38.0747C47.6069 38.0928 48.2416 38.0747 48.8461 38.1926C49.6832 38.3618 50.191 39.0751 50.1789 39.879C50.1668 40.6134 49.5805 41.2813 48.7705 41.4627C48.5741 41.508 48.3716 41.5413 48.1691 41.5413C46.6156 41.5473 45.0591 41.5624 43.5057 41.5352C42.2424 41.5141 41.6349 40.8975 41.5503 39.6312C41.5412 39.4801 41.5352 39.3259 41.5352 39.1748C41.5352 34.9527 41.5352 30.7275 41.5382 26.5054C41.5382 26.3543 41.5442 26.2001 41.5563 26.049C41.6409 24.9006 42.191 24.284 43.3334 24.2508C45.0047 24.2024 46.6791 24.2266 48.3474 24.2659C48.7161 24.2749 49.1241 24.4109 49.4354 24.6134C50.0187 24.9942 50.2575 25.5957 50.1336 26.2848C50.0006 27.0162 49.5049 27.4876 48.8007 27.5571C47.8155 27.6539 46.8151 27.6146 45.8208 27.6297C45.585 27.6327 45.3523 27.6297 45.0561 27.6297V27.6418Z" fill="#E68531"/>
<path d="M22.5314 34.6535V38.0596C23.2114 38.0596 23.8642 38.0536 24.514 38.0596C25.0187 38.0657 25.5295 38.0596 26.0312 38.1171C26.9983 38.2289 27.6541 38.9361 27.6511 39.8216C27.6511 40.689 26.962 41.4476 25.9919 41.4748C24.239 41.5232 22.48 41.5383 20.7301 41.4688C19.6935 41.4295 19.0799 40.6497 19.0769 39.5889C19.0709 36.7842 19.0769 33.9826 19.0769 31.1779C19.0769 29.5398 19.0769 27.9018 19.0769 26.2637C19.0769 25.0124 19.7297 24.2811 20.987 24.2508C22.5888 24.2085 24.1967 24.2115 25.7985 24.2659C27.0588 24.3083 27.8415 25.2421 27.6058 26.303C27.4607 26.9588 26.9318 27.524 26.2609 27.5753C25.1849 27.6539 24.103 27.669 23.024 27.6721C22.6069 27.6721 22.474 27.7778 22.4951 28.2161C22.5374 29.0412 22.5223 29.8723 22.4981 30.6974C22.4891 31.0479 22.5737 31.1779 22.9454 31.1598C23.4139 31.1356 23.8944 31.1507 24.3599 31.2142C25.2998 31.3472 25.9466 32.0725 25.9254 32.9097C25.9042 33.7801 25.2182 34.4782 24.2511 34.5689C23.6859 34.6233 23.1147 34.6263 22.5253 34.6535H22.5314Z" fill="#E68531"/>
<path d="M76.1917 32.8673C76.1917 30.7396 76.1705 28.6089 76.2068 26.4812C76.2159 25.9795 76.3367 25.4355 76.5664 24.9912C76.8717 24.3989 77.5124 24.2538 78.138 24.2478C79.7096 24.2296 81.2812 24.2236 82.8528 24.2478C83.6265 24.2598 84.2642 24.556 84.6087 25.3116C84.8959 25.9372 84.7629 26.4994 84.3579 27.0131C83.9559 27.5209 83.3787 27.6539 82.7712 27.6539C81.8917 27.6569 81.0152 27.6448 80.1358 27.6146C79.7429 27.5995 79.5464 27.6841 79.5676 28.1405C79.6069 29.0351 79.5978 29.9297 79.5918 30.8273C79.5918 31.1355 79.7247 31.1839 79.9967 31.1779C80.5015 31.1688 81.0122 31.1658 81.5139 31.2292C82.4327 31.3441 83.0492 32.0634 83.0492 32.955C83.0492 33.7891 82.3934 34.4842 81.4686 34.5689C80.9669 34.6172 80.4561 34.59 79.9484 34.5779C79.6703 34.5719 79.5555 34.6535 79.5646 34.9557C79.5887 35.8836 79.5978 36.8144 79.5918 37.7423C79.5918 38.0777 79.7731 38.0656 80.0179 38.0656C81.0636 38.0717 82.1154 38.0536 83.155 38.1291C83.9438 38.1865 84.4939 38.6429 84.7055 39.4438C84.8656 40.0483 84.6269 40.7404 84.0587 41.1272C83.8018 41.2995 83.4754 41.4566 83.1792 41.4627C81.4081 41.499 79.6341 41.5322 77.863 41.4778C76.8777 41.4476 76.2582 40.8069 76.237 39.8095C76.1917 37.4975 76.2219 35.1824 76.2219 32.8703C76.2128 32.8703 76.2007 32.8703 76.1917 32.8703V32.8673Z" fill="#E68531"/>
<path d="M69.2497 32.6316C69.4825 31.7551 69.685 31.0177 69.8754 30.2773C70.2622 28.757 70.6158 27.2308 71.0268 25.7166C71.314 24.6588 72.0998 24.133 72.9883 24.3113C73.8587 24.4866 74.4602 25.1726 74.3272 26.0521C74.17 27.1159 73.8829 28.1617 73.626 29.2074C72.7526 32.7434 71.8701 36.2735 70.9876 39.8065C70.9392 40.003 70.8788 40.1964 70.8002 40.3838C70.5161 41.0698 69.9328 41.4688 69.2377 41.4688C68.5486 41.4688 67.9169 41.0759 67.6902 40.3717C67.3789 39.3925 67.1432 38.3921 66.8924 37.3947C66.0129 33.8949 65.1394 30.3951 64.266 26.8953C64.1995 26.6324 64.1391 26.3694 64.1088 26.1005C64.0031 25.227 64.4594 24.5379 65.2936 24.2871C66.0431 24.0604 66.8893 24.4291 67.2339 25.1817C67.4152 25.5776 67.527 26.0068 67.6328 26.4299C68.1194 28.3762 68.5939 30.3256 69.0745 32.275C69.0926 32.3475 69.1409 32.414 69.2497 32.6316Z" fill="#E68531"/>
</g>
<defs>
<clipPath id="clip0_1694_434">
<rect width="103.843" height="103.785" fill="white"/>
</clipPath>
</defs>
</svg>
