<svg width="75" height="54" viewBox="0 0 75 54" fill="none" xmlns="http://www.w3.org/2000/svg">
<g clip-path="url(#clip0_1352_544)">
<path d="M26.1366 29.1878C25.8844 28.6835 25.6489 28.2226 25.4185 27.7577C23.1474 23.1637 20.88 18.5683 18.6101 13.9717C18.3886 13.5209 18.2631 13.0532 18.4802 12.5653C18.7597 11.9355 19.2729 11.6794 19.9318 11.6867C21.2092 11.7007 22.4892 11.7159 23.7653 11.7324C25.1262 11.749 26.4847 11.7837 27.8442 11.7772C28.5486 11.7749 29.0661 12.0292 29.4781 12.6185C31.3839 15.3451 33.3149 18.0522 35.2346 20.7697C36.9617 23.2167 38.6875 25.6663 40.4045 28.1212C40.5563 28.3396 40.7099 28.4246 40.9829 28.4054C45.4228 28.1385 49.8628 27.8781 54.3041 27.6279C56.3762 27.5113 58.4508 27.3895 60.5245 27.3281C63.4201 27.2485 66.2776 27.553 68.9679 28.6769C71.2399 29.6271 73.0085 31.1835 73.7001 33.6875C74.119 35.1976 74.1524 36.7644 73.629 38.2621C72.9128 40.3013 71.3329 41.3023 69.2963 41.6313C68.8578 41.7003 68.4065 41.7183 67.9613 41.7169C63.798 41.7169 59.6372 41.7118 55.4751 41.7028C53.0722 41.6984 50.6692 41.6747 48.265 41.6665C45.8734 41.658 43.4819 41.656 41.0891 41.6502C38.6976 41.6418 36.306 41.6333 33.9145 41.6249C31.5103 41.6167 29.1074 41.6058 26.7032 41.5976C24.3116 41.5892 21.9189 41.5897 19.5285 41.5659C17.0787 41.5416 14.6275 41.4943 12.1801 41.452C9.74408 41.4122 7.93658 40.313 6.82818 38.1188C5.00556 34.506 3.2094 30.8775 1.40442 27.2542C1.16758 26.7766 0.921926 26.3042 0.696448 25.8226C0.155775 24.6619 0.755384 23.6363 2.02756 23.6221C3.51471 23.6049 5.00603 23.6504 6.49212 23.6678C6.80706 23.6723 7.12456 23.6845 7.44195 23.6775C8.08052 23.662 8.55631 23.9182 8.92627 24.4516C10.1102 26.1586 11.3205 27.8434 12.5018 29.5491C12.7072 29.8451 12.9279 29.9535 13.2882 29.9356C17.4349 29.6908 21.5829 29.4627 25.7309 29.2282C25.8446 29.2202 25.9597 29.2096 26.1341 29.193L26.1366 29.1878ZM4.24408 26.4918C4.28388 26.5913 4.30324 26.6552 4.3327 26.7176C5.22116 28.5096 6.10584 30.3029 6.99683 32.0961C7.78543 33.6856 8.56774 35.2815 9.37273 36.8631C9.95762 38.0168 10.9359 38.5582 12.1982 38.584C13.9083 38.6187 15.6208 38.6483 17.332 38.6548C22.6905 38.6764 28.049 38.685 33.4062 38.7027C39.1164 38.7244 44.8252 38.7487 50.5354 38.7767C55.7637 38.8014 60.9933 38.8363 66.2203 38.8571C67.1802 38.8589 68.1465 38.8606 69.1007 38.7701C70.0247 38.6839 71.0744 38.0585 71.13 36.5866C71.1397 36.3005 71.1393 36.0157 71.1578 35.7307C71.1715 35.4946 71.0763 35.4318 70.8474 35.4376C69.8498 35.4684 68.8546 35.4876 67.8569 35.4992C66.4962 35.5147 65.1368 35.5403 63.7759 35.5173C63.0385 35.5034 62.5063 34.9158 62.4754 34.1878C62.4443 33.4405 62.9062 32.8619 63.6529 32.7269C63.8386 32.6935 64.0256 32.6767 64.2128 32.6728C65.9377 32.6509 67.66 32.6342 69.3837 32.6149C69.4785 32.6136 69.5771 32.5981 69.7452 32.5816C69.0847 31.8958 68.3263 31.5359 67.5454 31.2289C65.3143 30.3499 62.973 30.0816 60.6037 30.196C54.7423 30.4741 48.884 30.8239 43.0254 31.148C42.8965 31.155 42.7702 31.1953 42.6136 31.227C42.6825 31.3248 42.7157 31.373 42.7488 31.4213C43.4134 32.3648 44.0843 33.3083 44.7426 34.2583C45.1215 34.8057 45.2237 35.3929 44.8479 35.9947C44.5122 36.533 43.9792 36.6547 43.405 36.6474C40.8034 36.6125 38.2017 36.5711 35.5988 36.5323C33.9811 36.5078 32.3634 36.4769 30.7471 36.4626C30.0338 36.4573 29.56 36.1254 29.2514 35.4847C28.7289 34.3968 28.1773 33.3234 27.6485 32.2356C27.555 32.0458 27.4535 31.9895 27.2437 32.0015C22.3333 32.2801 17.4242 32.5434 12.5152 32.8323C11.7301 32.8781 11.1759 32.6153 10.7344 31.9572C9.93934 30.7705 9.09899 29.6192 8.27625 28.4509C7.87573 27.8832 7.47771 27.3104 7.06334 26.752C6.98684 26.6505 6.84959 26.5383 6.73574 26.5335C5.91857 26.5027 5.10032 26.5002 4.24787 26.4905L4.24408 26.4918ZM40.8897 33.7204C40.4727 33.1414 40.0965 32.6337 39.7305 32.1182C37.344 28.7494 34.9563 25.3832 32.5787 22.0091C30.9217 19.6573 29.2761 17.295 27.6292 14.9354C27.4876 14.7347 27.3365 14.6317 27.0785 14.6392C26.5993 14.6563 26.1173 14.6336 25.6367 14.6276C24.4706 14.6108 23.3057 14.5914 22.0966 14.5726C22.1518 14.7116 22.184 14.8138 22.2314 14.9041C23.8394 18.1621 25.4512 21.4188 27.063 24.6755C28.4815 27.5399 29.8974 30.403 31.3247 33.2621C31.3913 33.3971 31.5227 33.5864 31.6366 33.5976C32.1086 33.6409 32.584 33.6252 33.0773 33.631C32.4347 32.3563 31.814 31.1338 31.2009 29.9087C31.0793 29.6667 30.9614 29.417 30.8865 29.1564C30.6658 28.4182 31.0484 27.692 31.7665 27.4407C32.5578 27.1614 33.1909 27.5077 33.6466 28.4157C34.4787 30.0777 35.3334 31.7252 36.1692 33.3858C36.2805 33.6036 36.4189 33.6875 36.663 33.6892C37.9403 33.6968 39.2166 33.7261 40.4952 33.7439C40.5952 33.7451 40.6925 33.7321 40.8871 33.7191L40.8897 33.7204Z" fill="#152B52"/>
<path d="M28.5034 43.4843C28.5034 42.6229 28.4946 41.7622 28.5151 40.9008C28.5151 40.8169 28.6147 40.7241 28.7963 40.6512C29.0863 40.5353 29.6106 40.4848 30.2229 40.504C30.8351 40.5238 31.2305 40.607 31.4004 40.7344C31.4766 40.792 31.5 40.8547 31.5 40.9155C31.5 42.6274 31.5 44.3387 31.4883 46.0506C31.4883 46.1191 31.4707 46.1894 31.4063 46.256C31.2686 46.3981 30.7062 46.4947 30.0471 46.4998C29.4027 46.5043 28.8315 46.4192 28.6499 46.2797C28.5561 46.2067 28.5063 46.128 28.5063 46.0525C28.4975 45.1969 28.5005 44.3406 28.5005 43.4849L28.5034 43.4843Z" fill="#152B52"/>
<path d="M62.9905 44.9994C62.9905 45.2915 63.0023 45.5836 62.9875 45.8757C62.9697 46.2009 62.5702 46.4109 61.8775 46.4802C61.0547 46.5623 60.2318 46.3811 60.0661 46.0794C60.0453 46.0399 60.0217 46.0005 60.0217 45.961C60.0157 45.3235 59.9743 44.6859 60.0246 44.0494C60.0513 43.7147 60.7409 43.4897 61.5016 43.5004C62.3718 43.5132 62.9786 43.7562 62.9934 44.1091C63.0082 44.4055 62.9934 44.7019 62.9934 44.9994L62.9875 44.9994L62.9905 44.9994Z" fill="#152B52"/>
</g>
<defs>
<clipPath id="clip0_1352_544">
<rect width="75" height="54" fill="white"/>
</clipPath>
</defs>
</svg>
