<svg width="24" height="24" viewBox="0 0 24 24" fill="none" xmlns="http://www.w3.org/2000/svg">
<path d="M11 22.95V20.95C8.91667 20.7167 7.129 19.8543 5.637 18.363C4.145 16.8717 3.28267 15.084 3.05 13H1.05V11H3.05C3.28334 8.91665 4.146 7.12899 5.638 5.63699C7.13 4.14499 8.91734 3.28265 11 3.04999V1.04999H13V3.04999C15.0833 3.28332 16.871 4.14599 18.363 5.63799C19.855 7.12999 20.7173 8.91732 20.95 11H22.95V13H20.95C20.7167 15.0833 19.8543 16.871 18.363 18.363C16.8717 19.855 15.084 20.7173 13 20.95V22.95H11ZM12 19C13.9333 19 15.5833 18.3167 16.95 16.95C18.3167 15.5833 19 13.9333 19 12C19 10.0667 18.3167 8.41665 16.95 7.04999C15.5833 5.68332 13.9333 4.99999 12 4.99999C10.0667 4.99999 8.41667 5.68332 7.05 7.04999C5.68334 8.41665 5 10.0667 5 12C5 13.9333 5.68334 15.5833 7.05 16.95C8.41667 18.3167 10.0667 19 12 19ZM12 16C10.9 16 9.95834 15.6083 9.175 14.825C8.39167 14.0417 8 13.1 8 12C8 10.9 8.39167 9.95832 9.175 9.17499C9.95834 8.39165 10.9 7.99999 12 7.99999C13.1 7.99999 14.0417 8.39165 14.825 9.17499C15.6083 9.95832 16 10.9 16 12C16 13.1 15.6083 14.0417 14.825 14.825C14.0417 15.6083 13.1 16 12 16ZM12 14C12.55 14 13.021 13.8043 13.413 13.413C13.805 13.0217 14.0007 12.5507 14 12C13.9993 11.4493 13.8037 10.9787 13.413 10.588C13.0223 10.1973 12.5513 10.0013 12 9.99999C11.4487 9.99865 10.978 10.1947 10.588 10.588C10.198 10.9813 10.002 11.452 10 12C9.998 12.548 10.194 13.019 10.588 13.413C10.982 13.807 11.4527 14.0027 12 14Z" fill="#E68531"/>
</svg>
