<svg width="36" height="36" viewBox="0 0 36 36" fill="none" xmlns="http://www.w3.org/2000/svg">
<path d="M13.7766 6.12713L12.7196 6.45122C11.7783 6.74009 10.9378 7.2966 10.2968 8.05523C9.65588 8.81386 9.24121 9.74305 9.10162 10.7334C8.66376 13.8363 9.64269 17.4643 12.0031 21.625C14.3575 25.7752 16.9493 28.449 19.8021 29.6193C20.7187 29.9953 21.7221 30.0954 22.6931 29.9079C23.664 29.7204 24.5616 29.2531 25.2791 28.5615L26.0782 27.7903C26.5971 27.2905 26.92 26.616 26.987 25.8921C27.054 25.1682 26.8605 24.4442 26.4424 23.8547L24.4432 21.0339C24.1729 20.653 23.7923 20.3678 23.3548 20.2182C22.9172 20.0686 22.4446 20.0621 22.0032 20.1996L18.9794 21.1404L18.9013 21.1554C18.5681 21.2049 17.7985 20.4712 16.8402 18.7817C15.8377 17.0142 15.6313 15.9804 15.907 15.7133L17.4447 14.2534C18.0065 13.7196 18.3902 13.0204 18.5422 12.2536C18.6942 11.4869 18.6069 10.691 18.2924 9.97722L17.3164 7.77009C17.023 7.10592 16.5022 6.57302 15.8512 6.27073C15.2002 5.96845 14.4619 5.91741 13.7766 6.12713ZM15.9748 8.38527L16.9479 10.5924C17.1367 11.0205 17.1893 11.498 17.0984 11.958C17.0075 12.418 16.7775 12.8376 16.4407 13.1581L14.8986 14.6195C13.9108 15.5708 14.2381 17.1943 15.565 19.5319C16.8122 21.7316 17.9504 22.8179 19.1741 22.6288L19.3569 22.5898L22.4352 21.634C22.5824 21.588 22.74 21.5901 22.8859 21.6398C23.0319 21.6896 23.1588 21.7847 23.249 21.9116L25.2482 24.7324C25.4575 25.0272 25.5545 25.3893 25.5212 25.7514C25.4878 26.1135 25.3264 26.4509 25.0668 26.701L24.2663 27.4722C23.7537 27.9659 23.1127 28.2994 22.4194 28.4332C21.726 28.567 21.0095 28.4954 20.355 28.2269C17.8516 27.2006 15.4854 24.7594 13.2813 20.8748C11.0713 16.9812 10.1764 13.6698 10.5612 10.9465C10.6608 10.2389 10.957 9.57507 11.4148 9.03307C11.8727 8.49106 12.4732 8.09348 13.1456 7.88712L14.2027 7.56303C14.5454 7.45823 14.9139 7.48385 15.2394 7.63514C15.5649 7.78643 15.8253 8.05304 15.9719 8.38527" fill="white"/>
</svg>
