<svg width="60" height="60" viewBox="0 0 60 60" fill="none" xmlns="http://www.w3.org/2000/svg">
<g clip-path="url(#clip0_172_231)">
<path d="M46.9462 23.4928C46.6163 23.9296 46.2572 24.4028 45.8667 24.9221C44.0666 23.5996 42.7421 21.9057 41.8033 19.9134C40.862 17.9162 40.4472 15.7977 40.5539 13.5506C40.1658 13.5506 39.8043 13.5385 39.4477 13.5603C39.3774 13.5652 39.2852 13.6865 39.2488 13.7739C38.5598 15.4313 37.7787 17.0426 36.8302 18.5666C35.6657 20.4352 34.3363 22.1824 32.7571 23.7257C32.7158 23.767 32.6673 23.8034 32.5678 23.8908C32.1627 23.4248 31.76 22.9613 31.3306 22.4663C32.5314 21.2481 33.6959 19.8649 34.7002 18.3555C35.7045 16.8461 36.5754 15.2687 37.2838 13.5603H22.7138C24.1402 16.9577 26.1634 19.9183 28.6767 22.4736C28.2449 22.9589 27.8325 23.4224 27.3909 23.9199C26.8645 23.3448 26.3624 22.8352 25.9063 22.2891C23.7594 19.7217 22.0151 16.9092 20.7706 13.7957C20.693 13.604 20.5984 13.5312 20.3946 13.5458C20.1642 13.5628 19.9313 13.5603 19.7008 13.5458C19.4922 13.5336 19.4194 13.5992 19.4291 13.8176C19.5286 16.1011 19.0337 18.2584 18.0124 20.2944C17.1318 22.0489 15.9018 23.5268 14.3687 24.7547C14.2134 24.8809 14.114 24.9051 13.983 24.7231C13.67 24.2912 13.3425 23.8689 12.9932 23.4103C16.1711 20.9132 17.6873 17.6445 17.5321 13.5797C17.156 13.5361 16.8455 13.4997 16.5471 13.8006C13.1096 17.261 9.66241 20.7118 6.20306 24.1528C5.90468 24.4489 5.80279 24.7377 5.80279 25.1478C5.81492 36.3154 5.81249 47.4831 5.81249 58.6531C5.81249 58.7332 5.81249 58.8133 5.81249 58.8958C5.79551 59.5583 5.40009 59.983 4.73781 59.9927C3.51758 60.0072 2.29978 60.0072 1.07954 59.9927C0.436679 59.9854 0.0315523 59.5607 0.00971913 58.9201C0.00486731 58.7988 0.00971913 58.6774 0.00971913 58.5561C0.00971913 46.6022 0.012145 34.6483 0.00244141 22.6944C0.00244141 22.1363 0.179533 21.7189 0.570104 21.3306C4.66261 17.2562 8.74542 13.1721 12.8331 9.09279C13.146 8.77974 13.459 8.46427 13.7695 8.1488C14.0363 7.87459 14.359 7.74597 14.7423 7.74597C24.9311 7.74597 35.1199 7.74597 45.3087 7.74597C45.6993 7.74597 46.0025 7.90613 46.2718 8.17307C48.9306 10.8303 51.5942 13.4851 54.253 16.1423C55.9633 17.8532 57.6614 19.5761 59.3838 21.2748C59.8156 21.7019 60.0073 22.1557 60.0049 22.7696C59.9927 34.7138 59.9952 46.658 59.9952 58.6022C59.9952 58.7041 59.9952 58.8036 59.9952 58.9055C59.9758 59.568 59.5779 59.9878 58.9156 59.9951C57.6954 60.0097 56.4776 60.0097 55.2574 59.9951C54.6169 59.9878 54.2142 59.5607 54.1924 58.9177C54.1875 58.7963 54.1924 58.675 54.1924 58.5537C54.1924 47.3448 54.1924 36.1359 54.1972 24.9294C54.1972 24.6697 54.1293 24.495 53.9377 24.3033C50.4201 20.7943 46.9098 17.278 43.4117 13.752C43.1448 13.4827 42.861 13.5725 42.5747 13.57C42.5383 13.57 42.468 13.7059 42.4655 13.7787C42.3928 16.6204 43.1302 19.2024 44.9788 21.4058C45.5853 22.129 46.2742 22.7818 46.9535 23.5001L46.9462 23.4928ZM58.0544 58.0465V57.6558C58.0544 46.095 58.0544 34.5367 58.0544 22.9759C58.0544 22.9055 58.069 22.8303 58.0496 22.7648C58.0253 22.675 57.9962 22.5731 57.9356 22.5051C57.7318 22.2819 57.511 22.0732 57.2976 21.8596C53.2875 17.8459 49.2799 13.8297 45.265 9.82322C45.1729 9.73101 45.0006 9.68005 44.8672 9.68005C34.9622 9.67277 25.0572 9.67277 15.1498 9.68005C14.9921 9.68005 14.7956 9.76498 14.6816 9.87418C13.7792 10.7526 12.8889 11.6481 11.9986 12.5387C8.73814 15.805 5.47772 19.0738 2.2173 22.3377C2.05961 22.4954 1.93104 22.6289 1.93104 22.891C1.94074 34.5003 1.93832 46.112 1.93832 57.7213C1.93832 57.8281 1.93832 57.9324 1.93832 58.0343H3.87419C3.87419 57.8887 3.87419 57.7601 3.87419 57.6315C3.87419 48.2693 3.87419 38.9047 3.87419 29.5425C3.87419 27.8293 3.87662 26.116 3.87419 24.4028C3.87419 24.0412 3.97365 23.7306 4.23323 23.4734C4.49765 23.2113 4.7645 22.9492 5.0265 22.6847C8.55862 19.149 12.0956 15.6157 15.6229 12.0752C15.9504 11.7476 16.3142 11.5971 16.78 11.5971C25.5982 11.6044 34.414 11.6044 43.2321 11.5971C43.7003 11.5971 44.0618 11.75 44.3869 12.08C45.5537 13.2643 46.7351 14.4339 47.9117 15.6085C50.4832 18.1808 53.0522 20.7555 55.631 23.3229C55.9754 23.6651 56.1283 24.0461 56.1258 24.5338C56.1186 35.5704 56.121 46.6046 56.121 57.6412C56.121 57.7698 56.121 57.896 56.121 58.0368H58.0569L58.0544 58.0465Z" fill="black"/>
<path d="M10.8778 39.0795C10.5285 39.0091 10.2422 38.946 9.95113 38.8951C9.54358 38.8247 9.13602 38.7665 8.72847 38.7009C8.08803 38.5966 7.75083 38.2107 7.74841 37.5652C7.74355 36.7183 7.74355 35.8714 7.74841 35.0245C7.75326 34.2771 8.16566 33.867 8.91527 33.8645C10.6595 33.8597 12.4013 33.8645 14.1455 33.8645H14.49C14.849 32.7895 15.2081 31.7242 15.555 30.6564C16.1323 28.8801 17.2944 27.7153 19.1138 27.2518C19.5286 27.145 19.9701 27.0989 20.3995 27.0989C26.8185 27.0892 33.2374 27.0868 39.6588 27.0989C41.0076 27.1013 42.2157 27.5357 43.1885 28.4991C43.8023 29.1058 44.1807 29.8605 44.4476 30.6759C44.7945 31.7339 45.1511 32.7895 45.5077 33.867H45.8497C47.5721 33.867 49.2969 33.867 51.0193 33.867C51.849 33.867 52.2493 34.2625 52.2493 35.0852C52.2493 35.9005 52.2493 36.7183 52.2493 37.5337C52.2493 38.218 51.9509 38.5796 51.2765 38.7034C50.5851 38.8296 49.8913 38.9388 49.1368 39.0674C49.2969 39.2397 49.4231 39.3707 49.5444 39.5066C50.032 40.0429 50.5608 40.5477 50.9926 41.1252C51.8805 42.3094 52.2396 43.6878 52.2444 45.1535C52.2565 49.4075 52.2493 53.6615 52.2468 57.9131C52.2468 59.1677 51.4196 59.9903 50.1581 59.9927C48.3339 59.9976 46.5096 59.9952 44.6853 59.9927C43.3777 59.9927 42.5747 59.1822 42.5747 57.8767C42.5747 56.9812 42.5747 56.0858 42.5747 55.1733H17.4205C17.4205 55.2704 17.4205 55.3772 17.4205 55.4815C17.4205 56.2969 17.4229 57.1147 17.4205 57.9301C17.4157 59.1531 16.5933 59.9855 15.373 59.9903C13.5196 59.9976 11.6638 59.9976 9.81043 59.9903C8.56108 59.9855 7.74841 59.1628 7.74841 57.9179C7.74841 53.6033 7.73385 49.291 7.75568 44.9764C7.76539 43.285 8.33062 41.778 9.48293 40.5161C9.91474 40.0429 10.3757 39.5964 10.8778 39.0795ZM47.9869 40.6617C47.9263 40.5695 47.9093 40.5307 47.8826 40.504C47.002 39.6182 46.1239 38.7301 45.2335 37.8516C45.1559 37.7739 45.0007 37.74 44.8818 37.74C34.9671 37.7351 25.05 37.7351 15.1353 37.7424C14.9849 37.7424 14.8005 37.8225 14.6938 37.9292C13.9078 38.6961 13.1412 39.4823 12.3601 40.2564C12.2485 40.3681 12.0956 40.4409 11.9622 40.5307C11.9889 40.5695 12.0156 40.6059 12.0423 40.6447C12.1223 40.6787 12.2024 40.7199 12.2849 40.7442C12.7652 40.8947 13.2455 41.0427 13.7258 41.1907C16.2051 41.9527 18.682 42.7195 21.1661 43.4742C21.7144 43.6417 22.185 43.8601 22.2747 44.5104H22.6289C24.3319 44.5104 26.0349 44.5201 27.7379 44.5056C28.2182 44.5007 28.5991 44.6463 28.9145 45.0031C29.2468 45.3768 29.5937 45.7408 29.9843 46.1582C30.4137 45.7092 30.7751 45.3355 31.1317 44.9545C31.4253 44.6415 31.777 44.4983 32.2088 44.5056C32.8735 44.5177 33.5382 44.508 34.2029 44.508H37.7399C37.8054 43.8941 38.2299 43.6538 38.7539 43.4937C41.2745 42.7292 43.7926 41.9527 46.3106 41.181C46.8565 41.0136 47.3999 40.8413 47.9845 40.6593L47.9869 40.6617ZM44.1225 35.7841C44.1298 35.7477 44.1419 35.7258 44.137 35.7113C43.6082 34.129 43.0987 32.5371 42.5432 30.9646C42.1065 29.7319 41.044 29.0281 39.734 29.0281C33.2641 29.0281 26.7942 29.0281 20.3267 29.0281C18.893 29.0281 17.8887 29.727 17.4181 31.0787C17.0421 32.161 16.6903 33.253 16.3288 34.3402C16.1712 34.8158 16.0111 35.289 15.8461 35.7865H44.1249L44.1225 35.7841ZM9.68185 46.5173V46.8473C9.68185 48.6116 9.68185 50.3733 9.68185 52.1375C9.68185 52.8631 10.0288 53.2198 10.7493 53.2198C12.7434 53.2198 14.7399 53.2198 16.734 53.2077C16.8577 53.2077 17.0251 53.1252 17.1003 53.0257C17.7068 52.2346 18.3108 51.4387 18.8833 50.6257C19.5165 49.7278 20.4068 49.3541 21.4548 49.3517C27.1678 49.3396 32.8808 49.3396 38.5938 49.3517C39.6394 49.3517 40.4982 49.7861 41.1265 50.6524C41.699 51.4435 42.2958 52.2176 42.8683 53.0087C42.9823 53.1665 43.0987 53.2198 43.2904 53.2198C45.2554 53.2126 47.2204 53.2174 49.1853 53.215C49.9713 53.215 50.3182 52.8655 50.3182 52.0647C50.3182 50.3418 50.3182 48.6188 50.3182 46.8959C50.3182 46.7915 50.3085 46.6848 50.3013 46.544C50.1824 46.6095 50.0951 46.6532 50.0126 46.7042C49.246 47.1725 48.4018 47.3934 47.5139 47.4031C45.9929 47.42 44.4718 47.4225 42.9508 47.4031C41.8082 47.3909 40.8742 46.9663 40.2823 45.9325C40.1731 45.7408 40.047 45.5588 39.9232 45.3743C39.8699 45.2967 39.8044 45.2263 39.7364 45.1438C39.7049 45.1875 39.6855 45.2045 39.6855 45.219C39.7097 46.0902 39.1663 46.4566 38.3318 46.4469C36.4178 46.4227 34.5037 46.4348 32.5897 46.4469C32.4223 46.4469 32.2185 46.5343 32.0948 46.6508C31.6388 47.0779 31.2191 47.5414 30.7679 47.9733C30.222 48.4975 29.7878 48.4926 29.2468 47.9661C28.8198 47.5511 28.3953 47.1337 27.9902 46.6993C27.801 46.4979 27.6045 46.43 27.3303 46.43C25.3848 46.4421 23.4416 46.4372 21.496 46.4348C20.7707 46.4348 20.3753 46.0562 20.3243 45.3379C20.3195 45.2846 20.3049 45.2312 20.2758 45.0783C20.1157 45.3258 19.992 45.4908 19.8925 45.668C19.2084 46.8837 18.1701 47.4395 16.7825 47.4103C15.555 47.3836 14.3226 47.3861 13.0951 47.4103C11.8894 47.4346 10.7541 47.2308 9.68428 46.51L9.68185 46.5173ZM19.3394 53.1931H40.668C40.241 52.635 39.8529 52.1108 39.4453 51.6037C39.2537 51.3658 38.982 51.2785 38.6666 51.2785C32.8929 51.2833 27.1169 51.2833 21.3432 51.2785C20.9914 51.2785 20.7125 51.3974 20.5014 51.6692C20.1205 52.1618 19.747 52.6593 19.3394 53.1956V53.1931ZM50.3013 58.0417V55.0083C48.3751 55.3165 46.4416 55.052 44.5276 55.1782V58.0417H50.3013ZM9.69156 58.0344H15.4628V55.1515C15.2178 55.1515 14.997 55.1588 14.7738 55.1515C13.083 55.0957 11.3824 55.2898 9.68913 55.0107V58.0344H9.69156ZM14.7011 45.4787C15.4871 45.4787 16.273 45.4617 17.059 45.4835C17.5321 45.4957 17.8669 45.3137 18.124 44.9303C18.3351 44.6172 18.3302 44.5784 17.9615 44.4668C15.5695 43.7339 13.1752 43.0035 10.7856 42.2633C10.6013 42.2075 10.4921 42.2463 10.4145 42.4016C10.2398 42.7632 10.0749 43.1272 9.90261 43.4912C9.77889 43.7485 9.84196 43.9741 10.0021 44.195C10.5964 45.0128 11.3824 45.4738 12.4061 45.4811C13.1727 45.486 13.9369 45.4811 14.7035 45.4811L14.7011 45.4787ZM41.7281 44.5711C41.8567 45.1414 42.3103 45.4811 42.9241 45.4811C44.4961 45.4811 46.0681 45.486 47.6376 45.4738C48.6783 45.4666 49.4692 44.9836 50.0247 44.1246C50.1193 43.979 50.1533 43.7315 50.1023 43.564C49.9907 43.2025 49.7991 42.8651 49.656 42.5133C49.5492 42.2488 49.4037 42.1954 49.1199 42.2852C47.3659 42.8384 45.6047 43.3699 43.8459 43.911C43.1376 44.1294 42.4316 44.3503 41.7257 44.5711H41.7281ZM46.4853 35.8156C46.3034 36.3155 46.6309 36.58 46.9098 36.8906C47.2519 37.2716 47.5964 37.456 48.1398 37.3201C48.8457 37.143 49.5784 37.0629 50.294 36.9416V35.8156H46.4853ZM9.69884 36.9343C10.4557 37.0629 11.1956 37.1551 11.9185 37.3226C12.4061 37.4342 12.7555 37.3274 13.0393 36.9343C13.1097 36.8372 13.2018 36.7523 13.2965 36.6795C13.5973 36.4465 13.5851 36.1408 13.5269 35.8156H9.69641V36.9343H9.69884Z" fill="black"/>
<path d="M30.0013 5.80465C20.448 5.80465 10.8948 5.80465 1.34159 5.80465C0.3688 5.80465 0.00976562 5.4455 0.00976562 4.47482C0.00976562 3.38524 0.00976562 2.29808 0.00976562 1.20849C0.00976562 0.405258 0.412467 0 1.22029 0C20.4189 0 39.6152 0 58.8138 0C59.578 0 59.9904 0.412538 59.9904 1.17937C59.9928 2.30779 59.9904 3.4362 59.9904 4.56704C59.9904 5.41638 59.6022 5.80465 58.7507 5.80465C49.166 5.80465 39.5836 5.80465 29.9988 5.80465H30.0013ZM1.95777 3.85116H58.0327V1.95106H1.95777V3.85116Z" fill="black"/>
<path d="M48.3604 31.9183H46.4634V30.0206H48.3604V31.9183Z" fill="black"/>
<path d="M50.3111 26.1451V28.038H48.4043V26.1451H50.3111Z" fill="black"/>
<path d="M9.69385 28.038V26.1451H11.6006V28.038H9.69385Z" fill="black"/>
<path d="M41.5851 26.1186H39.7002V24.2112H41.5851V26.1186Z" fill="black"/>
<path d="M13.5343 31.9158H11.6396V30.0157H13.5343V31.9158Z" fill="black"/>
<path d="M18.4126 24.2039H20.3097V26.1015H18.4126V24.2039Z" fill="black"/>
<path d="M20.3364 22.231V20.3381H22.2432V22.231H20.3364Z" fill="black"/>
<path d="M30.9498 21.2724H29.0552V19.3723H30.9498V21.2724Z" fill="black"/>
<path d="M31.9565 15.4968H33.8536V17.3945H31.9565V15.4968Z" fill="black"/>
<path d="M26.144 17.3945V15.4968H28.0411V17.3945H26.144Z" fill="black"/>
<path d="M37.7593 20.3259H39.6515V22.2333H37.7593V20.3259Z" fill="black"/>
<path d="M44.5249 51.2639V49.3662H48.3554V51.2639H44.5249Z" fill="black"/>
<path d="M15.4677 51.2712H11.6348V49.3735H15.4677V51.2712Z" fill="black"/>
</g>
<defs>
<clipPath id="clip0_172_231">
<rect width="60" height="60" fill="white"/>
</clipPath>
</defs>
</svg>
