<svg width="50" height="36" viewBox="0 0 50 36" fill="none" xmlns="http://www.w3.org/2000/svg">
<path d="M44.475 32.7273H5.52421C4.53616 32.7264 3.58885 32.3383 2.89035 31.6483C2.19185 30.9583 1.79927 30.0227 1.79883 29.0471V6.95452C1.79883 5.97861 2.19122 5.04262 2.88977 4.35224C3.58831 3.66186 4.53587 3.27357 5.52421 3.27271H44.475C45.463 3.27357 46.4103 3.66164 47.1088 4.35166C47.8073 5.04169 48.1999 5.97726 48.2003 6.95289V29.0454C48.2014 29.529 48.1058 30.0079 47.919 30.4549C47.7323 30.9019 47.4579 31.3081 47.1118 31.6501C46.7657 31.9922 46.3546 32.2634 45.9021 32.4482C45.4496 32.6331 44.9646 32.7279 44.475 32.7273Z" fill="#00A6ED"/>
<path d="M37.2397 22.909H7.78803C7.51799 22.9077 7.25945 22.801 7.06881 22.6122C6.87818 22.4233 6.77094 22.1677 6.77051 21.901V17.3716C6.77051 16.8267 7.22127 16.3636 7.78803 16.3636H37.2397C37.7899 16.3636 38.2573 16.8103 38.2573 17.3716V21.9174C38.2564 22.0485 38.2294 22.1781 38.1778 22.2989C38.1262 22.4197 38.051 22.5292 37.9565 22.6213C37.862 22.7134 37.7501 22.7862 37.6271 22.8356C37.5041 22.8849 37.3725 22.9099 37.2397 22.909Z" fill="#F4F4F4"/>
<path d="M40.4995 29.4545H43.4725C43.6584 29.4552 43.8425 29.4195 44.0143 29.3496C44.1861 29.2797 44.3422 29.1769 44.4736 29.0471C44.605 28.9174 44.7091 28.7633 44.7799 28.5936C44.8507 28.424 44.8868 28.2422 44.8861 28.0587V25.1231C44.8868 24.9396 44.8507 24.7578 44.7799 24.5881C44.7091 24.4185 44.605 24.2644 44.4736 24.1346C44.3422 24.0049 44.1861 23.9021 44.0143 23.8322C43.8425 23.7623 43.6584 23.7266 43.4725 23.7272H40.4995C40.3137 23.7266 40.1296 23.7623 39.9578 23.8322C39.786 23.9021 39.6299 24.0049 39.4985 24.1346C39.3671 24.2644 39.263 24.4185 39.1922 24.5881C39.1214 24.7578 39.0853 24.9396 39.0859 25.1231V28.0587C39.089 28.428 39.2389 28.7813 39.5033 29.0424C39.7678 29.3035 40.1256 29.4515 40.4995 29.4545Z" fill="#FFF478"/>
<path d="M48.2003 8.18182H1.79883V13.0909H48.2003V8.18182Z" fill="#321B41"/>
<path d="M8.42773 19.6364C8.42773 19.4194 8.51503 19.2113 8.67043 19.0578C8.82582 18.9044 9.03657 18.8182 9.25633 18.8182H27.4855C27.7053 18.8182 27.916 18.9044 28.0714 19.0578C28.2268 19.2113 28.3141 19.4194 28.3141 19.6364C28.3141 19.8534 28.2268 20.0615 28.0714 20.2149C27.916 20.3683 27.7053 20.4545 27.4855 20.4545H9.25633C9.03657 20.4545 8.82582 20.3683 8.67043 20.2149C8.51503 20.0615 8.42773 19.8534 8.42773 19.6364Z" fill="#9B9B9B"/>
</svg>
