<svg width="71" height="54" viewBox="0 0 71 54" fill="none" xmlns="http://www.w3.org/2000/svg">
<g clip-path="url(#clip0_1352_536)">
<path d="M24.9405 18.8595C24.5004 18.527 24.0938 18.2253 23.6899 17.918C19.704 14.8786 15.7208 11.8364 11.7349 8.79417C11.345 8.49526 11.033 8.14047 11.0163 7.62086C10.994 6.9504 11.3394 6.50622 11.9271 6.22966C13.0664 5.69329 14.2084 5.15692 15.3476 4.62335C16.562 4.05346 17.782 3.50033 18.9853 2.91088C19.6093 2.60638 20.1775 2.60638 20.7959 2.9444C23.6565 4.50881 26.531 6.04528 29.4 7.59572C31.982 8.99252 34.5641 10.3921 37.1406 11.8001C37.369 11.9258 37.5417 11.9342 37.7757 11.8001C41.6001 9.66018 45.4272 7.52588 49.2599 5.39996C51.0482 4.40824 52.8364 3.41093 54.6497 2.4667C57.1844 1.15372 59.85 0.192722 62.719 0.01952C65.1423 -0.125746 67.379 0.474874 69.0669 2.36613C70.0864 3.50591 70.7883 4.8608 70.9666 6.39448C71.2061 8.48408 70.234 10.0373 68.5684 11.1994C68.209 11.4481 67.8163 11.6576 67.4208 11.8476C63.7273 13.6355 60.0339 15.4178 56.3376 17.1973C54.204 18.2253 52.062 19.2366 49.9256 20.2618C47.8004 21.2815 45.6779 22.3067 43.5526 23.3292C41.4274 24.3489 39.3021 25.3685 37.1768 26.3882C35.0404 27.4134 32.904 28.4359 30.7676 29.4611C28.6423 30.4808 26.5199 31.5088 24.389 32.5145C22.2053 33.5453 20.0104 34.5566 17.821 35.5707C15.6429 36.582 13.5677 36.3976 11.643 34.9561C8.476 32.5815 5.32571 30.1819 2.16984 27.7906C1.75482 27.4749 1.33422 27.1676 0.927554 26.8435C-0.0501237 26.0613 0.0417946 24.9076 1.16431 24.3489C2.47624 23.6952 3.8188 23.0945 5.14466 22.4716C5.42598 22.3403 5.71288 22.2146 5.99142 22.0721C6.55129 21.7843 7.0833 21.8039 7.64038 22.1112C9.42304 23.0945 11.2196 24.0471 12.9995 25.0305C13.3087 25.2009 13.551 25.2009 13.863 25.0305C17.4367 23.0359 21.0187 21.0552 24.5979 19.069C24.6954 19.0131 24.7929 18.9544 24.9405 18.865V18.8595ZM4.36196 25.9049C4.43995 25.9747 4.48452 26.0222 4.53744 26.0641C6.09448 27.2486 7.64874 28.4359 9.20857 29.6203C10.5901 30.6707 11.9689 31.7295 13.3616 32.7659C14.3755 33.523 15.4757 33.5761 16.6066 33.0565C18.1386 32.3525 19.6706 31.6429 21.1914 30.9138C25.9544 28.6314 30.7119 26.3379 35.4722 24.0527C40.5472 21.6195 45.6222 19.1891 50.7 16.7615C55.3488 14.5378 60.0032 12.3225 64.6493 10.096C65.5016 9.68532 66.3595 9.27187 67.1673 8.783C67.95 8.31088 68.6129 7.31357 68.0308 6.00338C67.9166 5.74916 67.794 5.50053 67.6882 5.24352C67.599 5.03121 67.4876 5.01724 67.2871 5.12061C66.4152 5.57596 65.5406 6.02014 64.6604 6.45873C63.4599 7.05656 62.265 7.66277 61.0478 8.22707C60.3876 8.53157 59.6634 8.24663 59.3236 7.62366C58.9754 6.98393 59.137 6.27994 59.7414 5.84135C59.8918 5.7324 60.0506 5.63742 60.2149 5.55361C61.7358 4.79376 63.2566 4.03949 64.7774 3.28243C64.861 3.24052 64.9418 3.18465 65.0838 3.09805C64.2036 2.78238 63.3764 2.79355 62.5519 2.8606C60.1954 3.05056 58.0033 3.82159 55.9505 4.93902C50.8699 7.69909 45.8227 10.5206 40.7644 13.3198C40.653 13.3812 40.5583 13.4706 40.433 13.5656C40.536 13.6215 40.5862 13.6494 40.6363 13.6774C41.6307 14.2165 42.6307 14.7529 43.6223 15.3004C44.1933 15.6161 44.5359 16.0854 44.4607 16.7726C44.3938 17.3872 43.9732 17.7225 43.4607 17.9627C41.1377 19.0494 38.8119 20.1305 36.486 21.2145C35.0404 21.8877 33.592 22.5554 32.152 23.237C31.5169 23.5387 30.9542 23.4521 30.4055 23.0247C29.4752 22.2984 28.5254 21.5972 27.5895 20.8736C27.4251 20.7479 27.3109 20.7423 27.1299 20.8429C22.8933 23.1951 18.6511 25.5333 14.4201 27.8939C13.7432 28.271 13.1388 28.2794 12.4647 27.8939C11.2503 27.1983 10.0108 26.553 8.77961 25.8853C8.18075 25.5613 7.58189 25.2316 6.97467 24.9215C6.86325 24.8657 6.69334 24.8266 6.59028 24.8713C5.85215 25.1953 5.12516 25.5445 4.36475 25.9021L4.36196 25.9049ZM39.9734 16.4849C39.355 16.1581 38.8035 15.8759 38.2576 15.5826C34.695 13.6634 31.1325 11.747 27.5755 9.81942C25.0965 8.4757 22.6231 7.11802 20.1496 5.76313C19.938 5.64859 19.7597 5.62345 19.5341 5.74078C19.1163 5.96148 18.6789 6.14865 18.25 6.34978C17.2083 6.83587 16.1665 7.31916 15.0858 7.822C15.1944 7.91978 15.2668 7.99521 15.3476 8.05387C18.172 10.2105 20.9992 12.3644 23.8264 14.5182C26.3137 16.4123 28.7983 18.3063 31.2913 20.192C31.4083 20.2814 31.606 20.3903 31.7119 20.3512C32.1492 20.1864 32.5642 19.9685 33.0043 19.7618C31.8873 18.9237 30.8122 18.122 29.7426 17.3146C29.5309 17.1554 29.3192 16.9878 29.1409 16.7922C28.6284 16.2419 28.6563 15.4429 29.1855 14.9149C29.7676 14.3311 30.4779 14.3618 31.2718 14.9596C32.723 16.0547 34.1881 17.1274 35.6421 18.2197C35.8343 18.3622 35.993 18.3762 36.2103 18.2728C37.3467 17.7309 38.4915 17.2084 39.6336 16.6749C39.7227 16.633 39.8035 16.5799 39.9706 16.4849H39.9734Z" fill="#E68531"/>
<path d="M28.3136 44.1218C36.0905 44.1218 43.8673 44.1218 51.6442 44.1218C51.92 44.1218 52.2013 44.1358 52.4715 44.1861C53.1622 44.3118 53.6385 44.9096 53.6218 45.5941C53.6051 46.2534 53.0954 46.8065 52.4046 46.8987C52.1316 46.935 51.8503 46.9545 51.5746 46.9545C36.032 46.9545 20.4894 46.9573 4.94965 46.9545C4.67389 46.9545 4.39256 46.935 4.12238 46.8847C3.48452 46.7646 3.00822 46.1835 3.00543 45.555C3.00543 44.9013 3.47617 44.3118 4.12238 44.1861C4.348 44.1414 4.58197 44.1218 4.81038 44.1218C12.6457 44.1191 20.4783 44.1218 28.3136 44.1218Z" fill="#E68531"/>
<path d="M23.6398 54C19.8906 54 16.1442 54.0084 12.3951 53.9889C12.0302 53.9889 11.6263 53.8939 11.3088 53.7207C10.8046 53.4441 10.5846 52.9441 10.6681 52.3602C10.7545 51.7764 11.1166 51.3992 11.6709 51.2372C11.9216 51.1646 12.1945 51.1422 12.4591 51.1422C19.9101 51.1422 27.3583 51.1422 34.8092 51.1534C35.1073 51.1534 35.4137 51.1701 35.7033 51.2316C36.3217 51.3629 36.7423 51.8993 36.7646 52.5278C36.7841 53.1424 36.4136 53.6872 35.8064 53.8604C35.4889 53.9498 35.1463 53.9973 34.8176 53.9973C31.0935 54.0056 27.3666 54.0028 23.6425 54.0028L23.6398 54Z" fill="#E68531"/>
<path d="M1.66129e-05 17.133C0.0195145 16.5352 0.337051 16.1078 0.891347 15.8703C1.82446 15.4708 2.76871 15.0937 3.70739 14.7082C5.73795 13.8757 7.76573 13.0432 9.79908 12.2191C10.2141 12.0515 10.6319 11.8643 11.1026 12.0124C11.6792 12.194 12.019 12.5879 12.111 13.1745C12.1973 13.722 11.9606 14.1495 11.5149 14.4512C11.2976 14.5992 11.0525 14.711 10.8074 14.8115C7.91336 15.996 5.01375 17.1749 2.11693 18.3566C1.60441 18.5661 1.08911 18.6555 0.596094 18.3147C0.19778 18.0381 1.66129e-05 17.6498 -0.0055542 17.133H1.66129e-05Z" fill="#E68531"/>
<path d="M61.9391 44.1247C62.7023 44.1247 63.4655 44.1136 64.2287 44.1275C65.0782 44.1443 65.627 44.5214 65.808 45.1751C66.0225 45.9517 65.549 46.7283 64.7607 46.8848C64.6576 46.9043 64.5546 46.9267 64.4515 46.9267C62.7858 46.9323 61.1202 46.9714 59.4573 46.9239C58.5827 46.8988 57.9949 46.2478 58.0228 45.5299C58.0562 44.7086 58.6913 44.1359 59.6133 44.1219C60.3876 44.108 61.162 44.1219 61.9391 44.1219V44.1275V44.1247Z" fill="#E68531"/>
</g>
<defs>
<clipPath id="clip0_1352_536">
<rect width="71" height="54" fill="white"/>
</clipPath>
</defs>
</svg>
