<svg width="60" height="49" viewBox="0 0 60 49" fill="none" xmlns="http://www.w3.org/2000/svg">
<g clip-path="url(#clip0_1352_961)">
<path d="M21.0711 12.607C20.3643 12.0153 19.7365 11.4836 19.0994 10.9612C17.2624 9.44485 15.4162 7.93773 13.5793 6.41211C12.7701 5.74176 12.0586 4.99745 11.8819 3.89716C11.6493 2.47787 12.1934 1.36371 13.4863 0.633263C14.7093 -0.0555755 16.0301 -0.0509525 17.3694 0.0461322C19.2156 0.184825 20.8386 1.01236 22.5267 1.64572C26.8237 3.26842 31.1161 4.90036 35.4224 6.4907C35.8223 6.63864 36.3385 6.65251 36.7617 6.56005C40.9471 5.63543 45.1139 4.59986 49.3133 3.75384C52.1593 3.18058 54.9636 3.63826 57.6004 4.84026C58.7211 5.35343 59.6791 6.10699 59.9349 7.43381C60.1674 8.62656 59.8186 9.62977 58.7816 10.277C58.1398 10.6746 57.405 10.9474 56.6796 11.1877C52.8848 12.4406 49.0808 13.6657 45.2767 14.9001C38.9707 16.9481 32.6647 18.9915 26.3633 21.0442C22.5825 22.2785 18.811 23.5452 15.0256 24.7565C12.1283 25.6811 9.35203 25.1263 6.67802 23.8827C6.27809 23.6978 5.93395 23.3326 5.65028 22.9812C4.02262 20.9887 2.41357 18.9823 0.818467 16.962C0.292967 16.2962 -0.162776 15.5704 0.0557945 14.6458C0.339471 13.4438 1.27421 12.7087 2.62284 12.644C4.00867 12.5793 5.3945 12.5469 6.78033 12.4868C7.54766 12.4499 8.22197 12.6902 8.85443 13.0832C10.0496 13.8229 11.2401 14.5626 12.4167 15.3208C12.7748 15.5519 13.0956 15.5612 13.4956 15.4132C15.9092 14.5117 18.332 13.638 20.7503 12.755C20.82 12.7319 20.8805 12.6903 21.0758 12.5932L21.0711 12.607ZM57.7259 8.14577C57.7352 8.0718 57.7399 7.99783 57.7492 7.92386C57.326 7.61873 56.9353 7.23964 56.4703 7.01773C54.173 5.9082 51.7315 5.64468 49.2621 6.18558C45.2069 7.06859 41.175 8.06717 37.1291 9.0149C36.4734 9.16747 35.8409 9.28304 35.1527 9.01953C29.8279 6.96226 24.4939 4.94197 19.1645 2.89857C18.0623 2.47787 16.9229 2.32531 15.7603 2.43626C15.3557 2.47325 14.9419 2.63968 14.5745 2.82923C14.1699 3.04189 14.0862 3.43022 14.3652 3.80469C14.5791 4.09133 14.8442 4.35484 15.1232 4.59062C18.4901 7.39683 21.8617 10.1938 25.2379 12.9908C25.41 13.1341 25.6332 13.208 25.8285 13.319C24.3404 13.9755 23.0429 14.447 21.7548 14.9324C18.9319 15.9958 16.1091 17.0544 13.2956 18.1409C12.8352 18.3165 12.4911 18.3073 12.0772 17.9975C11.4168 17.5029 10.7007 17.0868 10.0031 16.643C9.14276 16.0975 8.33823 15.293 7.40349 15.0804C5.80839 14.7198 4.13888 15.0342 2.41357 15.1405C4.15283 17.3226 5.79909 19.4168 7.4779 21.4787C7.69647 21.7469 8.04525 21.9457 8.38008 22.0705C10.5565 22.8703 12.7748 23.0367 15.0023 22.3109C20.9223 20.3831 26.8377 18.4367 32.7531 16.4997C37.7755 14.8538 42.7934 13.2034 47.8158 11.5668C50.7224 10.6191 53.6335 9.69912 56.5354 8.74677C56.9539 8.60807 57.3353 8.35843 57.7352 8.16426L57.7259 8.14577Z" fill="white"/>
<path d="M44.9512 39.9896C44.4954 39.9896 44.1932 39.9896 43.8909 39.9896C39.0916 39.9896 34.297 39.9896 29.4978 39.9896C28.4561 39.9896 27.4609 39.8416 26.5959 39.2175C25.2287 38.2236 24.7078 36.6702 25.1775 35.0521C25.6053 33.582 26.94 32.551 28.6095 32.4308C29.1071 32.3939 29.6094 32.3939 30.1116 32.3985C34.7574 32.4031 39.3985 32.4123 44.0443 32.4216C44.3048 32.4216 44.5652 32.4216 44.9605 32.4216C44.2955 31.6357 43.677 30.9838 43.1561 30.2626C42.6353 29.5414 42.0446 28.8063 41.7749 27.9834C41.268 26.4439 42.0725 24.6548 43.4072 23.9197C45.1372 22.9674 46.9137 23.2032 48.2344 24.6548C49.2668 25.7875 50.2201 26.9941 51.2153 28.1684C53.1592 30.4707 55.1124 32.7683 57.0563 35.0706C57.8655 36.0276 57.8887 36.2587 57.1074 37.1926C54.2335 40.6183 51.3688 44.0533 48.453 47.4466C46.8672 49.2958 44.6582 49.4854 42.9375 48.0245C41.4029 46.7208 41.2029 44.4046 42.5004 42.8651C43.277 41.9451 44.0629 41.0344 44.9605 39.9849L44.9512 39.9896ZM38.0918 37.4792C41.0216 37.4792 43.9467 37.4792 46.8765 37.4792C47.0485 37.4792 47.2252 37.47 47.3973 37.4839C47.9554 37.5255 48.3972 37.7612 48.6436 38.279C48.8761 38.7783 48.7134 39.2083 48.3832 39.6012C48.0484 39.9988 47.7228 40.401 47.3927 40.7986C46.3789 42.0237 45.3558 43.2442 44.3466 44.4786C44.0025 44.8993 43.9141 45.3755 44.2304 45.8609C44.5652 46.374 45.0674 46.6792 45.6487 46.522C46.058 46.411 46.4719 46.0967 46.7555 45.7684C49.4156 42.6617 52.0477 39.5365 54.6706 36.4021C54.7543 36.3004 54.7497 35.9999 54.6613 35.8981C52.9825 33.901 51.2851 31.9177 49.5923 29.9297C48.532 28.6908 47.4857 27.4379 46.4114 26.2128C45.9324 25.6673 45.1232 25.6442 44.5373 26.1111C43.9606 26.5688 43.8723 27.1883 44.3001 27.8355C44.4582 28.0759 44.6349 28.3024 44.821 28.5243C45.9929 29.9205 47.1694 31.3121 48.346 32.7082C48.6948 33.1243 48.9413 33.5589 48.6762 34.1183C48.4111 34.6777 47.9275 34.8487 47.3555 34.8764C47.1834 34.8857 47.0113 34.8949 46.8346 34.8949C41.5191 34.8949 36.2037 34.8903 30.8836 34.8903C30.1349 34.8903 29.3815 34.8811 28.6328 34.9227C27.8887 34.9689 27.4516 35.4358 27.4237 36.1201C27.4004 36.7395 27.8329 37.2666 28.5119 37.3914C28.8327 37.4515 29.1629 37.47 29.4838 37.4746C32.3531 37.4792 35.2224 37.4746 38.0964 37.4746L38.0918 37.4792Z" fill="white"/>
</g>
<defs>
<clipPath id="clip0_1352_961">
<rect width="60" height="49" fill="white"/>
</clipPath>
</defs>
</svg>
