<svg width="54" height="54" viewBox="0 0 54 54" fill="none" xmlns="http://www.w3.org/2000/svg">
<g clip-path="url(#clip0_1352_938)">
<path d="M39.1639 15.7193C39.2584 15.6505 39.353 15.5345 39.4691 15.5066C39.9722 15.3884 40.4796 15.2982 40.9848 15.1929C41.4448 15.0984 41.8039 15.2337 42.0683 15.6333C42.3478 16.0565 42.6466 16.469 42.9304 16.8901C43.1776 17.2596 43.412 17.642 43.6592 18.0115C43.9989 18.5228 44.3471 19.0298 44.7191 19.5798C44.8696 19.3757 45.0179 19.1931 45.149 18.9997C45.8047 18.0223 46.497 17.0663 47.0947 16.0544C47.5268 15.324 48.0578 15.0941 48.8876 15.2187C51.7813 15.6527 54.0129 18.1963 54.0021 21.0342C53.9849 25.4962 53.9957 29.9583 53.9914 34.4203C53.9914 35.1508 53.6775 35.4494 52.9401 35.4515C52.2715 35.4515 51.6007 35.4644 50.9321 35.4451C50.6785 35.4386 50.6161 35.5224 50.6183 35.7652C50.6226 39.3529 50.6204 42.9405 50.6183 46.5282C50.6183 48.6701 50.6183 50.812 50.614 52.9538C50.614 53.1042 50.5989 53.2567 50.5645 53.4028C50.485 53.7551 50.2528 53.9506 49.8873 53.9807C49.7368 53.9936 49.5842 53.9915 49.4315 53.9915C46.3594 53.9915 43.2894 53.9936 40.2173 53.9936C40.0023 53.9936 39.7873 53.9979 39.5745 53.9743C39.1316 53.9249 38.9145 53.6842 38.893 53.2288C38.8844 53.0333 38.8887 52.8357 38.8887 52.6402C38.8887 50.9086 38.8908 49.1771 38.8887 47.4455C38.8887 43.6903 38.8865 39.9372 38.8822 36.1819C38.8822 35.4515 38.8779 35.4515 38.1577 35.4515C37.5859 35.4515 37.014 35.4537 36.4443 35.4515C35.7929 35.4472 35.4683 35.1271 35.4683 34.4805C35.4683 30.0098 35.4489 25.5371 35.4769 21.0664C35.4898 18.8708 36.5066 17.1994 38.3598 16.0329C38.5038 15.9427 38.6436 15.8396 38.7984 15.7773C38.9102 15.73 39.0456 15.7386 39.1639 15.7236V15.7193ZM38.8887 33.7694C38.8887 33.3096 38.8887 32.8843 38.8887 32.4568C38.8887 29.9669 38.8887 27.477 38.8887 24.9871C38.8887 24.7808 38.8801 24.5768 38.8887 24.3705C38.9059 24.0225 39.0994 23.769 39.4089 23.6659C39.7379 23.5585 40.0431 23.6551 40.2732 23.9258C40.5011 24.1944 40.4989 24.5145 40.4989 24.8367C40.4989 31.4943 40.5011 38.1519 40.5032 44.8096C40.5032 47.192 40.5075 49.5767 40.5097 51.9592C40.5097 52.305 40.5247 52.3201 40.8708 52.3222C41.7716 52.3265 42.6746 52.3158 43.5753 52.3351C43.8355 52.3394 43.8849 52.247 43.8828 52.0107C43.8742 49.5552 43.8763 47.1018 43.8785 44.6463C43.8785 42.9427 43.8871 41.2391 43.8892 39.5355C43.8892 39.2154 43.8613 38.8953 43.8806 38.5752C43.8978 38.268 43.915 37.9479 44.0053 37.6578C44.13 37.2561 44.7922 37.0563 45.1576 37.269C45.4672 37.4494 45.5403 37.7352 45.5403 38.066C45.5403 40.717 45.5403 43.3681 45.5446 46.0191C45.5468 48.0621 45.5575 50.1073 45.5554 52.1504C45.5554 52.3115 45.6263 52.3265 45.7467 52.3265C46.7378 52.3265 47.7289 52.3265 48.7199 52.333C48.8833 52.333 48.9328 52.2878 48.9328 52.1181C48.9328 50.9666 48.9478 49.8173 48.9478 48.6658C48.9478 43.5786 48.9414 38.4914 48.9392 33.4042C48.9392 30.8326 48.9457 28.2633 48.9478 25.6917C48.9478 25.29 48.9435 24.8883 48.9629 24.4865C48.9822 24.0504 49.3284 23.6745 49.7153 23.6358C50.2227 23.5864 50.6054 23.9473 50.6097 24.5037C50.6183 25.6466 50.614 26.7895 50.614 27.9303C50.614 29.7692 50.6161 31.6082 50.6097 33.4471C50.6097 33.6856 50.6656 33.7823 50.9235 33.7672C51.2783 33.7436 51.6373 33.7586 51.9942 33.7586C52.3339 33.7586 52.3338 33.7586 52.336 33.4085C52.336 32.3644 52.336 31.3203 52.336 30.2762C52.336 27.2235 52.3424 24.1707 52.3403 21.118C52.3403 20.5079 52.2715 19.9063 51.9985 19.3478C51.4417 18.2113 50.5946 17.4164 49.3499 17.0684C48.4856 16.8278 48.6641 16.6516 48.0943 17.5131C47.2215 18.8279 46.3315 20.1319 45.4737 21.4574C45.1082 22.0224 44.3665 22.0246 44.001 21.4574C43.068 20.0116 42.0941 18.5916 41.1417 17.1586C40.9762 16.9094 40.7999 16.8321 40.5075 16.918C40.4129 16.9459 40.3248 16.9932 40.2302 17.019C38.3641 17.5217 37.1666 19.0706 37.1666 20.9977C37.1666 25.1568 37.1666 29.3159 37.1666 33.4751C37.1666 33.5696 37.1752 33.662 37.1795 33.7694H38.8908H38.8887Z" fill="white"/>
<path d="M21.9522 48.9407C21.29 48.9407 20.6666 48.9407 20.0431 48.9407C15.2833 48.9407 10.5257 48.9407 5.76593 48.9428C4.35563 48.9428 2.94533 48.9471 1.53502 48.9428C1.25984 48.9428 0.98251 48.9213 0.707329 48.8934C0.305306 48.8526 0.0967705 48.6528 0.0172259 48.264C-0.0537192 47.9095 0.0838714 47.5636 0.412799 47.4089C0.608435 47.3166 0.83847 47.2585 1.05345 47.2564C8.23181 47.2478 15.4102 47.25 22.5907 47.25C23.2034 47.25 23.5667 47.5808 23.5775 48.1888C23.5968 49.2328 23.5882 50.2769 23.5947 51.321C23.599 52.0085 23.9107 52.3221 24.5922 52.3221C26.1809 52.3243 27.7718 52.3221 29.3606 52.3178C29.5369 52.3178 29.7282 52.3092 29.8851 52.2405C30.1969 52.1008 30.3882 51.8559 30.3903 51.4886C30.3903 50.8011 30.4054 50.1137 30.4054 49.4262C30.4075 44.2681 30.3946 39.1078 30.4204 33.9497C30.4269 32.6801 30.2098 31.4684 29.7927 30.2826C29.6486 29.8723 29.4573 29.477 29.2638 29.0881C28.9435 28.4415 28.5952 27.8077 28.2792 27.1589C28.1846 26.9656 28.0965 26.9334 27.9116 27.0279C27.0129 27.4812 26.1035 27.9087 25.2157 28.3835C24.8308 28.5897 24.446 28.6842 24.016 28.6842C19.525 28.6842 15.0339 28.6885 10.5429 28.6885C7.46217 28.6885 4.38143 28.6885 1.30069 28.6864C1.11365 28.6864 0.926614 28.6735 0.739577 28.6563C0.24511 28.609 -0.0214714 28.2846 2.71226e-05 27.7605C0.0172259 27.3222 0.339704 27.0085 0.808372 27.0085C2.6293 27.0043 4.45237 27.0085 6.2733 27.0085C12.1488 27.0085 18.0244 27.0085 23.8978 27.0128C24.1902 27.0128 24.4482 26.9527 24.7126 26.8109C25.536 26.3705 26.3744 25.9559 27.2086 25.5348C27.3397 25.4682 27.3956 25.4059 27.3161 25.2469C26.598 23.814 25.8929 22.3725 25.177 20.9396C24.2224 19.0254 23.2593 17.1177 22.3026 15.2036C21.6641 13.9232 20.7246 12.9435 19.4261 12.327C18.5189 11.8952 17.5471 11.7835 16.5603 11.7835C11.5985 11.7813 6.63662 11.7835 1.67476 11.7813C1.34583 11.7813 1.01046 11.7856 0.68798 11.7362C0.184914 11.6588 -0.0429699 11.3259 0.00432683 10.821C0.0430242 10.4021 0.341854 10.1335 0.812671 10.1293C1.8575 10.1185 2.90233 10.1185 3.94716 10.1185C7.11604 10.1185 10.2871 10.1164 13.456 10.1185C13.9547 10.1185 14.4535 10.1701 14.9523 10.1722C15.4489 10.1722 15.9476 10.1357 16.4464 10.1293C19.5056 10.0884 21.907 11.2958 23.47 13.9597C24.1364 15.094 24.6739 16.3057 25.2651 17.4829C25.6929 18.3358 26.1035 19.1951 26.54 20.0416C26.5894 20.1361 26.7592 20.2199 26.8753 20.222C27.7503 20.2392 28.6253 20.2199 29.5003 20.2414C30.9816 20.28 32.0758 21.4251 32.0694 22.9031C32.0672 23.3929 32.0608 23.8849 32.0586 24.3747C32.0586 24.7893 31.8479 25.06 31.4889 25.234C30.9665 25.4854 30.4505 25.7496 29.9238 25.9902C29.6809 26.0998 29.6293 26.2309 29.7518 26.4672C30.0464 27.0365 30.3087 27.6251 30.6161 28.188C31.3126 29.4598 31.7598 30.8154 31.9855 32.2418C32.0543 32.6715 32.0543 33.1141 32.0543 33.5502C32.0608 39.2883 32.0608 45.0286 32.0629 50.7667C32.0629 51.0074 32.0629 51.248 32.0672 51.4886C32.093 52.7367 31.0203 53.9462 29.7733 53.9699C27.9266 54.0064 26.0777 54.0043 24.2289 53.9634C22.9992 53.9355 21.9285 52.7539 21.9221 51.5036C21.9178 50.8355 21.9414 50.1652 21.9522 49.4971C21.9543 49.3209 21.9522 49.1448 21.9522 48.9342V48.9407ZM27.4966 21.9042C27.5504 22.0395 27.5783 22.1297 27.6192 22.2135C27.9997 22.9869 28.3845 23.7603 28.7651 24.5337C28.8468 24.7013 28.9456 24.7184 29.1069 24.6282C29.3778 24.4757 29.6529 24.3232 29.941 24.2093C30.3065 24.0654 30.4785 23.8462 30.3989 23.4402C30.3624 23.2597 30.3645 23.0642 30.3882 22.8795C30.4484 22.4198 29.9668 21.8999 29.4294 21.9042C29.1176 21.9063 28.8059 21.9042 28.4942 21.9042C28.176 21.9042 27.86 21.9042 27.4945 21.9042H27.4966Z" fill="white"/>
<path d="M44.7341 0.00214831C46.3057 0.00214831 47.8751 0.00214831 49.4466 0.00214831C49.5713 0.00214831 49.696 0.00214831 49.8207 0.00859325C50.3754 0.040818 50.7 0.421069 50.5817 0.964593C50.3904 1.84325 50.1647 2.71332 49.954 3.58768C49.8916 3.84763 49.8207 4.10543 49.7755 4.36752C49.7605 4.4513 49.7949 4.55872 49.84 4.63606C50.3775 5.57917 50.6548 6.58888 50.6183 7.67807C50.5366 10.0068 49.423 11.6911 47.4064 12.8061C46.2734 13.4334 45.0502 13.5473 43.799 13.3539C41.9157 13.0617 40.4903 12.0563 39.5938 10.3892C38.5899 8.52666 38.5963 6.6254 39.5874 4.73703C39.6626 4.59309 39.6992 4.389 39.6626 4.23432C39.4477 3.27833 39.2069 2.33092 38.9768 1.37922C38.9381 1.21595 38.9059 1.04623 38.8908 0.87866C38.8457 0.371658 39.1359 0.0279281 39.6454 0.0150382C40.2796 -0.00214831 40.9117 0.00214831 41.5459 0C42.6079 0 43.67 0 44.732 0L44.7341 0.00214831ZM44.7556 5.03994C44.7556 5.03994 44.7556 5.04424 44.7556 5.04639C43.7302 5.04639 42.7025 5.05283 41.677 5.04209C41.4083 5.03994 41.2363 5.12158 41.0944 5.36434C40.8472 5.78756 40.6881 6.23226 40.6172 6.71563C40.443 7.87786 40.5505 8.9735 41.2406 9.98536C42.4101 11.7019 44.5471 12.1595 46.2971 11.515C47.2366 11.1691 47.9783 10.5461 48.4276 9.65452C49.1478 8.22804 49.1865 6.79082 48.3459 5.37078C48.189 5.10439 48.0127 5.03135 47.731 5.0335C46.74 5.04424 45.7489 5.03779 44.7578 5.03779L44.7556 5.03994ZM40.6967 1.71006C40.8386 2.20847 40.9762 2.66606 41.0966 3.13009C41.1503 3.33633 41.2643 3.38359 41.4621 3.38359C43.6571 3.3793 45.8521 3.3793 48.0492 3.38574C48.2255 3.38574 48.3158 3.317 48.3588 3.16017C48.4684 2.75629 48.5695 2.35025 48.6942 1.95067C48.7694 1.70791 48.6834 1.6585 48.4555 1.66065C45.9832 1.66494 43.5109 1.66065 41.0364 1.66279C40.9268 1.66279 40.8171 1.69287 40.6967 1.71006Z" fill="white"/>
<path d="M26.9721 37.2904C26.9054 39.8856 24.7405 42.2294 21.8533 42.1564C18.8112 42.079 16.8376 39.761 16.8699 37.1143C16.9064 34.025 19.4347 31.9691 22.2037 32.0894C24.7491 32.2011 27.1182 34.5599 26.9721 37.2883V37.2904ZM25.3059 37.1443C25.4801 35.4192 23.7666 33.7242 21.8683 33.7565C19.8732 33.7908 18.3963 35.5116 18.5425 37.3484C18.6865 39.1809 20.013 40.5193 21.9693 40.5258C23.9558 40.5322 25.4242 38.7921 25.3059 37.1443Z" fill="white"/>
</g>
<defs>
<clipPath id="clip0_1352_938">
<rect width="54" height="54" fill="white"/>
</clipPath>
</defs>
</svg>
