<svg width="54" height="54" viewBox="0 0 54 54" fill="none" xmlns="http://www.w3.org/2000/svg">
<g clip-path="url(#clip0_1352_951)">
<path d="M8.98592 15.4026C6.28666 12.8994 6.38575 8.91438 8.69783 6.61655C11.1108 4.21969 14.8065 4.21602 17.2489 6.57437C19.638 8.88137 19.7078 13.0608 16.9589 15.4209C17.1296 15.4283 17.2599 15.4356 17.3902 15.4411C17.9829 15.4613 18.5902 15.4063 19.1664 15.5126C21.139 15.8794 22.2804 17.1411 22.7116 19.052C22.8493 19.6608 22.8658 20.3064 22.8694 20.9354C22.8841 23.1305 22.8694 25.3256 22.8658 27.5189C22.8658 27.5483 22.8731 27.5776 22.8786 27.6235H28.2313C28.2037 27.3081 28.1707 27.0073 28.1524 26.7047C28.101 25.8446 28.268 25.0524 28.868 24.3922C29.3708 23.8384 30.0075 23.4991 30.7287 23.4038C31.4957 23.3029 32.2756 23.3066 33.0499 23.2736C33.3766 23.2607 33.7032 23.2717 34.0629 23.2717C34.0684 23.1764 34.0775 23.059 34.0775 22.9416C34.0775 22.0797 34.0482 21.2178 34.0849 20.3577C34.1381 19.1272 34.4225 17.959 35.2226 16.9742C35.863 16.1875 36.6851 15.6758 37.6888 15.5291C38.3017 15.4393 38.9329 15.4558 39.555 15.4283C39.7201 15.4209 39.8853 15.4283 40.0706 15.4008C38.4577 13.842 37.8117 11.9623 38.1641 9.77263C38.3989 8.30554 39.177 7.1172 40.3128 6.18559C42.8066 4.14267 46.2086 4.39391 48.4583 6.66056C50.6603 8.87954 50.9025 12.87 48.1207 15.4026C48.284 15.4136 48.4161 15.4246 48.5464 15.4283C49.0859 15.4448 49.6346 15.4063 50.1649 15.4851C51.5595 15.6942 52.6072 16.4332 53.3174 17.6638C53.8477 18.5844 53.9872 19.5856 53.9908 20.6126C54.0018 24.4546 53.9982 28.2947 53.9945 32.1366C53.9945 32.9545 53.9229 33.7688 53.6091 34.5353C53.0073 36.0061 51.8586 36.6681 50.2695 36.6039C50.1704 36.6003 50.0731 36.5929 49.9538 36.5874V52.5035C50.0199 52.5072 50.0915 52.5145 50.163 52.5145C50.719 52.5164 51.2769 52.5109 51.8329 52.52C52.2714 52.5255 52.5577 52.7841 52.5962 53.1802C52.6403 53.6479 52.3705 53.9651 51.8971 53.9706C50.7686 53.9853 49.6401 53.9945 48.5134 53.9945C43.2305 53.9981 37.9475 54.0018 32.6646 53.9981C22.6162 53.9908 12.5697 53.9761 2.52127 53.9633C2.37814 53.9633 2.23134 53.9486 2.09004 53.9211C1.75241 53.8533 1.55973 53.6515 1.54872 53.3104C1.52854 52.6704 1.52303 52.0304 1.52303 51.3904C1.52303 44.7518 1.52303 38.1132 1.52303 31.4764C1.52303 30.7686 1.51386 30.0589 1.51753 29.351C1.51753 29.1914 1.46248 29.1327 1.30834 29.1291C1.0808 29.1236 0.851427 29.1181 0.623888 29.0906C0.222026 29.0392 0.00182772 28.7715 -0.00367724 28.3534C-0.00734721 27.9921 0.209181 27.7152 0.594529 27.6675C0.895466 27.629 1.20191 27.6418 1.50652 27.64C1.97811 27.6363 2.4497 27.64 2.94515 27.64C2.95249 27.5024 2.9635 27.3832 2.9635 27.2622C2.96533 24.9149 2.93414 22.5675 2.98185 20.2202C3.00937 18.8961 3.40573 17.6729 4.36726 16.69C5.18567 15.8519 6.20041 15.4888 7.34361 15.4338C7.76933 15.4136 8.19688 15.4301 8.62443 15.4264C8.72903 15.4264 8.83179 15.4136 8.98409 15.4044L8.98592 15.4026ZM38.1549 29.4097C37.9714 29.4922 37.8191 29.5564 37.6704 29.6279C37.1346 29.881 36.575 29.991 35.9841 29.9195C34.8959 29.7874 33.8078 29.6499 32.7178 29.5252C31.9306 29.4335 31.1324 29.4115 30.358 29.2593C29.6075 29.1126 28.8625 29.0997 28.1083 29.1052C27.8716 29.1052 27.6367 29.1217 27.4 29.1217C21.4473 29.1217 15.4946 29.1236 9.54009 29.1217C7.41334 29.1217 5.28843 29.1126 3.16168 29.1034C3.02772 29.1034 2.98185 29.1548 2.98735 29.2776C2.99286 29.4518 3.00203 29.6279 3.00203 29.8021C3.00203 36.9505 3.00387 44.0971 3.0057 51.2455C3.0057 51.5958 3.01488 51.946 3.0057 52.2963C3.00203 52.4485 3.05158 52.498 3.20021 52.4944C3.42775 52.4889 3.65712 52.5054 3.8865 52.5054C8.66664 52.5054 13.4449 52.5054 18.2251 52.5054C24.5815 52.5072 30.9397 52.5109 37.2961 52.5145C37.5328 52.5145 37.7695 52.509 38.0044 52.5145C38.1274 52.5182 38.1659 52.4705 38.1622 52.355C38.1567 52.1184 38.1604 51.8819 38.1604 51.6471C38.1677 44.3245 38.1751 37.0019 38.1806 29.6792C38.1806 29.6004 38.1677 29.5215 38.1567 29.4078L38.1549 29.4097ZM43.2213 52.5145C43.2213 52.3972 43.2213 52.3146 43.2213 52.2321C43.2213 46.3179 43.2213 40.4037 43.2268 34.4895C43.2268 34.2914 43.2341 34.0934 43.2635 33.899C43.3185 33.534 43.5663 33.3305 43.9406 33.314C44.2654 33.2993 44.5682 33.5194 44.6379 33.8531C44.6801 34.0512 44.6856 34.2602 44.6856 34.4656C44.6874 40.3945 44.6874 46.3234 44.6856 52.2523C44.6856 52.4485 44.7425 52.5182 44.9462 52.5164C45.9976 52.509 47.0509 52.5127 48.1023 52.5145C48.2124 52.5145 48.3244 52.5145 48.4712 52.5145C48.4712 52.1771 48.4712 51.8653 48.4712 51.5536C48.462 48.5442 48.4455 45.533 48.4437 42.5236C48.4363 35.7567 48.4363 28.9897 48.4326 22.2209C48.4326 22.076 48.429 21.9293 48.4455 21.7863C48.4822 21.4837 48.6345 21.2581 48.9244 21.1444C49.2107 21.0326 49.4584 21.1078 49.6823 21.3095C49.9006 21.5075 49.941 21.7643 49.941 22.0375C49.941 26.0317 49.941 30.024 49.941 34.0182C49.941 34.2621 49.9392 34.506 49.9318 34.7499C49.9227 35.0855 49.9208 35.0855 50.2566 35.124C51.3228 35.2432 52.0274 34.8269 52.332 33.7981C52.4806 33.2956 52.5357 32.7491 52.5375 32.2228C52.543 28.2598 52.5265 24.2987 52.5155 20.3357C52.5137 19.648 52.387 18.9896 52.0494 18.3808C51.5411 17.4657 50.7778 16.943 49.7263 16.9394C45.9903 16.9247 42.2561 16.9284 38.52 16.9302C37.2502 16.9302 36.3951 17.5611 35.8887 18.7017C35.6575 19.2207 35.5951 19.7727 35.5896 20.3302C35.5804 21.5259 35.5896 22.7234 35.5804 23.9191C35.5767 24.4674 35.2538 24.7792 34.7069 24.7792C34.3253 24.7792 33.9454 24.77 33.5637 24.7608C32.6866 24.737 31.8132 24.7278 30.9434 24.8818C30.303 24.9955 29.8112 25.2908 29.6662 25.951C29.591 26.2921 29.6204 26.6625 29.6405 27.0183C29.6644 27.4181 29.914 27.6767 30.3158 27.7335C31.2884 27.871 32.2609 28.0049 33.2371 28.1186C34.228 28.2323 35.2226 28.324 36.2171 28.4139C37.3695 28.5166 38.2466 27.6033 38.1861 26.547C38.1622 26.1362 38.1787 25.7236 38.1806 25.3128C38.1824 24.1391 38.1806 22.9655 38.1934 21.7918C38.1989 21.3773 38.5292 21.0857 38.9403 21.0839C39.3384 21.0839 39.6394 21.3718 39.6577 21.79C39.6706 22.0705 39.6577 22.3529 39.6577 22.6354C39.6559 30.3248 39.6541 38.0142 39.6504 45.7036C39.6504 47.8749 39.6467 50.048 39.6467 52.2193C39.6467 52.5292 39.6486 52.5219 39.966 52.52C40.9496 52.5145 41.9331 52.5164 42.9167 52.5145C43.0066 52.5145 43.0983 52.5145 43.2268 52.5145H43.2213ZM17.3113 27.6381C17.3113 27.5281 17.3113 27.4383 17.3113 27.3484C17.3113 25.8703 17.3113 24.3922 17.3168 22.9141C17.3168 22.4648 17.6452 22.1421 18.0801 22.1494C18.4398 22.1549 18.7793 22.4942 18.7884 22.8811C18.8013 23.3983 18.7976 23.9172 18.7976 24.4362C18.7976 25.4265 18.7958 26.4168 18.7939 27.4089C18.7939 27.5226 18.7719 27.6418 18.9554 27.6418C19.7169 27.6381 20.4803 27.6381 21.2418 27.6418C21.3721 27.6418 21.4143 27.5886 21.4088 27.4621C21.3996 27.2347 21.4033 27.0055 21.4033 26.7762C21.4033 24.6416 21.4033 22.5088 21.3978 20.3742C21.3959 19.703 21.2583 19.0648 20.9537 18.456C20.4344 17.4199 19.605 16.932 18.4563 16.9339C15.324 16.9375 12.1898 16.9339 9.05749 16.9339C8.44827 16.9339 7.83722 16.9339 7.22801 16.9412C6.75458 16.9485 6.30684 17.0604 5.90682 17.3227C5.07924 17.8618 4.62783 18.654 4.53241 19.6113C4.45534 20.3742 4.47553 21.1481 4.47186 21.9165C4.46452 23.7449 4.47186 25.575 4.46635 27.4034C4.46635 27.5776 4.51039 27.651 4.69939 27.6437C4.99666 27.629 5.29393 27.6381 5.5912 27.6381C6.0683 27.6381 6.54539 27.6381 7.04818 27.6381C7.04818 27.5428 7.04818 27.4676 7.04818 27.3924C7.05185 26.0427 7.05735 24.6948 7.06286 23.3451C7.06286 23.1617 7.06286 22.9783 7.08488 22.7967C7.12525 22.4942 7.28673 22.2741 7.5895 22.1806C7.88126 22.0907 8.12531 22.1677 8.3345 22.3896C8.518 22.584 8.54369 22.8224 8.54369 23.0682C8.53635 24.5151 8.52901 25.9638 8.52167 27.4107C8.52167 27.4823 8.54186 27.5538 8.55287 27.6363H17.3113V27.6381ZM13.0064 6.30663C10.3677 6.28645 8.41891 8.37523 8.41708 10.8271C8.41341 13.2606 10.2759 15.4448 13.0541 15.4246C15.8121 15.4044 17.6214 13.1433 17.5957 10.7703C17.57 8.20468 15.3772 6.26078 13.0064 6.30663ZM48.6969 10.8858C48.7318 8.25786 46.5903 6.33597 44.2103 6.30479C41.5936 6.26995 39.5953 8.15333 39.5385 10.7868C39.4834 13.301 41.4303 15.3989 44.0654 15.4209C46.6087 15.4411 48.6657 13.4624 48.6969 10.8858Z" fill="white"/>
<path d="M28.9799 0.00370026C31.0388 0.00370026 33.0958 0.00920185 35.1547 3.25265e-05C36.0153 -0.0036352 36.6905 0.30262 37.153 1.05084C37.3401 1.35343 37.4484 1.67068 37.4484 2.01912C37.4521 5.34208 37.4576 8.66321 37.4484 11.9862C37.4447 13.3157 36.5015 14.2088 35.129 14.2143C33.2921 14.2217 31.4553 14.2235 29.6185 14.2143C29.3194 14.2143 29.0772 14.284 28.8405 14.4674C27.4183 15.5677 25.9907 16.6607 24.5631 17.7537C24.4603 17.8325 24.3558 17.9114 24.2438 17.9737C23.8383 18.1956 23.3704 18.0068 23.2438 17.5611C23.2052 17.4236 23.1942 17.275 23.1942 17.132C23.1869 16.3324 23.1942 15.531 23.185 14.7315C23.1795 14.1336 23.2199 14.2363 22.6841 14.2198C21.6785 14.1905 20.8803 13.5816 20.6161 12.6225C20.5683 12.4483 20.5408 12.2631 20.5408 12.0834C20.5353 8.70723 20.5316 5.33108 20.5371 1.95677C20.5371 0.99032 21.4198 0.0898919 22.4217 0.0220389C22.8089 -0.0036352 23.1979 0.00736799 23.5869 0.00736799C25.3852 0.00736799 27.1853 0.00736799 28.9836 0.00736799V0.00370026H28.9799ZM24.6347 15.8263C24.7778 15.7401 24.8787 15.6924 24.9668 15.6246C26.0696 14.7737 27.1798 13.9282 28.2679 13.0608C28.5671 12.8224 28.8662 12.7179 29.246 12.7197C31.2204 12.7326 33.1949 12.7271 35.1693 12.7252C35.7565 12.7252 35.9492 12.5327 35.9547 11.9422C35.9602 11.3792 35.9584 10.8143 35.9584 10.2513C35.9565 7.60691 35.9547 4.96247 35.951 2.31804C35.951 1.69269 35.7363 1.47996 35.118 1.46712C34.8519 1.46162 34.584 1.46712 34.3179 1.46712C30.5525 1.46712 26.7871 1.46712 23.0217 1.46712C22.9153 1.46712 22.8089 1.46529 22.7024 1.47263C22.1996 1.50747 22.0198 1.68352 22.0088 2.18783C21.9978 2.67564 22.0088 3.16345 22.0088 3.65126C22.0088 6.40206 22.0051 9.15286 22.0051 11.9037C22.0051 12.5308 22.1923 12.7161 22.8254 12.7289C23.1447 12.7344 23.4658 12.7289 23.7851 12.7307C24.3704 12.7344 24.6273 12.9783 24.6347 13.5615C24.6438 14.2162 24.6347 14.8727 24.6347 15.5274C24.6347 15.6081 24.6347 15.6869 24.6347 15.8245V15.8263Z" fill="white"/>
<path d="M29.8259 7.81044C29.8259 8.34409 29.8332 8.87775 29.8222 9.40957C29.8185 9.59662 29.8809 9.64614 30.0607 9.63146C30.2332 9.61863 30.4112 9.63513 30.5837 9.65897C30.947 9.70849 31.2039 9.99274 31.2278 10.3503C31.2498 10.6878 31.0204 10.9904 30.6571 11.0747C30.4956 11.1114 30.325 11.1224 30.1598 11.1242C29.3983 11.1297 28.6349 11.1316 27.8734 11.1279C27.7523 11.1279 27.6275 11.1187 27.5119 11.0894C27.1082 10.9849 26.8972 10.6823 26.9468 10.299C26.9981 9.89737 27.2771 9.64247 27.6844 9.6278C27.8441 9.62229 28.0055 9.61863 28.1634 9.6278C28.2863 9.6333 28.3212 9.58562 28.3212 9.46825C28.3193 8.68336 28.3193 7.89846 28.3267 7.11357C28.3267 6.97236 28.2643 6.93201 28.1413 6.91184C27.7376 6.84215 27.4844 6.5414 27.4936 6.15812C27.5028 5.77668 27.7725 5.48326 28.1872 5.45025C28.4973 5.42458 28.8111 5.42274 29.1212 5.44842C29.5396 5.48326 29.8093 5.78952 29.8167 6.2113C29.824 6.74496 29.8167 7.27861 29.8167 7.81227C29.8204 7.81227 29.8222 7.81227 29.8259 7.81227V7.81044Z" fill="white"/>
<path d="M28.9616 2.65179C29.4974 2.65545 29.947 3.09742 29.9488 3.62007C29.9488 4.16473 29.4681 4.63603 28.9176 4.62686C28.3726 4.61952 27.9432 4.17756 27.945 3.62557C27.945 3.06624 28.3836 2.64629 28.9634 2.65179H28.9616Z" fill="white"/>
</g>
<defs>
<clipPath id="clip0_1352_951">
<rect width="54" height="54" fill="white"/>
</clipPath>
</defs>
</svg>
