<svg width="63" height="54" viewBox="0 0 63 54" fill="none" xmlns="http://www.w3.org/2000/svg">
<g clip-path="url(#clip0_1352_944)">
<path d="M57.5632 30.6639C57.5632 30.8496 57.5632 30.9844 57.5632 31.1209C57.5632 36.6263 57.5595 42.1299 57.5595 47.6353C57.5595 48.5056 57.5723 49.3849 57.2934 50.2187C56.609 52.2505 55.2934 53.6268 53.0805 53.9582C52.1135 54.1038 51.1758 53.8653 50.3171 53.4229C48.7794 52.631 47.7776 51.4039 47.317 49.7253C47.1409 49.0863 47.1574 48.4564 47.1482 47.8174C47.1243 46.2007 47.1152 44.5822 47.0931 42.9656C47.0693 41.3034 47.0271 39.6412 47.0124 37.9772C46.9959 35.8981 47.0069 33.8208 46.9922 31.7417C46.9794 29.8593 46.9519 27.9786 46.9225 26.0961C46.9133 25.5372 46.895 24.9783 46.8491 24.423C46.8344 24.2373 46.7445 24.0443 46.6436 23.8823C45.5867 22.1764 44.5243 20.476 43.4582 18.7756C42.5609 17.3428 42.3059 15.7698 42.6471 14.1532C42.9884 12.5401 43.882 11.2603 45.3848 10.4283C46.5372 9.78926 47.7592 9.65454 49.0327 9.77288C50.2712 9.8894 51.3612 10.3682 52.3282 11.1492C53.0144 11.7027 53.5521 12.3909 54.1245 13.0463C55.5411 14.6684 56.9558 16.2905 58.3687 17.9145C59.2146 18.8867 60.0642 19.857 60.8954 20.842C61.3541 21.3845 61.8404 21.9179 62.211 22.5187C62.8624 23.5801 63.0826 24.7653 62.978 26.0051C62.8532 27.4962 62.2239 28.7378 61.033 29.6608C60.2293 30.2816 59.3008 30.633 58.2678 30.6639C58.0476 30.6712 57.8274 30.6639 57.565 30.6639H57.5632ZM55.5136 38.9712H55.5099C55.5099 36.3023 55.5099 33.6333 55.5099 30.9643C55.5099 30.4509 55.5081 29.9357 55.5081 29.4223C55.5081 29.1729 55.6035 28.9836 55.8035 28.8161C56.154 28.523 56.5209 28.4538 56.9705 28.5466C57.8568 28.7305 58.7118 28.6504 59.5137 28.1734C60.3816 27.6582 60.789 26.8553 60.8991 25.9177C61.0348 24.7671 60.6679 23.7403 59.899 22.861C59.2348 22.1018 58.5724 21.3426 57.9081 20.5834C56.7595 19.2708 55.609 17.9582 54.464 16.6419C53.9025 15.9956 53.3557 15.3347 52.7942 14.6866C52.308 14.1259 51.8456 13.5378 51.3079 13.0281C50.1758 11.9539 48.8198 11.5461 47.2748 11.9048C46.005 12.1979 45.194 12.9935 44.7683 14.2114C44.3958 15.2801 44.5555 16.2978 45.0197 17.2864C45.2087 17.6887 45.4527 18.0656 45.6913 18.4443C46.6087 19.908 47.5335 21.3645 48.4492 22.8282C48.6088 23.0831 48.7886 23.3452 48.8583 23.6293C48.9464 23.9843 48.9519 24.3629 48.9574 24.7325C48.9813 26.5003 48.9813 28.2699 49.0125 30.0377C49.0437 31.8728 48.9776 33.7079 49.0804 35.5449C49.1905 37.4893 49.0602 39.4409 49.1739 41.3926C49.2712 43.0256 49.2216 44.6678 49.2327 46.3063C49.2363 46.9344 49.2418 47.5625 49.2253 48.1888C49.2106 48.7641 49.2895 49.3048 49.5501 49.8346C49.84 50.4226 50.2143 50.9142 50.7611 51.2765C51.7502 51.9319 52.7649 52.2086 53.875 51.5368C54.4603 51.1818 54.8567 50.6702 55.1319 50.0785C55.431 49.4341 55.5172 48.735 55.5154 48.0213C55.5062 45.0046 55.5117 41.9879 55.5117 38.9712H55.5136Z" fill="white"/>
<path d="M5.46439 30.7167C4.98915 30.6748 4.52491 30.6821 4.08453 30.5875C2.20007 30.1815 0.904624 29.0891 0.310112 27.2503C-0.361468 25.1731 0.0770772 23.2833 1.4606 21.6321C3.00927 19.7842 4.62216 17.9891 6.20386 16.1685C6.72681 15.5677 7.24059 14.9597 7.75987 14.3571C8.5232 13.4741 9.27001 12.5765 10.059 11.7172C10.5471 11.1856 11.1196 10.7341 11.793 10.4465C12.3361 10.2134 12.8848 9.94034 13.4573 9.84385C15.3105 9.53254 17.0556 9.79288 18.5492 11.0454C19.4648 11.8137 20.0813 12.7859 20.3345 13.9274C20.7254 15.6824 20.4722 17.3574 19.4795 18.9048C18.4299 20.5434 17.4134 22.2019 16.3785 23.8495C16.2335 24.0807 16.1619 24.3174 16.1601 24.5941C16.1491 26.5203 16.1253 28.4483 16.1014 30.3744C16.0775 32.1732 16.0427 33.9701 16.0207 35.7688C16.0005 37.5748 15.9895 39.3826 15.9748 41.1887C15.9601 43.0475 15.9491 44.9081 15.9326 46.7669C15.9271 47.4696 15.9399 48.1742 15.8867 48.8733C15.8298 49.627 15.5784 50.3352 15.2041 50.9924C14.4683 52.2814 13.4298 53.2226 12.0022 53.7178C9.91957 54.4406 7.91951 53.5922 6.74333 52.1321C5.87174 51.0489 5.46439 49.8145 5.46439 48.4382C5.46439 42.616 5.46439 36.7938 5.46439 30.9716C5.46439 30.8824 5.46439 30.7932 5.46439 30.7131V30.7167ZM7.51032 38.8783C7.50115 38.8783 7.49197 38.8783 7.4828 38.8783C7.4828 41.9715 7.47179 45.0628 7.4883 48.156C7.49564 49.2556 7.77638 50.2788 8.58925 51.0962C9.31955 51.8335 10.1838 52.1157 11.1912 51.808C11.9912 51.5641 12.6536 51.1017 13.1343 50.4135C13.4977 49.8928 13.7729 49.323 13.8041 48.6803C13.8591 47.6044 13.8151 46.5247 13.8628 45.4451C13.9527 43.3697 13.9142 41.2888 13.9399 39.2115C13.9601 37.5657 14.0059 35.9181 14.0261 34.2723C14.0481 32.4663 14.0573 30.6603 14.0646 28.8524C14.0701 27.4379 14.0977 26.0233 14.0518 24.6105C14.0279 23.8877 14.261 23.2942 14.6371 22.7062C15.6959 21.0549 16.7363 19.3946 17.7822 17.736C18.1473 17.1553 18.3216 16.5126 18.4244 15.8408C18.5198 15.2218 18.3694 14.6429 18.1932 14.0621C18.0556 13.6106 17.8134 13.2174 17.4831 12.8879C16.4794 11.892 15.2683 11.608 13.894 11.8793C12.9582 12.0631 12.1692 12.5001 11.5288 13.1937C11.2058 13.5451 10.9012 13.9128 10.5875 14.2733C9.36359 15.6806 8.13786 17.0879 6.91397 18.497C5.64421 19.9571 4.37995 21.4191 3.10652 22.8755C2.68633 23.3561 2.33035 23.8786 2.2331 24.514C2.15971 24.9947 2.15053 25.4899 2.1542 25.9796C2.15787 26.5167 2.35971 27.0009 2.67899 27.4288C3.01478 27.8803 3.43314 28.2589 3.97627 28.4283C4.71941 28.6595 5.47907 28.7086 6.2534 28.5193C6.89929 28.3627 7.51216 28.8761 7.51032 29.5315C7.51032 32.6465 7.51032 35.7615 7.51032 38.8765V38.8783Z" fill="white"/>
<path d="M23.5695 -5.75967e-05C26.4026 -0.00551931 29.0559 2.2265 29.1017 5.35789C29.1476 8.42009 26.8044 10.9161 23.63 10.9452C20.4042 10.9744 18.1289 8.4474 18.061 5.57272C17.9895 2.54874 20.5308 -0.0328279 23.5695 -5.75967e-05ZM23.5438 2.07722C21.7217 2.06629 20.0593 3.57737 20.1106 5.48533C20.1639 7.47885 21.652 8.8989 23.5768 8.90072C25.4521 8.90072 27.0907 7.43698 27.0283 5.32148C26.9769 3.61196 25.4686 2.04262 23.5438 2.07904V2.07722Z" fill="white"/>
<path d="M44.9444 5.49445C44.9866 8.40008 42.5755 10.9507 39.4397 10.9507C36.1772 10.9507 33.8817 8.22895 33.9257 5.48716C33.9753 2.43224 36.3001 -0.0491964 39.6213 0.00906192C42.526 0.060038 45.0031 2.46684 44.9444 5.49445ZM39.502 2.07905C37.4304 2.03718 35.9808 3.62836 35.9827 5.54906C35.9827 7.35143 37.4708 8.88435 39.4488 8.89892C41.3608 8.91166 42.8618 7.34415 42.9003 5.55271C42.9407 3.66841 41.2929 2.01533 39.502 2.08087V2.07905Z" fill="white"/>
</g>
<defs>
<clipPath id="clip0_1352_944">
<rect width="63" height="54" fill="white"/>
</clipPath>
</defs>
</svg>
