<svg width="48" height="48" viewBox="0 0 48 48" fill="none" xmlns="http://www.w3.org/2000/svg">
<path d="M23.2356 21.8572H31.807M23.2356 33.7509H31.807M40.1796 42.8572C40.1796 43.7665 39.8184 44.6385 39.1754 45.2815C38.5324 45.9245 37.6604 46.2857 36.751 46.2857H5.8939C4.98459 46.2857 4.11252 45.9245 3.46954 45.2815C2.82656 44.6385 2.46533 43.7665 2.46533 42.8572V5.14287C2.46533 4.23355 2.82656 3.36148 3.46954 2.7185C4.11252 2.07552 4.98459 1.71429 5.8939 1.71429H25.0459C25.9551 1.71449 26.8271 2.07584 27.4699 2.71887L39.175 14.424C39.8181 15.0668 40.1794 15.9388 40.1796 16.848V42.8572Z" stroke="white" stroke-width="2" stroke-linecap="round" stroke-linejoin="round"/>
<path d="M9.97754 33.5554L12.8507 36.4286L17.6404 29.7257M9.97754 21.4492L12.8507 24.3223L17.6404 17.6194" stroke="white" stroke-width="2" stroke-linecap="round" stroke-linejoin="round"/>
</svg>
