<svg width="48" height="48" viewBox="0 0 48 48" fill="none" xmlns="http://www.w3.org/2000/svg">
<path d="M43 24H38.778M38.778 24C38.778 27.9196 37.2219 31.6777 34.4503 34.4493C31.6787 37.2209 27.9196 38.778 24 38.778M38.778 24C38.778 20.0804 37.2219 16.3203 34.4503 13.5487C31.6787 10.7771 27.9196 9.222 24 9.222M24 5V9.222M24 9.222C20.0806 9.222 16.3218 10.777 13.5504 13.5484C10.779 16.3198 9.222 20.0786 9.222 23.998C9.222 27.9174 10.779 31.6762 13.5504 34.4476C16.3218 37.219 20.0806 38.778 24 38.778M5 24H9.222M24 43V38.778" stroke="white" stroke-width="2" stroke-miterlimit="10" stroke-linecap="round"/>
<path d="M24.0002 32.444C26.2396 32.444 28.3874 31.5544 29.971 29.9708C31.5545 28.3873 32.4442 26.2395 32.4442 24C32.4442 21.7605 31.5545 19.6127 29.971 18.0292C28.3874 16.4456 26.2396 15.556 24.0002 15.556C21.7607 15.556 19.6129 16.4456 18.0293 18.0292C16.4458 19.6127 15.5562 21.7605 15.5562 24C15.5562 26.2395 16.4458 28.3873 18.0293 29.9708C19.6129 31.5544 21.7607 32.444 24.0002 32.444Z" stroke="white" stroke-width="2" stroke-miterlimit="10" stroke-linecap="round"/>
</svg>
