<svg width="48" height="48" viewBox="0 0 48 48" fill="none" xmlns="http://www.w3.org/2000/svg">
<path d="M24 16V24M24 32.02L24.02 31.998M23.152 2.84801C23.377 2.62329 23.682 2.49707 24 2.49707C24.318 2.49707 24.623 2.62329 24.848 2.84801L45.152 23.152C45.3767 23.377 45.503 23.682 45.503 24C45.503 24.318 45.3767 24.623 45.152 24.848L24.848 45.152C24.623 45.3767 24.318 45.503 24 45.503C23.682 45.503 23.377 45.3767 23.152 45.152L2.84801 24.848C2.62329 24.623 2.49707 24.318 2.49707 24C2.49707 23.682 2.62329 23.377 2.84801 23.152L23.152 2.84801Z" stroke="white" stroke-width="2" stroke-linecap="round" stroke-linejoin="round"/>
</svg>
