<svg width="24" height="24" viewBox="0 0 24 24" fill="none" xmlns="http://www.w3.org/2000/svg">
<path d="M4.616 19C4.15533 19 3.771 18.846 3.463 18.538C3.155 18.23 3.00067 17.8453 3 17.384V6.616C3 6.15533 3.15433 5.771 3.463 5.463C3.77167 5.155 4.15567 5.00067 4.615 5H19.385C19.845 5 20.229 5.15433 20.537 5.463C20.845 5.77167 20.9993 6.156 21 6.616V17.385C21 17.845 20.8457 18.2293 20.537 18.538C20.2283 18.8467 19.8443 19.0007 19.385 19H4.616ZM20 6.885L12.448 11.829C12.3773 11.8657 12.306 11.8967 12.234 11.922C12.1613 11.9467 12.0833 11.959 12 11.959C11.9167 11.959 11.8387 11.9467 11.766 11.922C11.6933 11.8973 11.622 11.8663 11.552 11.829L4 6.884V17.384C4 17.564 4.05767 17.7117 4.173 17.827C4.28833 17.9423 4.436 18 4.616 18H19.385C19.5643 18 19.7117 17.9423 19.827 17.827C19.9423 17.7117 20 17.564 20 17.384V6.885ZM12 11L19.692 6H4.308L12 11ZM4 7.096V6.285V6.319V6V6.32V6.268V7.096Z" fill="white"/>
</svg>
