<svg width="16" height="16" viewBox="0 0 16 16" fill="none" xmlns="http://www.w3.org/2000/svg">
<path d="M3.07733 12.6667C2.77022 12.6667 2.514 12.564 2.30867 12.3587C2.10333 12.1534 2.00044 11.8969 2 11.5894V4.41071C2 4.1036 2.10289 3.84737 2.30867 3.64204C2.51444 3.43671 2.77044 3.33382 3.07667 3.33337H12.9233C13.23 3.33337 13.486 3.43626 13.6913 3.64204C13.8967 3.84782 13.9996 4.10404 14 4.41071V11.59C14 11.8967 13.8971 12.1529 13.6913 12.3587C13.4856 12.5645 13.2296 12.6672 12.9233 12.6667H3.07733ZM13.3333 4.59004L8.29867 7.88604C8.25156 7.91049 8.204 7.93115 8.156 7.94804C8.10756 7.96449 8.05556 7.97271 8 7.97271C7.94444 7.97271 7.89244 7.96449 7.844 7.94804C7.79556 7.9316 7.748 7.91093 7.70133 7.88604L2.66667 4.58937V11.5894C2.66667 11.7094 2.70511 11.8078 2.782 11.8847C2.85889 11.9616 2.95733 12 3.07733 12H12.9233C13.0429 12 13.1411 11.9616 13.218 11.8847C13.2949 11.8078 13.3333 11.7094 13.3333 11.5894V4.59004ZM8 7.33337L13.128 4.00004H2.872L8 7.33337ZM2.66667 4.73071V4.19004V4.21271V4.00004V4.21337V4.17871V4.73071Z" fill="white"/>
</svg>
