<svg width="60" height="60" viewBox="0 0 60 60" fill="none" xmlns="http://www.w3.org/2000/svg">
<g clip-path="url(#clip0_172_345)">
<path d="M7.97162 6.02325C7.97162 5.7858 7.97162 5.58361 7.97162 5.38143C7.98103 4.53272 7.96456 3.68165 8.0069 2.83529C8.07982 1.41293 9.12184 0.00467941 11.2388 0.0023284C14.1109 -2.26002e-05 16.9829 -0.00472461 19.8549 0.00703041C20.4759 0.00938142 21.1134 0.00703042 21.7179 0.129283C22.9575 0.378489 23.9031 1.49757 23.969 2.76476C24.0207 3.74748 24.0089 4.7349 24.0042 5.72232C24.0042 5.95742 24.0536 6.01385 24.2912 6.01385C25.4038 6.0068 26.5187 5.98329 27.629 6.04441C29.8636 6.16901 31.6959 7.93697 31.95 10.154C31.9711 10.3279 32.0111 10.5066 31.9947 10.6782C31.9664 10.9768 32.0935 11.0262 32.3616 11.0262C35.5841 11.0168 38.809 11.0027 42.0315 11.0262C45.04 11.0473 47.2322 12.4109 48.5471 15.1287C49.281 16.6474 49.9867 18.1779 50.6923 19.7108C50.7982 19.9412 50.9276 20.0164 51.1816 20.0141C52.8234 19.9976 54.4629 19.9835 56.1048 20.0023C57.916 20.0235 59.2826 20.9874 59.8095 22.5696C60.5292 24.7231 59.1579 26.9519 56.8551 27.3657C56.4035 27.448 55.9519 27.5185 55.5002 27.5984C55.4273 27.6102 55.3568 27.636 55.2415 27.669C55.4203 27.8641 55.5708 28.024 55.7166 28.1909C56.6857 29.2935 57.5231 30.4761 57.8619 31.9337C57.9606 32.3569 58.0053 32.8036 58.0077 33.2385C58.0194 37.4374 58.0218 41.6363 58.0124 45.8328C58.0077 47.6878 57.4102 49.3335 56.1706 50.7323C56.0859 50.8287 56.0412 50.9909 56.0412 51.1226C56.0318 53.0175 56.0365 54.91 56.0365 56.805C56.0365 58.6717 54.7217 59.9929 52.8493 60C50.944 60.0047 49.0387 60.0047 47.1358 60C45.3881 59.9953 44.0709 58.7093 44.0403 56.9625C44.0168 55.7235 44.0238 54.4822 44.0262 53.2432C44.0262 53.0504 43.9721 52.9987 43.7769 52.9987C40.0745 53.0057 36.3721 53.0034 32.6721 53.0034H32.0135C32.0135 53.2738 32.0229 53.523 32.0135 53.7722C31.9782 54.5903 32.0347 55.4273 31.8724 56.2196C31.456 58.2555 29.9153 59.645 27.8548 59.9365C27.4996 59.9859 27.135 59.9976 26.7751 59.9976C19.4974 60 12.222 60 4.94433 59.9976C2.44159 59.9976 0.557472 58.4389 0.0964403 55.9798C0.0399875 55.6741 0.011761 55.3591 0.00940881 55.0488C0 40.3127 0 25.5789 0 10.8452C0 8.22379 1.98761 6.1314 4.60797 6.02795C5.71821 5.98329 6.8308 6.0209 7.97162 6.0209V6.02325ZM30.0094 33.0175C30.0094 25.6071 30.0094 18.1968 30.0094 10.7864C30.0094 9.47453 29.1744 8.3672 27.8854 8.09919C27.302 7.97929 26.6834 8.0075 26.0812 8.00515C19.4504 8.00045 12.8172 8.00045 6.18629 8.0028C5.62882 8.0028 5.07135 7.99575 4.51623 8.02631C3.30485 8.09449 2.244 9.00433 2.06053 10.2057C1.96174 10.8452 2.00408 11.5081 2.00408 12.1617C1.99937 26.5029 1.99467 40.8463 2.00408 55.1875C2.00408 55.5683 2.06994 55.9798 2.22518 56.3207C2.76149 57.4985 3.71178 58.0251 5.01019 58.0181C8.99483 57.9993 12.9795 58.0063 16.9641 58.0063C20.4124 58.0063 23.8608 58.0181 27.3067 58.0063C28.831 58.0016 30.0118 56.7862 30.0118 55.2792C30.0118 47.8594 30.0118 40.4396 30.0118 33.0198L30.0094 33.0175ZM32.0088 37.9687C32.1476 37.9687 32.2534 37.9687 32.3569 37.9687C34.7609 37.9687 37.1625 37.9687 39.5641 37.9687C39.7687 37.9687 39.9757 37.9805 40.1756 38.0181C40.6649 38.1098 41.0013 38.5259 41.0036 39.0126C41.0036 39.4945 40.6602 39.8918 40.1521 39.9812C39.9992 40.007 39.8416 40.007 39.6864 40.007C37.2448 40.007 34.8032 40.0141 32.3616 40.0023C32.0699 40.0023 32.0064 40.094 32.0088 40.3667C32.0182 42.1347 32.0182 43.9003 32.0064 45.6683C32.0064 45.941 32.0793 46.0115 32.3498 46.0115C34.4786 45.9997 36.6073 46.0091 38.7384 45.9974C39.2983 45.995 39.6958 46.1949 39.9851 46.6933C40.759 48.0263 41.5775 49.3311 42.3467 50.6665C42.509 50.9463 42.6878 51.0121 42.9748 51.0121C45.6798 51.0003 48.3848 51.0074 51.0922 50.9862C51.5368 50.9839 51.9907 50.9204 52.4188 50.8099C54.1336 50.3656 56.0507 48.52 56.0389 46.0491C56.0318 44.126 56.0389 42.2029 56.0389 40.2797C56.0389 40.1975 56.0248 40.1128 56.0177 40.0117C55.8719 40.0117 55.7566 40.0117 55.639 40.0117C53.1974 40.0117 50.7558 40.0117 48.3143 40.0117C47.1452 40.0117 46.2678 39.4075 46.1008 38.406C45.9174 37.3057 45.9597 36.196 46.416 35.1569C47.2981 33.1515 48.8623 32.0888 51.0522 32.0207C52.5153 31.976 53.9831 32.0113 55.4461 32.0113C55.5567 32.0113 55.6696 32.0113 55.8319 32.0113C55.7684 31.8561 55.7331 31.7574 55.6884 31.6633C55.0345 30.3303 54.1313 29.1924 53.0022 28.2285C52.7858 28.0428 52.5694 27.9628 52.2848 27.984C51.9249 28.0099 51.5626 28.0052 51.2004 28.0052C44.92 28.0052 38.6396 28.0099 32.3593 28.0052C32.1005 28.0052 32.0111 28.0616 32.0111 28.3437C32.0205 30.951 32.0135 33.5582 32.0111 36.1631C32.0111 36.7485 32.0111 37.3339 32.0111 37.9734L32.0088 37.9687ZM51.4686 26.0162C51.405 25.8681 51.3674 25.7717 51.3227 25.6753C50.7794 24.5304 50.2266 23.3901 49.6926 22.2428C48.7094 20.1316 47.7732 17.9993 46.7524 15.9069C45.8186 13.9908 44.2449 12.9987 42.0903 12.9963C38.9548 12.994 35.8217 13.001 32.6862 13.0034C32.2346 13.0034 32.0088 13.2291 32.0088 13.6805C32.0088 17.6631 32.0064 21.6457 32.0041 25.6283C32.0041 26.0138 31.9994 26.0138 32.3757 26.0138C38.5973 26.0138 44.8165 26.0138 51.0381 26.0138H51.4686V26.0162ZM22.0002 5.99739C22.0002 4.95119 22.0284 3.96612 21.9907 2.9834C21.9649 2.31807 21.5885 2.00774 20.9228 1.99833C20.4148 1.99128 19.9067 2.00303 19.401 2.00303C16.6865 2.00303 13.9721 2.00068 11.26 2.00303C10.3168 2.00303 10.0063 2.31102 10.0016 3.24672C9.99686 4.04606 10.0251 4.84775 10.0086 5.64709C10.0016 5.93862 10.0933 6.00209 10.3709 6.00209C14.1297 5.99504 17.8885 5.99739 21.6473 5.99739C21.7626 5.99739 21.8755 5.99739 22.0049 5.99739H22.0002ZM54.0348 52.3122C53.8843 52.3686 53.8043 52.3968 53.7243 52.4274C52.847 52.78 51.9366 52.9799 50.9887 52.9822C49.4268 52.9822 47.865 52.9822 46.3008 52.9822C46.162 52.9822 45.9997 52.9258 45.9997 53.1727C46.0044 54.4516 45.9856 55.7306 46.0067 57.0071C46.0162 57.6208 46.4231 57.9899 47.0464 58.0016C47.6133 58.0134 48.1802 58.0016 48.7447 58.0016C50.1207 58.0016 51.4991 58.004 52.8752 57.9969C53.6232 57.9922 53.9878 57.6302 54.0183 56.8896C54.0207 56.8308 54.0183 56.772 54.0183 56.7133C54.0231 55.3567 54.0278 54.0002 54.0325 52.6437C54.0325 52.5496 54.0325 52.458 54.0325 52.3075L54.0348 52.3122ZM56.0295 33.9861C55.8601 33.9861 55.7166 33.9861 55.5732 33.9861C53.9642 34.0026 52.3506 33.965 50.7441 34.0472C48.8694 34.1436 47.6721 35.7964 48.0743 37.9476H56.0295V33.9838V33.9861ZM40.2203 50.998C40.2062 50.9486 40.2039 50.8992 40.1803 50.8616C39.644 49.9541 39.1124 49.0466 38.562 48.1486C38.5103 48.0616 38.3527 47.9957 38.2445 47.9957C36.2616 47.991 34.281 48.0028 32.2981 48.0028C32.0817 48.0028 32.0064 48.0757 32.0088 48.292C32.0182 48.9361 32.0135 49.5803 32.0135 50.2245C32.0135 50.4737 32.0135 50.7229 32.0135 51.0003H40.2203V50.998ZM51.7955 22.0336C51.8496 22.1653 51.8873 22.2616 51.9319 22.358C52.4165 23.3995 52.9011 24.441 53.388 25.4825C53.5879 25.9081 53.5902 25.9151 54.0466 25.8399C54.9404 25.6918 55.839 25.5648 56.7234 25.372C57.6243 25.1769 58.13 24.3846 58.0218 23.463C57.9442 22.8 57.3067 21.9748 56.2882 22.0124C55.0698 22.0595 53.849 22.0289 52.6282 22.0312C52.3671 22.0312 52.1037 22.0312 51.7932 22.0312L51.7955 22.0336Z" fill="black"/>
<path d="M10.0816 47.6384C10.1757 47.2387 10.3051 46.6486 10.4486 46.0632C11.1825 43.1033 11.9164 40.1434 12.6573 37.1858C12.7043 37.0001 12.6573 36.9061 12.5021 36.8073C10.7732 35.7259 9.04902 34.635 7.3225 33.5512C6.88735 33.2785 6.48277 32.9799 6.26166 32.4932C5.84062 31.5693 5.97704 30.7135 6.64036 29.9635C7.36484 29.1454 8.12696 28.3602 8.87261 27.5585C11.914 24.2812 14.9554 21.0039 17.9968 17.7242C18.3026 17.3951 18.5919 17.0518 18.8977 16.7227C19.4693 16.1044 20.1585 15.8505 20.9865 16.095C21.8097 16.3371 22.2402 16.939 22.4519 17.736C22.5671 18.1733 22.4754 18.5894 22.3484 19.0008C21.4216 22.0289 20.4878 25.0547 19.5587 28.0827C19.5281 28.1862 19.4952 28.2873 19.4646 28.3907C19.307 28.9127 19.3046 28.9197 19.7774 29.2183C21.4169 30.2574 23.054 31.2989 24.7029 32.3263C25.3051 32.7025 25.7661 33.1727 25.9543 33.878C26.1731 34.6914 25.8767 35.3615 25.3639 35.9516C24.0514 37.4633 22.7247 38.9608 21.4028 40.4631C19.1423 43.0375 16.8866 45.6165 14.6261 48.1885C14.2921 48.5694 13.9557 48.9503 13.6005 49.3123C12.9701 49.9565 12.1892 50.1305 11.4365 49.8225C10.6415 49.4933 10.0863 48.6752 10.0863 47.6337L10.0816 47.6384ZM20.5372 18.0463C20.5042 18.0298 20.4737 18.0157 20.4407 17.9993C20.3725 18.0604 20.2949 18.1145 20.2337 18.1827C18.2132 20.3691 16.1997 22.5626 14.1745 24.7467C12.2762 26.7944 10.3686 28.8351 8.46803 30.8781C8.31513 31.0427 8.15754 31.2072 8.03993 31.3953C7.99759 31.4658 8.03993 31.6234 8.09167 31.708C8.14342 31.7903 8.25868 31.8373 8.35042 31.8937C10.004 32.9305 11.6506 33.9744 13.3112 34.9994C14.3274 35.6248 14.859 36.504 14.5014 37.9052C13.6782 41.1144 12.8925 44.3329 12.0951 47.5491C12.0692 47.6549 12.0551 47.7654 12.0363 47.8735C12.0598 47.8853 12.0834 47.897 12.1069 47.9088C12.1798 47.8406 12.2574 47.7771 12.3233 47.7019C13.123 46.792 13.9134 45.8775 14.7178 44.9724C17.6816 41.6363 20.6501 38.3096 23.6092 34.9688C24.1408 34.367 24.3313 34.414 23.4586 33.8592C21.8427 32.8365 20.2243 31.8208 18.6084 30.7958C17.444 30.0576 17.1453 29.183 17.5546 27.8735C18.5237 24.7772 19.481 21.6786 20.4384 18.5776C20.4901 18.406 20.5042 18.225 20.5372 18.0463Z" fill="black"/>
<path d="M49.0197 42.0031C50.6356 41.9584 52.0423 43.4419 52.0305 45.0453C52.0164 46.7615 50.4333 48.0546 48.9679 47.9911C47.3567 47.9206 45.9924 46.557 46.023 44.9489C46.0535 43.3126 47.4108 41.9796 49.0197 42.0007V42.0031ZM48.0459 44.9818C48.0294 45.5578 48.4199 45.9833 48.9773 46.0021C49.5771 46.021 50.0288 45.5978 50.0382 45.0053C50.0476 44.4646 49.6148 44.0108 49.0738 43.9991C48.4669 43.985 48.0623 44.3729 48.0459 44.9842V44.9818Z" fill="black"/>
<path d="M43.0384 22.9693C42.6527 22.9811 42.401 22.7624 42.1634 22.525C41.4436 21.8079 40.7286 21.0885 40.0135 20.3691C38.8139 19.1677 37.6072 17.9711 36.417 16.7627C35.9042 16.2407 35.9512 15.5707 36.4969 15.204C36.8427 14.9712 37.252 14.9783 37.5884 15.2275C37.6754 15.2909 37.7554 15.3638 37.8306 15.4391C39.7312 17.334 41.6271 19.2312 43.53 21.1261C43.8946 21.4882 44.1228 21.8785 43.8993 22.4051C43.7441 22.7718 43.4265 22.974 43.0431 22.9693H43.0384Z" fill="black"/>
<path d="M42.175 15.0323C42.2762 15.0817 42.5067 15.1381 42.6643 15.2792C43.036 15.6083 43.3864 15.9633 43.7157 16.3348C44.0921 16.758 44.0709 17.3058 43.6993 17.6772C43.3135 18.0604 42.7631 18.0793 42.335 17.6819C41.9563 17.3316 41.5941 16.9602 41.2553 16.5723C40.9942 16.2737 40.9825 15.914 41.173 15.5613C41.3612 15.2134 41.6623 15.0441 42.175 15.0323Z" fill="black"/>
</g>
<defs>
<clipPath id="clip0_172_345">
<rect width="60" height="60" fill="white"/>
</clipPath>
</defs>
</svg>
