<svg width="34" height="36" viewBox="0 0 34 36" fill="none" xmlns="http://www.w3.org/2000/svg">
<g clip-path="url(#clip0_316_705)">
<path d="M18.9952 21.075C19.4195 21.0425 19.8281 21.0482 20.2212 20.9719C20.6342 20.8914 21.0315 20.7303 21.4387 20.613C21.5438 20.5819 21.5792 20.5325 21.5764 20.4265C21.5693 20.1864 21.5806 19.9448 21.565 19.7046C21.5608 19.6396 21.5054 19.5478 21.4473 19.5181C20.4979 19.0363 19.7387 18.3398 19.103 17.4964C19.0604 17.4384 18.9583 17.4045 18.8802 17.3989C18.6574 17.3819 18.4304 17.4059 18.2104 17.3763C17.3037 17.2576 16.6112 16.5229 16.5559 15.6088C16.5317 15.1991 16.5445 14.788 16.553 14.3769C16.5544 14.261 16.5246 14.196 16.4168 14.1451C15.598 13.7538 15.222 13.0898 15.2092 12.1983C15.2035 11.7857 15.2064 11.3746 15.3653 10.9861C15.6363 10.3235 16.1614 9.9618 16.8397 9.79367C16.895 9.77954 16.9503 9.76683 17.0327 9.74705C16.9021 9.55914 16.7999 9.37971 16.6665 9.22713C16.316 8.82448 16.1557 8.37379 16.2068 7.83692C16.238 7.51056 16.2096 7.17996 16.2195 6.85077C16.2238 6.72079 16.1741 6.64309 16.0776 6.55549C15.7796 6.28141 15.4632 6.01721 15.222 5.69791C14.555 4.8149 14.565 3.85277 15.1907 2.93727C15.5526 2.40887 16.0535 2.04578 16.5942 1.72648C17.7109 1.06529 18.9313 0.685237 20.1943 0.426692C21.7978 0.098918 23.4211 -0.0508406 25.0573 0.0155618C27.0964 0.098918 29.1029 0.381481 31.0059 1.17125C31.7863 1.49478 32.5356 1.872 33.1358 2.48941C33.4594 2.82283 33.7332 3.18734 33.8808 3.62955C34.1604 4.46735 33.9319 5.20767 33.3898 5.85897C33.1741 6.11893 32.896 6.32803 32.6363 6.54702C32.5427 6.62613 32.4902 6.69536 32.493 6.82393C32.5015 7.29864 32.493 7.77476 32.5029 8.24946C32.5072 8.47692 32.4504 8.67331 32.3156 8.85697C32.1084 9.13954 31.9098 9.42916 31.6927 9.73857C31.7636 9.76118 31.8147 9.78237 31.8686 9.79367C32.818 9.99429 33.4523 10.7191 33.4934 11.6854C33.509 12.0457 33.5161 12.4201 33.4395 12.7691C33.2352 13.7043 32.4008 14.3345 31.4344 14.3373C31.2755 14.3373 31.1165 14.3415 30.9576 14.3359C30.854 14.3316 30.8157 14.3655 30.8044 14.4729C30.705 15.3588 30.4184 16.1853 29.9771 16.9581C29.3981 17.9739 28.5836 18.7594 27.5675 19.3274C27.2539 19.5026 27.0964 19.6693 27.1376 20.0465C27.1773 20.4152 27.1404 20.4209 27.4938 20.5283C28.0003 20.6823 28.5041 20.8419 29.015 20.9804C29.2108 21.034 29.4208 21.0496 29.6266 21.0567C31.5706 21.1174 33.1486 22.5104 33.4154 24.4234C33.4622 24.7596 33.465 25.103 33.465 25.442C33.4693 27.5316 33.465 29.6211 33.4679 31.7107C33.4679 32.3733 33.3955 33.019 33.1301 33.6364C32.6505 34.7525 31.7934 35.4405 30.661 35.8164C30.268 35.9477 29.8607 35.9972 29.4435 35.9972C20.5845 35.9944 11.7241 35.9958 2.86504 35.9958C2.59968 35.9958 2.33432 36 2.06896 35.9972C1.70853 35.9944 1.52264 35.8121 1.52122 35.4547C1.51838 34.8443 1.52122 34.234 1.52406 33.6237C1.52689 33.2041 1.69576 33.0345 2.11579 33.0331C3.44826 33.0317 4.78073 33.0303 6.11178 33.0373C6.28207 33.0373 6.36153 33.0119 6.3814 32.8212C6.40978 32.5429 6.48073 32.2674 6.5304 31.9919C6.54033 31.9353 6.53891 31.8774 6.54459 31.7912C6.36295 31.7912 6.19409 31.7912 6.02522 31.7912C4.53382 31.7912 3.04242 31.7941 1.55102 31.7941C0.753522 31.7941 0.205775 31.3688 0.0525198 30.6243C0.0198821 30.4646 0.0184631 30.2979 0.0184631 30.134C0.017044 26.6712 0.0184631 23.2084 0.015625 19.7456C0.015625 19.3726 0.0369105 19.0081 0.245508 18.6789C0.49242 18.2875 0.852854 18.0841 1.30552 18.036C1.43466 18.0219 1.56521 18.0233 1.69434 18.0233C6.92205 18.0233 12.1512 18.0233 17.3789 18.0219C18.192 18.0219 18.727 18.3779 18.9313 19.0632C18.9682 19.1847 18.9867 19.3161 18.9881 19.4432C18.9952 19.9123 18.9923 20.3827 18.9923 20.8518C18.9923 20.9083 18.9923 20.9662 18.9923 21.0764L18.9952 21.075ZM9.56855 18.9996C7.17038 18.9982 4.7708 18.9968 2.37264 18.9996C2.0718 18.9996 1.77097 19.0067 1.47155 19.0222C1.14659 19.0391 1.02456 19.179 1.02456 19.5026C1.02456 22.93 1.02456 26.3575 1.02456 29.785C1.02456 29.9786 1.02172 30.1721 1.02456 30.3657C1.03023 30.6257 1.17923 30.7768 1.44033 30.7938C1.53966 30.7994 1.64042 30.7994 1.74117 30.7994C3.32623 30.7994 4.91128 30.7994 6.49776 30.7994C6.74467 30.7994 6.74325 30.8009 6.78724 30.555C6.91496 29.8331 7.04125 29.1125 7.17464 28.392C7.23566 28.0685 7.38891 27.9427 7.72239 27.9342C8.08708 27.9244 8.45319 27.9272 8.81788 27.9272C9.64943 27.9272 10.4796 27.9258 11.3111 27.9342C11.6261 27.9371 11.7723 28.0699 11.8433 28.3694C11.8589 28.4372 11.8716 28.5079 11.883 28.5771C12.0036 29.2581 12.1214 29.939 12.2434 30.62C12.2604 30.7118 12.2548 30.8079 12.4137 30.8079C14.0938 30.8009 15.7726 30.8051 17.4527 30.8023C17.8656 30.8023 18.0004 30.661 18.0004 30.2499C18.0004 27.0103 18.0004 23.7707 18.0004 20.5311C18.0004 20.1962 18.0004 19.8614 18.0004 19.528C18.0004 19.203 17.8514 19.0448 17.5222 19.0194C17.3874 19.0095 17.2512 19.0038 17.1164 19.0038C14.6004 19.0038 12.0831 19.0038 9.56713 19.0038L9.56855 18.9996ZM20.2638 17.3989C20.3078 17.4554 20.3191 17.4752 20.3347 17.4907C21.1776 18.3624 22.1908 18.9304 23.3899 19.131C24.9083 19.3839 26.316 19.1041 27.5761 18.1858C28.961 17.1756 29.7514 15.8292 29.8451 14.1197C29.9004 13.1138 29.8777 12.1022 29.8791 11.0935C29.8791 10.9522 29.8352 10.8024 29.7784 10.6696C29.5443 10.113 29.2988 9.56197 29.049 9.01238C29.0291 8.97 28.9412 8.92196 28.8943 8.93185C27.5973 9.19605 26.2862 9.31755 24.965 9.35146C23.2466 9.39526 21.5395 9.27658 19.8537 8.92761C19.7572 8.90783 19.7061 8.91914 19.665 9.01662C19.4166 9.5987 19.1584 10.1765 18.9115 10.76C18.8731 10.849 18.8519 10.9508 18.8519 11.0483C18.8476 11.9751 18.8405 12.9033 18.8519 13.8301C18.8618 14.6933 19.0619 15.5128 19.4663 16.2813C19.5188 16.3816 19.5812 16.4268 19.699 16.4254C20.2241 16.4184 20.7477 16.4184 21.2727 16.4198C21.3891 16.4198 21.5097 16.4268 21.6218 16.4551C21.8375 16.5102 21.9751 16.708 21.9695 16.927C21.9638 17.1446 21.8091 17.3296 21.5863 17.3706C21.4657 17.3918 21.3408 17.3989 21.2174 17.4003C20.9123 17.4045 20.6086 17.4003 20.2638 17.4003V17.3989ZM26.4891 25.9591C26.4891 26.0298 26.4933 26.1004 26.4891 26.1696C26.4735 26.4013 26.4096 26.6232 26.2039 26.7475C26.0591 26.8351 26.0577 26.9326 26.079 27.0682C26.1953 27.7972 26.3074 28.5276 26.421 29.2566C26.5402 30.0196 26.6608 30.7825 26.7828 31.5539C26.8382 31.5595 26.8836 31.5694 26.9304 31.5694C27.5377 31.5694 28.1451 31.568 28.751 31.5638C29.0135 31.5624 29.0135 31.5581 29.0135 31.2911C29.0135 30.0408 29.0135 28.7918 29.015 27.5415C29.015 27.2829 29.0178 27.0244 29.0377 26.7673C29.0575 26.5186 29.269 26.3406 29.5173 26.3392C29.7543 26.3392 29.96 26.5115 29.9912 26.7531C30.0097 26.8859 30.0125 27.023 30.0125 27.1572C30.0125 28.6534 30.0125 30.1495 30.0125 31.6471C30.0125 31.7997 30.0125 31.9523 29.9969 32.1035C29.9728 32.3253 29.8252 32.4878 29.6039 32.5188C29.418 32.5443 29.2292 32.5386 29.0405 32.54C27.5023 32.5443 25.964 32.5471 24.4258 32.5485C24.3165 32.5485 24.2896 32.5881 24.2896 32.6954C24.2938 33.2705 24.2896 33.8455 24.2896 34.4205C24.2896 34.6126 24.2896 34.8048 24.2896 35.0054C24.3591 35.011 24.4045 35.0167 24.4499 35.0181C26.1173 35.0224 27.7861 35.0139 29.4534 35.0351C31.152 35.0563 32.5114 33.6378 32.4873 32.0328C32.4533 29.7215 32.4816 27.4087 32.4816 25.0973C32.4816 24.9151 32.4831 24.7314 32.4575 24.552C32.2589 23.1321 31.0967 22.0894 29.6507 22.016C29.5017 22.0089 29.4165 22.0513 29.3399 22.1798C28.6659 23.3087 27.9847 24.4319 27.3064 25.5579C27.0567 25.9733 26.9545 26.0255 26.4891 25.9591ZM24.3478 0.990406C24.3478 0.972039 24.3449 0.953673 24.3435 0.935306C23.336 1.02431 22.3242 1.08506 21.321 1.20939C20.1148 1.35915 18.9427 1.66573 17.8273 2.16022C17.1632 2.4555 16.563 2.83696 16.0762 3.38089C15.5923 3.92059 15.5554 4.55353 15.9982 5.12431C16.1557 5.32634 16.3586 5.49305 16.5317 5.68378C16.6353 5.79822 16.7205 5.78551 16.851 5.71487C17.3321 5.45632 17.8089 5.18506 18.3098 4.97314C19.3882 4.51962 20.5277 4.27944 21.6828 4.10849C23.4495 3.84854 25.2148 3.83865 26.9815 4.09578C28.7241 4.35009 30.4042 4.78947 31.9211 5.72758C31.9694 5.75725 32.0744 5.7516 32.1212 5.71911C32.4263 5.50436 32.6917 5.24864 32.8705 4.9138C33.0422 4.59026 33.0663 4.25967 32.9357 3.91353C32.7924 3.53348 32.5483 3.23255 32.2418 2.97541C31.5394 2.38627 30.7093 2.04013 29.8508 1.76039C28.0642 1.17972 26.218 0.993231 24.3478 0.988993V0.990406ZM22.7343 25.9492C22.3299 26.0976 22.1156 25.9054 21.934 25.6003C21.3125 24.5562 20.6796 23.5206 20.0509 22.4808C19.7558 21.9905 19.7572 21.9948 19.1853 22.0244C19.0306 22.0315 18.9938 22.0809 18.9938 22.2321C18.998 24.9433 18.9938 27.6545 18.9938 30.3643C18.9938 31.0975 18.4446 31.7149 17.7109 31.7757C17.3122 31.8082 16.9106 31.7927 16.5104 31.7983C16.448 31.7983 16.3842 31.804 16.316 31.8068V33.0402C16.5019 33.0402 16.6765 33.0388 16.8524 33.0402C17.3321 33.0458 17.4953 33.2083 17.5009 33.6915C17.5052 34.0786 17.5038 34.4657 17.5066 34.8528C17.5066 34.9023 17.5137 34.9531 17.518 35.0209H18.8405C18.7951 34.9249 18.7539 34.8302 18.7057 34.7398C18.0118 33.4089 18.9441 31.7545 20.4426 31.6005C21.0145 31.5412 21.5963 31.5624 22.1724 31.568C22.3725 31.5708 22.4363 31.4974 22.4619 31.3151C22.5428 30.7528 22.6392 30.1919 22.7272 29.631C22.8649 28.7509 22.9997 27.8707 23.1402 26.9905C23.1572 26.8845 23.1387 26.8209 23.0352 26.7658C22.8521 26.6698 22.7528 26.5045 22.7372 26.2968C22.7301 26.1922 22.7372 26.0877 22.7372 25.945L22.7343 25.9492ZM17.2058 7.53599C19.4705 6.35346 21.8843 5.9833 24.3619 5.97483C26.8481 5.96635 29.259 6.37041 31.5195 7.53316C31.5195 7.24919 31.5252 6.98075 31.5153 6.71232C31.5139 6.66145 31.4571 6.59505 31.4089 6.5668C31.074 6.37183 30.7462 6.15849 30.3943 5.99884C29.1441 5.43089 27.8159 5.15115 26.4579 5.00705C25.3907 4.89402 24.3208 4.86859 23.2466 4.93075C22.2802 4.98727 21.3238 5.1017 20.3801 5.32069C19.3074 5.57076 18.2771 5.92255 17.3534 6.53854C17.298 6.57527 17.2157 6.63179 17.2129 6.68123C17.1987 6.95956 17.2058 7.23788 17.2058 7.53458V7.53599ZM11.6886 33.0402C11.6687 32.9173 11.6545 32.8212 11.6389 32.7251C11.4246 31.5143 11.2075 30.3035 10.9961 29.0913C10.9734 28.9614 10.9237 28.9091 10.7776 28.9105C9.92898 28.919 9.0804 28.9176 8.23182 28.9119C8.10978 28.9119 8.05302 28.9388 8.03173 29.0659C7.81037 30.336 7.58474 31.6047 7.35344 32.872C7.32789 33.0133 7.36479 33.0416 7.50102 33.0416C8.83207 33.0373 10.1645 33.0388 11.4956 33.0388C11.5524 33.0388 11.6091 33.0388 11.69 33.0388L11.6886 33.0402ZM2.51596 35.0153C2.58975 35.0153 2.65219 35.0153 2.71604 35.0153C6.95469 35.0167 11.1919 35.0181 15.4306 35.0195C15.7484 35.0195 16.0677 35.0139 16.3856 35.0181C16.4863 35.0181 16.5218 34.9842 16.5204 34.8867C16.5161 34.6635 16.5104 34.4403 16.5204 34.2185C16.5289 34.0659 16.4849 34.0178 16.3246 34.0192C11.7922 34.0235 7.25978 34.0235 2.72598 34.0235C2.65786 34.0235 2.58975 34.0291 2.51596 34.0334V35.0167V35.0153ZM19.1612 7.71824C20.8484 8.56593 28.3792 8.55887 29.5925 7.69988C26.0832 6.71232 22.6208 6.68547 19.1612 7.71824ZM21.8815 35.0181C22.3114 35.0181 22.7414 35.0153 23.1714 35.0209C23.2806 35.0224 23.3161 34.9884 23.3147 34.8811C23.3104 34.1535 23.309 33.4259 23.3119 32.6997C23.3119 32.5852 23.2764 32.5471 23.16 32.5485C22.8422 32.5485 22.5243 32.533 22.2064 32.5344C21.653 32.5344 21.0982 32.516 20.5476 32.557C19.9034 32.605 19.4322 33.1687 19.4436 33.8045C19.4549 34.4431 19.9445 34.9743 20.5916 35.0125C21.0201 35.0379 21.4515 35.0167 21.8801 35.0167L21.8815 35.0181ZM23.4055 31.5454H25.8079C25.561 29.9772 25.3198 28.4344 25.0757 26.8789C24.8345 26.8789 24.6117 26.8789 24.3889 26.8789C24.1207 26.8789 24.1264 26.8789 24.0881 27.136C23.9064 28.3171 23.722 29.4982 23.5389 30.6779C23.4949 30.9647 23.4509 31.253 23.4055 31.544V31.5454ZM22.5371 19.9942C22.5371 20.2556 22.5456 20.5311 22.5342 20.8052C22.5257 20.9832 22.5839 21.1202 22.7017 21.2502C23.1856 21.7871 23.6652 22.3282 24.1463 22.8679C24.2158 22.9456 24.2839 23.0233 24.3563 23.1038C24.3861 23.0812 24.4074 23.0699 24.423 23.053C24.9806 22.4243 25.5383 21.7956 26.0917 21.1626C26.1343 21.1132 26.167 21.0369 26.1698 20.9733C26.1769 20.6469 26.1741 20.3192 26.1741 20.0027C25.5582 20.0691 24.9579 20.1849 24.3591 20.1849C23.7589 20.1849 23.1586 20.0649 22.5399 19.997L22.5371 19.9942ZM28.4473 21.8139C28.0018 21.6811 27.5931 21.5554 27.1816 21.4395C27.1475 21.4296 27.0822 21.4805 27.0496 21.5186C26.6239 22.0047 26.2024 22.4935 25.7767 22.9809C25.5426 23.2493 25.3028 23.515 25.0615 23.7862C25.1013 23.8201 25.1254 23.8456 25.1538 23.8639C25.5809 24.155 26.0123 24.4403 26.4366 24.737C26.5614 24.8246 26.6225 24.8246 26.7076 24.6834C27.2071 23.847 27.7165 23.0176 28.2231 22.1855C28.2927 22.0711 28.3608 21.9566 28.4473 21.8125V21.8139ZM20.7789 21.8153C20.8002 21.8648 20.8087 21.893 20.8229 21.9171C21.3919 22.8538 21.9638 23.7905 22.5314 24.73C22.5967 24.8373 22.6506 24.826 22.7414 24.7625C23.0593 24.5392 23.3786 24.3188 23.7035 24.1069C23.817 24.032 23.827 23.9798 23.7376 23.878C23.0806 23.1335 22.4278 22.3861 21.7722 21.6416C21.7382 21.602 21.6686 21.5554 21.6303 21.5653C21.3493 21.6401 21.0712 21.7277 20.7817 21.8153H20.7789ZM17.8599 13.3314C17.8599 12.5628 17.8642 11.7914 17.8571 11.02C17.8557 10.8476 17.718 10.7346 17.5449 10.7332C17.4101 10.7318 17.2739 10.7374 17.1391 10.7445C16.6438 10.7713 16.2593 11.1132 16.2039 11.6091C16.1741 11.8691 16.1727 12.1361 16.1954 12.3961C16.2394 12.899 16.5913 13.265 17.0951 13.3271C17.3377 13.3568 17.5875 13.3328 17.8599 13.3328V13.3314ZM30.8781 13.3314C31.1378 13.3314 31.3805 13.3568 31.616 13.3257C32.178 13.2522 32.4845 12.9216 32.5242 12.3565C32.5412 12.1234 32.5256 11.8875 32.5114 11.6529C32.4873 11.2376 32.2291 10.8914 31.8261 10.7883C31.6075 10.7332 31.372 10.7388 31.1435 10.736C30.9789 10.7332 30.881 10.8377 30.8796 11.0016C30.8767 11.7759 30.8781 12.5501 30.8781 13.3314ZM12.4648 31.8096C12.5301 32.1854 12.5953 32.5414 12.6493 32.8989C12.6663 33.0105 12.7117 33.0416 12.821 33.0416C13.5929 33.0388 14.3649 33.0416 15.1368 33.0416C15.1936 33.0416 15.2489 33.0359 15.3043 33.0317V31.8096H12.4648ZM25.5014 25.8885C25.5014 25.6935 25.5085 25.5183 25.4972 25.3431C25.4943 25.2909 25.4489 25.2259 25.4049 25.1934C25.1765 25.0281 24.9438 24.867 24.7054 24.7173C24.6571 24.6876 24.5564 24.689 24.5067 24.7201C24.2726 24.8656 24.0455 25.0253 23.8199 25.1835C23.7787 25.2132 23.7191 25.2555 23.7177 25.2951C23.7078 25.4915 23.7135 25.6879 23.7135 25.8871H25.5029L25.5014 25.8885ZM18.7752 8.67048C18.7582 8.64788 18.7511 8.6281 18.7369 8.62103C18.49 8.49812 18.2431 8.3752 17.9948 8.25653C17.9664 8.2424 17.9181 8.23675 17.894 8.25229C17.7237 8.3526 17.5577 8.45856 17.3732 8.57441C17.6726 8.99543 17.9579 9.39667 18.2658 9.82899C18.4517 9.40515 18.6149 9.0364 18.7752 8.67048ZM30.4624 9.8191C30.7703 9.38537 31.0527 8.98554 31.3493 8.56735C31.1733 8.46421 31.0073 8.36531 30.8398 8.27207C30.8129 8.25653 30.766 8.24522 30.7405 8.25794C30.478 8.38509 30.2183 8.5179 29.9473 8.65494C30.1161 9.03499 30.2807 9.40797 30.4624 9.81769V9.8191ZM17.8429 14.3387C17.8089 14.3387 17.7493 14.3458 17.6925 14.3387C17.5378 14.3175 17.5038 14.3867 17.5137 14.5294C17.5279 14.7456 17.518 14.9632 17.5279 15.1793C17.5378 15.3828 17.5492 15.589 17.5832 15.7897C17.6315 16.0793 18.087 16.4735 18.402 16.4071C18.219 15.7275 18.0345 15.0479 17.8443 14.3401L17.8429 14.3387Z" fill="white"/>
<path d="M8.18333e-06 6.13166C0.035484 5.54111 0.0652836 4.94914 0.110693 4.35858C0.14333 3.91919 0.316452 3.7765 0.756352 3.77226C1.44458 3.76519 2.13281 3.80334 2.81821 3.6776C3.996 3.46285 5.05318 2.99803 5.96987 2.22522C6.05502 2.15317 6.14158 2.08253 6.22956 2.0133C6.49634 1.80279 6.68649 1.80985 6.96178 2.01613C7.31795 2.28456 7.66846 2.56712 8.04592 2.80165C9.09458 3.45579 10.2539 3.74824 11.4857 3.76943C11.822 3.77508 12.1583 3.76943 12.4932 3.76943C12.8664 3.76943 13.048 3.92343 13.0835 4.29783C13.1232 4.71178 13.1629 5.12715 13.1786 5.54393C13.2424 7.22236 13.048 8.86829 12.5414 10.4747C11.7283 13.0545 10.0184 14.8502 7.62872 16.0525C7.3662 16.1839 7.09375 16.2941 6.82697 16.4184C6.6723 16.4904 6.52472 16.482 6.3672 16.4184C3.52772 15.2429 1.53682 13.272 0.608773 10.3122C0.181644 8.95306 -0.00141085 7.5572 8.18333e-06 6.13166ZM1.06428 4.77536C1.05861 4.80361 1.04867 4.83187 1.04725 4.86013C1.03874 5.3645 1.03164 5.86888 1.02313 6.37325C1.00752 7.29724 1.08131 8.21416 1.2743 9.11836C1.90861 12.1065 3.65969 14.1833 6.45093 15.4125C6.56303 15.4619 6.65385 15.4591 6.76595 15.4082C7.47405 15.0932 8.12964 14.6976 8.75259 14.237C10.1546 13.2014 11.0883 11.8394 11.6318 10.202C12.2037 8.47835 12.2619 6.70244 12.154 4.91099C12.1512 4.86578 12.137 4.82057 12.1242 4.7584C12.0504 4.7584 11.9795 4.76123 11.9099 4.7584C11.5566 4.74428 11.2018 4.75134 10.8513 4.71037C9.31737 4.53094 7.90827 4.03787 6.70351 3.04324C6.62547 2.97967 6.57154 2.98391 6.49066 3.04748C5.21353 4.04634 3.76044 4.59734 2.14275 4.72308C1.78515 4.75134 1.42755 4.75699 1.06428 4.77395V4.77536Z" fill="white"/>
<path d="M24.5899 17.5824C23.6945 17.5768 22.87 17.0046 22.589 16.1936C22.4613 15.8221 22.704 15.4872 23.0828 15.5409C23.202 15.5579 23.317 15.6553 23.4135 15.7401C23.4745 15.7938 23.4986 15.8913 23.5384 15.969C23.7611 16.3914 24.1145 16.6132 24.5927 16.6118C25.0553 16.6104 25.403 16.3999 25.6272 15.9944C25.6697 15.9167 25.7066 15.8376 25.7535 15.7627C25.8911 15.5423 26.1409 15.4674 26.3665 15.5762C26.5907 15.6836 26.6886 15.9238 26.6063 16.1696C26.331 16.9933 25.481 17.5895 24.5884 17.5838L24.5899 17.5824Z" fill="white"/>
<path d="M27.6973 12.7111C27.6973 12.81 27.703 12.9103 27.6973 13.0092C27.6789 13.2706 27.5029 13.4458 27.2489 13.4627C26.9892 13.4811 26.7707 13.3412 26.7437 13.0813C26.7154 12.8058 26.7239 12.5218 26.7565 12.2449C26.7806 12.0372 26.9935 11.9016 27.2078 11.8987C27.4178 11.8959 27.598 12.0287 27.6661 12.2406C27.6775 12.2745 27.6902 12.3084 27.6902 12.3424C27.6931 12.4653 27.6902 12.5882 27.6902 12.7097C27.6931 12.7097 27.6959 12.7097 27.6988 12.7097L27.6973 12.7111Z" fill="white"/>
<path d="M22.0056 12.7196C21.9971 12.8227 21.9986 12.9597 21.9702 13.0897C21.9233 13.3045 21.7218 13.4556 21.5104 13.4542C21.2805 13.4542 21.0776 13.3059 21.0492 13.0742C21.0194 12.8269 21.0081 12.5726 21.0265 12.324C21.0464 12.0612 21.2479 11.9015 21.5019 11.8987C21.746 11.8959 21.9319 12.0499 21.9758 12.3056C21.9971 12.4314 21.9943 12.5613 22.0056 12.721V12.7196Z" fill="white"/>
<path d="M10.2275 7.89057C10.2318 8.08836 10.1154 8.21693 9.97209 8.32854C9.55489 8.65349 9.13628 8.97844 8.71766 9.30197C8.45088 9.50825 8.44805 9.50825 8.53745 9.82472C8.68644 10.3489 8.84112 10.8716 8.98586 11.3958C9.06249 11.6755 9.00289 11.8606 8.79571 12.0005C8.59279 12.1361 8.40122 12.0654 8.221 11.9454C7.73285 11.6176 7.24471 11.2898 6.76082 10.9536C6.64871 10.8759 6.57067 10.8646 6.45005 10.9493C6.01725 11.2545 5.57451 11.5441 5.13461 11.838C5.04237 11.9001 4.9473 11.9609 4.84654 12.0103C4.67058 12.0979 4.50172 12.0711 4.3513 11.9496C4.20798 11.8323 4.13987 11.6783 4.18811 11.4961C4.29738 11.0821 4.41658 10.6724 4.53294 10.2599C4.58828 10.0621 4.63511 9.86286 4.70322 9.66931C4.74296 9.55487 4.71883 9.49412 4.62376 9.42065C4.14696 9.05614 3.67442 8.68599 3.20614 8.313C2.98477 8.1364 2.92801 7.96404 3.00038 7.74505C3.0685 7.53878 3.25013 7.41445 3.52543 7.40315C4.0902 7.37772 4.65639 7.35229 5.22117 7.34098C5.38578 7.33816 5.47234 7.29012 5.5291 7.12906C5.71783 6.5936 5.91224 6.05815 6.12793 5.53258C6.18327 5.39695 6.29963 5.25708 6.42451 5.18644C6.66432 5.05222 6.93962 5.19068 7.05456 5.48596C7.23336 5.94512 7.39229 6.40994 7.56825 6.87052C7.79104 7.4526 7.61791 7.3212 8.2508 7.35229C8.7276 7.3763 9.20439 7.38196 9.68119 7.40456C10.0076 7.41869 10.2218 7.6179 10.2275 7.89057ZM4.85932 8.32148C4.85648 8.33843 4.85222 8.3568 4.84938 8.37375C5.07927 8.55318 5.30205 8.73967 5.53903 8.9078C5.75614 9.06321 5.81858 9.25959 5.75189 9.50683C5.70364 9.68202 5.65255 9.8558 5.60431 10.031C5.57309 10.1454 5.54613 10.2613 5.51775 10.3771C5.78169 10.2471 6.01441 10.1002 6.23578 9.94057C6.48127 9.76255 6.71399 9.75266 6.96374 9.93774C7.18369 10.1016 7.41783 10.2457 7.66048 10.4096C7.66758 10.3644 7.67751 10.3418 7.67184 10.3234C7.6321 10.1709 7.59379 10.0169 7.54838 9.8671C7.3412 9.17623 7.34404 9.16069 7.91449 8.71424C8.05356 8.60546 8.19688 8.49808 8.37993 8.35821C8.24654 8.34267 8.16708 8.32854 8.08761 8.32431C7.86482 8.31159 7.64062 8.30029 7.41783 8.29464C7.16382 8.28898 7.01908 8.14629 6.93394 7.92589C6.84738 7.70125 6.76933 7.4752 6.68277 7.25056C6.66007 7.19123 6.61891 7.14036 6.58202 7.07679C6.47134 7.37772 6.36491 7.65039 6.26983 7.9273C6.18895 8.15901 6.02576 8.28192 5.78736 8.3017C5.6114 8.31583 5.43402 8.31724 5.25806 8.32148C5.12609 8.32431 4.99412 8.32148 4.86215 8.32148H4.85932Z" fill="white"/>
</g>
<defs>
<clipPath id="clip0_316_705">
<rect width="34" height="36" fill="white"/>
</clipPath>
</defs>
</svg>
