<svg width="36" height="36" viewBox="0 0 36 36" fill="none" xmlns="http://www.w3.org/2000/svg">
<g clip-path="url(#clip0_316_684)">
<path d="M11.1923 2.17367C14.6392 2.17367 18.0861 2.17221 21.5331 2.17803C21.7151 2.17803 21.8957 2.25083 22.0792 2.27412C22.1418 2.2814 22.2306 2.25956 22.2743 2.21734C22.8263 1.67575 23.3723 1.12542 23.9214 0.580912C24.7019 -0.193626 25.6951 -0.19217 26.4742 0.58528C28.0265 2.13872 29.576 3.69217 31.1254 5.24707C31.2274 5.35044 31.3264 5.45672 31.421 5.56591C32.037 6.27348 32.0385 7.16885 31.4036 7.86332C31.0366 8.26514 30.6478 8.64659 30.2633 9.03095C27.9537 11.3385 25.6412 13.6447 23.3316 15.9523C23.0083 16.2755 22.6515 16.5259 22.1811 16.5885C21.7137 16.6497 21.3045 16.5172 20.9506 16.2245C20.7322 16.044 20.5356 15.8373 20.3346 15.6364C19.7477 15.0511 19.1652 14.4614 18.574 13.882C18.5143 13.8238 18.4051 13.7917 18.3192 13.7917C17.2736 13.7859 16.2265 13.7874 15.1809 13.7874C10.3666 13.7874 5.55365 13.7874 0.739279 13.7874C0.22231 13.7874 -0.00195312 13.5646 -0.00195312 13.0507C-0.000496873 9.68756 -0.000496873 6.32443 -0.000496873 2.96131C-0.000496873 2.40224 0.229591 2.17367 0.796073 2.17221C4.2605 2.17221 7.72637 2.17221 11.1908 2.17221L11.1923 2.17367ZM15.9178 8.56069C15.6994 8.56069 15.5319 8.56651 15.3659 8.56069C15.0703 8.54759 14.8343 8.33939 14.8008 8.0686C14.7659 7.78907 14.9232 7.53428 15.1955 7.45421C15.3091 7.42072 15.4329 7.40616 15.5523 7.40471C16.0241 7.39888 16.4959 7.40471 16.9677 7.40034C17.0289 7.40034 17.109 7.39015 17.1469 7.35084C17.6391 6.86748 18.124 6.3783 18.6133 5.89203C18.6774 5.82797 18.6759 5.78284 18.625 5.70859C18.5303 5.56882 18.4444 5.42177 18.373 5.27036C18.3279 5.17282 18.2696 5.13642 18.1662 5.14079C17.9493 5.14807 17.7308 5.14807 17.5138 5.14807C13.0883 5.14515 8.66129 5.1437 4.23574 5.13787C4.10905 5.13787 4.04497 5.17282 3.994 5.29366C3.8076 5.73479 3.48577 6.05509 3.05326 6.256C2.9455 6.30551 2.90181 6.35501 2.90181 6.47876C2.90764 7.48333 2.90764 8.48644 2.90181 9.49101C2.90181 9.62059 2.9455 9.68028 3.06054 9.73415C3.49159 9.93797 3.81197 10.2568 3.994 10.7023C4.04206 10.8188 4.11196 10.8421 4.22991 10.8421C7.9419 10.8392 11.6553 10.8421 15.3673 10.8421C15.4168 10.8421 15.4678 10.8333 15.5508 10.8275C15.0848 9.98019 15.2479 9.24642 15.9178 8.5636V8.56069ZM26.8848 2.61626C23.8675 5.63434 20.8894 8.6131 17.9099 11.5919C17.9158 11.6006 17.9201 11.6123 17.9289 11.621C19.1376 12.8323 20.3463 14.0451 21.5593 15.252C21.8564 15.5475 22.1418 15.5388 22.4447 15.2374C25.1315 12.5528 27.8183 9.86809 30.5022 7.1805C30.8385 6.84273 30.8269 6.56902 30.4847 6.2298C29.659 5.41304 28.8347 4.59628 28.0134 3.77515C27.6333 3.39516 27.2634 3.00498 26.8863 2.61771L26.8848 2.61626ZM17.3158 12.6183C16.9648 12.2558 16.6896 11.8379 16.1173 11.9995C12.0835 11.9995 8.04966 11.9995 4.01585 11.9981C3.87168 11.9981 3.72605 11.9908 3.58188 11.9762C3.24112 11.9442 3.06346 11.7724 3.00958 11.4303C2.92948 10.9134 2.80133 10.7853 2.28727 10.7052C1.92467 10.6484 1.74264 10.4432 1.74264 10.0806C1.74118 8.69609 1.74118 7.31008 1.74264 5.92552C1.74264 5.52078 1.93049 5.31549 2.33387 5.26454C2.7591 5.21213 2.94696 5.02431 3.00958 4.59337C3.06928 4.17844 3.26442 4.00082 3.68528 3.99354C3.96342 3.98917 4.24156 3.99354 4.51971 3.99354C9.20738 3.99354 13.8936 3.99354 18.5813 3.99354C19.1332 3.99354 19.2963 4.13622 19.3837 4.68363C19.3997 4.77972 19.4361 4.87145 19.4681 4.97918C20.0171 4.41575 20.5443 3.87561 21.0584 3.34566H1.17324V12.6197H17.3143L17.3158 12.6183ZM16.4013 9.87246C16.4333 9.97582 16.4377 10.0661 16.4843 10.1214C16.6547 10.3238 16.8367 10.5189 17.0231 10.7067C17.042 10.7271 17.1352 10.7067 17.1658 10.6761C17.2969 10.5509 17.4148 10.4126 17.543 10.2845C20.3404 7.48915 23.1393 4.69383 25.9397 1.90141C26.0198 1.82134 26.0198 1.76601 25.9441 1.69176C25.8188 1.56947 25.7023 1.43698 25.5727 1.32051C25.3077 1.0832 25.0587 1.07883 24.7966 1.31469C24.6218 1.47192 24.4674 1.651 24.3 1.81843C21.8622 4.2556 19.4244 6.69277 16.9867 9.1314C16.8454 9.27263 16.6954 9.40657 16.5687 9.55944C16.4916 9.65262 16.4508 9.77491 16.4013 9.87246Z" fill="white"/>
<path d="M3.91785 23.6802C4.00522 23.6802 4.07075 23.6802 4.13628 23.6802C5.41779 23.686 6.70074 23.6554 7.98079 23.7078C8.96376 23.7472 9.871 24.0427 10.5336 24.8478C10.8496 25.2307 11.1743 25.6034 11.4976 25.9805C12.1049 26.6866 12.7049 27.4 13.4199 28.0027C14.1538 28.623 14.3665 29.7789 13.6456 30.6132C13.6107 30.6539 13.5801 30.6976 13.5218 30.7733C13.6136 30.7733 13.6762 30.7733 13.7388 30.7733C15.396 30.7631 17.0518 30.7515 18.709 30.7427C19.376 30.7398 20.0386 30.7879 20.6706 31.0266C21.3768 31.2931 21.8749 31.7502 22.0409 32.516C22.2695 33.5759 21.3579 34.7625 20.2759 34.7989C18.6202 34.8527 16.9644 34.8979 15.3086 34.9445C13.931 34.9838 12.5534 35.0216 11.1758 35.0551C10.4229 35.074 9.70645 34.9183 9.06861 34.5077C8.81668 34.3461 8.58805 34.1394 8.37543 33.9283C7.11141 32.6704 5.85466 31.4037 4.595 30.14C4.45375 29.9973 4.08677 29.9202 3.91056 30.0061C3.87707 30.0221 3.85377 30.0905 3.8494 30.1371C3.83338 30.3234 3.8363 30.5127 3.813 30.6976C3.74601 31.2334 3.3135 31.6905 2.77614 31.7269C2.23442 31.7633 1.68541 31.7721 1.1466 31.7269C0.443229 31.6687 -0.0023838 31.1358 0.00198496 30.421C0.0107225 29.0364 0.0281975 27.6519 0.0398475 26.2673C0.048585 25.2875 0.0747975 24.3077 0.0558663 23.3293C0.0398475 22.5082 0.754867 21.9739 1.41018 22.0219C1.85579 22.0554 2.30578 22.0234 2.75139 22.0554C3.43 22.1049 3.91348 22.645 3.9193 23.3249C3.9193 23.4327 3.9193 23.5419 3.9193 23.6787L3.91785 23.6802ZM3.89163 28.8239C4.06056 28.8239 4.25278 28.8326 4.44355 28.8224C4.74937 28.8049 4.98528 28.9156 5.2008 29.1325C6.53619 30.4734 7.88613 31.8012 9.21715 33.1479C9.74431 33.6807 10.3574 33.9384 11.1044 33.902C11.7874 33.8686 12.4704 33.8438 13.1534 33.8263C15.4921 33.7637 17.8323 33.707 20.1725 33.6473C20.5249 33.6385 20.7769 33.4362 20.8803 33.0824C20.9822 32.7344 20.8934 32.4636 20.5788 32.2685C20.4215 32.171 20.2453 32.0749 20.0677 32.0501C19.5973 31.9832 19.1211 31.9191 18.6464 31.9162C17.0314 31.9075 15.4164 31.9278 13.8014 31.9366C13.0573 31.941 12.383 31.7138 11.7874 31.2771C10.7375 30.5083 9.88265 29.5285 8.97686 28.6055C8.85454 28.4803 8.79338 28.3201 8.82687 28.1396C8.86765 27.9183 8.99725 27.7669 9.20695 27.6941C9.42102 27.6184 9.6147 27.6664 9.77343 27.8251C10.3385 28.3886 10.8991 28.9578 11.4685 29.5169C11.6316 29.677 11.8034 29.8343 11.9928 29.9609C12.2491 30.1313 12.5461 30.0847 12.7558 29.8809C13.0354 29.6071 13.0267 29.1922 12.7049 28.9025C11.5865 27.895 10.6108 26.7565 9.64965 25.6049C9.29141 25.1739 8.83415 24.9162 8.28951 24.9017C6.86967 24.8624 5.44837 24.8624 4.02852 24.8449C3.90911 24.8434 3.88872 24.9046 3.88872 25.0036C3.88872 26.2673 3.88872 27.531 3.88872 28.8268L3.89163 28.8239ZM1.15971 30.5913C1.60386 30.5913 2.02617 30.5913 2.44703 30.5913C2.68149 30.5913 2.68294 30.5913 2.6844 30.3526C2.70479 28.0246 2.72226 25.6966 2.74556 23.3686C2.74556 23.2594 2.71353 23.2128 2.60576 23.2114C2.21258 23.2041 1.81939 23.2012 1.42766 23.1823C1.26601 23.175 1.22232 23.2318 1.22087 23.389C1.20339 25.717 1.18009 28.045 1.15825 30.3729C1.15825 30.437 1.15825 30.5025 1.15825 30.5913H1.15971Z" fill="white"/>
<path d="M25.5118 27.8469C25.5118 25.5612 25.5118 23.2754 25.5118 20.9897C25.5118 20.4539 25.7259 20.0302 26.2181 19.8002C26.4176 19.707 26.6593 19.6662 26.8821 19.6633C27.868 19.6488 28.8539 19.6575 29.8383 19.6575C31.3863 19.6575 32.9343 19.6575 34.4823 19.659C34.6454 19.659 34.8114 19.6546 34.9702 19.6837C35.5599 19.7885 35.975 20.2865 35.9983 20.8965C35.9997 20.9503 35.9983 21.0057 35.9983 21.0595C35.9983 25.5772 35.9983 30.0948 35.9983 34.6125C35.9983 35.4744 35.4697 36.0014 34.6046 36.0014C32.0227 36.0014 29.4408 36.0014 26.8588 36.0014C26.0448 36.0014 25.5118 35.486 25.5089 34.6707C25.5031 32.3966 25.5074 30.1225 25.5074 27.8498C25.5074 27.8498 25.5103 27.8498 25.5118 27.8498V27.8469ZM34.826 20.8062C34.5318 20.8062 34.2479 20.812 33.9653 20.8033C33.8445 20.7989 33.7935 20.847 33.7571 20.9533C33.661 21.2328 33.5561 21.5094 33.4542 21.7875C33.3071 22.182 33.1309 22.3058 32.7057 22.3087C32.3125 22.3116 31.9193 22.3087 31.5261 22.3087C30.6072 22.3087 29.6883 22.3058 28.7694 22.3087C28.4287 22.3087 28.1884 22.1777 28.0719 21.8457C27.9976 21.6346 27.9175 21.4264 27.8389 21.2182C27.7399 20.9513 27.5515 20.8188 27.2739 20.8208C27.2069 20.8208 27.1413 20.8208 27.0744 20.8208C26.6171 20.8324 26.6666 20.7451 26.6666 21.2241C26.6622 25.6937 26.6622 30.1618 26.6564 34.6314C26.6564 34.8018 26.7074 34.8411 26.8719 34.8411C29.4597 34.8367 32.0475 34.8382 34.6367 34.8382H34.826V20.8062ZM28.9325 20.828C28.966 21.1047 29.0053 21.1454 29.2223 21.144C30.2315 21.1411 31.2407 21.1382 32.2499 21.1352C32.5076 21.1352 32.5266 21.1163 32.5411 20.828H28.9325Z" fill="white"/>
<path d="M30.806 12.3242C32.6278 12.4334 34.2588 13.0755 35.5389 14.4935C35.7558 14.7337 35.7952 14.9492 35.6728 15.188C35.5694 15.3903 35.3423 15.5374 35.1224 15.485C34.968 15.4486 34.8195 15.3481 34.6928 15.2448C34.4365 15.0351 34.2093 14.7861 33.9472 14.5838C32.7385 13.6549 31.3652 13.3725 29.8755 13.5836C28.6406 13.7583 27.6562 14.3931 26.8057 15.268C26.548 15.5345 26.2611 15.5869 26.0135 15.4122C25.7237 15.2084 25.6626 14.8269 25.9218 14.559C26.2436 14.2256 26.5858 13.9053 26.9543 13.6229C28.0712 12.7668 29.36 12.3941 30.8031 12.3242H30.806Z" fill="white"/>
<path d="M20.2661 25.6107C21.3423 25.6107 22.4185 25.6107 23.4947 25.6121C23.6636 25.6121 23.8354 25.6151 23.9985 25.6485C24.2563 25.6995 24.4267 25.9266 24.4296 26.1829C24.4339 26.4464 24.2621 26.6764 24 26.739C23.8951 26.7638 23.7844 26.774 23.6767 26.774C21.3976 26.7769 19.1172 26.7754 16.8381 26.7769C16.6197 26.7769 16.4144 26.7521 16.2629 26.5701C16.1158 26.394 16.0663 26.1974 16.1566 25.979C16.2454 25.7665 16.4042 25.6384 16.6372 25.618C16.7566 25.6063 16.8789 25.6063 16.9998 25.6063C18.0876 25.6063 19.1769 25.6063 20.2647 25.6063V25.6092L20.2661 25.6107Z" fill="white"/>
<path d="M34.5152 16.2158C34.486 16.5172 34.3841 16.6919 34.1773 16.7967C33.9676 16.9044 33.7681 16.8899 33.5861 16.7385C33.3633 16.5521 33.1521 16.3541 32.9278 16.1707C31.7221 15.1923 29.7256 15.1501 28.4426 16.2813C28.2839 16.4211 28.1295 16.5652 27.9693 16.7035C27.7174 16.9219 27.4188 16.9161 27.1873 16.6933C26.9645 16.4793 26.9427 16.1809 27.1582 15.929C27.8368 15.1355 28.6945 14.626 29.711 14.409C31.4949 14.0276 33.0138 14.543 34.2807 15.8314C34.3972 15.9494 34.4584 16.1197 34.5152 16.2158Z" fill="white"/>
<path d="M14.6734 23.2274C14.2249 23.2289 13.9628 22.7936 14.1827 22.3845C14.4492 21.8909 14.7361 21.4076 15.0171 20.9213C15.8778 19.4304 16.7384 17.9411 17.6005 16.4502C17.6646 16.341 17.7257 16.2289 17.8015 16.127C17.982 15.8853 18.2733 15.8227 18.5252 15.9654C18.7757 16.1052 18.8776 16.392 18.7641 16.6686C18.7014 16.8186 18.6199 16.9612 18.5398 17.1025C17.6471 18.6588 16.7559 20.2137 15.8603 21.7672C15.6375 22.1544 15.4045 22.5359 15.1729 22.9173C15.0448 23.1284 14.8773 23.2274 14.6749 23.2289L14.6734 23.2274Z" fill="white"/>
<path d="M11.5727 22.8255C11.331 22.827 11.1242 22.6829 11.0412 22.4106C10.9087 21.9782 10.7966 21.54 10.6801 21.1032C10.1995 19.3154 9.72184 17.5261 9.24273 15.7382C9.21797 15.645 9.19467 15.5519 9.1772 15.4558C9.12041 15.1369 9.28351 14.872 9.58495 14.7875C9.86164 14.7104 10.1485 14.853 10.2446 15.1515C10.3728 15.5475 10.4733 15.9508 10.581 16.3526C11.0878 18.2453 11.596 20.1379 12.0999 22.0321C12.2179 22.4776 11.9834 22.8197 11.5727 22.8226V22.8255Z" fill="white"/>
<path d="M33.2455 17.5757C33.2368 17.8887 33.132 18.0576 32.9339 18.158C32.7359 18.2585 32.5364 18.2497 32.3543 18.1129C32.2961 18.0692 32.2422 18.0197 32.1912 17.9702C31.3393 17.1418 30.1292 17.1491 29.2904 17.9935C29.1564 18.1289 29.0151 18.2221 28.8171 18.2192C28.3904 18.2133 28.1268 17.7606 28.338 17.3893C28.3671 17.3369 28.405 17.2888 28.4443 17.2423C29.5059 16.0237 31.5155 15.8752 32.7359 16.9249C32.8494 17.0239 32.9674 17.1243 33.0577 17.2423C33.1494 17.3616 33.2077 17.5058 33.2455 17.5742V17.5757Z" fill="white"/>
<path d="M10.212 8.26073C10.1319 8.16465 10.0489 8.06856 9.9717 7.97101C9.47658 7.34206 9.68773 6.43649 10.4261 6.04486C10.5396 5.98517 10.6125 5.92111 10.6489 5.78862C10.7129 5.55713 10.9168 5.41154 11.1469 5.40717C11.3901 5.40426 11.5925 5.49307 11.6843 5.73038C11.7498 5.89927 11.8692 5.98808 12.0105 6.08853C12.2027 6.22539 12.3818 6.39864 12.5231 6.58791C12.9017 7.09019 12.5857 7.61577 11.9668 7.59248C12.0571 7.65508 12.1109 7.69439 12.1677 7.73079C12.8696 8.19522 12.9905 9.14447 12.4036 9.67732C12.2595 9.80835 12.0658 9.88261 11.8998 9.99034C11.8357 10.0326 11.7658 10.0879 11.7367 10.1549C11.6202 10.43 11.4294 10.5756 11.1629 10.5698C10.9154 10.564 10.7275 10.4009 10.6314 10.1272C10.611 10.0719 10.5498 10.0151 10.493 9.98889C10.0999 9.81127 9.81297 9.53319 9.66006 9.12699C9.49551 8.68731 9.69793 8.34518 10.1654 8.26801C10.1887 8.26365 10.212 8.26073 10.2105 8.26073H10.212ZM10.5906 8.4136C10.7552 8.92317 10.9649 9.05711 11.4163 8.95229C11.4935 8.93482 11.559 8.86202 11.6304 8.81398C11.5707 8.75428 11.5212 8.66256 11.4483 8.63927C11.1746 8.55337 10.8935 8.49077 10.5906 8.4136ZM11.8168 7.55026C11.7323 7.42796 11.6624 7.33187 11.5983 7.23287C11.4498 7.00284 11.2416 6.93004 10.9911 7.04215C10.9299 7.06981 10.8906 7.14552 10.8411 7.19938C10.8906 7.24597 10.9343 7.31586 10.9925 7.33333C11.2561 7.41195 11.5241 7.47601 11.8153 7.55026H11.8168Z" fill="white"/>
<path d="M6.06775 8.56073C5.77795 8.56073 5.48816 8.56218 5.19836 8.56073C4.85614 8.55782 4.60276 8.33798 4.578 8.02496C4.5547 7.73087 4.75566 7.49355 5.08914 7.42658C5.1707 7.41057 5.25661 7.40038 5.33962 7.40038C5.85222 7.39747 6.36628 7.39747 6.87888 7.40038C6.96771 7.40038 7.05945 7.41348 7.14537 7.43677C7.42497 7.51394 7.60992 7.78037 7.57934 8.04825C7.5473 8.32342 7.30119 8.55054 7.00848 8.55782C6.69539 8.5651 6.38084 8.55927 6.06629 8.55927L6.06775 8.56073Z" fill="white"/>
<path d="M21.9883 13.4583C21.8238 13.3782 21.6301 13.3302 21.499 13.2137C21.1626 12.9123 20.8393 12.592 20.5364 12.2557C20.2088 11.8917 20.2219 11.439 20.5641 11.0808C21.0068 10.6178 21.4611 10.165 21.9228 9.72245C22.2708 9.3876 22.7456 9.38614 23.098 9.71809C23.414 10.0165 23.7169 10.3296 24.0067 10.6542C24.3271 11.0138 24.3227 11.4302 23.9907 11.7782C23.5407 12.2499 23.0732 12.7056 22.6087 13.1642C22.4441 13.3273 22.2432 13.4175 21.9869 13.4583H21.9883ZM21.5689 11.7389C21.6912 11.851 21.8063 11.966 21.9344 12.065C21.9708 12.0941 22.0699 12.0999 22.099 12.0723C22.3684 11.8204 22.6305 11.5613 22.8868 11.2963C22.9145 11.2672 22.9218 11.1769 22.897 11.1478C22.782 11.0109 22.6538 10.8843 22.5504 10.7765C22.2199 11.1012 21.9068 11.4069 21.5689 11.7389Z" fill="white"/>
<path d="M28.3483 4.66762C28.357 4.91221 28.2012 5.06799 28.0469 5.22232C27.4352 5.83234 26.8221 6.44091 26.2105 7.05238C25.9033 7.35958 25.5974 7.66968 25.2887 7.97688C25.1227 8.14285 24.9247 8.22293 24.6946 8.15013C24.4718 8.07879 24.3116 7.91864 24.3014 7.67988C24.2941 7.54011 24.3553 7.39161 24.4062 7.25475C24.4295 7.19215 24.4965 7.14265 24.5475 7.09169C25.4576 6.18176 26.3678 5.27182 27.2765 4.36188C27.4629 4.17553 27.6653 4.05614 27.9405 4.13331C28.1837 4.20173 28.3468 4.41575 28.3483 4.66908V4.66762Z" fill="white"/>
<path d="M28.6351 6.73641C28.5623 6.87036 28.5128 7.02905 28.4109 7.13387C27.7526 7.80795 27.093 8.47912 26.4143 9.13282C26.0561 9.47787 25.5319 9.31772 25.4241 8.85475C25.3702 8.62326 25.4794 8.44418 25.6338 8.28694C25.9134 8.00304 26.1959 7.72206 26.4784 7.44107C26.8498 7.06981 27.2153 6.69274 27.5954 6.32876C27.9347 6.0041 28.4502 6.13804 28.5769 6.57335C28.59 6.61849 28.5944 6.66799 28.6031 6.71457C28.6133 6.72185 28.6249 6.72913 28.6351 6.73641Z" fill="white"/>
<path d="M2.40517 24.085C2.40372 24.3208 2.21149 24.4999 1.96684 24.4941C1.73675 24.4897 1.562 24.3063 1.56055 24.0704C1.56055 23.8404 1.7586 23.654 1.99742 23.6584C2.21732 23.6628 2.40517 23.8608 2.40372 24.085H2.40517Z" fill="white"/>
<path d="M30.7573 26.0868C30.5869 26.1406 30.4093 26.177 30.2491 26.2527C30.0699 26.3357 29.9899 26.5046 29.9928 26.6997C29.9942 26.886 30.1093 27.0127 30.2738 27.0622C30.6073 27.1627 30.9481 27.2413 31.2874 27.3257C32.0592 27.5194 32.6344 27.9197 32.7786 28.7612C32.882 29.3684 32.6664 29.859 32.1786 30.2171C31.9922 30.354 31.7694 30.4501 31.551 30.5287C31.4068 30.5811 31.3442 30.6423 31.3252 30.7966C31.2743 31.1999 30.9277 31.4066 30.5607 31.2727C30.3495 31.1955 30.1937 30.9902 30.1966 30.7602C30.1966 30.6292 30.1515 30.5768 30.0263 30.5345C29.3709 30.3147 28.9137 29.8896 28.7331 29.2068C28.6501 28.8908 28.8059 28.6171 29.1045 28.5167C29.4001 28.4177 29.6666 28.54 29.8005 28.837C30.102 29.5052 30.8257 29.7236 31.4621 29.3363C31.7039 29.1893 31.7301 28.869 31.5131 28.6739C31.3005 28.4832 31.0325 28.4293 30.766 28.3769C30.3437 28.2954 29.9272 28.2036 29.5617 27.9576C28.6603 27.3505 28.6122 26.0678 29.4773 25.4083C29.6418 25.2816 29.8399 25.1943 30.0321 25.1084C30.1326 25.0633 30.185 25.021 30.1923 24.9031C30.2156 24.5421 30.4471 24.3135 30.7733 24.3135C31.0762 24.3135 31.2976 24.5391 31.3223 24.8929C31.3296 25.0094 31.3777 25.0604 31.484 25.0968C32.0068 25.2816 32.3825 25.6311 32.6096 26.1363C32.7567 26.4609 32.649 26.7754 32.3533 26.9181C32.0679 27.0549 31.7577 26.9443 31.599 26.6254C31.4257 26.2789 31.1534 26.1144 30.7617 26.0853L30.7573 26.0868Z" fill="white"/>
<path d="M30.7246 34.4771C30.5077 34.4771 30.2892 34.4873 30.0722 34.4742C29.7548 34.4553 29.5203 34.2165 29.5101 33.9181C29.4999 33.64 29.7067 33.3634 30.0096 33.3474C30.5033 33.3197 30.9999 33.3211 31.4921 33.3474C31.7964 33.3648 32.0003 33.6356 31.993 33.9181C31.9843 34.2092 31.7629 34.4422 31.4499 34.4757C31.3304 34.4888 31.2081 34.4859 31.0872 34.4873C30.9664 34.4888 30.8455 34.4873 30.7246 34.4873C30.7246 34.483 30.7246 34.4786 30.7246 34.4757V34.4771Z" fill="white"/>
</g>
<defs>
<clipPath id="clip0_316_684">
<rect width="36" height="36" fill="white"/>
</clipPath>
</defs>
</svg>
