<svg width="32" height="36" viewBox="0 0 32 36" fill="none" xmlns="http://www.w3.org/2000/svg">
<g clip-path="url(#clip0_316_714)">
<path d="M11.1456 22.0487C10.5621 21.4346 10.0876 20.7598 9.73025 20.0018C9.68698 19.9086 9.62835 19.8846 9.52786 19.8789C9.1817 19.8578 8.82717 19.8634 8.49497 19.7801C7.65051 19.5641 7.06567 18.84 6.98751 17.9647C6.9568 17.6274 6.95401 17.2871 6.93866 16.9356C6.40825 16.7168 5.96997 16.3682 5.75921 15.8035C5.65732 15.5282 5.57217 15.2261 5.57078 14.9367C5.5638 13.2315 5.56519 11.5248 5.60288 9.81949C5.62382 8.86662 5.85552 7.94199 6.17237 7.04559C7.06707 4.51732 8.682 2.6017 10.9962 1.29451C12.145 0.645152 13.3803 0.238596 14.6895 0.0847253C17.7561 -0.276658 20.4737 0.561864 22.813 2.58759C24.6052 4.14041 25.7191 6.11813 26.209 8.45301C26.3681 9.21248 26.4254 9.98324 26.4295 10.7568C26.4365 12.0937 26.4351 13.4305 26.4295 14.7673C26.4281 15.3447 26.2955 15.8811 25.9061 16.3286C25.4734 16.8269 24.9207 17.0528 24.2772 17.0669C23.9297 17.074 23.5821 17.0754 23.2346 17.0726C23.1243 17.0726 23.0741 17.0966 23.0503 17.2194C22.9289 17.8207 22.8326 18.432 22.6567 19.0164C22.3245 20.1189 21.7453 21.0887 20.9566 21.9244C20.8743 22.0119 20.8645 22.0797 20.9175 22.1856C21.2693 22.8914 21.6099 23.6029 21.9714 24.3031C22.0244 24.4061 22.1584 24.4922 22.2743 24.5317C23.0852 24.8098 23.9004 25.0752 24.7141 25.3435C26.0415 25.7811 27.2838 26.3754 28.3446 27.3169C30.1619 28.9305 31.3078 30.9378 31.7838 33.332C31.8899 33.8698 31.9276 34.4218 31.9946 34.9667C32.003 35.0359 32.0002 35.1079 31.9988 35.177C31.9946 35.6739 31.7056 35.9774 31.2157 36.0014C31.1697 36.0043 31.1236 36.0014 31.0761 36.0014C21.018 36.0014 10.9613 36.0014 0.903238 36.0014C0.794366 36.0014 0.682703 35.9916 0.576622 35.969C0.216507 35.8857 -0.00682004 35.6104 0.00015894 35.2377C0.0350538 33.3842 0.512416 31.6521 1.42666 30.0499C2.51538 28.1428 4.01447 26.6662 6.04395 25.822C7.10615 25.3802 8.21581 25.0541 9.30453 24.6757C9.48459 24.6136 9.67023 24.5628 9.8461 24.4908C9.9131 24.4626 9.9787 24.3962 10.0122 24.3299C10.3919 23.5732 10.7659 22.8138 11.1442 22.0487H11.1456ZM11.2614 19.8902C11.2559 19.9128 11.2489 19.9269 11.2531 19.934C11.2768 19.9806 11.2991 20.0286 11.327 20.0723C12.413 21.7226 13.8995 22.667 15.8927 22.715C17.0512 22.7418 18.1176 22.4467 19.0667 21.7635C20.4416 20.7739 21.2609 19.4216 21.5638 17.7516C21.8695 16.0731 22.083 14.3834 22.1584 12.6781C22.1696 12.4353 22.1905 12.1925 22.2073 11.9497C22.1165 11.9313 22.0481 11.9186 21.9797 11.9045C21.1744 11.7436 20.355 11.6306 19.565 11.4132C17.6388 10.8811 15.9443 9.90278 14.476 8.53206C14.3866 8.44878 14.3001 8.41348 14.1814 8.4276C12.7926 8.58853 11.6425 9.19554 10.7673 10.3079C10.4965 10.651 10.2551 11.0194 9.9773 11.3554C9.80562 11.5615 9.76095 11.7704 9.78608 12.0316C9.87262 12.9407 9.92845 13.854 10.0206 14.7631C10.142 15.963 10.2802 17.1615 10.5621 18.3374C10.5928 18.4687 10.6473 18.4913 10.7589 18.4913C11.327 18.4885 11.8951 18.4856 12.4632 18.4955C12.6084 18.4983 12.674 18.4447 12.7354 18.3162C13.0341 17.6852 13.5184 17.242 14.2038 17.1516C14.8193 17.0697 15.4516 17.1065 16.0755 17.098C16.2012 17.0966 16.3296 17.1206 16.4538 17.1502C17.4867 17.3944 18.1176 18.3162 18.0701 19.2663C18.0143 20.3617 17.2187 21.1904 16.1663 21.2666C15.6303 21.3061 15.0887 21.2864 14.5499 21.2878C14.4355 21.2878 14.3168 21.2737 14.2052 21.2454C13.5198 21.0803 13.0187 20.6808 12.7242 20.03C12.6726 19.9171 12.6112 19.8761 12.4883 19.8789C12.1171 19.8888 11.7458 19.8846 11.3759 19.886C11.3382 19.886 11.2991 19.8902 11.2642 19.8931L11.2614 19.8902ZM14.7663 34.5827C14.4341 34.0548 14.1438 33.5395 13.8046 33.061C12.7075 31.5096 11.7207 29.8932 10.939 28.1555C10.6277 27.4638 10.3556 26.7551 10.0708 26.0507C10.022 25.9293 9.97172 25.8968 9.83912 25.9434C9.12308 26.1947 8.40703 26.4417 7.68541 26.6746C6.80606 26.9598 5.95183 27.3 5.19252 27.8435C3.6041 28.9799 2.51678 30.496 1.87611 32.3467C1.62626 33.068 1.4797 33.8106 1.4127 34.5827H14.7677H14.7663ZM17.2382 34.5827H30.5932C30.5053 33.6087 30.2945 32.677 29.9162 31.7877C29.009 29.6532 27.5741 28.0214 25.4371 27.0911C24.876 26.8469 24.2828 26.6746 23.7036 26.4742C23.141 26.2794 22.5758 26.0902 22.0035 25.8968C21.9825 25.9448 21.9616 25.9858 21.9449 26.0281C21.7257 26.5688 21.5163 27.1151 21.286 27.6515C20.8073 28.7625 20.2839 29.8537 19.639 30.8771C19.1114 31.7171 18.5503 32.5358 18.0087 33.3673C17.7519 33.7611 17.5048 34.1635 17.2396 34.5827H17.2382ZM9.77073 9.27177C9.79585 9.29153 9.81958 9.31271 9.8447 9.33247C9.87681 9.27742 9.89914 9.2153 9.94101 9.17013C10.1043 8.9965 10.2662 8.81863 10.4421 8.65911C11.5434 7.66107 12.8471 7.14864 14.3112 7.02159C14.6714 6.99054 14.9673 7.095 15.2255 7.3491C16.853 8.94285 18.789 9.9296 21.0125 10.3404C21.42 10.4152 21.8318 10.4745 22.2938 10.5493C22.2547 9.97477 22.2784 9.4214 22.171 8.89486C21.7006 6.59386 20.3383 5.0721 18.1092 4.40298C16.9716 4.06136 15.7782 4.11359 14.6211 4.26322C12.5833 4.52579 11.1358 5.67911 10.2425 7.54249C9.98149 8.08739 9.82935 8.66899 9.76933 9.27318L9.77073 9.27177ZM25.0226 9.82232C24.6667 5.10174 20.6635 1.05453 15.3762 1.40886C10.2941 1.75048 7.17594 5.9925 6.99728 9.81526H8.32329C8.39168 9.33671 8.43355 8.86804 8.52847 8.41066C9.10214 5.64241 11.3605 3.43458 14.1158 2.92497C14.9435 2.7711 15.7782 2.78381 16.6115 2.79651C17.6304 2.81204 18.6173 3.00826 19.5371 3.45999C21.702 4.52297 23.0378 6.24801 23.5137 8.63935C23.5905 9.02614 23.6184 9.42423 23.6701 9.82232H25.0226ZM16.0043 33.9842C16.2277 33.6242 16.4315 33.2854 16.6464 32.9551C17.2536 32.0206 17.8635 31.0875 18.4791 30.1586C18.5531 30.0471 18.5517 29.9751 18.454 29.8904C18.3325 29.7831 18.2153 29.6688 18.1008 29.553C17.4169 28.8613 16.7343 28.1668 16.0504 27.4736C15.9904 27.4129 15.9443 27.3325 15.8438 27.4412C15.072 28.2755 14.2945 29.1041 13.524 29.9398C13.4905 29.9751 13.4807 30.0753 13.5059 30.1163C13.8116 30.6061 14.1228 31.0931 14.4369 31.5773C14.8961 32.2874 15.3595 32.996 15.8215 33.7047C15.8773 33.7908 15.9346 33.8769 16.0057 33.9856L16.0043 33.9842ZM19.8721 23.1427C18.8629 24.2212 17.8775 25.2729 16.9046 26.3118C17.6974 27.1151 18.4791 27.9084 19.2677 28.7074C19.2956 28.6594 19.3305 28.6058 19.3598 28.5493C19.9182 27.4694 20.383 26.3485 20.7822 25.1995C20.8073 25.1275 20.7947 25.023 20.7612 24.951C20.6105 24.6221 20.4444 24.3002 20.2853 23.9756C20.1513 23.7045 20.0187 23.4335 19.8749 23.1413L19.8721 23.1427ZM12.071 23.3855L11.9984 23.4391C11.7388 23.9544 11.4764 24.4668 11.2237 24.9863C11.1944 25.0456 11.2 25.1373 11.2237 25.2023C11.6229 26.3514 12.0933 27.4708 12.6516 28.5507C12.6824 28.61 12.7256 28.6608 12.7717 28.7286C13.4849 27.9649 14.18 27.2181 14.8779 26.4756C14.9673 26.381 14.9198 26.3274 14.8514 26.2582C14.0181 25.4183 13.1848 24.5783 12.3557 23.7356C12.2511 23.6297 12.1659 23.5027 12.0724 23.3855H12.071ZM8.36376 11.2467H6.9582V11.4118C6.9582 12.5779 6.9582 13.7453 6.9582 14.9113C6.9582 15.3715 7.22898 15.6567 7.6882 15.6708C7.97713 15.6793 8.26745 15.6652 8.55778 15.6736C8.68759 15.6764 8.72109 15.6468 8.70853 15.5056C8.60384 14.3565 8.50893 13.2075 8.41262 12.057C8.39028 11.7902 8.38051 11.5219 8.36376 11.2467ZM25.0449 11.2354C24.6262 11.2354 24.227 11.2439 23.8292 11.2311C23.6617 11.2255 23.6198 11.2806 23.6114 11.4471C23.5668 12.2941 23.5123 13.1411 23.4481 13.9881C23.409 14.5019 23.3462 15.013 23.2918 15.5254C23.282 15.6101 23.2736 15.6779 23.3923 15.6764C23.7161 15.6708 24.0413 15.6807 24.3652 15.6623C24.8034 15.6383 25.0449 15.3631 25.0449 14.9156C25.0449 14.4525 25.0449 13.9895 25.0449 13.5279C25.0449 12.7727 25.0449 12.0174 25.0449 11.2368V11.2354ZM15.319 18.4856C15.0761 18.4856 14.8333 18.4772 14.5904 18.487C14.2024 18.504 13.9274 18.7793 13.9134 19.1477C13.8981 19.5317 14.1493 19.8592 14.5346 19.8789C15.0482 19.9043 15.5647 19.9015 16.0769 19.8719C16.4733 19.8493 16.7134 19.5331 16.6953 19.1435C16.6785 18.7764 16.398 18.5012 16.0127 18.4856C15.781 18.4772 15.5507 18.4842 15.319 18.4842V18.4856ZM17.1028 24.0885C17.0973 24.0701 17.0917 24.0532 17.0861 24.0348C16.2598 24.1506 15.4363 24.1464 14.5723 23.9685C14.6323 24.0433 14.656 24.08 14.6867 24.1111C15.0371 24.4682 15.386 24.8254 15.7377 25.1811C15.9136 25.359 15.9136 25.3562 16.0783 25.1811C16.1942 25.0583 16.3128 24.9383 16.4273 24.8155C16.6534 24.5741 16.8767 24.3313 17.1014 24.0885H17.1028ZM9.17053 18.4772C9.09097 18.0297 9.017 17.5935 8.93325 17.1587C8.92627 17.1234 8.86625 17.0768 8.82717 17.074C8.67363 17.0641 8.5187 17.0697 8.35399 17.0697C8.35399 17.3535 8.33166 17.6231 8.35958 17.8885C8.40005 18.2739 8.75319 18.5252 9.17053 18.4772Z" fill="white"/>
<path d="M26.1186 29.1689C26.2568 29.2339 26.4132 29.2748 26.5318 29.368C27.3497 30.0103 27.9946 30.8008 28.4594 31.7367C28.6073 32.0332 28.5641 32.2986 28.3645 32.5174C28.1746 32.7249 27.8829 32.8082 27.6359 32.6924C27.5116 32.6331 27.3902 32.5301 27.3107 32.4172C27.1418 32.18 27.0259 31.9019 26.8431 31.6789C26.5346 31.3005 26.1926 30.9505 25.8632 30.5905C25.7725 30.4917 25.6636 30.4098 25.5799 30.3053C25.4082 30.0922 25.3719 29.8536 25.4933 29.5995C25.612 29.3525 25.8395 29.2056 26.12 29.1704L26.1186 29.1689Z" fill="white"/>
<path d="M23.6418 29.2452C23.2789 29.2409 22.9537 28.9092 22.9551 28.5436C22.9565 28.1667 23.2873 27.8349 23.6572 27.8392C24.0075 27.8434 24.3341 28.1779 24.3369 28.5323C24.3397 28.9064 24.0061 29.2494 23.6404 29.2452H23.6418Z" fill="white"/>
</g>
<defs>
<clipPath id="clip0_316_714">
<rect width="32" height="36" fill="white"/>
</clipPath>
</defs>
</svg>
