<svg width="32" height="32" viewBox="0 0 32 32" fill="none" xmlns="http://www.w3.org/2000/svg">
<g clip-path="url(#clip0_316_659)">
<path d="M6.14845 31.056C5.86518 31.3757 5.50922 31.471 5.10313 31.4685C3.82218 31.4597 2.54122 31.4647 1.26027 31.466C0.850417 31.466 0.488191 31.3607 0.228742 31.0184C0.0683091 30.8066 0.00188007 30.5609 0.00188007 30.3014C-0.000626689 27.8544 -0.000626689 25.4062 0.00188007 22.9592C0.00188007 22.3512 0.436802 21.8861 1.04594 21.8811C2.44597 21.8673 3.84724 21.8724 5.24727 21.8699C5.60448 21.8699 5.9078 21.9952 6.14594 22.2647C6.16975 22.2911 6.19984 22.3124 6.2249 22.3324C7.19627 21.5514 8.32181 21.1503 9.52755 20.9422C10.1279 20.8394 10.7308 20.7629 11.3437 20.8106C12.2762 20.8833 13.1185 21.1942 13.8542 21.7733C14.343 22.1582 14.8657 22.4728 15.4886 22.5769C15.713 22.6145 15.9436 22.6283 16.1717 22.6308C16.8698 22.6358 17.5667 22.6245 18.2649 22.6308C18.8489 22.6345 19.4029 22.7712 19.8917 23.0984C20.6237 23.586 21.0411 24.273 21.1088 25.1555C21.1201 25.3084 21.09 25.4664 21.0636 25.6193C21.0235 25.855 21.0323 25.8825 21.2579 25.8249C21.6089 25.7346 21.9573 25.6293 22.2995 25.5102C24.7172 24.6653 27.135 23.8192 29.5503 22.9667C30.2446 22.721 30.8763 22.7987 31.4203 23.3077C32.235 24.0699 32.1548 25.3861 31.2436 26.0693C30.8325 26.3777 30.3863 26.6397 29.9526 26.918C27.6978 28.3646 25.4404 29.8087 23.1869 31.2566C22.6479 31.6039 22.0852 31.8872 21.4359 31.9536C21.1827 31.9787 20.927 32.0012 20.6726 32.0012C16.8874 32.0037 13.1022 32.0037 9.31573 32.0025C8.21276 32.0025 7.1875 31.7267 6.25749 31.1187C6.22741 31.0987 6.19482 31.0836 6.14719 31.0586L6.14845 31.056ZM14.9559 30.9232C14.9559 30.9232 14.9559 30.9294 14.9559 30.9332C16.9601 30.9332 18.9655 30.9332 20.9696 30.9332C21.4472 30.9332 21.9009 30.8329 22.307 30.5734C23.1606 30.0269 24.0103 29.4715 24.8651 28.9262C26.7064 27.7504 28.5501 26.5783 30.3913 25.4024C30.5129 25.3247 30.6332 25.237 30.7335 25.1329C31.1157 24.7343 30.9365 24.021 30.4113 23.9031C30.2384 23.8643 30.0266 23.9107 29.8523 23.9721C27.3356 24.8483 24.8213 25.7334 22.307 26.6171C21.9185 26.7538 21.5324 26.8867 21.1113 26.8854C19.893 26.8829 18.6747 26.8917 17.4564 26.8854C16.737 26.8816 16.0627 27.0283 15.4548 27.4269C15.2981 27.5297 15.1452 27.6388 14.9848 27.7328C14.8093 27.8356 14.6276 27.8394 14.4558 27.7203C14.1325 27.4959 14.1312 27.0973 14.4684 26.8428C14.966 26.4692 15.5037 26.1696 16.1103 26.0016C16.643 25.8537 17.1882 25.8286 17.7347 25.8249C18.3902 25.8211 19.047 25.8286 19.7025 25.8374C19.8441 25.8399 19.9419 25.7973 19.9657 25.6556C19.9995 25.4526 20.0609 25.2432 20.0384 25.0452C19.9569 24.3469 19.2801 23.7389 18.5707 23.7226C17.8111 23.7051 17.0503 23.7226 16.2908 23.7114C16.0163 23.7076 15.7393 23.68 15.4673 23.6399C14.6388 23.5158 13.9156 23.1548 13.2676 22.6333C12.8177 22.271 12.3138 22.0002 11.741 21.9313C11.2748 21.8761 10.7972 21.8912 10.326 21.91C9.54009 21.9413 8.78555 22.1344 8.05985 22.4365C7.46073 22.6859 6.92304 23.0194 6.50315 23.5258C6.41792 23.6286 6.38158 23.7327 6.38158 23.8655C6.38534 25.7923 6.38659 27.7178 6.38158 29.6445C6.38158 29.7924 6.42544 29.9028 6.52822 30.0055C6.88794 30.3653 7.33038 30.5722 7.80792 30.7201C8.43461 30.9144 9.07885 30.9207 9.72433 30.9219C11.469 30.9232 13.2125 30.9219 14.9572 30.9219L14.9559 30.9232ZM5.32623 22.9492C5.29866 22.9417 5.28362 22.9341 5.26858 22.9341C3.91493 22.9341 2.56253 22.9366 1.20888 22.9341C1.07979 22.9341 1.06976 22.9868 1.06976 23.0933C1.07227 25.425 1.06976 27.7566 1.06976 30.0883C1.06976 30.1798 1.06976 30.2713 1.06976 30.3678H5.32498V22.9504L5.32623 22.9492Z" fill="white"/>
<path d="M16.5394 18.7322C16.5394 18.311 16.5281 17.8885 16.5444 17.4673C16.5532 17.2617 16.4818 17.1364 16.3263 17.0085C14.8123 15.7574 13.7732 14.1867 13.2079 12.3076C12.9021 11.2935 12.7617 10.253 12.8131 9.19497C13.0137 5.04438 15.7937 1.53563 19.7882 0.384846C20.9087 0.0626769 22.053 -0.0764699 23.2162 0.0426197C25.0072 0.225642 26.6479 0.823597 28.0956 1.90543C30.0909 3.39719 31.3142 5.38034 31.8068 7.81854C31.9698 8.62835 32.05 9.44568 31.9673 10.2718C31.6539 13.4208 30.2188 15.9079 27.5691 17.6604C26.3083 18.494 24.907 18.9616 23.4029 19.1346C22.2009 19.2725 21.0253 19.1546 19.8621 18.85C19.7957 18.8324 19.6954 18.8513 19.6415 18.8939C18.9559 19.4279 18.2766 19.9707 17.5948 20.5097C17.5045 20.5812 17.4155 20.6551 17.3165 20.7103C16.9931 20.8908 16.6121 20.7103 16.562 20.3405C16.5332 20.1249 16.5407 19.9043 16.5382 19.6861C16.5344 19.369 16.5382 19.0506 16.5382 18.7334H16.5407L16.5394 18.7322ZM17.6098 19.1458C17.6687 19.102 17.6975 19.0819 17.7251 19.0593C18.2189 18.6682 18.7128 18.2784 19.2041 17.8835C19.4021 17.7243 19.6152 17.6754 19.8609 17.7519C20.5139 17.9562 21.1807 18.069 21.8663 18.1066C23.0996 18.1731 24.2928 18.0164 25.4484 17.5739C29.0644 16.1912 31.4484 12.4793 30.8254 8.28362C30.5697 6.56246 29.8378 5.0519 28.6408 3.79332C26.5915 1.63842 24.0584 0.783482 21.1243 1.17334C19.3119 1.41403 17.7477 2.22133 16.4354 3.49496C13.9199 5.93693 13.1779 9.64751 14.544 12.9406C15.0918 14.2594 15.9253 15.3751 17.0571 16.2451C17.4519 16.5484 17.6386 16.8806 17.6048 17.3808C17.5697 17.9048 17.5973 18.4326 17.5985 18.9578C17.5985 19.0079 17.6035 19.0581 17.6073 19.1433L17.6098 19.1458Z" fill="white"/>
<path d="M2.15169 28.2543C2.15545 27.9685 2.38607 27.7491 2.67811 27.7516C2.96639 27.7541 3.19701 27.9948 3.19199 28.2881C3.18823 28.5677 2.9526 28.7833 2.6543 28.7808C2.37228 28.7783 2.14668 28.5426 2.15044 28.2543H2.15169Z" fill="white"/>
<path d="M20.7816 12.7927C20.7866 12.7263 20.7941 12.6812 20.7941 12.636C20.7941 12.0318 20.7891 11.4288 20.7941 10.8246C20.7941 10.7043 20.7653 10.6579 20.6374 10.6642C20.4983 10.6717 20.3554 10.6667 20.2176 10.6441C19.9268 10.5977 19.7563 10.4247 19.7488 10.1289C19.7325 9.54598 19.7375 8.96307 19.735 8.38141C19.735 8.27736 19.7388 8.17331 19.7438 8.06927C19.7601 7.69821 19.9556 7.49388 20.3279 7.47507C20.556 7.46379 20.7853 7.47006 21.0147 7.47006C21.7542 7.47006 22.4925 7.47006 23.2319 7.47006C23.3259 7.47006 23.4212 7.46755 23.5114 7.4851C23.8348 7.54653 23.9978 7.76966 23.9978 8.14574C23.9978 9.48831 23.9978 10.8309 23.9978 12.1747C23.9978 12.3465 24.0015 12.5182 23.9965 12.6899C23.9927 12.7865 24.0278 12.8191 24.1231 12.8128C24.2472 12.804 24.3725 12.7978 24.4966 12.8065C24.8676 12.8329 25.0518 13.0259 25.0556 13.3982C25.0606 13.9134 25.0556 14.4287 25.0556 14.9439C25.0556 15.0793 25.0569 15.2146 25.0556 15.35C25.0518 15.7687 24.83 15.9956 24.4089 16.0019C24.0918 16.0069 23.7734 16.0019 23.4563 16.0019C22.4724 16.0019 21.4885 16.0019 20.5058 16.0019C20.4331 16.0019 20.3592 16.0019 20.2878 15.9906C19.9117 15.9329 19.7501 15.775 19.7413 15.3927C19.7262 14.732 19.7275 14.0714 19.7413 13.4107C19.7501 12.9958 19.9644 12.8065 20.3868 12.794C20.5159 12.7902 20.6437 12.794 20.7816 12.794V12.7927ZM23.9927 13.8783C23.8398 13.8783 23.7007 13.8821 23.5616 13.8783C23.3385 13.8696 23.1254 13.8119 23.0214 13.6C22.96 13.4759 22.9399 13.3205 22.9387 13.1788C22.9286 12.4192 22.9299 11.6595 22.9299 10.8998C22.9299 10.1602 22.9299 9.42188 22.9299 8.68227C22.9299 8.60705 22.9399 8.53685 22.8246 8.53685C22.1791 8.5381 21.5349 8.5356 20.8894 8.53184C20.8054 8.53184 20.7866 8.56568 20.7904 8.64717C20.8004 8.82893 20.7966 9.0107 20.7991 9.19372C20.8004 9.32284 20.7528 9.50586 20.8179 9.56604C20.8944 9.63624 21.0686 9.60114 21.2015 9.60615C21.659 9.62245 21.872 9.84182 21.872 10.3031C21.872 11.2659 21.872 12.2286 21.872 13.1914C21.872 13.6652 21.659 13.8796 21.1864 13.8808C21.0586 13.8808 20.9307 13.8808 20.7879 13.8808C20.7879 14.2118 20.7904 14.5189 20.7866 14.8248C20.7853 14.9263 20.8305 14.9426 20.9195 14.9426C21.9084 14.9389 22.8973 14.9401 23.8862 14.9389C23.92 14.9389 23.9551 14.9313 23.9927 14.9263V13.8808V13.8783Z" fill="white"/>
<path d="M22.381 3.21793C23.1243 3.20414 23.9766 3.77201 23.9804 4.79618C23.9841 5.84166 23.1155 6.38696 22.4086 6.38571C21.5325 6.38571 20.8143 5.6787 20.8106 4.80621C20.8068 3.94375 21.5237 3.21793 22.3823 3.21667L22.381 3.21793ZM22.3998 4.26216C22.1015 4.25965 21.8659 4.49407 21.8647 4.79493C21.8634 5.10707 22.0915 5.33396 22.4074 5.33271C22.6931 5.33271 22.9238 5.10707 22.93 4.82125C22.9375 4.52039 22.6944 4.26466 22.3986 4.26216H22.3998Z" fill="white"/>
</g>
<defs>
<clipPath id="clip0_316_659">
<rect width="32" height="32" fill="white"/>
</clipPath>
</defs>
</svg>
