<svg width="36" height="36" viewBox="0 0 36 36" fill="none" xmlns="http://www.w3.org/2000/svg">
<g clip-path="url(#clip0_316_668)">
<path d="M15.6281 16.5953C15.8214 17.323 16.009 18.0267 16.2023 18.7587C17.2828 18.0691 18.3126 18.1212 19.2662 19.0097C20.2748 18.1241 21.536 18.1565 22.5291 19.1324C22.5714 19.1 22.618 19.0676 22.6617 19.0323C23.8636 18.0507 25.6283 18.5133 26.1545 19.9772C26.4183 20.712 26.596 21.4792 26.8062 22.2338C27.1095 23.3211 27.4382 24.4014 27.6991 25.4987C28.2747 27.9188 27.8064 30.1683 26.4267 32.2104C25.0753 34.2102 23.1639 35.3865 20.7926 35.8265C20.0336 35.9675 19.2733 36.0338 18.5031 35.9802C17.3548 35.8984 16.2573 35.6135 15.1951 35.1707C13.1454 34.3132 11.6543 32.8507 10.5554 30.9482C9.87971 29.7776 9.18707 28.6169 8.50291 27.4506C8.29413 27.0951 8.1178 26.7299 8.07548 26.311C7.9725 25.2772 8.53958 23.8852 10.0645 23.5566C10.9871 23.3592 11.7883 23.6215 12.464 24.2717C12.6375 24.4381 12.7998 24.6158 12.9676 24.7864C13.0029 24.8217 13.0438 24.8527 13.0819 24.8852L13.1242 24.8654C12.4062 22.1096 11.6896 19.3553 10.9701 16.5939H10.7444C8.383 16.5939 6.02156 16.5967 3.66012 16.5924C2.81231 16.591 2.01952 16.3851 1.35087 15.8407C0.580649 15.2131 0.134881 14.398 0.0333133 13.4065C0.00368951 13.116 -0.000542467 12.8226 -0.00195312 12.5293C-0.000542467 9.58312 -0.000542467 6.63695 -0.000542467 3.68937C-0.000542467 1.54849 1.49334 0.0154662 3.6319 0.00700425C7.33488 -0.00709902 11.0379 0.00277327 14.7408 0.00418359C15.2642 0.00418359 15.6098 0.400485 15.5054 0.864483C15.4377 1.16629 15.1556 1.3863 14.8085 1.40746C14.7507 1.41169 14.6915 1.40746 14.6322 1.40746C10.9292 1.40746 7.22626 1.40746 3.52328 1.40746C2.33974 1.40746 1.40588 2.34109 1.40588 3.52436C1.40588 6.71734 1.40588 9.91032 1.40588 13.1033C1.40588 14.2245 2.36936 15.1878 3.49366 15.1878C5.9609 15.1878 8.42673 15.1878 10.894 15.1906C11.0322 15.1906 11.0901 15.1455 11.1507 15.0228C11.5499 14.2372 12.2158 13.8254 13.0791 13.7915C13.9085 13.7605 14.5984 14.1032 15.0258 14.8281C15.1979 15.1201 15.3728 15.1948 15.693 15.1934C21.2764 15.1835 26.8612 15.1864 32.4446 15.1864C33.6874 15.1864 34.593 14.2795 34.593 13.037C34.593 9.86237 34.593 6.68631 34.593 3.51167C34.593 2.32981 33.6719 1.40746 32.4883 1.40746C28.7741 1.40746 25.0584 1.40746 21.3441 1.40746C21.0775 1.40746 20.8292 1.36374 20.6459 1.14796C20.3158 0.758708 20.4963 0.174833 20.9929 0.0436727C21.1043 0.0140559 21.2242 0.00277327 21.3399 0.00277327C25.0133 0.00136294 28.6866 -0.00145771 32.3614 0.00277327C34.1402 0.00277327 35.5438 1.11693 35.9064 2.81496C35.9656 3.09421 35.9966 3.38333 35.9966 3.66821C36.0023 6.75542 36.0051 9.84262 35.998 12.9312C35.9952 14.0158 35.651 14.972 34.8173 15.7011C34.1134 16.316 33.2727 16.591 32.3444 16.591C26.8542 16.5939 21.3653 16.591 15.875 16.591H15.631L15.6281 16.5953ZM26.5509 27.4012C26.517 27.0162 26.5227 26.6227 26.4394 26.249C26.2631 25.4563 26.0473 24.6722 25.8343 23.8895C25.538 22.8007 25.2333 21.7148 24.923 20.6302C24.8806 20.4821 24.8158 20.3284 24.7227 20.2071C24.4998 19.9194 24.0512 19.8306 23.7154 19.9815C23.3656 20.1394 23.1639 20.5061 23.233 20.8869C23.281 21.1506 23.367 21.4087 23.4122 21.6724C23.4686 22.0067 23.2767 22.2972 22.9523 22.4072C22.6405 22.513 22.2977 22.3818 22.1454 22.0843C22.0819 21.9616 22.0452 21.8233 22.0071 21.688C21.8788 21.2324 21.7716 20.7698 21.6263 20.3199C21.4866 19.8884 21.0437 19.6811 20.5894 19.7995C20.1761 19.9067 19.9165 20.3242 19.9984 20.7642C20.0322 20.9419 20.0802 21.1168 20.1253 21.2917C20.2184 21.6485 20.3256 22.001 20.4089 22.3593C20.5259 22.8599 20.1691 23.283 19.6767 23.2421C19.389 23.2182 19.1548 22.9925 19.056 22.6315C18.8459 21.8586 18.6498 21.0815 18.4297 20.3115C18.2929 19.8334 17.8485 19.588 17.3943 19.7079C16.9245 19.832 16.6706 20.2607 16.7863 20.7557C16.8709 21.114 16.9739 21.4679 17.0656 21.8248C17.1912 22.3113 17.3322 22.7951 17.4352 23.2859C17.5001 23.5905 17.3181 23.8613 17.0289 23.9882C16.751 24.1095 16.4449 24.0488 16.2531 23.8077C16.1684 23.7019 16.1078 23.5665 16.0711 23.4339C15.5139 21.4101 14.9637 19.3849 14.4107 17.3597C14.2626 16.8181 14.1272 16.2737 13.9509 15.7406C13.7929 15.2625 13.2695 15.0538 12.8026 15.247C12.385 15.4191 12.1918 15.8393 12.323 16.3428C12.9874 18.8997 13.6575 21.4567 14.3261 24.0122C14.5955 25.0417 14.8692 26.0698 15.133 27.1008C15.26 27.5958 14.8791 28.033 14.3839 27.9442C14.2076 27.9117 14.0242 27.7961 13.8916 27.6677C13.1736 26.9696 12.4711 26.2546 11.7629 25.5466C11.6219 25.4056 11.4864 25.2589 11.3313 25.1334C10.6937 24.6172 9.73018 24.9204 9.49883 25.7046C9.39162 26.067 9.4678 26.3956 9.65541 26.7129C10.4073 27.9822 11.1507 29.2544 11.9054 30.5222C12.3343 31.2415 12.8703 31.8733 13.4924 32.4332C14.8607 33.6602 16.4491 34.3879 18.2858 34.5445C19.4341 34.6432 20.5669 34.5614 21.6672 34.1905C24.6013 33.2033 26.5593 30.4278 26.5466 27.4026L26.5509 27.4012Z" fill="white"/>
<path d="M25.2263 8.46762C25.2263 8.55929 25.2263 8.65096 25.2263 8.74404C25.2292 9.51126 25.2348 10.2785 25.2348 11.0457C25.2348 11.356 25.1149 11.607 24.8229 11.7438C24.4321 11.9286 23.9666 11.71 23.8763 11.284C23.8312 11.0697 23.834 10.8426 23.834 10.6212C23.834 8.94572 23.8368 7.27025 23.8397 5.59478C23.8397 5.27887 23.9483 5.01937 24.2502 4.87833C24.6071 4.71333 24.9752 4.84872 25.1671 5.2154C25.4506 5.75979 25.7299 6.307 26.0121 6.85279C26.2378 7.28858 26.4649 7.72437 26.692 8.16016C26.7118 8.19965 26.7414 8.2335 26.8091 8.26312C26.8091 8.13337 26.8091 8.00503 26.8091 7.87528C26.8063 7.14332 26.8006 6.41136 26.802 5.6794C26.802 5.54119 26.8176 5.39592 26.8585 5.26476C26.9502 4.97142 27.2323 4.78666 27.5314 4.80218C27.8318 4.81769 28.0914 5.02783 28.1591 5.32682C28.1845 5.43964 28.1944 5.55811 28.1958 5.67517C28.1972 7.38025 28.1958 9.08393 28.1958 10.789C28.1958 10.9117 28.1873 11.0358 28.1605 11.1543C28.0942 11.4462 27.9151 11.6437 27.623 11.7212C27.3423 11.7946 27.0983 11.7156 26.9135 11.4928C26.8246 11.3856 26.7527 11.2629 26.6878 11.1402C26.2406 10.2869 25.7962 9.43087 25.3505 8.57621C25.3293 8.53672 25.3039 8.49864 25.2814 8.46056C25.2644 8.46339 25.2461 8.4648 25.2292 8.46762H25.2263Z" fill="white"/>
<path d="M6.2524 7.87671C6.61776 8.20109 6.88296 8.58047 7.00428 9.04728C7.36964 10.459 6.37795 11.6183 5.19299 11.7664C4.62732 11.8369 4.04754 11.8172 3.47481 11.8059C3.09111 11.7988 2.81462 11.4533 2.8118 11.0344C2.80898 10.373 2.8118 9.71155 2.8118 9.0501C2.8118 7.92043 2.8118 6.79076 2.8118 5.66109C2.8118 5.08003 3.10522 4.78245 3.68641 4.78669C4.07293 4.78951 4.46227 4.76694 4.84315 4.8163C6.20161 4.99118 7.09597 6.60319 6.25099 7.87812L6.2524 7.87671ZM4.22669 10.4097C4.46368 10.4097 4.68092 10.4125 4.89675 10.4097C5.32418 10.404 5.65146 10.0994 5.69095 9.67206C5.72904 9.26306 5.44127 8.8583 5.035 8.80471C4.77262 8.76945 4.50177 8.79766 4.2281 8.79766V10.4097H4.22669ZM4.22669 7.38028C4.39174 7.38028 4.53986 7.39579 4.68233 7.37746C4.98563 7.33656 5.20569 7.0686 5.19299 6.78089C5.17889 6.46921 4.95318 6.22381 4.64425 6.19701C4.50741 6.18573 4.36776 6.1956 4.22669 6.1956V7.38028Z" fill="white"/>
<path d="M12.3661 8.28703C12.3661 7.82444 12.352 7.36186 12.369 6.89927C12.4056 5.90499 13.2647 4.90507 14.4031 4.79506C15.3031 4.70762 16.2934 5.20688 16.694 6.27167C16.7829 6.50861 16.8506 6.76952 16.8549 7.02197C16.8676 7.94009 16.8845 8.86244 16.8351 9.77916C16.7773 10.8637 15.8053 11.7564 14.7022 11.8143C13.6287 11.8707 12.6088 11.0922 12.4212 10.0217C12.3436 9.57607 12.3718 9.11348 12.3534 8.65795C12.3492 8.53525 12.3534 8.41255 12.3534 8.28844C12.3577 8.28844 12.3619 8.28844 12.3675 8.28844L12.3661 8.28703ZM15.4371 8.30254C15.4371 8.30254 15.4456 8.30254 15.4512 8.30254C15.4512 7.93445 15.4555 7.56494 15.4484 7.19685C15.4456 7.05158 15.4315 6.9035 15.3948 6.76388C15.3017 6.40142 14.9096 6.15462 14.5118 6.19269C14.1196 6.23077 13.7895 6.54246 13.7839 6.92183C13.7726 7.82867 13.7697 8.73551 13.7839 9.64235C13.7909 10.0922 14.1534 10.4152 14.6133 10.4223C15.0379 10.4293 15.4103 10.1078 15.4315 9.66915C15.4541 9.21361 15.4371 8.75808 15.4371 8.30113V8.30254Z" fill="white"/>
<path d="M11.9209 8.33644C11.9209 8.79903 11.9434 9.26303 11.9166 9.72279C11.8292 11.2474 10.1843 12.2459 8.7892 11.6225C7.95409 11.2502 7.49562 10.5817 7.45613 9.67907C7.41663 8.75672 7.42086 7.82872 7.45331 6.90496C7.4928 5.73862 8.53387 4.7796 9.70189 4.78383C10.8093 4.78947 11.8475 5.74849 11.9152 6.86124C11.9448 7.35062 11.9209 7.84424 11.9209 8.33644ZM8.85127 8.25887H8.8555C8.8555 8.7271 8.83998 9.19674 8.85973 9.66356C8.87666 10.0613 9.18136 10.3687 9.55095 10.411C10.1392 10.4787 10.537 10.0895 10.5328 9.45906C10.5285 8.69748 10.5285 7.93732 10.5257 7.17574C10.5257 7.0883 10.5201 6.99945 10.5088 6.91342C10.4495 6.47763 10.0842 6.17864 9.63559 6.19133C9.20111 6.20544 8.8682 6.5284 8.85409 6.97689C8.84139 7.40422 8.85127 7.83154 8.85127 8.25887Z" fill="white"/>
<path d="M31.7809 9.33917C31.3436 9.20237 31.1489 8.97954 31.1419 8.6185C31.1348 8.28566 31.3577 7.99231 31.692 7.95141C31.9572 7.91897 32.2309 7.91333 32.4975 7.93449C32.8798 7.9641 33.1365 8.19117 33.1662 8.58042C33.2029 9.06839 33.2282 9.57047 33.1605 10.0514C33.0364 10.93 32.2591 11.6324 31.3507 11.7762C29.9936 11.992 28.7438 10.9568 28.7212 9.58457C28.7071 8.72427 28.7071 7.86256 28.724 7.00226C28.748 5.76541 29.7989 4.76548 31.0333 4.78382C31.9544 4.79792 32.8897 5.51578 33.138 6.40005C33.2423 6.77238 33.066 7.12637 32.7049 7.26458C32.3861 7.38728 32.0235 7.22932 31.8585 6.89508C31.8331 6.84289 31.8119 6.78789 31.7894 6.7343C31.6342 6.36056 31.2717 6.14478 30.8795 6.19414C30.4789 6.24351 30.1798 6.54532 30.1248 6.95713C30.1107 7.0615 30.1022 7.16727 30.1022 7.27163C30.1022 7.97398 30.098 8.67773 30.1107 9.38007C30.1135 9.55777 30.1403 9.74676 30.2066 9.90895C30.4492 10.4914 31.2364 10.6056 31.6384 10.1177C31.7174 10.0218 31.7555 9.88074 31.7767 9.75381C31.8007 9.61842 31.7823 9.47456 31.7823 9.33917H31.7809Z" fill="white"/>
<path d="M18.7076 6.49028C18.7923 6.40848 18.8431 6.36617 18.8854 6.31681C19.2042 5.94307 19.5216 5.56652 19.839 5.19137C20.0181 4.97982 20.2311 4.83033 20.5217 4.87405C21.0493 4.95443 21.2962 5.53972 20.9703 5.97128C20.6247 6.42823 20.2509 6.86543 19.8841 7.30545C19.6415 7.59739 19.3862 7.87945 19.1252 8.18126C19.2663 8.35473 19.4017 8.52115 19.5385 8.68898C20.0562 9.32504 20.5782 9.95686 21.086 10.5986C21.1876 10.7269 21.2694 10.8877 21.3047 11.0456C21.3653 11.3221 21.2045 11.5971 20.9506 11.7296C20.6924 11.865 20.4117 11.8467 20.2029 11.6422C20.0069 11.4504 19.8348 11.2346 19.6584 11.0231C19.3918 10.7043 19.1308 10.38 18.867 10.0598C18.836 10.0217 18.7937 9.99353 18.7302 9.93853C18.7302 10.3362 18.733 10.6973 18.7302 11.0569C18.726 11.4109 18.5581 11.6619 18.2619 11.7691C17.8669 11.913 17.4239 11.6521 17.3661 11.2346C17.3449 11.0851 17.3407 10.9314 17.3407 10.7791C17.3379 9.09233 17.3379 7.40699 17.3379 5.72024C17.3379 5.49741 17.3435 5.27458 17.486 5.08277C17.6454 4.86699 17.9247 4.7584 18.1843 4.81904C18.458 4.88251 18.6837 5.09406 18.702 5.37048C18.7246 5.72306 18.7076 6.07846 18.7076 6.48887V6.49028Z" fill="white"/>
<path d="M23.1343 8.31668C23.1343 9.23057 23.1343 10.1445 23.1343 11.0569C23.1343 11.2925 23.0581 11.4927 22.8733 11.6465C22.4727 11.9793 21.8633 11.7635 21.7645 11.2516C21.7434 11.143 21.7363 11.0301 21.7363 10.9201C21.7363 9.18121 21.7363 7.44087 21.7363 5.70194C21.7363 5.59757 21.7434 5.49039 21.7589 5.38743C21.8055 5.0546 22.0594 4.82048 22.3979 4.79227C22.7012 4.76689 23.0116 4.9869 23.0934 5.29999C23.1244 5.41705 23.1329 5.54257 23.1329 5.66527C23.1357 6.54954 23.1343 7.43382 23.1343 8.31809H23.1329L23.1343 8.31668Z" fill="white"/>
<path d="M17.9996 1.4089C17.6484 1.4089 17.2999 1.05632 17.3028 0.70374C17.3056 0.349748 17.6371 0.0155009 17.9897 0.0112699C18.3495 0.0070389 18.6937 0.344107 18.6965 0.70233C18.6979 1.05773 18.3523 1.4089 18.001 1.4089H17.9996Z" fill="white"/>
</g>
<defs>
<clipPath id="clip0_316_668">
<rect width="36" height="36" fill="white"/>
</clipPath>
</defs>
</svg>
