<svg width="60" height="60" viewBox="0 0 60 60" fill="none" xmlns="http://www.w3.org/2000/svg">
<g clip-path="url(#clip0_172_352)">
<path d="M9.89867 19.2286C9.28907 18.248 8.68466 17.2946 8.09582 16.3241C7.50438 15.3537 6.91813 14.3799 6.34744 13.3891C5.87014 12.5578 6.1892 11.5263 6.95963 11.3736C7.34614 11.2956 7.6237 11.5501 7.84938 11.9199C8.78842 13.4434 9.72487 14.9703 10.6613 16.5006C10.9026 16.8942 11.1334 17.2946 11.3721 17.6949C11.9791 17.1453 12.5576 16.6329 13.1231 16.0968C13.1775 16.0459 13.1983 15.8186 13.1594 15.7269C12.9778 15.2791 12.7599 14.8583 12.5783 14.4104C12.3137 13.7556 12.459 13.0837 12.9233 12.7309C13.3695 12.3915 13.8779 12.5612 14.184 13.1753C14.3838 13.5757 14.5602 13.9965 14.7391 14.4138C14.8221 14.6072 14.9078 14.6853 15.0738 14.5733C15.6471 14.1899 16.2307 13.8234 16.7962 13.423C16.8559 13.3823 16.8792 13.1346 16.8455 13.0159C16.7106 12.5273 16.5316 12.059 16.4019 11.5704C16.2411 10.9563 16.446 10.376 16.887 10.0944C17.315 9.81958 17.8183 9.98924 18.0673 10.5593C18.2644 11.0072 18.3967 11.5059 18.5602 11.9776C18.5991 12.0896 18.6483 12.1981 18.7054 12.344C19.424 12.0149 20.1295 11.6892 20.8585 11.3567C20.7417 10.7696 20.625 10.203 20.5212 9.63296C20.3967 8.95774 20.6613 8.3368 21.1516 8.12982C21.6159 7.93302 22.1166 8.24519 22.2982 8.88648C22.4253 9.33437 22.5057 9.80262 22.6068 10.2607C22.638 10.4066 22.6769 10.5491 22.7106 10.6882C23.4058 10.505 24.0647 10.3218 24.7288 10.1555C24.9363 10.1046 24.9518 9.94852 24.9285 9.72797C24.8766 9.23936 24.817 8.75415 24.791 8.26215C24.7547 7.58014 25.0945 7.04403 25.59 6.94563C26.0673 6.85402 26.5083 7.23405 26.6224 7.88891C26.7106 8.39448 26.7625 8.91363 26.8014 9.43277C26.8247 9.7144 26.9026 9.78226 27.1127 9.75172C27.6574 9.67368 28.2074 9.59224 28.7547 9.57867C29.066 9.56849 29.1282 9.4192 29.1282 9.05274C29.1179 6.68437 29.1231 4.31599 29.1231 1.95101C29.1231 1.69653 29.1205 1.44204 29.1334 1.19096C29.1697 0.546269 29.5173 0.0746291 29.9895 0.0101604C30.4304 -0.0475221 30.8662 0.332504 30.9882 0.929688C31.0478 1.22489 31.0738 1.54044 31.0738 1.84582C31.0816 4.24134 31.0764 6.63686 31.0764 9.03238C31.0764 9.18507 31.0764 9.34116 31.0764 9.54813C31.826 9.616 32.5601 9.68386 33.328 9.75172C33.3773 9.29365 33.4214 8.88309 33.4681 8.46913C33.4914 8.27573 33.5096 8.07893 33.5459 7.88891C33.6678 7.27137 34.0906 6.88117 34.5576 6.94224C35.0167 6.99992 35.398 7.5021 35.3954 8.14C35.3954 8.68629 35.3306 9.23258 35.2683 9.77547C35.2398 10.0164 35.302 10.108 35.4681 10.1521C36.0673 10.3184 36.6665 10.5016 37.2683 10.6441C37.3461 10.6611 37.5018 10.522 37.5303 10.4134C37.6574 9.93495 37.7352 9.43616 37.8598 8.95774C38.0284 8.30626 38.4642 7.97713 38.9389 8.09589C39.5381 8.24858 39.826 8.93738 39.647 9.78226C39.5355 10.3048 39.4266 10.8307 39.315 11.3634C40.0595 11.7027 40.7547 12.0217 41.4862 12.3542C41.66 11.8249 41.8286 11.3125 41.9998 10.8002C42.1477 10.3557 42.3915 10.0537 42.7651 9.98924C43.4681 9.86708 44.0128 10.7527 43.7716 11.6349C43.6419 12.1099 43.4784 12.5714 43.3202 13.0328C43.2476 13.2466 43.245 13.362 43.4421 13.4841C43.9765 13.8132 44.5005 14.1797 45.0193 14.5495C45.2164 14.6921 45.3228 14.6547 45.4292 14.4003C45.5978 13.9931 45.7845 13.5961 45.9791 13.2059C46.2904 12.5782 46.8429 12.3881 47.2969 12.7342C47.756 13.0837 47.8753 13.7793 47.5874 14.4579C47.3825 14.9364 47.1646 15.4046 46.9311 15.9305C47.0063 16.0188 47.0893 16.1341 47.1879 16.2291C47.6522 16.6634 48.1269 17.0774 48.5835 17.5253C48.8221 17.7628 48.9103 17.5253 49.0167 17.3488C49.6626 16.2732 50.2956 15.1874 50.9467 14.1186C51.4162 13.3484 51.8987 12.5883 52.3889 11.8385C52.6328 11.4652 52.9493 11.2616 53.3384 11.4008C54.0154 11.6417 54.28 12.5849 53.8494 13.3382C53.2631 14.3663 52.638 15.3537 52.0336 16.3615C51.4603 17.3149 50.8922 18.2684 50.3007 19.2592C50.5965 19.6086 50.9077 19.9683 51.2113 20.3382C51.4707 20.6537 51.7378 20.9659 51.9765 21.3086C52.3371 21.8277 52.3293 22.5097 51.9843 22.9848C51.6341 23.4666 51.0841 23.5005 50.6743 23.0424C49.7327 21.9906 48.8325 20.8675 47.8546 19.8801C44.3604 16.3682 40.4434 14.0304 36.1269 12.8564C33.2579 12.076 30.3656 11.9097 27.4473 12.2321C21.2268 12.9243 15.7742 15.995 11.0219 21.2475C10.5602 21.7565 10.1295 22.3095 9.68337 22.8389C9.4499 23.1171 9.21125 23.375 8.86625 23.3614C8.48492 23.3444 8.20996 23.1035 8.04394 22.6658C7.88311 22.2417 7.88051 21.7938 8.13473 21.4409C8.53162 20.8878 8.96223 20.3755 9.37986 19.8462C9.54069 19.6426 9.7119 19.4526 9.90386 19.2252L9.89867 19.2286Z" fill="black"/>
<path d="M34.2102 45.6371C33.4969 46.8043 32.8587 47.8494 32.2206 48.8944C31.7433 49.6749 31.2764 50.4688 30.7783 51.2289C30.4255 51.765 29.9067 51.8057 29.5072 51.3884C29.1129 50.9744 29.0377 50.3026 29.3256 49.7257C29.3905 49.5968 29.4579 49.4679 29.5332 49.3491C30.5345 47.7069 31.5358 46.068 32.5371 44.4291C32.576 44.3647 32.6123 44.2968 32.6771 44.1848C32.5345 44.083 32.4125 43.9779 32.2802 43.9032C29.8885 42.5663 27.2764 43.5605 25.6914 46.2919C23.598 49.9022 24.7342 55.8638 28.6745 57.2822C29.6707 57.6418 30.6745 57.5909 31.6732 57.2347C31.9249 57.1464 32.2076 57.082 32.4592 57.1396C32.838 57.2245 33.1181 57.747 33.1467 58.2458C33.1726 58.7446 32.9521 59.2603 32.55 59.43C32.0312 59.6505 31.4968 59.8643 30.9599 59.9423C27.0351 60.5192 23.4657 57.1227 22.8172 51.7243C22.2387 46.8823 24.9703 41.8843 28.6642 41.0089C30.4333 40.5882 32.0909 40.9207 33.6551 42.0642C33.847 42.2067 33.9301 42.1286 34.0468 41.9352C36.2232 38.3318 38.4048 34.7317 40.5889 31.1384C41.1052 30.2901 41.6317 29.452 42.1713 28.6275C42.4956 28.1355 42.9132 28.0405 43.3049 28.3018C43.694 28.5631 43.9067 29.0788 43.8133 29.6319C43.7744 29.8558 43.6862 30.0832 43.5747 30.263C42.5448 31.9629 41.5046 33.6527 40.4696 35.3492C38.8328 38.0366 37.2011 40.7307 35.5591 43.4146C35.3827 43.6996 35.4087 43.8591 35.5902 44.117C37.5358 46.8925 38.2076 51.6191 36.2751 55.5551C35.9456 56.2269 35.3879 56.3966 34.9339 56.0131C34.4826 55.6297 34.3736 54.9274 34.6927 54.225C35.6629 52.0873 35.7563 49.8615 35.0636 47.5813C34.8639 46.9298 34.5241 46.3496 34.2076 45.6439L34.2102 45.6371Z" fill="black"/>
<path d="M30.1245 15.2587C37.2841 15.4962 43.4838 18.6687 48.6719 25.1122C48.965 25.4753 49.2478 25.8587 49.1518 26.4559C48.9935 27.4297 48.1505 27.8165 47.5694 27.165C47.0636 26.595 46.6018 25.9605 46.0882 25.4006C42.3113 21.278 37.9845 18.7705 33.0973 18.0478C28.4825 17.3624 24.0156 18.1428 19.7692 20.7181C19.5642 20.8437 19.3567 20.9625 19.1414 21.0439C18.69 21.2169 18.2516 20.9557 18.0597 20.4229C17.8574 19.8665 17.9741 19.2388 18.3632 18.8893C18.5292 18.74 18.7186 18.6246 18.9028 18.5126C21.8548 16.7347 24.9546 15.7066 28.1972 15.3944C28.8509 15.3299 29.5098 15.3028 30.1271 15.2621L30.1245 15.2587Z" fill="black"/>
<path d="M1.94553 32.9334C2.95201 32.9334 3.9118 32.93 4.869 32.9334C5.29442 32.9334 5.69131 33.0691 5.92737 33.5848C6.31647 34.4331 5.87808 35.4273 5.07912 35.4612C4.19715 35.4986 3.31258 35.4782 2.43061 35.4816C1.96887 35.4816 1.96368 35.4816 1.96109 36.1059C1.9559 37.246 1.96109 38.3895 1.94553 39.5295C1.94293 39.8213 2.03113 39.8858 2.23087 39.8824C3.14656 39.8722 4.06226 39.8722 4.97795 39.8824C5.21401 39.8824 5.45525 39.8926 5.68353 39.9537C6.10117 40.069 6.37613 40.5169 6.40208 41.0598C6.42802 41.6129 6.17639 42.1253 5.76135 42.2915C5.56939 42.3696 5.35927 42.4035 5.15953 42.4035C3.85733 42.4137 2.55253 42.4103 1.25032 42.4069C0.363165 42.4069 0 41.9217 0 40.7544C0 36.3841 0 32.0172 0 27.6469C0 26.4967 0.360571 26.0149 1.22698 26.0115C2.52918 26.0115 3.83398 26.0115 5.13619 26.0183C5.33852 26.0183 5.54864 26.042 5.7406 26.1167C6.17899 26.2863 6.46952 26.9581 6.39429 27.5587C6.32685 28.105 5.94034 28.5258 5.46304 28.5291C4.41764 28.5393 3.37224 28.5461 2.32944 28.5224C2.02075 28.5156 1.92737 28.6208 1.93515 29.0381C1.9585 30.1782 1.94293 31.3217 1.94293 32.4617C1.94293 32.5975 1.94293 32.7366 1.94293 32.93L1.94553 32.9334Z" fill="black"/>
<path d="M55.7302 28.4273V32.6619C55.9611 32.6619 56.1738 32.6619 56.3865 32.6619C57.118 32.6619 57.8522 32.6483 58.5837 32.6653C59.4527 32.6891 59.9326 33.6765 59.5357 34.6096C59.3359 35.0812 58.9961 35.2339 58.6096 35.2373C57.7795 35.2441 56.952 35.2441 56.1219 35.2475C56.0052 35.2475 55.8885 35.261 55.751 35.2678C55.7406 35.3968 55.7251 35.5053 55.7251 35.6105C55.7199 37.246 55.7199 38.8815 55.7147 40.5135C55.7147 40.7375 55.7069 40.9648 55.681 41.1854C55.6005 41.8334 55.1907 42.2847 54.7186 42.261C54.2387 42.2372 53.8573 41.7588 53.8029 41.1073C53.7925 40.9953 53.7977 40.8834 53.7977 40.768C53.7977 36.2993 53.7977 31.834 53.7977 27.3653C53.7977 26.4661 54.1686 25.9131 54.856 25.8995C56.2231 25.8724 57.5928 25.8791 58.9598 25.8995C59.502 25.9063 59.8859 26.3406 59.9896 26.9683C60.0597 27.3992 59.8573 28.0032 59.5123 28.2068C59.2944 28.3357 59.0376 28.3968 58.7964 28.4036C57.8911 28.4273 56.9858 28.4172 56.083 28.4206C55.9767 28.4206 55.8703 28.4206 55.7328 28.4206L55.7302 28.4273Z" fill="black"/>
<path d="M11.0168 26.0556C11.079 25.9097 11.1542 25.5873 11.3177 25.3736C12.3786 23.9688 13.533 22.7066 14.7859 21.6106C15.2865 21.1729 15.8339 21.3154 16.1244 21.8821C16.4227 22.4657 16.3086 23.1375 15.8494 23.6295C14.7781 24.7764 13.7094 25.93 12.6406 27.0871C12.319 27.4332 11.9765 27.6198 11.5719 27.3721C11.2113 27.1481 11.0245 26.7579 11.0142 26.0556H11.0168Z" fill="black"/>
</g>
<defs>
<clipPath id="clip0_172_352">
<rect width="60" height="60" fill="white"/>
</clipPath>
</defs>
</svg>
