<svg width="28" height="24" viewBox="0 0 28 24" fill="none" xmlns="http://www.w3.org/2000/svg">
<g clip-path="url(#clip0_521_4041)">
<path d="M5.69108 18.7657V18.9248C5.69108 19.4619 5.69108 19.9991 5.69108 20.5362C5.69108 20.9054 5.54403 21.0468 5.17311 21.0468C4.57174 21.0468 3.96927 21.0524 3.3679 21.0479C3.25377 21.0479 3.22414 21.0811 3.22414 21.196C3.22743 21.6039 3.2428 22.015 3.20549 22.4206C3.12318 23.3225 2.44719 23.9525 1.54403 23.9901C1.18848 24.0044 0.832922 23.9989 0.477366 23.9901C0.147051 23.9834 0 23.821 0 23.4861C0 19.2088 0 14.9305 0 10.6533C0 10.2985 0.147051 10.146 0.496022 10.146C0.887792 10.146 1.28285 10.1217 1.67133 10.1593C2.56241 10.2444 3.18573 10.944 3.22195 11.8591C3.22634 11.9785 3.23182 12.0978 3.22305 12.2172C3.21427 12.3299 3.25597 12.3564 3.36351 12.3553C3.93745 12.3498 4.51248 12.3509 5.08752 12.352C5.58244 12.352 5.69108 12.4614 5.69108 12.9577C5.69108 13.7059 5.69108 14.4542 5.69108 15.2024C5.69108 15.2521 5.69108 15.3019 5.69108 15.3616C5.82167 15.3616 5.93909 15.3616 6.05652 15.3616C7.03649 15.3616 8.01756 15.3527 8.99753 15.3638C9.60219 15.3704 10.0488 15.1272 10.3495 14.5989C10.6096 14.1414 10.8774 13.6882 11.144 13.2351C11.1945 13.1489 11.2011 13.0992 11.1012 13.0417C9.30151 11.9995 7.50398 10.9517 5.70425 9.90947C5.39918 9.73264 5.08752 9.57127 4.85048 9.30049C4.2952 8.66278 4.04938 7.72886 4.53663 6.86568C4.9679 6.09975 5.40576 5.33825 5.84252 4.57565C6.49767 3.43174 7.16379 2.29446 7.80576 1.14392C8.37202 0.129319 9.6428 -0.381296 10.8554 0.339312C12.2513 1.17044 13.6593 1.97726 15.0639 2.79292C16.2831 3.50137 17.5034 4.2054 18.7226 4.91274C19.6697 5.46204 20.6156 6.01134 21.5616 6.56284C22.6217 7.18067 23.6818 7.79849 24.7418 8.41631C25.6988 8.97445 26.6546 9.53701 27.6137 10.0918C28.0834 10.3626 28.0845 10.5151 27.8365 10.9429C27.1704 12.0956 26.5185 13.2572 25.8579 14.4133C25.6219 14.8266 25.3794 15.2356 25.1358 15.6445C24.9942 15.8832 24.8252 15.9307 24.5827 15.7992C24.3545 15.6754 24.1295 15.5439 23.9078 15.4091C23.8387 15.3671 23.8025 15.3726 23.7509 15.4367C23.2132 16.1021 22.5218 16.4988 21.679 16.6337C21.0897 16.7276 20.5267 16.627 19.9813 16.4038C19.9122 16.375 19.8694 16.385 19.8134 16.4314C19.0628 17.0592 18.1695 17.1388 17.3092 16.6514C16.6189 16.259 15.9331 15.86 15.2461 15.4621C14.918 15.272 14.5931 15.0786 14.2672 14.8874C14.2288 14.8653 14.1882 14.8454 14.13 14.8145C13.9753 15.0864 13.8228 15.3505 13.6735 15.6169C13.3103 16.2645 12.9438 16.9122 12.3984 17.4272C11.5161 18.2606 10.4647 18.7237 9.25761 18.759C8.13278 18.7922 7.00576 18.7668 5.87984 18.7668C5.82497 18.7668 5.7701 18.7668 5.69218 18.7668L5.69108 18.7657ZM27.1243 10.682C27.0705 10.6489 27.0332 10.6234 26.9948 10.6013C25.5901 9.7879 24.1844 8.97555 22.7797 8.16211C21.4628 7.3984 20.146 6.63358 18.8302 5.86766C18.3177 5.56925 17.8074 5.26752 17.2949 4.96911C15.7213 4.05508 14.1465 3.14438 12.5728 2.23036C11.8431 1.80595 11.1254 1.36275 10.3857 0.956029C9.64938 0.551516 8.87133 0.79356 8.45103 1.52522C7.96488 2.36961 7.48203 3.21622 6.99808 4.06172C6.90809 4.21976 6.81591 4.3756 6.71715 4.5436C12.7001 8.02174 18.6743 11.4944 24.6617 14.9747C25.4782 13.5523 26.2968 12.1255 27.1243 10.682ZM6.35062 5.20784C6.33196 5.22994 6.32208 5.23878 6.3155 5.25094C5.95995 5.86987 5.60329 6.48769 5.25103 7.10883C5.06667 7.43376 4.98875 7.7808 5.07215 8.15437C5.16872 8.58541 5.4332 8.88603 5.80521 9.10044C6.30672 9.38891 6.81262 9.67185 7.31413 9.96252C8.74952 10.7959 10.1838 11.6325 11.6181 12.4681C12.8209 13.1677 14.0247 13.864 15.2263 14.5647C16.0461 15.0421 16.8647 15.5218 17.6812 16.0059C18.3594 16.4082 19.2362 16.1982 19.6313 15.4853C19.9682 14.8764 20.3204 14.2773 20.6683 13.675C20.7133 13.5976 20.721 13.5468 20.6255 13.5015C20.5267 13.455 20.4357 13.392 20.3413 13.3368C18.6206 12.341 16.8988 11.3463 15.1792 10.3471C14.0554 9.69506 12.935 9.03524 11.8112 8.38205C10.5295 7.63713 9.24664 6.89552 7.96488 6.1517C7.42936 5.84113 6.89492 5.52614 6.35281 5.20894L6.35062 5.20784ZM0.776955 10.8754V23.2009C1.07545 23.2009 1.36187 23.2131 1.64829 23.1954C1.77449 23.1877 1.90837 23.1379 2.0203 23.0738C2.37805 22.8683 2.47243 22.5334 2.47243 22.1388C2.46694 18.8994 2.46914 15.6589 2.46804 12.4194C2.46804 12.2128 2.47133 12.0061 2.46475 11.8005C2.45158 11.3916 2.17503 11.0202 1.77778 10.9495C1.45405 10.892 1.11934 10.8987 0.77915 10.8765L0.776955 10.8754ZM5.69767 18.0019C5.73388 18.0042 5.76132 18.0075 5.78765 18.0075C6.90919 18.0053 8.02963 18.0075 9.15117 17.9997C10.5251 17.9887 11.5995 17.3731 12.3874 16.2723C12.7824 15.7208 13.0919 15.1062 13.4409 14.5216C13.4947 14.4321 13.4365 14.4 13.3739 14.3635C12.8999 14.0905 12.4258 13.8176 11.9539 13.5412C11.876 13.4959 11.8453 13.5037 11.7992 13.5844C11.515 14.0806 11.2384 14.5824 10.9289 15.062C10.7753 15.2997 10.5778 15.5218 10.3616 15.7042C9.96763 16.0346 9.49026 16.1352 8.98217 16.1319C8.00219 16.1253 7.02222 16.1297 6.04225 16.1308C5.93032 16.1308 5.81728 16.1308 5.69767 16.1308V18.0042V18.0019ZM4.91962 13.1191C4.38189 13.1191 3.85844 13.1213 3.33498 13.1179C3.2406 13.1179 3.22414 13.1555 3.22414 13.2417C3.22634 15.545 3.22524 17.8483 3.22305 20.1505C3.22305 20.2489 3.24499 20.2876 3.35144 20.2864C3.83868 20.2809 4.32702 20.2831 4.81427 20.2831C4.84829 20.2831 4.8823 20.2765 4.91962 20.2721V13.1191ZM23.1342 14.9626C22.5503 14.6222 21.9632 14.2806 21.3739 13.9369C21.1918 14.2552 21.0239 14.5492 20.856 14.8421C20.687 15.1372 20.518 15.4312 20.349 15.7263C21.1687 16.1639 22.8433 15.7075 23.1353 14.9626H23.1342Z" fill="white" fill-opacity="0.7"/>
<path d="M23.7454 10.114C24.5739 10.1117 25.2236 10.776 25.2225 11.6248C25.2225 12.3819 24.552 13.0572 23.7981 13.0616C22.963 13.066 22.2957 12.415 22.2903 11.5916C22.2848 10.7893 22.9476 10.1162 23.7454 10.1129V10.114ZM23.7377 12.3001C24.1394 12.3078 24.4598 12.0083 24.4642 11.6215C24.4686 11.2214 24.1756 10.8931 23.808 10.8843C23.3613 10.8744 23.0453 11.1584 23.0398 11.5751C23.0343 11.9785 23.3372 12.2935 23.7377 12.3012V12.3001Z" fill="white" fill-opacity="0.7"/>
<path d="M10.1245 9.29936C10.1213 9.54914 9.86775 9.72818 9.6362 9.64198C9.58572 9.62319 9.53634 9.59666 9.48915 9.56903C8.88229 9.21647 8.27543 8.8639 7.66857 8.51133C7.27022 8.28034 6.87077 8.05266 6.47351 7.82056C6.21233 7.66804 6.15966 7.41384 6.34292 7.2149C6.46803 7.08006 6.64141 7.05575 6.82797 7.16185C7.1967 7.37074 7.56213 7.58515 7.92866 7.79735C8.57063 8.16982 9.21371 8.54338 9.85568 8.91695C10.0038 9.00316 10.1267 9.10705 10.1223 9.29936H10.1245Z" fill="white" fill-opacity="0.7"/>
</g>
<defs>
<clipPath id="clip0_521_4041">
<rect width="28" height="24" fill="white"/>
</clipPath>
</defs>
</svg>
