<svg width="34" height="24" viewBox="0 0 34 24" fill="none" xmlns="http://www.w3.org/2000/svg">
<g clip-path="url(#clip0_521_4047)">
<path d="M6.55765 20.8772C6.9057 20.8001 7.22428 20.7322 7.54102 20.6606C8.87981 20.3613 10.2186 20.0639 11.5537 19.7537C11.6992 19.7206 11.8575 19.6325 11.9588 19.5242C12.5002 18.9441 12.8814 18.2721 12.9864 17.4791C13.0177 17.2349 12.9846 16.9485 12.8814 16.7264C12.5002 15.9076 12.0656 15.1163 11.6808 14.2994C11.5316 13.9818 11.3419 13.9175 11.0104 13.9561C10.4433 14.0203 9.8687 14.0424 9.29783 14.0424C9.11736 14.0424 8.89454 13.9597 8.76195 13.8386C8.31262 13.4292 7.97746 12.9335 7.79331 12.3442C7.6644 11.933 7.76937 11.6007 8.12478 11.3694C8.55754 11.0866 9.00687 10.8278 9.44884 10.5598C9.51329 10.5212 9.59063 10.4992 9.65141 10.4533C9.71033 10.4074 9.80609 10.3229 9.7932 10.2899C9.76558 10.2165 9.68824 10.1265 9.61642 10.1118C9.37149 10.0586 9.12105 10.0219 8.8706 10.0035C7.86513 9.9319 6.85966 9.88233 5.85603 9.80155C5.16546 9.74648 4.47121 9.68222 3.79168 9.55922C3.45653 9.49864 3.13058 9.32607 2.83225 9.14983C1.98699 8.65048 1.15647 8.12175 0.322259 7.60405C0.276221 7.57651 0.233866 7.54346 0.193353 7.50858C-0.0036898 7.34336 -0.0442033 7.19098 0.066288 7.03861C0.185987 6.87338 0.364614 6.84033 0.570865 6.96884C0.95206 7.20567 1.32589 7.45901 1.70708 7.694C2.19877 7.99875 2.69782 8.29432 3.19503 8.58989C3.28343 8.6413 3.38471 8.67251 3.52098 8.72942C3.65357 8.1805 3.78984 7.67014 3.89849 7.15243C4.16367 5.90405 4.42517 4.65751 4.67193 3.40547C4.79531 2.77945 5.15257 2.38841 5.75659 2.2085C6.96831 1.85051 8.18187 1.49619 9.39543 1.14187C9.63667 1.07211 9.87607 0.99684 10.121 0.936257C10.3401 0.883018 10.4893 0.965631 10.5538 1.15839C10.6127 1.3328 10.5372 1.48334 10.3107 1.55127C9.52987 1.78442 8.74354 1.9937 7.96273 2.22686C7.26295 2.43614 6.5687 2.66379 5.87076 2.87858C5.58901 2.96487 5.42696 3.14478 5.36619 3.43484C5.17098 4.37847 4.97578 5.32209 4.76585 6.26388C4.5817 7.09368 4.38465 7.91981 4.18209 8.74411C4.13789 8.92218 4.1913 8.97909 4.36071 8.99194C5.7529 9.09475 7.14509 9.19939 8.53728 9.30955C8.93874 9.34075 9.34019 9.39399 9.74164 9.4454C10.0105 9.47844 10.2186 9.6198 10.3365 9.85846C10.6698 10.5322 11.0344 11.195 11.3106 11.8907C11.7692 13.0455 12.3511 14.136 12.9606 15.2136C13.1208 15.4963 13.235 15.8066 13.3823 16.0985C13.8703 17.0678 13.7009 18.0004 13.2184 18.911C13.0969 19.1387 12.9496 19.3535 12.8078 19.5682C12.4818 20.0584 12.0491 20.3522 11.4487 20.4752C9.84476 20.8038 8.25185 21.1875 6.65341 21.5473C6.51898 21.5767 6.38455 21.606 6.25012 21.6299C5.90391 21.6905 5.72897 21.5216 5.80631 21.1838C6.04387 20.1576 6.0144 19.1368 5.64794 18.1528C4.84872 16.0085 3.30921 14.7436 1.02388 14.4077C0.821312 14.3783 0.61322 14.3801 0.408811 14.3544C0.150998 14.3232 0.00551782 14.1782 0.023933 13.9891C0.0423482 13.8019 0.185987 13.6935 0.445641 13.6954C1.44006 13.6972 2.3866 13.9285 3.25764 14.3985C4.88739 15.2797 5.96652 16.6125 6.43058 18.4135C6.62579 19.1717 6.66262 19.9428 6.56502 20.7212C6.56133 20.7579 6.56502 20.7946 6.56502 20.8735L6.55765 20.8772ZM11.1173 13.2952C11.1265 13.2529 11.1357 13.2346 11.132 13.2236C10.8245 12.5039 10.5206 11.7861 10.202 11.0701C10.1854 11.0316 10.0492 10.9985 10.005 11.0242C9.51513 11.3033 9.03265 11.5933 8.54833 11.8797C8.40469 11.966 8.37523 12.0872 8.4581 12.2285C8.62568 12.5168 8.79326 12.805 8.9682 13.0877C9.10816 13.3117 9.30152 13.4237 9.58143 13.3833C9.75453 13.3576 9.93316 13.3778 10.1081 13.3668C10.4469 13.3447 10.7876 13.3172 11.1173 13.2915V13.2952Z" fill="white" fill-opacity="0.7"/>
<path d="M28.6412 11.0665C28.6412 12.0009 28.6283 12.9372 28.6448 13.8716C28.6596 14.6959 28.3373 15.3495 27.6983 15.8489C26.9009 16.4749 26.0999 17.0954 25.2859 17.6975C24.9765 17.927 24.7942 18.184 24.715 18.5769C24.4388 19.9446 24.1184 21.305 23.809 22.6672C23.6156 23.5172 22.9196 24.0404 22.0596 23.9927C21.2659 23.9486 20.6195 23.3281 20.5532 22.4836C20.5293 22.188 20.6084 21.8814 20.6729 21.5859C21.0209 19.9997 21.3782 18.4154 21.7336 16.8292C21.8294 16.3978 22.0467 16.0416 22.4021 15.7717C23.1976 15.1696 23.9913 14.5638 24.7924 13.9671C24.89 13.8955 25.0355 13.8257 25.1423 13.8459C25.2454 13.8661 25.3706 13.991 25.4001 14.0938C25.424 14.1801 25.354 14.3379 25.2749 14.4022C24.8992 14.7143 24.5088 15.0062 24.1221 15.3018C23.6985 15.6249 23.275 15.9498 22.8459 16.2674C22.5954 16.4547 22.4481 16.6952 22.3818 16.9999C22.0043 18.7036 21.6305 20.4091 21.2346 22.1091C21.0854 22.748 21.5789 23.2345 21.9767 23.3171C22.5181 23.4291 23.0485 23.0839 23.1737 22.5185C23.5033 21.0369 23.8293 19.5536 24.1497 18.0702C24.2086 17.7967 24.3302 17.5892 24.5603 17.4185C25.4351 16.7686 26.2969 16.1022 27.1643 15.4413C27.7278 15.0117 28.0095 14.4738 27.9985 13.7395C27.969 11.8853 27.9893 10.0292 27.9874 8.17318C27.9874 7.44252 27.5933 6.84036 26.9764 6.60721C26.1938 6.31164 25.3577 6.64943 24.9692 7.45353C24.5401 8.34208 24.1368 9.24532 23.7317 10.1449C23.5438 10.5598 23.4923 10.5965 23.0245 10.5983C22.1314 10.602 21.2382 10.613 20.3451 10.6314C19.9455 10.6387 19.6472 10.8957 19.5993 11.2409C19.5496 11.5952 19.7264 11.9018 20.0597 12.0119C20.1646 12.0468 20.2843 12.056 20.3967 12.0542C21.5955 12.0395 22.7943 12.0174 23.9932 12.0009C24.3467 11.9954 24.5548 11.7898 24.6893 11.4961C25.0778 10.6461 25.459 9.79423 25.8457 8.9424C25.8991 8.82491 25.9525 8.70558 26.0188 8.59726C26.1477 8.38798 26.284 8.34208 26.4516 8.43387C26.6339 8.53301 26.6855 8.68355 26.5915 8.8965C26.3374 9.47296 26.0759 10.0476 25.8163 10.6222C25.6468 10.9967 25.4737 11.3676 25.3062 11.7421C25.0299 12.3626 24.5567 12.6692 23.8698 12.6728C22.6949 12.6802 21.5182 12.7077 20.3433 12.7206C19.6877 12.7279 19.1426 12.3204 18.9769 11.7164C18.8074 11.1014 19.0542 10.4735 19.6306 10.1614C19.8295 10.0531 20.0762 9.99618 20.3046 9.987C21.1443 9.95395 21.9841 9.94661 22.8238 9.93743C23.0116 9.93743 23.1203 9.88786 23.2031 9.69693C23.5659 8.86897 23.9379 8.04467 24.332 7.23139C24.7077 6.45667 25.308 5.97384 26.1956 5.86185C27.3871 5.71131 28.5859 6.66595 28.6246 7.8666C28.6596 8.92955 28.6319 9.99618 28.6319 11.0591C28.6375 11.0591 28.6412 11.0591 28.6467 11.0591L28.6412 11.0665Z" fill="white" fill-opacity="0.7"/>
<path d="M15.4246 6.50072V13.8882C15.5332 13.8882 15.6308 13.8882 15.7266 13.8882C17.6123 13.8882 19.498 13.8882 21.3837 13.8882C21.4445 13.8882 21.5089 13.8808 21.566 13.8937C21.7244 13.9322 21.7907 13.8735 21.8036 13.7156C21.8202 13.5137 21.9454 13.3815 22.1461 13.3907C22.3505 13.3998 22.4389 13.5577 22.4647 13.7486C22.4647 13.756 22.4665 13.7633 22.4665 13.7707C22.4628 14.3673 22.566 14.5619 21.7465 14.5564C19.6085 14.5417 17.4705 14.5509 15.3325 14.5509C15.2643 14.5509 15.1944 14.5546 15.1262 14.5491C14.8482 14.527 14.7487 14.4206 14.7487 14.1452C14.7487 13.1869 14.7487 12.2286 14.7487 11.2702C14.7487 9.60514 14.7487 7.94003 14.7487 6.27492C14.7487 5.95915 14.8555 5.849 15.1704 5.849C17.4539 5.849 19.7356 5.849 22.019 5.85267C22.3597 5.85267 22.461 5.94079 22.4665 6.28226C22.4757 6.95051 22.4739 7.62059 22.4665 8.28884C22.4647 8.54402 22.3229 8.68538 22.1148 8.6762C21.9178 8.66702 21.7944 8.52199 21.7944 8.27966C21.7925 7.79316 21.7962 7.30666 21.7981 6.82016C21.7981 6.50807 21.7981 6.5099 21.4813 6.50807C19.916 6.50623 18.3507 6.50256 16.7854 6.49889C16.3435 6.49889 15.9015 6.49889 15.4209 6.49889L15.4246 6.50072Z" fill="white" fill-opacity="0.7"/>
<path d="M32.3113 22.9224C32.0719 22.8416 31.7681 22.7939 31.5232 22.6488C30.0315 21.7585 28.5528 20.8479 27.0704 19.941C26.7242 19.728 26.505 19.4159 26.378 19.0359C26.3061 18.8193 26.2343 18.6045 26.1699 18.386C26.1036 18.1657 26.1846 18.0023 26.389 17.9307C26.5584 17.8701 26.7223 17.9693 26.7997 18.1896C26.8678 18.3823 26.9323 18.5769 26.9875 18.7752C27.0667 19.0634 27.2416 19.2764 27.4902 19.4288C28.9395 20.3155 30.3888 21.204 31.8418 22.0834C32.3279 22.3771 32.8969 22.2394 33.1842 21.7805C33.4918 21.2885 33.3776 20.7414 32.862 20.4165C32.0185 19.8841 31.1622 19.37 30.3115 18.8505C29.8879 18.5916 29.4551 18.3511 29.0445 18.0758C28.9027 17.9821 28.7756 17.8261 28.7093 17.67C28.5767 17.3561 28.4883 17.0256 28.3852 16.6989C28.33 16.5226 28.4147 16.3427 28.5915 16.273C28.7756 16.1995 28.9174 16.284 28.9837 16.4455C29.0832 16.6823 29.166 16.9283 29.2286 17.178C29.282 17.3947 29.4017 17.5305 29.5896 17.6443C30.8031 18.375 32.0149 19.1112 33.2192 19.8565C33.7956 20.2127 34.0608 20.7469 33.9945 21.4225C33.9319 22.0504 33.5912 22.4983 33.0185 22.7516C32.8214 22.8379 32.5949 22.86 32.315 22.9261L32.3113 22.9224Z" fill="white" fill-opacity="0.7"/>
<path d="M22.6691 2.82168C22.6433 1.3273 23.8735 0.0495553 25.3319 0.00182333C26.9414 -0.0514162 28.2231 1.19879 28.2563 2.67481C28.2931 4.26649 27.0906 5.54424 25.5603 5.5681C23.9563 5.59381 22.6949 4.39684 22.6691 2.81985V2.82168ZM27.597 2.7868C27.597 1.70732 26.772 0.660892 25.4553 0.660892C24.2694 0.660892 23.3726 1.5421 23.3228 2.73172C23.275 3.91952 24.2731 4.92005 25.4314 4.91454C26.6431 4.90904 27.5952 3.97276 27.5952 2.7868H27.597Z" fill="white" fill-opacity="0.7"/>
<path d="M4.43253 19.9446C4.41227 22.1733 2.6039 23.9981 0.418014 24C0.250436 24 0.117846 23.9596 0.0405025 23.8017C-0.0589397 23.5979 0.0331364 23.4088 0.276217 23.3611C0.537713 23.3097 0.808417 23.306 1.06623 23.2454C2.43264 22.9242 3.31473 22.0668 3.6462 20.7248C3.97215 19.403 3.56886 18.2648 2.54313 17.3579C1.97042 16.8512 1.28721 16.596 0.522981 16.5556C0.454845 16.5519 0.386708 16.5428 0.318572 16.5299C0.123371 16.4932 -0.0129016 16.3867 0.00919663 16.1756C0.0294534 15.9682 0.180458 15.88 0.379342 15.8782C1.09017 15.8708 1.74759 16.0636 2.3645 16.4088C3.62594 17.1156 4.44358 18.5108 4.43069 19.9428L4.43253 19.9446Z" fill="white" fill-opacity="0.7"/>
<path d="M11.5906 21.9512C11.0491 21.9512 10.5077 21.953 9.96449 21.9512C9.66801 21.9512 9.52989 21.8465 9.52437 21.6336C9.51884 21.4188 9.6809 21.2774 9.96265 21.2774C10.8097 21.2774 11.6568 21.2829 12.5039 21.2866C12.5887 21.2866 12.6734 21.3013 12.7544 21.2866C12.8409 21.2701 12.9883 21.2334 12.992 21.193C13.0067 21.0571 13.0748 20.8827 12.8759 20.7983C12.7157 20.7303 12.5979 20.622 12.655 20.4293C12.7084 20.2475 12.8391 20.1594 13.0343 20.1667C13.1264 20.1704 13.2185 20.1631 13.3087 20.1704C13.5536 20.1869 13.6752 20.2989 13.6825 20.5413C13.6917 20.8754 13.6936 21.2095 13.6825 21.5436C13.6733 21.8557 13.5702 21.9494 13.2608 21.9512C12.7047 21.953 12.1467 21.9512 11.5906 21.9512Z" fill="white" fill-opacity="0.7"/>
<path d="M18.6012 7.49576C18.8075 7.49576 19.0137 7.48841 19.22 7.49759C19.4483 7.50677 19.5754 7.63344 19.5735 7.83355C19.5735 8.0153 19.4465 8.15299 19.231 8.1585C18.8111 8.16951 18.3913 8.16951 17.9714 8.1585C17.7707 8.15299 17.6418 8.00429 17.6418 7.81886C17.6418 7.63344 17.7688 7.51044 17.9843 7.49576C18.0911 7.48841 18.1979 7.49576 18.3047 7.49576C18.4042 7.49576 18.5036 7.49576 18.6031 7.49576H18.6012Z" fill="white" fill-opacity="0.7"/>
</g>
<defs>
<clipPath id="clip0_521_4047">
<rect width="34" height="24" fill="white"/>
</clipPath>
</defs>
</svg>
