<svg width="24" height="24" viewBox="0 0 24 24" fill="none" xmlns="http://www.w3.org/2000/svg">
<g clip-path="url(#clip0_521_4007)">
<path d="M12.1248 21.6775C6.63648 21.7077 2.16326 17.2779 2.33131 11.6751C2.49256 6.31883 6.81327 2.22027 12.1073 2.26898C17.5121 2.31964 21.7794 6.73872 21.6648 12.17C21.5521 17.4786 17.347 21.5537 12.1248 21.6775ZM12.1569 20.901C16.8389 20.8523 20.978 16.9388 20.9071 11.8232C20.8401 6.9852 16.8292 2.9373 11.8101 3.02985C6.99007 3.11753 2.94814 7.22291 3.08607 12.2304C3.21624 16.9515 7.12995 20.9916 12.1559 20.902L12.1569 20.901Z" fill="white" fill-opacity="0.7"/>
<path d="M20.13 4.20867V5.35533H19.3597C19.3577 5.32026 19.3548 5.28129 19.3548 5.24232C19.3548 4.6724 19.3548 4.10151 19.3548 3.53159C19.3548 3.19256 19.5131 3.03571 19.8531 3.03571C20.4175 3.03571 20.9829 3.03571 21.5472 3.03571C21.5861 3.03571 21.6259 3.03571 21.6716 3.03571V3.80826H20.8119C22.6944 5.89603 23.7542 8.32087 23.964 11.0886C24.1739 13.8584 23.4628 16.406 21.927 18.7178C19.4568 22.4364 15.3216 24.037 12.0063 24V23.2343C14.8651 23.2158 17.3625 22.2532 19.4947 20.3516C21.1402 18.8834 22.2631 17.0801 22.8363 14.9475C23.9621 10.7593 22.5788 6.71243 20.1309 4.20965L20.13 4.20867Z" fill="white" fill-opacity="0.7"/>
<path d="M0 12.3493V11.6011H0.761566V12.3493H0Z" fill="white" fill-opacity="0.7"/>
<path d="M0.897529 10.1972C0.869359 10.4203 0.84896 10.6054 0.818847 10.7876C0.81399 10.8178 0.766392 10.8646 0.742107 10.8636C0.542002 10.8499 0.342868 10.8236 0.142763 10.8071C0.0699092 10.8012 0.0543671 10.7662 0.0631095 10.7048C0.0893369 10.5012 0.11265 10.2966 0.145677 10.0939C0.149563 10.0686 0.205903 10.0306 0.233102 10.0345C0.423493 10.0598 0.613885 10.091 0.802333 10.13C0.843131 10.1378 0.876158 10.1816 0.896557 10.1972H0.897529Z" fill="white" fill-opacity="0.7"/>
<path d="M10.8844 23.2304C10.863 23.4622 10.8426 23.6551 10.8271 23.848C10.8212 23.9162 10.7892 23.9406 10.7251 23.9328C10.525 23.9075 10.3249 23.885 10.1267 23.8519C10.1005 23.848 10.0606 23.7896 10.0645 23.7613C10.0908 23.5528 10.1257 23.3463 10.1636 23.1398C10.1675 23.1203 10.2161 23.093 10.2423 23.0949C10.4307 23.1144 10.6182 23.1359 10.8057 23.1661C10.8416 23.1719 10.8708 23.2167 10.8854 23.2294L10.8844 23.2304Z" fill="white" fill-opacity="0.7"/>
<path d="M3.80104 4.28559C3.60385 4.09659 3.42608 3.92805 3.24249 3.75172C3.429 3.57246 3.6087 3.40002 3.79424 3.22174C3.94869 3.38346 4.10994 3.55103 4.26827 3.72249C4.2809 3.73613 4.28285 3.78192 4.27022 3.79556C4.11674 3.9602 3.95937 4.12095 3.80104 4.28657V4.28559Z" fill="white" fill-opacity="0.7"/>
<path d="M10.8572 0.669311C10.8727 0.732636 10.8358 0.756991 10.7668 0.765759C10.5833 0.788167 10.4016 0.818367 10.218 0.838826C10.1928 0.841749 10.1442 0.805703 10.1393 0.780373C10.1014 0.582605 10.0723 0.383864 10.0373 0.185122C10.0247 0.114978 10.0577 0.0906224 10.1199 0.0818544C10.3151 0.0555503 10.5104 0.0292463 10.7047 0.000993785C10.7707 -0.00874845 10.7892 0.0234009 10.795 0.0808801C10.8144 0.272802 10.8358 0.465698 10.8582 0.669311H10.8572Z" fill="white" fill-opacity="0.7"/>
<path d="M0.207884 13.9226C0.1904 13.8983 0.151544 13.8681 0.145716 13.833C0.115603 13.6411 0.0952039 13.4482 0.0699479 13.2563C0.0612054 13.1871 0.0825759 13.1559 0.159315 13.1511C0.351649 13.1384 0.543984 13.1121 0.736318 13.0994C0.763516 13.0975 0.814029 13.1394 0.818885 13.1667C0.851912 13.3576 0.877168 13.5495 0.897568 13.7424C0.900482 13.7658 0.858712 13.8135 0.832485 13.8184C0.635294 13.8564 0.43616 13.8856 0.205942 13.9226H0.207884Z" fill="white" fill-opacity="0.7"/>
<path d="M2.7121 19.6053C2.55571 19.3958 2.40806 19.1971 2.25458 18.9925C2.44691 18.8483 2.62856 18.71 2.8141 18.5784C2.83158 18.5668 2.89083 18.5862 2.90929 18.6096C3.02974 18.7558 3.14631 18.9058 3.25802 19.0578C3.27356 19.0792 3.27356 19.1396 3.25608 19.1542C3.0822 19.3033 2.90443 19.4475 2.71113 19.6053H2.7121Z" fill="white" fill-opacity="0.7"/>
<path d="M5.43973 21.128C5.29402 21.3326 5.1522 21.5313 5.00066 21.7437C4.79473 21.5849 4.5956 21.4319 4.39258 21.2751C4.54509 21.09 4.68982 20.9127 4.83747 20.7392C4.85301 20.7217 4.90353 20.709 4.91713 20.7198C5.09197 20.8523 5.26197 20.9896 5.43876 21.1289L5.43973 21.128Z" fill="white" fill-opacity="0.7"/>
<path d="M8.75217 1.17393C8.73857 1.15639 8.70942 1.13496 8.69971 1.10768C8.63754 0.915762 8.57732 0.72384 8.52389 0.529969C8.51709 0.504639 8.55109 0.444237 8.57732 0.436444C8.77354 0.37799 8.9717 0.325382 9.17083 0.279593C9.19512 0.273748 9.25146 0.311743 9.25923 0.339021C9.31071 0.528995 9.3554 0.721891 9.39619 0.914787C9.40202 0.942066 9.38259 0.997596 9.36317 1.00344C9.16695 1.06287 8.96878 1.1145 8.75119 1.17393H8.75217Z" fill="white" fill-opacity="0.7"/>
<path d="M2.24194 4.95783C2.39931 4.75129 2.55182 4.55157 2.70627 4.34796C2.89277 4.50091 3.06762 4.6412 3.23761 4.78831C3.25704 4.80487 3.25801 4.87307 3.23956 4.89742C3.13076 5.05135 3.01517 5.20138 2.89666 5.34946C2.88209 5.36797 2.82769 5.37966 2.8102 5.36797C2.62273 5.23743 2.43913 5.10104 2.24194 4.95783Z" fill="white" fill-opacity="0.7"/>
<path d="M9.42924 22.9488C9.37678 23.1807 9.33016 23.397 9.2777 23.6123C9.27187 23.6357 9.22428 23.6698 9.20485 23.6649C8.99697 23.6162 8.79104 23.5626 8.58608 23.5032C8.56373 23.4963 8.53751 23.4379 8.54431 23.4116C8.59482 23.2167 8.65019 23.0229 8.71236 22.831C8.72013 22.8056 8.77452 22.7735 8.79978 22.7793C9.00571 22.83 9.21068 22.8884 9.43118 22.9488H9.42924Z" fill="white" fill-opacity="0.7"/>
<path d="M0.546911 15.4483C0.529426 15.4259 0.498342 15.4015 0.489599 15.3713C0.437144 15.1852 0.389547 14.9982 0.340006 14.8121C0.319607 14.7381 0.34292 14.7049 0.421602 14.6893C0.598394 14.6552 0.774215 14.6134 0.948093 14.5656C1.03163 14.5422 1.06466 14.5656 1.08312 14.6465C1.12197 14.8111 1.16374 14.9748 1.21328 15.1355C1.23951 15.2213 1.22299 15.2544 1.13266 15.2768C0.942264 15.3236 0.755759 15.3859 0.546911 15.4483Z" fill="white" fill-opacity="0.7"/>
<path d="M0.554683 8.50885C0.772273 8.57704 0.977235 8.63745 1.17928 8.70662C1.19968 8.71343 1.21911 8.77091 1.21328 8.79819C1.17151 8.97453 1.12003 9.14891 1.07729 9.32525C1.06077 9.39149 1.02969 9.41 0.965578 9.39442C0.778101 9.34863 0.588681 9.30966 0.402175 9.25803C0.372062 9.25023 0.330293 9.18886 0.336121 9.1606C0.378862 8.95991 0.429374 8.7602 0.483771 8.56146C0.490571 8.53807 0.532341 8.52346 0.554683 8.50787V8.50885Z" fill="white" fill-opacity="0.7"/>
<path d="M7.99935 1.40968C7.97992 1.42624 7.95758 1.45546 7.92941 1.46715C7.76719 1.53632 7.60205 1.59965 7.43983 1.66785C7.38349 1.69123 7.34366 1.6922 7.31452 1.62595C7.23487 1.44572 7.14744 1.26841 7.07071 1.08721C7.06002 1.06285 7.0843 0.999528 7.10859 0.987837C7.29024 0.902105 7.4748 0.822219 7.66131 0.748178C7.68754 0.737461 7.75165 0.759869 7.76136 0.78325C7.84199 0.976146 7.91387 1.17294 7.98866 1.36876C7.99158 1.37655 7.99352 1.38435 8.00129 1.40968H7.99935Z" fill="white" fill-opacity="0.7"/>
<path d="M5.66803 22.1908C5.80597 21.9677 5.93322 21.7622 6.06533 21.5488C6.26932 21.6657 6.46651 21.7787 6.68021 21.9015C6.64039 21.9814 6.59764 22.07 6.55296 22.1587C6.49662 22.2698 6.44319 22.3828 6.38005 22.4909C6.36354 22.5192 6.30332 22.5542 6.28583 22.5445C6.08184 22.4334 5.88173 22.3146 5.669 22.1908H5.66803Z" fill="white" fill-opacity="0.7"/>
<path d="M1.07141 16.9515C1.06073 16.9203 1.05101 16.8891 1.03936 16.8589C0.960675 16.6699 0.878107 16.4819 0.805254 16.29C0.796511 16.2666 0.826624 16.2042 0.852851 16.1935C1.03839 16.1175 1.22586 16.0474 1.41625 15.9821C1.44054 15.9743 1.49591 15.9977 1.50659 16.0201C1.58722 16.1955 1.66104 16.3738 1.73195 16.553C1.7407 16.5764 1.72418 16.6319 1.70378 16.6417C1.51631 16.7332 1.32494 16.817 1.13552 16.9037C1.12872 16.9067 1.11998 16.9086 1.11221 16.9106C1.09861 16.9242 1.08598 16.9369 1.07238 16.9505L1.07141 16.9515Z" fill="white" fill-opacity="0.7"/>
<path d="M1.74462 7.33106C1.66399 7.53273 1.58337 7.73926 1.49594 7.94093C1.4872 7.96139 1.42892 7.97892 1.40269 7.97015C1.22007 7.9078 1.04133 7.83571 0.858713 7.77239C0.785859 7.74706 0.776145 7.70516 0.802373 7.64281C0.877169 7.46453 0.953909 7.28722 1.02385 7.10602C1.05299 7.03003 1.09087 7.03392 1.15304 7.06218C1.34538 7.15181 1.53965 7.23754 1.74462 7.33009V7.33106Z" fill="white" fill-opacity="0.7"/>
<path d="M2.43626 6.03335C2.32455 6.22722 2.21867 6.41622 2.10696 6.60132C2.09531 6.62081 2.03508 6.63152 2.01177 6.61983C1.83595 6.53118 1.66498 6.43278 1.48916 6.34413C1.42894 6.31393 1.42311 6.28275 1.45225 6.23112C1.55522 6.05283 1.65527 5.87358 1.76309 5.69919C1.77572 5.67776 1.83692 5.66217 1.85732 5.67386C2.05062 5.78882 2.24004 5.90962 2.43723 6.03335H2.43626Z" fill="white" fill-opacity="0.7"/>
<path d="M8.01195 22.5542C7.99932 22.5883 7.98767 22.6224 7.97504 22.6565C7.91773 22.8114 7.85847 22.9663 7.8031 23.1222C7.7759 23.1982 7.73996 23.2226 7.65934 23.1865C7.4874 23.1086 7.30964 23.0414 7.13868 22.9615C7.11051 22.9478 7.07942 22.8816 7.09011 22.8553C7.16587 22.6682 7.24941 22.4851 7.33781 22.3039C7.3485 22.2815 7.40775 22.26 7.43203 22.2688C7.61174 22.338 7.78853 22.4159 7.9663 22.4909C7.99155 22.5016 8.01681 22.5124 8.04109 22.5231C8.03138 22.5338 8.02166 22.5435 8.01098 22.5542H8.01195Z" fill="white" fill-opacity="0.7"/>
<path d="M5.43002 2.81939C5.25323 2.95773 5.09295 3.08633 4.92782 3.20713C4.90547 3.22369 4.83845 3.21493 4.81999 3.19349C4.67428 3.0269 4.5344 2.85446 4.3819 2.67033C4.58103 2.51641 4.77336 2.36833 4.98318 2.2066C5.13278 2.41119 5.27849 2.61091 5.43002 2.81842V2.81939Z" fill="white" fill-opacity="0.7"/>
<path d="M6.67051 2.0371C6.47332 2.15205 6.30138 2.2563 6.12556 2.35274C6.09933 2.36736 6.03425 2.36054 6.02162 2.34105C5.89923 2.15303 5.78363 1.95916 5.65833 1.7536C5.87397 1.62792 6.08476 1.5042 6.31304 1.37073C6.43349 1.5948 6.55103 1.81497 6.67051 2.0371Z" fill="white" fill-opacity="0.7"/>
<path d="M1.80486 18.3135C1.68538 18.1069 1.56784 17.9062 1.45613 17.7026C1.44642 17.6861 1.46876 17.6325 1.49013 17.6198C1.67081 17.5156 1.85343 17.4152 2.03897 17.3198C2.05645 17.311 2.10793 17.3334 2.12153 17.3548C2.22256 17.5195 2.32067 17.6861 2.41295 17.8556C2.42558 17.878 2.41295 17.9384 2.39158 17.952C2.20313 18.0738 2.0108 18.1888 1.80486 18.3135Z" fill="white" fill-opacity="0.7"/>
<path d="M3.80781 19.6754C3.96615 19.8381 4.11671 19.9891 4.26242 20.145C4.27699 20.1606 4.27893 20.2112 4.26533 20.2268C4.11185 20.3963 3.95449 20.5629 3.78644 20.7412C3.60868 20.5551 3.43868 20.3798 3.25995 20.1927C3.43383 20.0281 3.61159 19.8605 3.80684 19.6754H3.80781Z" fill="white" fill-opacity="0.7"/>
<path d="M12.118 20.1236C7.62245 20.1557 3.9069 16.5823 3.8729 12.0103C3.84084 7.64281 7.31549 3.77417 12.0869 3.82191C16.6408 3.8677 20.1679 7.54247 20.1164 12.0541C20.0639 16.668 16.4212 20.0116 12.118 20.1226V20.1236ZM19.3529 11.7823C19.2742 7.71588 15.8714 4.45418 11.7431 4.58765C7.70598 4.7182 4.48682 8.1611 4.64029 12.2489C4.79086 16.2491 8.14019 19.4514 12.1948 19.3491C16.1104 19.2497 19.4665 15.9822 19.3529 11.7823Z" fill="white" fill-opacity="0.7"/>
<path d="M11.61 12.7448H12.3754V13.5203H11.6129V14.2899H10.8368V13.5222C10.7202 13.5222 10.6163 13.5222 10.5123 13.5222C10.1413 13.5222 9.77116 13.5222 9.40009 13.5222C9.34763 13.5222 9.29518 13.5203 9.24467 13.5096C8.94742 13.4462 8.82309 13.1822 8.97851 12.9211C9.18056 12.5811 9.39426 12.2489 9.60311 11.9128C10.013 11.2552 10.422 10.5976 10.8319 9.94C10.8601 9.89518 10.8863 9.85037 10.9193 9.80945C11.0145 9.69352 11.1292 9.62143 11.2875 9.65552C11.4536 9.69157 11.5575 9.79484 11.5925 9.96143C11.6051 10.0199 11.609 10.0813 11.609 10.1417C11.61 10.962 11.609 11.7832 11.609 12.6035V12.7458L11.61 12.7448ZM9.98389 12.736H10.8251V11.3789C10.5366 11.8446 10.2637 12.285 9.98389 12.736Z" fill="white" fill-opacity="0.7"/>
<path d="M6.57727 11.1861H5.81668C5.72925 10.433 6.25186 9.76175 6.97263 9.6614C7.84299 9.5406 8.58707 10.2732 8.4977 11.15C8.44913 11.6264 8.25971 12.0346 7.95664 12.396C7.64774 12.7643 7.3369 13.1296 7.00954 13.5164H8.50644V14.2909C8.47633 14.2938 8.44622 14.2997 8.41513 14.2997C7.69728 14.2997 6.97943 14.2997 6.26254 14.2997C6.10032 14.2997 5.96044 14.25 5.86913 14.1058C5.77685 13.9607 5.77977 13.8291 5.89827 13.6801C6.21592 13.2826 6.53745 12.889 6.86092 12.4964C7.05616 12.2597 7.26016 12.0307 7.45443 11.793C7.67397 11.5241 7.78373 11.2211 7.71282 10.8694C7.65162 10.5645 7.40004 10.3862 7.08142 10.4164C6.79389 10.4437 6.57824 10.6863 6.57533 10.9844C6.57533 11.0487 6.57533 11.113 6.57533 11.188L6.57727 11.1861Z" fill="white" fill-opacity="0.7"/>
<path d="M15.1002 10.7954C15.1002 10.5323 15.0856 10.2732 15.1041 10.017C15.1216 9.77147 15.2925 9.63897 15.5529 9.638C16.2824 9.63605 17.0119 9.638 17.7424 9.63702C18.0406 9.63702 18.3155 9.90494 18.1115 10.2527C17.8414 10.7135 17.6151 11.1948 17.4432 11.7014C17.1712 12.5042 17.0332 13.3284 17.0313 14.1759C17.0313 14.212 17.0313 14.248 17.0313 14.2909H16.2513C16.2658 12.9348 16.5621 11.6507 17.1605 10.4222H15.8734V10.7964H15.1002V10.7954Z" fill="white" fill-opacity="0.7"/>
<path d="M13.9918 9.56689C14.224 9.62632 14.427 9.67698 14.63 9.72959C14.7155 9.752 14.6738 9.81142 14.6631 9.85624C14.5232 10.4203 14.3823 10.9844 14.2415 11.5475C14.0161 12.4477 13.7888 13.3479 13.5683 14.249C13.5401 14.364 13.5013 14.3893 13.3896 14.3523C13.2332 14.3006 13.0719 14.2607 12.9097 14.2315C12.8058 14.212 12.8019 14.1652 12.8233 14.0805C13.0817 13.0595 13.3381 12.0375 13.5936 11.0156C13.7082 10.5577 13.8189 10.0988 13.9345 9.64094C13.9423 9.60879 13.9782 9.58443 13.9918 9.56689Z" fill="white" fill-opacity="0.7"/>
</g>
<defs>
<clipPath id="clip0_521_4007">
<rect width="24" height="24" fill="white"/>
</clipPath>
</defs>
</svg>
