<svg width="24" height="24" viewBox="0 0 24 24" fill="none" xmlns="http://www.w3.org/2000/svg">
<rect width="24" height="24" rx="5" fill="white"/>
<path d="M12 4C11.121 4 10.2617 4.24694 9.5308 4.7096C8.79991 5.17226 8.23026 5.82985 7.89387 6.59923C7.55748 7.3686 7.46946 8.2152 7.64095 9.03196C7.81244 9.84872 8.23574 10.599 8.8573 11.1878C9.47887 11.7767 10.2708 12.1777 11.1329 12.3401C11.9951 12.5026 12.8887 12.4192 13.7008 12.1005C14.5129 11.7819 15.2071 11.2422 15.6954 10.5498C16.1838 9.85735 16.4444 9.04329 16.4444 8.21053C16.4444 7.09383 15.9762 6.02286 15.1427 5.23323C14.3092 4.44361 13.1787 4 12 4ZM12 10.7368C11.4726 10.7368 10.957 10.5887 10.5185 10.3111C10.0799 10.0335 9.73815 9.63893 9.53632 9.17731C9.33449 8.71568 9.28168 8.20772 9.38457 7.71767C9.48747 7.22761 9.74144 6.77746 10.1144 6.42415C10.4873 6.07084 10.9625 5.83023 11.4798 5.73275C11.997 5.63527 12.5332 5.6853 13.0205 5.87652C13.5078 6.06773 13.9242 6.39153 14.2173 6.80698C14.5103 7.22243 14.6667 7.71087 14.6667 8.21053C14.6667 8.88055 14.3857 9.52313 13.8856 9.9969C13.3855 10.4707 12.7072 10.7368 12 10.7368ZM20 20V19.1579C20 17.5945 19.3444 16.0952 18.1776 14.9897C17.0107 13.8842 15.428 13.2632 13.7778 13.2632H10.2222C8.57199 13.2632 6.98934 13.8842 5.82245 14.9897C4.65555 16.0952 4 17.5945 4 19.1579V20H5.77778V19.1579C5.77778 18.0412 6.24603 16.9702 7.07953 16.1806C7.91302 15.391 9.04348 14.9474 10.2222 14.9474H13.7778C14.9565 14.9474 16.087 15.391 16.9205 16.1806C17.754 16.9702 18.2222 18.0412 18.2222 19.1579V20H20Z" fill="#152B52"/>
</svg>
