<svg width="24" height="24" viewBox="0 0 24 24" fill="none" xmlns="http://www.w3.org/2000/svg">
<path d="M8.502 11.5C8.76775 11.5 9.02261 11.6056 9.21052 11.7935C9.39843 11.9814 9.504 12.2362 9.504 12.502C9.504 12.7677 9.39843 13.0226 9.21052 13.2105C9.02261 13.3984 8.76775 13.504 8.502 13.504C8.23612 13.504 7.98113 13.3984 7.79313 13.2104C7.60512 13.0224 7.4995 12.7674 7.4995 12.5015C7.4995 12.2356 7.60512 11.9806 7.79313 11.7926C7.98113 11.6046 8.23612 11.499 8.502 11.499M12 4.35299V11.003H19.442L17.72 9.27999C17.5927 9.15295 17.5153 8.9844 17.5019 8.80506C17.4885 8.62572 17.54 8.44754 17.647 8.30299L17.72 8.21899C17.8471 8.09212 18.0155 8.01508 18.1946 8.00187C18.3737 7.98866 18.5516 8.04015 18.696 8.14699L18.78 8.21899L21.777 11.217C21.904 11.344 21.9812 11.5123 21.9946 11.6914C22.008 11.8706 21.9567 12.0485 21.85 12.193L21.777 12.277L18.781 15.28C18.6472 15.4133 18.468 15.4912 18.2792 15.4981C18.0904 15.505 17.906 15.4404 17.7628 15.3173C17.6196 15.1941 17.5281 15.0215 17.5066 14.8338C17.4852 14.6462 17.5353 14.4573 17.647 14.305L17.719 14.221L19.432 12.504H12.001L12 19.25C11.9999 19.3594 11.9759 19.4675 11.9296 19.5667C11.8832 19.6659 11.8158 19.7537 11.7319 19.824C11.6481 19.8943 11.5498 19.9455 11.4441 19.9738C11.3384 20.0021 11.2278 20.007 11.12 19.988L2.62 18.487C2.44624 18.4564 2.28883 18.3656 2.17543 18.2304C2.06203 18.0952 1.99992 17.9244 2 17.748V5.74999C2 5.57223 2.06314 5.40025 2.17816 5.26472C2.29318 5.12918 2.45261 5.03891 2.628 5.00999L11.128 3.61399C11.2354 3.59629 11.3453 3.60217 11.4502 3.63121C11.555 3.66025 11.6523 3.71176 11.7353 3.78216C11.8182 3.85257 11.8849 3.94018 11.9306 4.03893C11.9763 4.13767 12 4.24418 12 4.35299ZM10.5 5.23699L3.5 6.38699V17.119L10.5 18.355V5.23699ZM13 18.5H13.765L13.867 18.493C14.0467 18.4683 14.2114 18.3793 14.3306 18.2425C14.4497 18.1058 14.5152 17.9304 14.515 17.749L14.508 13.499H13V18.5ZM13.002 9.99999L13 8.72499V4.99999H13.745C13.9261 4.99997 14.1011 5.06546 14.2376 5.18438C14.3742 5.3033 14.4631 5.46762 14.488 5.64699L14.495 5.74799L14.502 9.99999H13.002Z" fill="#FF543E"/>
</svg>
