<svg width="54" height="54" viewBox="0 0 54 54" fill="none" xmlns="http://www.w3.org/2000/svg">
<g clip-path="url(#clip0_1362_2657)">
<path d="M11.0975 54C10.8565 53.6644 10.5661 53.3534 10.402 52.9869C10.3251 52.8153 10.4189 52.4643 10.5635 52.3185C12.1746 50.6912 13.8092 49.0884 15.4386 47.4792C15.8684 47.0546 16.2865 46.6146 16.741 46.2158C17.1396 45.8661 17.1513 45.6132 16.7528 45.2247C14.0176 42.5547 11.2981 39.868 8.59154 37.1683C8.21773 36.7953 7.98459 36.8328 7.63814 37.1799C5.62193 39.193 3.5914 41.1894 1.56346 43.1909C1.39805 43.3535 1.22352 43.5084 1.01643 43.6994C0.758544 43.4632 0.551453 43.2464 0.315708 43.0658C-0.107592 42.738 -0.101079 42.4644 0.294868 42.0876C1.4215 41.0165 2.51296 39.908 3.62135 38.8175C5.68575 36.7876 7.75927 34.768 9.81325 32.7277C10.3069 32.2374 10.7771 32.0644 11.4192 32.4632C11.8373 32.7239 12.637 32.049 12.6435 31.4334C12.6591 30.1429 12.6735 28.8524 12.6383 27.5633C12.6214 26.9735 12.8297 26.5373 13.24 26.1386C14.3224 25.0894 15.4138 24.0454 16.448 22.9511C16.7111 22.6736 16.8101 22.222 16.9208 21.8323C16.9885 21.5935 16.9572 21.3174 16.9286 21.0618C16.8478 20.3147 17.12 19.7443 17.6749 19.2345C18.502 18.4757 19.2873 17.6692 20.0753 16.8691C20.6653 16.269 20.5625 15.5502 19.8943 15.065C19.7211 14.9385 19.5739 14.652 19.5726 14.4378C19.553 9.81404 19.5635 5.19155 19.5465 0.567774C19.5439 -0.114888 19.9946 0.0270643 20.3866 0.0128691C20.8164 -0.00261664 21.1994 -0.0348785 21.1928 0.61036C21.1681 3.38359 21.1824 6.15812 21.1824 8.93264C21.1824 9.5624 21.5098 9.87727 22.1645 9.87727C25.5939 9.87727 29.0232 9.86179 32.4513 9.89018C33.0882 9.89534 33.2588 9.69919 33.2523 9.08363C33.2211 6.3104 33.2666 3.53587 33.2185 0.762636C33.2054 -0.0103595 33.6053 0.0231929 34.1432 -3.56908e-05C34.7189 -0.0245547 34.9885 0.0761025 34.9833 0.756184C34.952 5.14251 34.9781 9.53013 34.9481 13.9165C34.9455 14.2688 34.7345 14.6946 34.4831 14.9553C34.0833 15.3695 33.9088 16.2845 34.2721 16.74C34.2995 16.7736 34.3282 16.8084 34.3633 16.8317C35.7088 17.7414 35.9758 19.0409 35.8312 20.5508C35.74 21.5096 35.8403 22.4852 35.8038 23.4518C35.7843 23.9912 35.9575 24.3848 36.347 24.7591C37.6703 26.0302 38.9558 27.3413 40.2791 28.6124C40.7805 29.0938 41.0606 29.6138 40.9863 30.3223C40.9447 30.7262 40.959 31.1405 40.9928 31.547C41.0528 32.258 41.437 32.4916 42.1104 32.2761C42.6157 32.1148 42.983 32.3625 43.3229 32.6994C44.8546 34.2182 46.3915 35.7333 47.9258 37.2496C49.7675 39.0691 51.6053 40.8913 53.4509 42.7057C54.1659 43.409 54.175 43.4026 53.4743 44.0878C53.3219 44.2375 53.1604 44.3769 52.9364 44.5808C50.3484 41.9572 47.7826 39.3556 45.1216 36.6585C41.984 40.0125 38.974 43.2284 35.8976 46.5178C36.6556 47.2753 37.3954 48.0186 38.1391 48.758C39.3179 49.9272 40.4758 51.1196 41.691 52.2501C42.2106 52.734 41.9293 52.9908 41.5776 53.3225C41.2455 53.6348 41.0098 54.0025 40.4862 53.4773C37.5973 50.5737 34.6759 47.7024 31.761 44.8247C31.3703 44.4388 31.1866 44.0272 31.4432 43.4981C31.7258 42.9148 31.3364 42.1818 30.6787 42.1043C29.9506 42.0192 29.2199 41.9534 28.4892 41.9224C28.3342 41.9159 28.1402 42.0643 28.0164 42.1921C26.628 43.6232 24.7915 43.3987 23.7952 41.6927C23.7014 41.5314 23.407 41.3933 23.2104 41.3985C22.4875 41.4204 21.7816 41.5365 21.4481 42.3186C21.9365 43.2993 21.9365 43.3884 21.1147 44.2027C17.9849 47.305 14.846 50.3982 11.7096 53.4941C11.5898 53.6128 11.4465 53.7096 11.091 53.9974L11.0975 54ZM20.4361 27.3658C20.4361 26.7515 20.427 26.216 20.4413 25.6817C20.4452 25.5204 20.4986 25.2301 20.5625 25.221C20.9831 25.1617 21.4195 25.1178 21.835 25.1759C21.9365 25.1901 22.046 25.5979 22.046 25.825C22.059 29.9971 22.0551 34.1692 22.0564 38.3413C22.0564 38.5775 22.0316 38.8252 22.0928 39.0459C22.2205 39.504 22.5135 39.7957 23.0397 39.7415C23.5255 39.6912 23.7639 39.3969 23.8069 38.9362C23.8264 38.7233 23.8173 38.5065 23.8173 38.291C23.8173 34.7422 23.816 31.1934 23.8225 27.6458C23.8225 27.4187 23.8577 27.0096 23.9332 26.9954C24.3695 26.918 24.8306 26.8806 25.2643 26.9516C25.3829 26.9709 25.5014 27.4058 25.5027 27.651C25.517 31.7367 25.5118 35.8236 25.5157 39.9093C25.5157 40.188 25.5248 40.4693 25.573 40.7429C25.6525 41.1997 25.9442 41.4991 26.4131 41.4785C26.8768 41.4578 27.149 41.1417 27.2063 40.6835C27.2389 40.4293 27.2363 40.1686 27.2363 39.9105C27.2376 35.8249 27.2363 31.738 27.2428 27.6523C27.2428 27.4278 27.2831 27.0277 27.3704 27.0084C27.8041 26.9141 28.2691 26.8625 28.7028 26.9296C28.8266 26.949 28.9516 27.4161 28.9529 27.6781C28.9685 31.5276 28.9633 35.3771 28.9646 39.2266C28.9646 39.4421 28.8982 39.6963 28.9907 39.8628C29.1457 40.139 29.3697 40.499 29.6276 40.5596C29.8816 40.619 30.2996 40.4216 30.4859 40.2022C30.6669 39.9893 30.7034 39.6073 30.7047 39.2989C30.7177 35.4068 30.7255 31.5134 30.7008 27.6213C30.6969 27.0135 30.8988 26.8393 31.4888 26.8587C32.028 26.8767 32.3771 26.8883 32.3653 27.6046C32.3224 30.0771 32.3471 32.5509 32.3497 35.0235C32.3497 35.8843 32.7157 36.434 33.2666 36.4146C33.8059 36.3953 34.0872 35.9281 34.0872 35.039C34.0872 29.921 34.0807 24.8016 34.0976 19.6836C34.0989 19.1481 33.9973 18.7157 33.548 18.3905C32.6232 17.7221 32.2533 16.82 32.4187 15.6986C32.4318 15.6147 32.4539 15.4986 32.4096 15.4457C32.269 15.2766 32.1009 14.9953 31.942 14.994C28.8161 14.9682 25.6902 14.9772 22.5656 14.9734C22.1671 14.9734 22.0277 15.1605 22.0538 15.5334C22.072 15.7902 22.0264 16.0535 22.0616 16.3064C22.1554 16.9904 21.8857 17.4885 21.383 17.9453C20.6159 18.6422 19.9138 19.4074 19.1545 20.112C18.7885 20.4514 18.6596 20.8205 18.67 21.3083C18.6973 22.5549 18.6791 23.8028 18.6791 25.0507C18.6791 25.9411 19.4267 26.9683 20.4361 27.3619V27.3658ZM16.7541 25.0004C16.0442 25.7295 15.3682 26.3825 14.7483 27.0858C14.5425 27.3194 14.3927 27.6755 14.3758 27.984C14.3276 28.8847 14.2963 29.7945 14.3758 30.6901C14.4761 31.8489 14.2273 32.8039 13.1931 33.4698C12.805 33.7201 12.8532 33.9873 13.1801 34.297C14.1192 35.1887 15.0335 36.1075 15.9622 37.0121C17.2438 38.2626 18.5215 39.5182 19.8253 40.7468C19.9633 40.8771 20.302 40.9326 20.4713 40.8552C20.608 40.7932 20.7044 40.4745 20.6875 40.2809C20.6432 39.7776 20.4596 39.2808 20.4504 38.7801C20.4192 36.9747 20.4426 35.1693 20.4361 33.3627C20.4322 32.267 20.707 31.054 20.3176 30.1107C19.9308 29.1712 18.8706 28.504 18.106 27.7181C18.0904 27.7026 18.08 27.6833 18.0643 27.6691C17.3558 27.0626 16.7554 26.4044 16.9221 25.3682C16.9325 25.3011 16.8596 25.2198 16.7567 24.9978L16.7541 25.0004ZM36.0891 26.7916C36.0227 26.8135 35.9549 26.8354 35.8885 26.8561C35.8664 27.1 35.8247 27.3439 35.8234 27.5891C35.8182 30.1442 35.7908 32.6994 35.8299 35.2545C35.8546 36.8663 34.6004 38.2587 32.9918 38.0174C32.4487 37.9361 32.3484 38.2071 32.3367 38.6846C32.3211 39.3182 32.3067 39.9828 32.1075 40.5738C31.8899 41.2191 32.4031 41.3623 32.6727 41.6566C32.9905 42.005 33.208 41.6475 33.4021 41.4423C35.0145 39.7376 36.6244 38.0303 38.2264 36.3153C38.9584 35.532 39.6721 34.7306 40.4002 33.9305C40.3182 33.7988 40.2817 33.6827 40.2023 33.6246C39.2567 32.9213 39.0978 31.9509 39.2215 30.8733C39.2462 30.6617 39.2436 30.441 39.2137 30.2307C39.1902 30.0681 39.1486 29.8732 39.0418 29.7635C38.0662 28.7634 37.075 27.7801 36.0878 26.7916H36.0891ZM43.7554 35.5423C43.5313 35.3061 43.3347 35.088 43.1263 34.8815C42.4555 34.2144 42.4607 34.2221 41.8433 34.8893C39.3088 37.6212 36.7651 40.3428 34.2357 43.0787C33.2263 44.1704 33.1468 43.8 34.3008 44.9744C34.5717 45.2492 34.7775 45.2647 35.0523 44.9692C37.8526 41.9547 40.662 38.9491 43.4675 35.9397C43.5639 35.8352 43.6368 35.7087 43.7567 35.5436L43.7554 35.5423ZM19.7445 43.1948C19.5244 42.9445 19.3798 42.7599 19.2144 42.5973C16.6681 40.0783 14.1192 37.5593 11.569 35.0442C10.5635 34.0518 10.7966 34.1408 9.77938 35.0583C9.37171 35.4261 9.38734 35.6623 9.77678 36.0417C12.4976 38.6949 15.1924 41.3739 17.9106 44.031C18.0813 44.1975 18.4837 44.3975 18.5814 44.324C19.0008 44.0091 19.346 43.5987 19.7445 43.1948ZM27.2884 11.5717C25.5092 11.5717 23.7313 11.591 21.9535 11.5613C21.2827 11.5497 21.1746 11.8633 21.1707 12.4337C21.1668 13.017 21.3022 13.297 21.9613 13.2932C25.4753 13.2712 28.9894 13.2661 32.5021 13.2957C33.2054 13.3022 33.2562 12.9693 33.2575 12.4247C33.2575 11.8736 33.195 11.5407 32.4943 11.5588C30.7607 11.6026 29.0245 11.573 27.2897 11.573L27.2884 11.5717Z" fill="#E68531"/>
<path d="M36.8399 8.07324C39.5477 9.3934 41.87 11.0155 43.8354 13.1151C46.1317 15.567 47.8262 18.3674 48.9228 21.5445C49.9505 24.5242 50.2787 27.5775 50.0482 30.6888C49.9531 31.9664 49.6353 33.2272 49.4139 34.4958C49.3448 34.8906 49.1195 35.0545 48.7144 34.9216C48.3888 34.8145 48.0619 34.71 47.6712 34.5835C47.7793 34.0454 47.8783 33.5072 47.9981 32.9717C48.717 29.7391 48.5829 26.5335 47.692 23.3512C45.9923 17.2769 42.3011 12.8041 36.6732 9.88765C36.2681 9.6773 36.0389 9.45405 36.3554 8.98948C36.5429 8.71461 36.6706 8.39844 36.8399 8.07324Z" fill="#E68531"/>
<path d="M17.0641 7.91194C17.3637 8.49265 17.6098 8.85398 17.7257 9.25274C17.77 9.4076 17.5681 9.7457 17.3936 9.83087C13.8522 11.5717 11.0545 14.1269 8.9198 17.4021C7.51314 19.5598 6.55844 21.9033 6.01141 24.4249C5.46177 26.9581 5.39665 29.4913 5.77306 32.0426C5.86684 32.6775 5.99969 33.3137 6.18985 33.9267C6.3266 34.3667 6.13124 34.5306 5.78218 34.6338C5.55555 34.7009 5.30287 34.7939 5.08536 34.7526C4.88608 34.7151 4.58391 34.5358 4.55786 34.3809C4.30649 32.8607 4.01995 31.338 3.90403 29.8049C3.70605 27.211 4.05511 24.6533 4.83919 22.1743C6.23152 17.7725 8.65931 14.0211 12.3166 11.1368C13.778 9.98444 15.3995 9.03207 17.0654 7.91064L17.0641 7.91194Z" fill="#E68531"/>
<path d="M18.1335 49.8266C18.1491 49.7285 18.1439 49.6601 18.1699 49.6059C18.786 48.3064 18.7691 48.3581 20.1627 48.8446C22.4915 49.6576 24.905 49.9634 27.3757 49.9299C29.319 49.9028 31.2167 49.6524 33.0688 49.0717C33.4309 48.9581 33.6432 49.0639 33.7643 49.4227C34.1446 50.5532 34.142 50.5222 32.9138 50.8538C29.8139 51.6901 26.6672 51.872 23.5126 51.3662C21.8793 51.1042 20.2916 50.5596 18.687 50.1273C18.4877 50.0731 18.3132 49.9286 18.1309 49.8279L18.1335 49.8266Z" fill="#E68531"/>
<path d="M13.7806 45.9809C13.4536 46.3087 13.1697 46.6623 12.8115 46.9114C12.7073 46.9836 12.37 46.781 12.1746 46.652C11.9806 46.5229 11.8334 46.3255 11.6628 46.1603C10.9438 45.4634 10.9607 45.4802 11.6393 44.7692C11.9936 44.3988 12.2632 44.3059 12.6253 44.7447C12.8845 45.0595 13.2049 45.3241 13.4927 45.617C13.58 45.7061 13.649 45.8132 13.7806 45.9822V45.9809Z" fill="#E68531"/>
<path d="M44.6634 42.9586C44.3235 42.5534 43.9939 42.236 43.7777 41.8553C43.7126 41.7404 43.9249 41.4243 44.0695 41.2488C44.2857 40.9842 44.5761 40.7803 44.7962 40.5183C45.1284 40.1222 45.3889 40.157 45.7431 40.5183C46.4517 41.2449 46.4699 41.2281 45.7158 41.9546C45.4123 42.2476 45.1049 42.5379 44.6647 42.9573L44.6634 42.9586Z" fill="#E68531"/>
<path d="M31.2867 7.61903C31.2867 8.42816 31.2841 8.39332 30.3867 8.44106C29.7616 8.47462 29.4854 8.32621 29.5349 7.63968C29.5961 6.77893 29.5532 6.77119 30.3972 6.77377C31.2568 6.77506 31.288 6.80474 31.2867 7.62032V7.61903Z" fill="#E68531"/>
</g>
<defs>
<clipPath id="clip0_1362_2657">
<rect width="54" height="54" fill="white"/>
</clipPath>
</defs>
</svg>
