<svg width="54" height="54" viewBox="0 0 54 54" fill="none" xmlns="http://www.w3.org/2000/svg">
<path d="M0.000245524 33.2835C0.0684489 30.0573 1.40816 26.1041 4.08027 22.6177C7.18839 18.5649 11.3147 16.1774 16.3228 15.2657C18.2885 14.9083 20.2664 14.8524 22.2394 15.1612C25.5375 15.679 28.5604 16.8825 31.2374 18.898C31.6174 19.1824 31.9852 19.4839 32.3457 19.7902C32.487 19.9094 32.5746 19.9385 32.7208 19.7902C33.5807 18.9223 34.4478 18.0592 35.3198 17.2034C35.5366 16.9919 35.5951 16.7877 35.5196 16.4789C35.0202 14.4245 34.5428 12.3628 34.0581 10.3036C33.9485 9.83921 34.0751 9.4575 34.4137 9.12199C37.3123 6.2337 40.2037 3.3381 43.1023 0.449804C43.6309 -0.0777722 44.2301 -0.150709 44.6856 0.272325C44.8586 0.432786 45.0023 0.675908 45.0583 0.906875C45.5576 2.95154 46.0399 5.00106 46.5125 7.05302C46.5807 7.34963 46.7049 7.47605 47.0143 7.54413C49.0263 7.98661 51.031 8.45098 53.0357 8.91777C53.7591 9.08553 54.105 9.53044 53.9734 10.1942C53.9199 10.4689 53.725 10.7461 53.5253 10.9527C52.5899 11.9155 51.6277 12.8539 50.6778 13.8045C48.7705 15.7131 46.8608 17.6167 44.9609 19.5325C44.5614 19.9361 44.1205 20.0795 43.5627 19.9458C41.5312 19.4571 39.4973 18.9855 37.4658 18.4968C37.2222 18.4385 37.0615 18.4701 36.8788 18.6524C32.3311 23.2061 27.7809 27.7574 23.2211 32.3013C22.9799 32.542 22.8995 32.7098 23.0408 33.0647C23.6083 34.504 23.3916 35.8558 22.349 37.0082C21.2992 38.1654 19.957 38.5447 18.459 38.1095C16.9731 37.6768 16.0767 36.6265 15.7771 35.1143C15.3728 33.0623 16.8416 31.0711 18.9705 30.7089C19.7208 30.58 20.4174 30.7356 21.097 31.0176C21.3016 31.1027 21.4064 31.0663 21.5622 30.9107C22.9166 29.5516 24.2831 28.2023 25.6471 26.8529C25.8907 26.6098 25.8859 26.5831 25.6082 26.3813C23.6303 24.942 21.4161 24.2929 18.9754 24.4071C14.9246 24.5992 11.3853 27.2249 10.0237 31.0347C8.2017 36.1402 10.6278 41.7053 15.6188 43.7889C20.7219 45.9186 26.6337 43.6114 28.8478 38.3843C29.8782 35.9506 29.905 33.4659 29.0135 30.9763C28.9282 30.7405 28.8332 30.4973 28.8137 30.2518C28.7821 29.8312 29.1547 29.3838 29.5956 29.2477C30.0292 29.114 30.5091 29.2574 30.7502 29.627C30.8744 29.819 30.9719 30.0354 31.0498 30.2518C32.3725 34.008 32.0363 37.6184 29.905 40.9808C27.6981 44.4623 24.4682 46.3806 20.3492 46.6966C16.9195 46.9616 13.8845 45.8773 11.3464 43.6017C9.0104 41.5059 7.65851 38.8462 7.30775 35.6977C6.74263 30.6286 9.68512 25.3748 14.7151 23.2158C17.6722 21.9467 20.6659 21.8908 23.6985 22.9387C24.9286 23.3641 26.0076 24.0424 27.0429 24.8034C27.4058 25.0708 27.4009 25.0636 27.72 24.7499C28.726 23.7556 29.7345 22.7636 30.7405 21.7692C31.0157 21.4969 31.0182 21.4872 30.721 21.2392C28.4167 19.3064 25.8079 17.9692 22.8338 17.4635C16.2132 16.3379 10.6497 18.3193 6.24329 23.3641C4.03399 25.895 2.73082 28.8782 2.33134 32.2284C1.75405 37.0787 2.88427 41.4841 5.98509 45.2865C8.80578 48.7461 12.4157 50.9756 16.8952 51.5858C21.7912 52.252 26.2975 51.2211 30.2046 48.114C33.8778 45.1917 36.1529 41.4136 36.7131 36.7237C37.1735 32.8775 36.5597 29.2039 34.5647 25.8221C34.4722 25.6665 34.3796 25.5085 34.3065 25.3431C34.0751 24.8204 34.2505 24.2564 34.7255 23.9744C35.2175 23.6826 35.7924 23.7701 36.1115 24.2758C36.5183 24.9225 36.8836 25.6009 37.2174 26.2889C38.0845 28.0929 38.6667 29.9989 38.9078 31.9755C39.4559 36.5049 38.5571 40.7571 36.1456 44.6422C33.3639 49.123 29.3837 52.0429 24.2733 53.3752C20.4174 54.3817 16.5956 54.1775 12.8663 52.7796C7.3589 50.713 3.51759 46.9203 1.33265 41.4743C0.428952 39.223 -0.0119336 36.8696 0.000245524 33.2835ZM43.4263 3.23599C43.285 3.36242 43.1924 3.43535 43.1096 3.52044C40.8833 5.73772 38.6594 7.955 36.4428 10.182C36.3526 10.272 36.299 10.4713 36.3283 10.5977C36.6401 12.003 36.9689 13.4058 37.2977 14.8086C37.3172 14.8913 37.3586 14.9691 37.4 15.0736C37.4731 15.0153 37.5218 14.9861 37.5608 14.9448C38.3573 14.1425 39.149 13.3353 39.9504 12.5354C41.3802 11.1107 42.8125 9.68361 44.2569 8.27106C44.4786 8.05468 44.5102 7.84317 44.442 7.56844C44.2252 6.66645 44.0182 5.76447 43.8063 4.86248C43.6845 4.34706 43.5651 3.82921 43.4263 3.23599ZM38.9054 16.5761C39.0126 16.6272 39.0467 16.6515 39.0832 16.6612C40.5666 17.0113 42.05 17.3639 43.5359 17.6994C43.6358 17.7212 43.7917 17.6556 43.8696 17.5778C46.0692 15.3921 48.2614 13.1992 50.4561 11.0086C50.5657 10.8992 50.668 10.785 50.8044 10.6415C50.6558 10.5977 50.5706 10.571 50.4829 10.5491C49.1091 10.2209 47.7328 9.89999 46.3615 9.55962C46.1496 9.50613 46.0131 9.52801 45.8548 9.68847C43.5578 11.9738 41.2511 14.2543 38.9078 16.5737L38.9054 16.5761Z" fill="#E68531"/>
</svg>
