<svg width="51" height="54" viewBox="0 0 51 54" fill="none" xmlns="http://www.w3.org/2000/svg">
<g clip-path="url(#clip0_1362_2669)">
<path d="M30.667 43.3565C28.4546 43.3565 26.2422 43.3565 24.0279 43.3565C22.5601 43.3565 21.3314 43.904 20.3166 44.9508C20.1941 45.0781 20.2077 45.2034 20.2369 45.3479C20.3613 45.9783 20.3691 46.6087 20.161 47.2218C19.9686 47.7905 19.6575 48.2936 19.2279 48.7216C18.0206 49.9265 16.8113 51.1275 15.604 52.3305C15.2347 52.6987 14.8711 53.0766 14.492 53.4371C13.693 54.1966 12.962 54.187 12.1746 53.4081C10.9751 52.2206 9.78141 51.0254 8.58189 49.8359C5.88734 47.162 3.19085 44.4901 0.494362 41.8181C-0.158861 41.1704 -0.174414 40.3973 0.474921 39.7476C2.10215 38.1225 3.72548 36.4916 5.37604 34.8896C6.46669 33.8312 7.77119 33.6056 9.20206 34.0934C9.4198 34.1666 9.4859 34.0644 9.57727 33.9199C10.6077 32.2697 11.9588 30.9375 13.6502 29.9563C15.8548 28.6762 18.2247 28.1133 20.7773 28.3851C22.0332 28.5181 23.2269 28.8786 24.3448 29.4608C25.0349 29.8194 25.7543 29.9756 26.5319 29.9717C29.3917 29.9601 32.2496 29.9678 35.1094 29.9659C36.1203 29.9659 37.0574 30.1953 37.8836 30.8045C38.1422 30.9954 38.148 30.9819 38.4377 30.7043C39.7344 29.4666 41.037 28.2309 42.3317 26.9913C42.948 26.4014 43.5546 25.8018 44.1631 25.2061C45.0593 24.329 46.115 23.8605 47.3903 23.9531C49.1245 24.0803 50.6759 25.5011 50.9442 27.213C51.1114 28.2868 50.8897 29.2719 50.1996 30.1259C49.0681 31.5255 47.9191 32.9116 46.7818 34.3054C45.2421 36.1908 43.7062 38.0782 42.1684 39.9655C41.6202 40.6383 41.0681 41.3072 40.5218 41.982C39.7558 42.9266 38.7643 43.3719 37.5453 43.3681C35.2513 43.3604 32.9572 43.3661 30.6651 43.3661C30.6651 43.3642 30.6651 43.3604 30.6651 43.3584L30.667 43.3565ZM30.6651 41.1723V41.1762C32.9903 41.1762 35.3174 41.1723 37.6425 41.18C38.1538 41.18 38.5621 41.0104 38.8868 40.6113C39.958 39.2869 41.0389 37.9721 42.1159 36.6516C43.7062 34.7045 45.2946 32.7555 46.8849 30.8064C47.4234 30.1471 47.995 29.511 48.4965 28.8266C49.2489 27.801 48.6715 26.3995 47.4214 26.1546C46.7779 26.0293 46.2297 26.2221 45.7612 26.6713C44.793 27.6024 43.819 28.5278 42.8508 29.4589C41.7019 30.5635 40.5568 31.6682 39.4156 32.7786C39.3475 32.8441 39.2795 32.9752 39.2989 33.0562C39.678 34.6177 38.9218 36.2795 37.6464 37.0911C36.8571 37.5943 35.9861 37.7485 35.0607 37.7446C32.549 37.7311 30.0372 37.7408 27.5254 37.7389C27.2104 37.7389 26.8916 37.7504 26.5825 37.7099C26.1684 37.654 25.867 37.4111 25.729 37.0179C25.5871 36.6072 25.6609 36.2294 25.9856 35.9152C26.2403 35.6684 26.5533 35.5971 26.8955 35.599C29.5453 35.599 32.1932 35.599 34.843 35.599C35.1405 35.599 35.4437 35.6028 35.7373 35.5624C36.4275 35.464 36.9115 35.0843 37.1332 34.423C37.3587 33.7502 37.2246 33.141 36.7055 32.6379C36.3186 32.2639 35.8403 32.1443 35.3096 32.1443C32.3701 32.1521 29.4306 32.1443 26.4911 32.154C25.5035 32.1559 24.5722 31.9535 23.6935 31.5043C21.4247 30.3418 19.0568 30.1818 16.65 30.9587C14.249 31.7318 12.4215 33.2413 11.1909 35.4428C11.1151 35.5778 11.1889 35.626 11.2648 35.7012C13.6113 38.03 15.9559 40.3588 18.3005 42.6876C18.4658 42.8514 18.6369 43.0114 18.8021 43.1753C18.8993 43.2717 18.981 43.2794 19.0859 43.1734C20.4663 41.7911 22.1382 41.1511 24.0998 41.1762C26.2889 41.2051 28.476 41.1819 30.6651 41.1819V41.1723ZM13.4305 51.4842C13.4849 51.4225 13.5724 51.3087 13.6735 51.2066C15.0033 49.886 16.337 48.5674 17.6687 47.2507C17.9078 47.0136 18.0867 46.7437 18.1431 46.4063C18.2461 45.801 17.9953 45.3422 17.5734 44.9277C16.0687 43.451 14.5756 41.9646 13.0786 40.4821C11.7061 39.125 10.3355 37.7659 8.96099 36.4106C8.69076 36.1446 8.35054 36.0385 7.97532 36.0154C7.39986 35.9807 7.00326 36.2872 6.62999 36.6612C5.5199 37.7697 4.40592 38.8724 3.29583 39.9809C3.04115 40.2354 2.79814 40.5033 2.54152 40.7732C6.14785 44.3204 9.77363 47.8869 13.4305 51.4842Z" fill="#E68531"/>
<path d="M44.4381 7.67843C44.2068 12.3302 42.6826 16.6293 39.9239 20.5061C38.1781 22.9583 36.0201 24.9998 33.59 26.7715C32.9717 27.2207 32.3729 27.6969 31.7625 28.1576C31.1404 28.6261 30.7204 28.628 30.1022 28.1537C28.8191 27.1686 27.5088 26.2163 26.2665 25.1849C23.846 23.1742 21.8844 20.776 20.3564 18.0366C19.1685 15.9083 18.3714 13.6334 17.8951 11.2468C17.6132 9.83758 17.4577 8.41678 17.4188 6.98056C17.4013 6.3386 17.6618 5.91641 18.2645 5.64266C21.5811 4.14475 24.8881 2.62756 28.1989 1.11615C28.9163 0.788423 29.6376 0.46455 30.3491 0.127183C30.7535 -0.0636711 31.1326 -0.0386095 31.5311 0.146461C32.9426 0.798062 34.3579 1.4381 35.7732 2.07813C37.8709 3.02661 39.9725 3.96932 42.0682 4.91973C42.6262 5.17227 43.1725 5.44602 43.7246 5.71013C44.1971 5.93761 44.4576 6.29426 44.4401 6.83212C44.4323 7.08081 44.4401 7.32757 44.4401 7.67265L44.4381 7.67843ZM42.2257 7.73627C42.3054 7.49336 42.1791 7.316 41.8777 7.23889C41.7941 7.21768 41.7183 7.1637 41.6366 7.12708C38.2208 5.57519 34.8031 4.02715 31.395 2.46177C31.0607 2.30754 30.7904 2.31525 30.4638 2.46562C27.8023 3.68978 25.135 4.90238 22.4677 6.11497C21.5734 6.52174 20.6791 6.92466 19.7828 7.32371C19.6545 7.38155 19.602 7.4548 19.6156 7.59746C19.6545 8.06014 19.6662 8.52474 19.7129 8.98742C19.882 10.6261 20.2903 12.2088 20.8288 13.7645C21.9311 16.9493 23.7391 19.6926 26.0857 22.1004C27.5049 23.5578 29.169 24.728 30.7788 25.9599C30.9032 26.0544 30.9965 26.0486 31.119 25.9503C31.5 25.6418 31.8888 25.3411 32.2796 25.0442C33.6774 23.982 35.0519 22.8985 36.2476 21.603C38.0867 19.6116 39.5448 17.3888 40.6004 14.8981C41.5628 12.6233 42.1071 10.2617 42.2257 7.73627Z" fill="#E68531"/>
<path d="M9.3205 39.9154C9.31661 40.6094 8.76837 41.1608 8.08404 41.1589C7.41527 41.1589 6.8087 40.5535 6.81648 39.8942C6.82426 39.258 7.42693 38.672 8.07238 38.67C8.73532 38.67 9.32633 39.258 9.32245 39.9135L9.3205 39.9154Z" fill="#E68531"/>
<path d="M30.6836 15.3358C30.9869 15.0254 31.2746 14.7247 31.572 14.4297C33.2206 12.7911 34.8693 11.1544 36.5198 9.51764C36.617 9.42125 36.7162 9.32679 36.825 9.24389C37.3227 8.86411 37.9371 8.91038 38.3512 9.35571C38.738 9.77211 38.74 10.3601 38.3103 10.8093C37.6649 11.4821 36.9961 12.1337 36.3332 12.7891C34.8381 14.2736 33.3412 15.756 31.8442 17.2385C31.7412 17.3407 31.6362 17.441 31.5273 17.5354C30.9577 18.0347 30.3492 18.0386 29.7971 17.5181C29.3052 17.0554 28.8347 16.5696 28.3545 16.0953C27.6877 15.4322 27.015 14.7748 26.356 14.102C25.8933 13.6297 25.8622 13.0282 26.2529 12.5887C26.6534 12.1395 27.2833 12.0759 27.746 12.4653C28.0357 12.7082 28.2962 12.9839 28.5645 13.248C29.2585 13.9285 29.9487 14.6129 30.6797 15.3339L30.6836 15.3358Z" fill="#E68531"/>
</g>
<defs>
<clipPath id="clip0_1362_2669">
<rect width="51" height="54" fill="white"/>
</clipPath>
</defs>
</svg>
