<svg width="36" height="36" viewBox="0 0 36 36" fill="none" xmlns="http://www.w3.org/2000/svg">
<path d="M32.25 18H29.0835M29.0835 18C29.0835 20.9397 27.9164 23.7583 25.8377 25.837C23.759 27.9157 20.9397 29.0835 18 29.0835M29.0835 18C29.0835 15.0603 27.9164 12.2402 25.8377 10.1615C23.759 8.0828 20.9397 6.9165 18 6.9165M18 3.75V6.9165M18 6.9165C15.0605 6.9165 12.2413 8.08272 10.1628 10.1613C8.08422 12.2398 6.9165 15.059 6.9165 17.9985C6.9165 20.938 8.08422 23.7572 10.1628 25.8357C12.2413 27.9143 15.0605 29.0835 18 29.0835M3.75 18H6.9165M18 32.25V29.0835" stroke="white" stroke-width="1.5" stroke-miterlimit="10" stroke-linecap="round"/>
<path d="M18 24.333C19.6796 24.333 21.2904 23.6658 22.4781 22.4781C23.6658 21.2904 24.333 19.6796 24.333 18C24.333 16.3204 23.6658 14.7096 22.4781 13.5219C21.2904 12.3342 19.6796 11.667 18 11.667C16.3204 11.667 14.7096 12.3342 13.5219 13.5219C12.3342 14.7096 11.667 16.3204 11.667 18C11.667 19.6796 12.3342 21.2904 13.5219 22.4781C14.7096 23.6658 16.3204 24.333 18 24.333Z" stroke="white" stroke-width="1.5" stroke-miterlimit="10" stroke-linecap="round"/>
</svg>
