<svg width="16" height="16" viewBox="0 0 16 16" fill="none" xmlns="http://www.w3.org/2000/svg">
<g clip-path="url(#clip0_845_2878)">
<path d="M10.857 12V14.2857C10.857 14.5888 10.7366 14.8795 10.5223 15.0938C10.3079 15.3082 10.0173 15.4286 9.71415 15.4286H1.71415C1.41104 15.4286 1.12035 15.3082 0.906024 15.0938C0.691697 14.8795 0.571289 14.5888 0.571289 14.2857V1.7143C0.571289 1.41119 0.691697 1.1205 0.906024 0.906177C1.12035 0.691849 1.41104 0.571442 1.71415 0.571442H9.71415C10.0173 0.571442 10.3079 0.691849 10.5223 0.906177C10.7366 1.1205 10.857 1.41119 10.857 1.7143V4.00001M7.42843 8.00001H15.4284M15.4284 8.00001L13.1427 5.7143M15.4284 8.00001L13.1427 10.2857" stroke="#152B52" stroke-linecap="round" stroke-linejoin="round"/>
</g>
<defs>
<clipPath id="clip0_845_2878">
<rect width="16" height="16" fill="white"/>
</clipPath>
</defs>
</svg>
