<svg width="36" height="36" viewBox="0 0 36 36" fill="none" xmlns="http://www.w3.org/2000/svg">
<path d="M10.5 18L25.5 18M10.5 12L25.5 12M10.5 24L25.5 24M9 31.5C7.80653 31.5 6.66193 31.0259 5.81802 30.182C4.97411 29.3381 4.5 28.1935 4.5 27L4.5 9C4.5 7.80653 4.9741 6.66193 5.81802 5.81802C6.66193 4.97411 7.80652 4.5 9 4.5L27 4.5C28.1935 4.5 29.3381 4.9741 30.182 5.81802C31.0259 6.66193 31.5 7.80652 31.5 9L31.5 27C31.5 28.1935 31.0259 29.3381 30.182 30.182C29.3381 31.0259 28.1935 31.5 27 31.5L9 31.5Z" stroke="#152B52" stroke-width="2" stroke-linecap="round" stroke-linejoin="round"/>
</svg>
