<svg width="57" height="59" viewBox="0 0 57 59" fill="none" xmlns="http://www.w3.org/2000/svg">
<g clip-path="url(#clip0_172_340)">
<path d="M19.6295 27.0662H20.0252C23.9487 27.0662 27.8746 27.0662 31.7981 27.0662C32.2375 27.0662 32.6163 27.19 32.8542 27.5906C33.0897 27.9888 32.9538 28.3481 32.7231 28.6905C32.0894 29.6374 31.4582 30.5842 30.8124 31.5238C28.3893 35.0589 25.9639 38.5939 23.536 42.124C22.526 43.5929 21.499 45.0521 20.4889 46.5234C20.4064 46.6448 20.3724 46.8196 20.37 46.9701C20.3627 50.2575 20.3651 53.5424 20.3651 56.8298C20.3651 57.2814 20.2462 57.6699 19.8261 57.9029C19.428 58.1239 19.0686 57.9952 18.7214 57.7621C17.5706 56.9949 16.4198 56.2277 15.269 55.4605C14.5892 55.0065 13.9118 54.5452 13.2247 54.1033C12.7852 53.8192 12.5886 53.438 12.591 52.916C12.6007 50.93 12.5983 48.944 12.5886 46.958C12.5886 46.7905 12.5279 46.6011 12.4332 46.4627C8.81561 41.1772 5.19319 35.8989 1.57077 30.6182C1.14346 29.9943 0.713719 29.3727 0.283981 28.7487C0.0363353 28.3918 -0.128762 28.0204 0.109172 27.5979C0.344678 27.1803 0.737998 27.0638 1.18959 27.0638C4.96254 27.0638 8.73549 27.0638 12.5084 27.0711C12.7634 27.0711 12.8629 27.0055 12.9285 26.7482C13.3922 24.903 13.8899 23.0675 14.3488 21.2223C14.6377 20.0544 15.3539 19.3285 16.4805 18.9643C17.7187 18.5637 18.9521 18.1461 20.1903 17.7504C20.4113 17.68 20.4671 17.5877 20.4282 17.3643C20.2874 16.5607 20.166 15.7546 20.0325 14.951C19.9038 14.1741 20.1855 13.7613 20.9721 13.6302C22.0768 13.4457 23.1839 13.2685 24.2935 13.1082C24.5897 13.067 24.6722 12.948 24.5994 12.6736C24.5557 12.5085 24.5314 12.3386 24.5047 12.1686C24.4124 11.5252 24.7256 11.0858 25.3666 10.979C26.0051 10.8721 26.6412 10.7604 27.2822 10.6852C27.6585 10.6415 27.9159 10.4812 28.1587 10.185C29.5766 8.46366 30.9945 6.74228 32.4561 5.05732C33.8642 3.43063 35.6706 2.48617 37.795 2.1487C41.4757 1.56357 45.1564 0.983304 48.8371 0.400609C49.5752 0.28407 50.3132 0.160247 51.0489 0.0388521C52.5663 -0.213649 54.0692 0.806068 54.346 2.33807C54.6398 3.96234 54.8777 5.59631 55.1375 7.22786C55.5745 9.97138 55.9945 12.7198 56.4558 15.4609C56.6646 16.7064 56.4243 17.7601 55.4045 18.5734C54.8267 19.0347 54.1275 19.1464 53.4258 19.2557C51.1703 19.6077 48.9148 19.9622 46.6617 20.3167C43.8987 20.7512 41.1334 21.1858 38.3704 21.6204C36.0056 21.9943 33.6433 22.3731 31.2785 22.7446C28.9138 23.1185 26.549 23.4875 24.1842 23.8565C23.6161 23.9464 23.0455 24.0313 22.4774 24.1212C22.0768 24.1843 21.7563 24.0508 21.5402 23.7109C21.4455 23.5603 21.3557 23.5482 21.193 23.587C20.5181 23.74 20.1175 24.1139 20.0155 24.8253C19.9257 25.4614 19.7703 26.0902 19.6465 26.7215C19.627 26.8186 19.6295 26.9205 19.6198 27.0662H19.6295ZM6.0988 33.8522C6.21776 34.0294 6.31002 34.1727 6.40471 34.3111C8.99771 38.084 11.5883 41.857 14.1837 45.6275C14.4265 45.9795 14.5527 46.3461 14.5503 46.7832C14.5357 48.6672 14.5479 50.5537 14.5406 52.4377C14.5406 52.6295 14.5916 52.7437 14.7591 52.8529C15.7813 53.5206 16.7961 54.2004 17.8134 54.8778C18.0028 55.004 18.1946 55.1279 18.4301 55.2857C18.4301 55.123 18.4301 55.0162 18.4301 54.9093C18.4301 52.2896 18.4447 49.6675 18.4179 47.0478C18.4107 46.4287 18.5806 45.9261 18.9278 45.4235C21.5038 41.7016 24.0628 37.9675 26.6242 34.2358C26.6995 34.1241 26.7651 34.0051 26.8549 33.857H6.10122L6.0988 33.8522ZM54.6082 15.9634C54.5232 15.405 54.4091 14.6281 54.2853 13.8536C53.7414 10.423 53.1952 6.99478 52.6489 3.56416C52.6197 3.3845 52.576 3.20726 52.559 3.02759C52.4959 2.28466 52.0371 1.80879 51.0707 1.97146C49.5072 2.23124 47.9388 2.47161 46.3728 2.71925C43.7482 3.13442 41.1309 3.58116 38.5015 3.94777C36.4645 4.23183 34.833 5.12773 33.5413 6.72771C32.223 8.36169 30.8366 9.93739 29.494 11.5495C29.3993 11.6612 29.3483 11.8627 29.3678 12.0084C29.5523 13.2636 29.7562 14.5164 29.9577 15.7692C30.2175 17.3886 30.4797 19.0104 30.7347 20.6299C30.7662 20.8289 30.8245 20.8921 31.0503 20.8556C32.745 20.5764 34.4421 20.3167 36.1367 20.0496C38.5112 19.6757 40.8857 19.3042 43.2578 18.9303C45.1321 18.6366 47.0089 18.3428 48.8832 18.0466C50.5099 17.7892 52.1366 17.5343 53.7584 17.2648C54.3751 17.1628 54.647 16.7962 54.6033 15.9659L54.6082 15.9634ZM2.79443 29.0207C2.84784 29.1154 2.88183 29.1858 2.92553 29.2489C3.46695 30.038 4.02052 30.8222 4.5498 31.621C4.69547 31.8419 4.85328 31.9147 5.1155 31.9147C12.71 31.9074 20.3044 31.9099 27.8965 31.9099C27.9572 31.9099 28.0227 31.9269 28.0761 31.905C28.1611 31.8735 28.2679 31.837 28.3165 31.7691C28.8798 30.9581 29.4357 30.1399 29.9917 29.3242C30.05 29.2368 30.0937 29.1396 30.1593 29.0231H2.79443V29.0207ZM17.6532 27.0516C17.8668 26.0076 18.0538 24.9976 18.2868 23.9998C18.5126 23.0286 19.1342 22.3707 20.0519 21.9943C20.2947 21.8948 20.5448 21.8147 20.7973 21.7418C21.0255 21.6763 21.1493 21.5816 21.0571 21.3121C20.9988 21.1446 21.0037 20.9552 20.9721 20.7755C20.9041 20.3749 20.8313 19.9743 20.756 19.5494C19.5154 19.9598 18.3257 20.3652 17.1263 20.7464C16.6043 20.9115 16.3057 21.2247 16.1721 21.7613C15.7473 23.4681 15.2932 25.17 14.8538 26.872C14.8392 26.9254 14.8417 26.9837 14.8344 27.0492H17.658L17.6532 27.0516ZM24.9636 14.9607C24.7936 14.9704 24.6504 14.968 24.512 14.9898C23.803 15.0991 23.0989 15.2278 22.3876 15.3176C22.1035 15.354 22.0452 15.4439 22.0889 15.7182C22.4191 17.7649 22.7396 19.8117 23.0504 21.8608C23.0819 22.0623 23.1499 22.1109 23.3393 22.0793C24.1356 21.9458 24.932 21.8147 25.7308 21.703C25.959 21.6714 26.0051 21.5962 25.9687 21.3704C25.6264 19.246 25.2986 17.1215 24.9611 14.9607H24.9636ZM28.9016 21.2101C28.4403 18.3136 27.9863 15.4584 27.5299 12.5789C27.2846 12.6129 27.0855 12.6518 26.8865 12.6615C26.6097 12.6761 26.5368 12.7829 26.583 13.0645C26.9302 15.2011 27.2604 17.3401 27.5978 19.479C27.6949 20.0933 27.7993 20.7051 27.9013 21.3388C28.2339 21.2951 28.5326 21.2587 28.8992 21.2101H28.9016Z" fill="black"/>
<path d="M52.3868 14.6645C52.3819 15.1185 52.1051 15.4875 51.6317 15.5871C50.9713 15.7255 50.3012 15.8226 49.6335 15.9294C46.9701 16.3519 44.3092 16.7743 41.6458 17.1919C40.5192 17.3692 39.3927 17.544 38.2637 17.7066C37.5912 17.8037 37.1881 17.5294 37.0692 16.8593C36.8701 15.7303 36.7001 14.5941 36.5205 13.4627C36.2267 11.6247 35.9353 9.78683 35.6416 7.94648C35.6222 7.82751 35.6076 7.70855 35.5906 7.58715C35.4789 6.77138 35.746 6.39263 36.5617 6.26152C38.237 5.99202 39.9122 5.73709 41.5875 5.47245C43.5711 5.15925 45.5571 4.84606 47.5407 4.53286C48.2788 4.41632 49.0144 4.29249 49.7549 4.1881C50.3449 4.10555 50.7285 4.36048 50.8523 4.96502C50.9956 5.67397 51.0879 6.39505 51.202 7.10886C51.5783 9.47363 51.9546 11.8408 52.3285 14.2056C52.3528 14.3658 52.3698 14.5261 52.3868 14.662V14.6645ZM49.1383 6.22996C48.9125 6.25909 48.7158 6.28094 48.5191 6.31008C45.1079 6.84422 41.6943 7.37835 38.2831 7.91735C37.5717 8.02903 37.5815 8.03631 37.7004 8.76225C38.0015 10.6317 38.2904 12.5012 38.589 14.3707C38.6595 14.8126 38.742 15.252 38.8197 15.6939C38.9338 15.6866 38.9945 15.6866 39.0552 15.6769C41.0388 15.3637 43.0248 15.0481 45.0084 14.7325C46.6934 14.4654 48.3808 14.2032 50.0657 13.9361C50.226 13.9118 50.3741 13.9191 50.3304 13.652C50.0439 11.9452 49.7792 10.2336 49.5049 8.52432C49.3835 7.77167 49.2645 7.01902 49.1358 6.2251L49.1383 6.22996Z" fill="black"/>
<path d="M48.8252 10.5298C48.8203 12.0788 47.7084 13.3728 46.2977 13.4894C45.7903 13.5306 45.2586 13.3825 44.7487 13.2709C43.6999 13.0402 42.6972 12.6639 41.7503 12.1589C40.9709 11.7437 40.8544 11.0542 41.5196 10.4836C42.4447 9.68971 43.394 8.91764 44.3918 8.21597C45.3193 7.5653 46.356 7.54587 47.3417 8.11643C48.3056 8.67242 48.7791 9.55375 48.8252 10.5298ZM43.8286 10.9401C43.9136 11.0032 43.967 11.0736 44.0349 11.093C44.6443 11.263 45.2489 11.4524 45.868 11.5738C46.0622 11.6126 46.3317 11.5106 46.5017 11.3868C46.8974 11.0979 46.9727 10.5225 46.7226 10.1073C46.5114 9.75769 46.0355 9.56589 45.6762 9.71156C44.9891 9.9932 44.404 10.4326 43.8261 10.9401H43.8286Z" fill="black"/>
</g>
<defs>
<clipPath id="clip0_172_340">
<rect width="56.536" height="58.017" fill="white"/>
</clipPath>
</defs>
</svg>
