<svg width="31" height="36" viewBox="0 0 31 36" fill="none" xmlns="http://www.w3.org/2000/svg">
<g clip-path="url(#clip0_230_1673)">
<path d="M26.2974 2.80218C24.61 0.908959 21.5599 0.0972901 17.6579 0.0972901H6.33324C5.94715 0.0972314 5.57372 0.232792 5.2801 0.479588C4.98649 0.726383 4.79197 1.06822 4.73153 1.44359L0.0161428 30.8834C-0.0775838 31.4639 0.379061 31.9896 0.976779 31.9896H7.96825L9.72411 21.0262L9.66961 21.3695C9.79471 20.5945 10.468 20.0229 11.2653 20.0229H14.5876C21.1143 20.0229 26.2248 17.4133 27.7177 9.86414C27.762 9.64087 27.8004 9.42356 27.8336 9.21125C27.6451 9.11303 27.6451 9.11303 27.8336 9.21125C28.2781 6.42101 27.8305 4.52171 26.2974 2.80218Z" fill="#27346A"/>
<path d="M12.3993 8.20611C12.5904 8.11638 12.7995 8.06994 13.0112 8.07022H21.8895C22.9409 8.07022 23.9215 8.13757 24.8176 8.27954C25.0683 8.31893 25.3178 8.36592 25.5656 8.42044C25.9168 8.49675 26.264 8.59012 26.6058 8.70022C27.0463 8.84505 27.4566 9.01373 27.8337 9.21125C28.2781 6.41994 27.8305 4.52171 26.2974 2.80218C24.6091 0.908959 21.5599 0.09729 17.6579 0.09729H6.33227C5.53487 0.09729 4.8565 0.66876 4.73153 1.44359L0.0161434 30.8823C-0.0775831 31.4638 0.379061 31.9888 0.975811 31.9888H7.96825L11.6111 9.24797C11.647 9.02445 11.7374 8.81286 11.8747 8.63137C12.012 8.44989 12.192 8.30395 12.3993 8.20611Z" fill="#27346A"/>
<path d="M27.7176 9.86413C26.2247 17.4122 21.1143 20.0229 14.5875 20.0229H11.2642C10.4669 20.0229 9.79352 20.5945 9.66964 21.3695L7.48523 35.0012C7.40361 35.5092 7.80274 35.9696 8.3249 35.9696H14.2185C14.5561 35.9695 14.8826 35.8509 15.1393 35.635C15.396 35.4191 15.566 35.1201 15.6187 34.7919L15.6761 34.4962L16.7869 27.5661L16.8585 27.1831C16.9112 26.8549 17.0812 26.5559 17.3379 26.34C17.5945 26.1242 17.921 26.0055 18.2586 26.0054H19.1406C24.8498 26.0054 29.3203 23.7221 30.6266 17.1186C31.1719 14.359 30.8897 12.055 29.4473 10.4367C29.0098 9.9465 28.4664 9.54168 27.8335 9.21124C27.7992 9.42462 27.762 9.64086 27.7176 9.86413Z" fill="#2790C3"/>
<path d="M26.2715 8.59803C26.0387 8.53113 25.8038 8.47189 25.567 8.42042C25.3191 8.36676 25.0696 8.32009 24.819 8.28047C23.9219 8.13754 22.942 8.07007 21.8897 8.07007H13.0125C12.8006 8.06972 12.5915 8.11655 12.4006 8.20704C12.1931 8.30453 12.0128 8.45036 11.8754 8.63191C11.7381 8.81345 11.6477 9.02523 11.6123 9.24889L9.72539 21.0261L9.6709 21.3694C9.79502 20.5945 10.4683 20.0229 11.2657 20.0229H14.589C21.1157 20.0229 26.2261 17.4133 27.719 9.86411C27.7634 9.64084 27.8007 9.42448 27.835 9.21122C27.457 9.01493 27.0477 8.8449 26.6071 8.70114C26.4959 8.66485 26.3841 8.63047 26.2716 8.59803" fill="#1F264F"/>
</g>
<defs>
<clipPath id="clip0_230_1673">
<rect width="31" height="36" fill="white"/>
</clipPath>
</defs>
</svg>
