<svg width="53" height="54" viewBox="0 0 53 54" fill="none" xmlns="http://www.w3.org/2000/svg">
<g clip-path="url(#clip0_1352_617)">
<path d="M30.1417 48.2895C34.2817 48.2895 38.4193 48.2895 42.5592 48.2895C42.7963 48.2895 43.0885 48.368 43.2542 48.2572C43.4015 48.1579 43.4107 47.8486 43.4797 47.6317C44.4946 44.5018 48.218 43.2253 50.9105 45.0857C52.4385 46.1406 53.2946 48.211 52.9033 50.0022C52.4523 52.0703 51.1981 53.4091 49.1339 53.8753C46.5036 54.4708 44.0366 52.8712 43.3716 50.1961C43.3164 49.9722 43.2312 49.9052 43.0057 49.9168C42.5661 49.9398 42.1266 49.9306 41.6871 49.9306C33.7432 49.9306 25.7993 49.9283 17.8554 49.9306C16.0788 49.9306 14.461 49.4574 13.1171 48.278C11.0161 46.4337 10.1485 44.1024 10.8251 41.358C11.5131 38.5536 13.3863 36.8547 16.1663 36.1784C16.7347 36.04 17.3399 36.0007 17.9267 35.9984C22.7248 35.9846 27.5229 35.9869 32.3233 35.9984C32.9792 35.9984 33.6212 35.9915 34.2287 35.703C35.8649 34.9228 36.8522 33.4225 36.6957 31.5436C36.5507 29.7963 35.2367 28.3006 33.5015 27.9267C33.1241 27.8459 32.7237 27.8436 32.3325 27.8436C26.9039 27.839 21.4729 27.8413 16.0443 27.839C15.8349 27.839 15.6232 27.8436 15.4137 27.8251C14.9788 27.7836 14.675 27.4443 14.6796 27.015C14.6842 26.5695 14.9673 26.2463 15.416 26.214C15.7681 26.1886 16.1225 26.1955 16.4769 26.1955C21.6478 26.1955 26.8187 26.1979 31.9919 26.1932C33.0436 26.1932 34.0768 26.2809 35.0388 26.7426C37.821 28.0767 39.3835 31.7006 37.4781 34.8743C36.3528 36.7532 34.6153 37.6257 32.443 37.628C27.6633 37.628 22.8836 37.6141 18.1039 37.628C17.4319 37.628 16.7393 37.6834 16.0903 37.8496C13.6004 38.4843 11.9803 40.9887 12.238 43.5531C12.4681 45.829 14.3759 47.8579 16.5506 48.2087C16.9349 48.271 17.3307 48.2895 17.7196 48.2895C21.8595 48.2941 25.9972 48.2941 30.1371 48.2941V48.2872L30.1417 48.2895ZM44.9042 49.1112C44.6626 50.6462 46.3241 52.4096 48.0523 52.3981C49.8611 52.3842 51.3431 50.9832 51.4006 49.2335C51.4605 47.4447 50.0475 45.8497 48.218 45.8267C46.3057 45.8013 44.9249 47.1746 44.9019 49.1112H44.9042Z" fill="white"/>
<path d="M11.688 0C14.6843 0.180038 17.4457 1.23257 19.648 3.58461C21.4568 5.51656 22.4947 7.79705 22.7731 10.4284C23.0125 12.7043 22.451 14.8232 21.4729 16.8451C20.3729 19.1187 18.9231 21.1522 17.1604 22.9641C15.6968 24.4668 14.1918 25.9232 12.528 27.2043C12.3232 27.3612 12.1069 27.5043 11.8974 27.6521C11.5477 27.8967 11.1979 27.8921 10.8642 27.6313C10.1715 27.0889 9.46272 26.5649 8.80457 25.9832C7.2075 24.5683 5.66337 23.0934 4.31714 21.4269C2.92719 19.7096 1.70752 17.8838 0.899787 15.8111C0.375103 14.4654 0 13.0805 0 11.624C0.00460249 8.69032 0.948113 6.11207 2.88576 3.89852C5.18011 1.27412 8.1188 0.122334 11.688 0ZM21.1922 11.4232C21.2198 11.4186 21.2497 11.4163 21.2773 11.4117C21.1485 10.5923 21.1001 9.74977 20.8792 8.95576C20.152 6.34289 18.6171 4.33246 16.2675 2.94986C14.0905 1.66882 11.7594 1.38029 9.32925 1.87194C7.0096 2.3405 5.14098 3.57307 3.6958 5.45424C1.81108 7.90553 1.20585 10.6477 1.88242 13.6598C2.32656 15.638 3.30229 17.3691 4.46902 18.9964C6.36525 21.6415 8.70331 23.8505 11.2416 25.8609C11.3935 25.9809 11.4924 25.9348 11.6121 25.8309C12.7167 24.873 13.8673 23.9613 14.9213 22.948C16.8796 21.0622 18.601 18.9733 19.8575 16.5381C20.6836 14.9363 21.2267 13.2536 21.1899 11.4232H21.1922Z" fill="white"/>
<path d="M6.54474 9.84901C6.51712 7.20614 8.70101 4.94642 11.3682 4.94873C14.3644 4.95335 16.2491 7.27769 16.2744 9.77976C16.302 12.6142 14.1296 14.7031 11.3912 14.7285C8.83678 14.7516 6.56085 12.635 6.54474 9.8467V9.84901ZM11.3935 13.1151C13.1585 13.1474 14.6451 11.7256 14.6842 9.96904C14.7257 8.0417 13.338 6.59447 11.4211 6.56446C9.66063 6.53676 8.20394 7.9563 8.1349 9.68974C8.06356 11.4832 9.56397 13.1613 11.3935 13.1128V13.1151Z" fill="white"/>
</g>
<defs>
<clipPath id="clip0_1352_617">
<rect width="53" height="54" fill="white"/>
</clipPath>
</defs>
</svg>
