<svg width="55" height="54" viewBox="0 0 55 54" fill="none" xmlns="http://www.w3.org/2000/svg">
<g clip-path="url(#clip0_1352_627)">
<path d="M24.0983 25.6128C30.3645 25.6128 36.6294 25.6128 42.8957 25.6128C44.072 25.6128 44.9468 26.1087 45.5461 27.1289C47.2733 30.0657 49.0291 32.9863 50.7365 35.9343C51.0442 36.4649 51.3706 36.6496 51.9873 36.6632C52.599 36.6768 53.2628 36.8405 53.7989 37.1318C54.6377 37.588 54.9901 38.4223 54.9938 39.3731C55.0025 41.4806 55.0012 43.588 54.9901 45.6942C54.9777 48.3124 53.1412 50.245 50.5194 50.3591C50.0342 50.3801 49.8232 50.545 49.6011 50.9665C48.5315 52.9859 46.839 54.0607 44.5298 53.9975C42.2988 53.9368 40.7043 52.8198 39.7241 50.8388C39.5479 50.4843 39.3556 50.3752 38.9759 50.3764C31.8423 50.3863 24.7075 50.3851 17.5739 50.3727C17.2042 50.3727 17.0491 50.5054 16.8902 50.8289C15.9038 52.8421 14.2783 53.9541 12.0287 54.0012C9.72442 54.0483 8.0282 52.9649 6.98094 50.9306C6.75138 50.4843 6.50942 50.3616 6.04287 50.369C5.281 50.3826 4.50671 50.3863 3.75601 50.2735C1.65528 49.9587 0.033505 48.0843 0.0148925 45.957C-0.00992419 43.1888 0.00248415 40.4206 0.0148925 37.6525C0.0148925 37.4219 0.0719709 37.0773 0.224594 36.9818C0.76932 36.6421 0.773043 36.0979 0.87355 35.5847C1.37237 33.0545 1.86001 30.5231 2.36255 27.9942C2.66532 26.4706 3.72499 25.6165 5.29961 25.6153C11.5658 25.6128 17.8308 25.6153 24.097 25.6153V25.6128H24.0983ZM50.2067 48.481C51.7788 48.6533 53.1251 47.4384 53.1512 45.8095C53.1834 43.7851 53.1673 41.7607 53.1685 39.7363C53.1685 38.7099 52.9166 38.4632 51.8781 38.4632C35.4593 38.4632 19.0419 38.4632 2.62313 38.4632H1.91585C1.87739 38.6045 1.84761 38.6616 1.84761 38.7198C1.84761 41.157 1.82155 43.5954 1.86622 46.0326C1.88731 47.1843 2.7286 48.181 3.87885 48.4091C4.67547 48.5678 5.50931 48.5343 6.17564 48.5764C6.54168 47.5413 6.72285 46.5508 7.22042 45.7599C7.70807 44.9851 8.45877 44.3355 9.20327 43.7752C9.99368 43.1814 10.9839 43.0289 11.9753 43.0388C13.262 43.0525 14.4073 43.4653 15.4025 44.2822C16.7265 45.3694 17.3369 46.8111 17.4263 48.4909H23.86V40.3215H25.6977V48.5045H35.7621V40.3016H37.6023V48.4946H39.1719C39.5231 45.3012 41.5146 43.2235 44.3164 43.0549C45.6739 42.9731 46.9011 43.3091 47.9794 44.1322C49.4125 45.2256 50.1471 46.6946 50.2042 48.481H50.2067ZM23.798 36.6012V27.5082H13.7968V36.6012H23.798ZM25.7337 27.4946V36.5876H35.7187V27.4946H25.7337ZM48.941 36.6037C48.8852 36.4525 48.8678 36.3731 48.8281 36.3062C47.1939 33.5343 45.5721 30.7525 43.897 28.0054C43.7258 27.724 43.2332 27.5095 42.8783 27.4921C41.6213 27.4301 40.3594 27.4661 39.0987 27.4649C38.6123 27.4649 38.1246 27.4649 37.6382 27.4649V36.6037H48.941ZM11.9008 27.4959C11.6564 27.4847 11.4541 27.4686 11.2531 27.4686C9.33108 27.4661 7.41027 27.4661 5.48821 27.4661C4.53153 27.4661 4.28833 27.6657 4.10841 28.5892C3.65922 30.8963 3.20756 33.202 2.7621 35.5091C2.69385 35.8611 2.65291 36.2169 2.59583 36.5913H11.9021V27.4971L11.9008 27.4959ZM44.6899 52.1727C46.715 52.1801 48.3653 50.5475 48.3677 48.533C48.3715 46.5397 46.6939 44.8549 44.7048 44.8537C42.6909 44.8537 41.0456 46.4975 41.0394 48.5157C41.0332 50.5549 42.64 52.164 44.6899 52.1715V52.1727ZM15.5613 48.5405C15.5663 46.5335 13.9147 44.8574 11.9207 44.8475C9.95274 44.8376 8.23666 46.5384 8.2255 48.5095C8.21433 50.493 9.88821 52.1702 11.8897 52.1801C13.9246 52.1901 15.5576 50.5723 15.5626 48.5405H15.5613Z" fill="white"/>
<path d="M38.6309 11.4546C36.7821 12.1463 35.0585 12.8393 33.299 13.4256C32.6352 13.6475 31.8907 13.6451 31.1785 13.7021C30.6858 13.7418 30.187 13.7108 29.6907 13.707C28.6931 13.6996 28.0652 13.2508 27.7587 12.2864C27.3852 11.1075 27.0452 9.91614 26.6742 8.73597C26.4372 7.98101 26.6271 7.33886 27.1817 6.81944C27.7699 6.27027 28.4821 6.19341 29.1981 6.52316C30.1548 6.962 31.0854 7.45787 32.0346 7.91283C32.2046 7.99465 32.4528 8.08514 32.5955 8.02068C33.8686 7.44424 35.1255 6.83308 36.4991 6.17853C35.401 5.45705 34.3897 4.79134 33.3784 4.12812C32.6352 3.64093 31.8919 3.15374 31.1449 2.67523C30.769 2.43473 30.5084 2.12605 30.5928 1.65746C30.6759 1.19878 30.9973 0.973162 31.444 0.871509C32.531 0.626054 33.608 0.334732 34.6999 0.120269C35.0424 0.0533269 35.4531 0.0917566 35.777 0.219443C38.0043 1.09837 40.213 2.02564 42.4415 2.90085C42.7257 3.01242 43.1426 3.01366 43.4168 2.88845C45.3537 2.01076 47.2758 1.09961 49.1879 0.168616C49.6694 -0.0656814 50.0664 -0.0656814 50.5193 0.219443C51.4276 0.79217 52.3558 1.33267 53.2802 1.87936C53.9503 2.27481 54.3895 2.81283 54.3498 3.62729C54.3101 4.42812 53.8659 4.94754 53.1574 5.29713C50.9363 6.39548 48.7164 7.49754 46.5152 8.63556C46.2273 8.78432 45.9419 9.10663 45.8364 9.41159C45.0299 11.7298 44.2556 14.0591 43.4999 16.3934C43.3337 16.9066 43.0557 17.2401 42.5681 17.467C41.6325 17.9033 40.7192 18.3843 39.7936 18.843C39.3345 19.0699 38.8791 19.3922 38.3455 19.0488C37.7735 18.6806 37.9298 18.1042 37.9844 17.5835C38.1681 15.838 38.3778 14.0963 38.5726 12.3521C38.6024 12.0893 38.6061 11.8227 38.6272 11.4508L38.6309 11.4546ZM39.9387 16.6587C40.9972 16.2508 41.8558 15.874 42.1884 14.6492C42.7765 12.4835 43.5434 10.3649 44.2928 8.2463C44.4281 7.86572 44.7755 7.46655 45.1316 7.27316C46.5834 6.48845 48.0786 5.78432 49.5565 5.04548C50.5045 4.57192 51.45 4.08969 52.5072 3.55663C51.7105 3.08184 51.0058 2.70002 50.3444 2.25374C49.9548 1.98969 49.6446 1.98349 49.2214 2.18432C44.0434 4.65374 38.8443 7.07977 33.6812 9.57895C32.7605 10.0252 32.0173 10.0723 31.1449 9.54176C30.3322 9.04837 29.445 8.67895 28.4436 8.18184C28.8457 9.51077 29.1956 10.6686 29.553 11.8488C30.9439 11.8376 32.2766 11.9653 33.6018 11.3963C35.4755 10.5918 37.4174 9.94093 39.3332 9.23556C40.0988 8.95415 40.749 9.42771 40.6733 10.2099C40.5939 11.0306 40.4797 11.8475 40.3867 12.6682C40.2378 13.9761 40.0951 15.2839 39.9425 16.6575L39.9387 16.6587ZM33.8773 2.25126C35.3923 3.24795 36.8354 4.19878 38.2835 5.13969C38.3691 5.19548 38.5304 5.20787 38.6235 5.16696C39.2674 4.87564 39.9028 4.56448 40.6857 4.1901C38.9262 3.47605 37.3094 2.85994 35.7298 2.162C35.0908 1.87936 34.5535 1.99713 33.8773 2.2525V2.25126Z" fill="white"/>
<path d="M21.9566 11.0232V12.7426C21.8747 12.7711 21.8201 12.8046 21.763 12.8071C20.0134 12.8864 19.975 12.843 20.202 11.0232H21.9566Z" fill="white"/>
<path d="M25.6456 12.7884H23.8885V11.0293H25.6456V12.7884Z" fill="white"/>
<path d="M21.5148 18.3309H23.2793V20.1012H21.5148V18.3309Z" fill="white"/>
<path d="M26.9385 18.3409V20.1087H25.1678V18.3409H26.9385Z" fill="white"/>
<path d="M17.3307 15.352C17.4238 15.8157 17.5069 16.2334 17.6037 16.7144C17.1099 16.9438 16.5974 17.1818 15.9125 17.5004C15.766 16.7082 15.6345 15.9991 15.4881 15.2107C16.2078 15.2665 16.755 15.3074 17.3307 15.352Z" fill="white"/>
<path d="M18.4884 17.7917C18.9587 17.9913 19.3334 18.1513 19.759 18.331C19.6834 18.8851 19.6077 19.4442 19.5084 20.1744C18.7713 19.8719 18.1298 19.6091 17.358 19.293C17.7886 18.7215 18.136 18.2603 18.4884 17.7917Z" fill="white"/>
<path d="M17.8035 14.0392C17.3208 13.7182 16.8443 13.402 16.2438 13.0029C16.817 12.4661 17.3258 11.9876 17.9065 11.4434C18.2155 11.9987 18.4723 12.4165 18.6771 12.8578C18.7292 12.9706 18.6572 13.1975 18.5641 13.3066C18.3532 13.5558 18.0951 13.764 17.8035 14.038V14.0392Z" fill="white"/>
<path d="M31.0556 19.8086C30.4724 20.3033 30.0406 20.6714 29.6175 21.0297C29.2899 20.8053 28.9896 20.6268 28.7253 20.4049C28.6298 20.3256 28.5541 20.121 28.5876 20.0095C28.7216 19.5619 28.904 19.1268 29.1286 18.5219C29.7788 18.957 30.3694 19.3499 31.0544 19.8086H31.0556Z" fill="white"/>
<path d="M32.0098 21.9075V23.86H30.285V22.2682C30.7727 22.1666 31.3224 22.0513 32.0098 21.9075Z" fill="white"/>
</g>
<defs>
<clipPath id="clip0_1352_627">
<rect width="55" height="54" fill="white"/>
</clipPath>
</defs>
</svg>
