<svg width="42" height="54" viewBox="0 0 42 54" fill="none" xmlns="http://www.w3.org/2000/svg">
<g clip-path="url(#clip0_1352_645)">
<path d="M33.1628 23.3612C33.0891 24.0712 33.0246 24.674 32.9634 25.2775C32.8115 26.7816 32.6602 28.2857 32.5095 29.7898C32.4654 30.2271 32.4115 30.6645 32.3924 31.1033C32.3871 31.2177 32.4687 31.3633 32.5549 31.45C34.4785 33.3815 36.3929 35.323 38.3449 37.2261C39.106 37.9686 39.3547 38.8612 39.4343 39.8717C39.5567 41.4247 39.7257 42.9731 39.8711 44.5242C39.9974 45.8728 40.1178 47.222 40.2408 48.5712C40.3185 49.4249 40.4283 50.2778 40.4672 51.1334C40.5264 52.4416 39.7146 53.5374 38.4751 53.9007C36.8995 54.3619 35.1706 53.1437 35.0121 51.4828C34.8068 49.3256 34.5733 47.1711 34.3641 45.0145C34.2325 43.6554 34.1292 42.2935 33.9976 40.9337C33.9832 40.7809 33.9049 40.6029 33.7983 40.4943C32.8246 39.5077 31.8398 38.533 30.8536 37.559C30.7727 37.4789 30.6609 37.4306 30.5227 37.3413C30.3675 37.9467 30.2267 38.4986 30.0846 39.0498C29.3905 41.7344 28.7017 44.4203 28.0004 47.1029C27.5761 48.7274 27.1498 50.3526 26.6932 51.9685C26.3301 53.2535 25.213 54.0443 23.915 53.9927C22.6703 53.9431 21.5546 52.9895 21.2967 51.7382C21.1605 51.0772 21.3158 50.4419 21.4888 49.806C22.2019 47.183 22.9177 44.5606 23.6058 41.9309C24.39 38.9327 25.144 35.9265 25.9176 32.9256C26.0071 32.5795 25.9834 32.2507 25.9518 31.8973C25.888 31.1939 25.8775 30.4786 25.9301 29.7739C26.0321 28.4121 26.1926 27.0549 26.3308 25.6957C26.4755 24.2704 26.6242 22.8457 26.7663 21.4204C26.8018 21.0637 26.8202 20.7057 26.8498 20.2981C26.7347 20.3285 26.6472 20.3332 26.5794 20.3729C25.9183 20.756 25.2551 21.1358 24.6071 21.5401C24.4834 21.6169 24.3611 21.7896 24.344 21.9312C24.0578 24.271 23.7848 26.6122 23.5183 28.954C23.3914 30.0703 22.9842 31.008 21.9276 31.5327C21.6802 31.6558 21.4039 31.7266 21.1342 31.7961C20.8908 31.8583 20.7303 31.9761 20.602 32.207C18.3659 36.2263 16.1166 40.2382 13.8759 44.2549C13.0746 45.6921 12.3088 47.1499 11.4845 48.5739C11.1661 49.1244 11.0464 49.6485 11.1089 50.2917C11.247 51.723 10.6102 52.8082 9.39971 53.5387C7.38793 54.753 4.66104 53.4395 4.33737 51.1023C4.2775 50.6689 4.28342 50.2249 4.27882 49.7855C4.27684 49.5956 4.22487 49.491 4.04724 49.3918C3.09662 48.8584 2.14796 48.3198 1.21773 47.7514C-0.0526278 46.9758 -0.334198 45.7325 0.404595 44.4296C1.41641 42.6449 2.40387 40.8464 3.40845 39.0571C4.23605 37.5828 5.07419 36.1138 5.90442 34.6408C6.12021 34.2583 6.33796 33.8772 6.53138 33.4835C7.13004 32.2632 8.42869 31.7769 9.61747 32.4181C10.922 33.1222 12.1838 33.9056 13.468 34.6487C14.5857 35.2952 15.7107 35.9305 16.8271 36.579C17.0475 36.7067 17.1166 36.5406 17.1909 36.4168C17.4455 35.9914 17.6837 35.5559 17.9304 35.1258C18.5257 34.0902 19.1185 33.0527 19.7224 32.0217C19.9277 31.671 19.602 31.634 19.4422 31.5493C18.6678 31.139 18.1442 30.5084 17.981 29.6627C17.8764 29.1227 17.9185 28.5398 17.9738 27.9846C18.1258 26.458 18.3218 24.9354 18.4948 23.4108C18.6349 22.178 18.7613 20.9439 18.9047 19.7112C19.0132 18.7808 19.4533 18.0436 20.252 17.5526C21.3533 16.8757 22.469 16.2226 23.5723 15.549C25.0565 14.6424 26.5367 13.7286 28.0156 12.8134C28.7241 12.3747 29.4524 11.9903 30.2714 11.797C30.7155 11.6925 31.1339 11.6746 31.5299 11.9419C31.5938 11.985 31.6701 12.0352 31.7418 12.0366C32.5595 12.0518 33.0029 12.6268 33.4121 13.2065C33.9141 13.9178 34.0457 14.7377 33.947 15.5979C33.9121 15.9003 33.8851 16.2041 33.8371 16.5045C33.7924 16.785 33.9726 16.9114 34.1595 17.0451C35.6042 18.0813 37.0502 19.1149 38.4902 20.1578C39.2738 20.7256 40.0612 21.29 40.8191 21.8908C41.7487 22.628 42.1993 23.5994 41.9178 24.7872C41.6401 25.9584 40.8836 26.7194 39.7014 26.9973C39.0277 27.1555 38.3666 27.0575 37.8008 26.6572C36.4331 25.6884 35.0877 24.6879 33.7299 23.704C33.5693 23.5875 33.3898 23.4975 33.1634 23.3618L33.1628 23.3612ZM18.8336 28.7654C18.8422 28.7667 18.8507 28.7674 18.8593 28.7687C18.8593 28.8819 18.858 28.995 18.8593 29.1075C18.8744 30.2867 19.9277 31.1264 21.0776 30.877C21.9289 30.6917 22.4894 30.0346 22.5986 29.0738C22.6828 28.334 22.748 27.5915 22.8282 26.8511C23.0059 25.2027 23.2091 23.5564 23.3559 21.9054C23.4052 21.3516 23.6565 21.024 24.1098 20.7646C25.1716 20.1565 26.2202 19.5252 27.2735 18.9025C27.513 18.7609 27.7452 18.8165 27.8386 19.0766C27.8932 19.2288 27.9051 19.4094 27.8893 19.5729C27.7603 20.8983 27.6222 22.2224 27.484 23.5471C27.2334 25.9485 26.9867 28.3505 26.7268 30.7506C26.6321 31.6273 26.9248 32.3407 27.5347 32.9521C29.9037 35.3283 32.2694 37.7072 34.6298 40.0913C34.739 40.2012 34.8292 40.3713 34.8489 40.5235C34.9601 41.3843 35.0496 42.2485 35.141 43.1127C35.2923 44.5487 35.4423 45.9853 35.587 47.4225C35.7239 48.7817 35.8403 50.1428 35.9923 51.5C36.1041 52.4992 36.9745 53.194 37.9468 53.1047C38.8646 53.0206 39.6442 52.1075 39.5843 51.1466C39.5382 50.4035 39.4547 49.6624 39.3777 48.922C39.2317 47.5198 39.0725 46.1183 38.929 44.7161C38.758 43.0439 38.5856 41.3718 38.4389 39.6976C38.3764 38.985 38.1751 38.3676 37.6515 37.8508C35.6555 35.8795 33.6772 33.8891 31.6845 31.9145C31.4813 31.7134 31.3859 31.5062 31.4188 31.225C31.4727 30.7658 31.5181 30.3052 31.5648 29.8453C31.774 27.7914 31.978 25.7361 32.1931 23.6828C32.4733 21.0121 32.7694 18.3434 33.0411 15.672C33.0957 15.1361 33.1207 14.5875 32.8819 14.0727C32.2924 12.7995 30.928 12.3052 29.6905 12.9544C28.9649 13.3349 28.2669 13.7703 27.5636 14.1924C25.3459 15.5218 23.1328 16.8605 20.9132 18.1866C20.354 18.5207 19.9467 18.9601 19.8336 19.6192C19.7645 20.0189 19.727 20.4245 19.6836 20.8281C19.5106 22.4321 19.3415 24.0361 19.1705 25.6401C19.0593 26.683 18.9461 27.7259 18.8336 28.7687V28.7654ZM10.526 48.3827C12.5378 44.7882 14.564 41.1686 16.5942 37.5418C16.5278 37.4915 16.4863 37.4531 16.439 37.4253C14.0318 36.0218 11.6286 34.6123 9.21485 33.2214C8.59908 32.8667 7.95436 33.0229 7.55437 33.6098C7.22543 34.0929 6.9386 34.6057 6.65308 35.1172C5.79587 36.6517 4.95051 38.1929 4.09724 39.7294C3.11767 41.4929 2.13151 43.2517 1.15391 45.0165C0.794714 45.665 0.951946 46.4915 1.53877 46.8554C2.50321 47.4529 3.49134 48.0128 4.46894 48.5884C4.67091 48.7076 4.80577 48.7023 4.96498 48.474C6.00508 46.9825 7.82081 46.7601 9.22208 47.4424C9.6747 47.6627 10.0543 48.0353 10.5266 48.3827H10.526ZM26.6847 33.4993C26.6485 33.6191 26.6308 33.6701 26.6176 33.7217C26.2913 35.0219 25.9768 36.3255 25.638 37.6225C24.7887 40.8715 23.9243 44.1159 23.0756 47.3649C22.771 48.5315 22.4572 49.6975 22.2138 50.8773C22.0026 51.899 22.6907 52.8724 23.6835 53.0967C24.7644 53.3402 25.6571 52.4873 25.8663 51.7177C26.1446 50.6947 26.4248 49.6723 26.6886 48.6454C27.261 46.4167 27.8162 44.1834 28.3912 41.9554C28.8281 40.2641 29.2853 38.578 29.7333 36.8893C29.7899 36.6756 29.8129 36.491 29.6201 36.3043C28.7629 35.4732 27.9222 34.6243 27.0715 33.7865C26.9669 33.684 26.8347 33.6098 26.684 33.5L26.6847 33.4993ZM33.7312 17.8597C33.5792 19.2989 33.4266 20.6528 33.3062 22.01C33.293 22.1555 33.4299 22.3666 33.5588 22.4652C34.2555 22.9986 34.9686 23.5087 35.6811 24.0209C36.5475 24.6436 37.389 25.3073 38.2968 25.8631C38.9258 26.2482 39.6547 26.1986 40.2764 25.7784C40.8553 25.3874 41.0974 24.7905 41.056 24.0805C41.0139 23.3552 40.6441 22.8464 40.0737 22.4335C38.0705 20.9816 36.0772 19.5153 34.0785 18.0569C33.9845 17.9887 33.8759 17.9404 33.7312 17.859V17.8597ZM5.17484 50.5703C5.17747 52.0261 6.28204 53.1159 7.75568 53.1113C9.18393 53.1073 10.1642 51.9255 10.1846 50.6318C10.2076 49.1271 9.10235 47.9843 7.64384 48.0214C6.12876 48.0597 5.14918 49.2429 5.1755 50.5696L5.17484 50.5703Z" fill="white"/>
<path d="M29.6662 4.95167C29.6089 2.16055 31.9372 -0.0118621 34.6818 4.87434e-05C37.3929 0.0119596 39.6488 2.31407 39.6297 5.03438C39.6099 7.76065 37.2949 10.025 34.5851 10.033C31.9451 10.0403 29.553 7.67331 29.6668 4.95101L29.6662 4.95167ZM34.7068 0.866897C32.5608 0.787491 30.5859 2.65287 30.5359 4.8094C30.4813 7.15254 32.1858 8.95637 34.4318 9.04372C37.0383 9.1443 38.5172 7.14658 38.6679 5.19187C38.8192 3.22459 36.9956 0.723966 34.7062 0.866897H34.7068Z" fill="white"/>
</g>
<defs>
<clipPath id="clip0_1352_645">
<rect width="42" height="54" fill="white"/>
</clipPath>
</defs>
</svg>
