<svg width="16" height="16" viewBox="0 0 16 16" fill="none" xmlns="http://www.w3.org/2000/svg">
<g clip-path="url(#clip0_845_2874)">
<path fill-rule="evenodd" clip-rule="evenodd" d="M10.6663 5.99998C10.6663 6.70722 10.3854 7.3855 9.88529 7.8856C9.3852 8.38569 8.70692 8.66665 7.99967 8.66665C7.29243 8.66665 6.61415 8.38569 6.11406 7.8856C5.61396 7.3855 5.33301 6.70722 5.33301 5.99998C5.33301 5.29274 5.61396 4.61446 6.11406 4.11436C6.61415 3.61426 7.29243 3.33331 7.99967 3.33331C8.70692 3.33331 9.3852 3.61426 9.88529 4.11436C10.3854 4.61446 10.6663 5.29274 10.6663 5.99998ZM9.33301 5.99998C9.33301 6.3536 9.19253 6.69274 8.94248 6.94279C8.69243 7.19284 8.3533 7.33331 7.99967 7.33331C7.64605 7.33331 7.30691 7.19284 7.05687 6.94279C6.80682 6.69274 6.66634 6.3536 6.66634 5.99998C6.66634 5.64636 6.80682 5.30722 7.05687 5.05717C7.30691 4.80712 7.64605 4.66665 7.99967 4.66665C8.3533 4.66665 8.69243 4.80712 8.94248 5.05717C9.19253 5.30722 9.33301 5.64636 9.33301 5.99998Z" fill="#152B52"/>
<path fill-rule="evenodd" clip-rule="evenodd" d="M7.99984 0.666656C3.94984 0.666656 0.666504 3.94999 0.666504 7.99999C0.666504 12.05 3.94984 15.3333 7.99984 15.3333C12.0498 15.3333 15.3332 12.05 15.3332 7.99999C15.3332 3.94999 12.0498 0.666656 7.99984 0.666656ZM1.99984 7.99999C1.99984 9.39332 2.47517 10.676 3.27184 11.6947C3.83147 10.9601 4.55327 10.3647 5.38093 9.95514C6.20859 9.54554 7.1197 9.33273 8.04317 9.33332C8.95476 9.33226 9.85455 9.53939 10.6739 9.93891C11.4933 10.3384 12.2106 10.9198 12.7712 11.6387C13.3488 10.8811 13.7377 9.9968 13.9058 9.05905C14.0738 8.1213 14.0161 7.15701 13.7375 6.24598C13.4589 5.33495 12.9673 4.50336 12.3035 3.82001C11.6397 3.13667 10.8227 2.62123 9.92009 2.31633C9.01751 2.01143 8.0553 1.92584 7.11308 2.06664C6.17085 2.20744 5.2757 2.57058 4.50168 3.12603C3.72767 3.68147 3.09704 4.41324 2.66199 5.26079C2.22694 6.10834 1.99996 7.0473 1.99984 7.99999ZM7.99984 14C6.62244 14.0022 5.2866 13.5284 4.2185 12.6587C4.64838 12.0431 5.22063 11.5405 5.88655 11.1936C6.55248 10.8468 7.29234 10.666 8.04317 10.6667C8.78462 10.666 9.51552 10.8423 10.1752 11.1809C10.8348 11.5194 11.4041 12.0105 11.8358 12.6133C10.7595 13.5113 9.4016 14.0022 7.99984 14Z" fill="#152B52"/>
</g>
<defs>
<clipPath id="clip0_845_2874">
<rect width="16" height="16" fill="white"/>
</clipPath>
</defs>
</svg>
