<svg width="72" height="62" viewBox="0 0 72 62" fill="none" xmlns="http://www.w3.org/2000/svg">
<path d="M3.60003 61.4999C1.20002 50.8999 2.45571e-05 41.6999 2.45571e-05 33.8999C2.45571e-05 22.6999 2.60002 14.2999 7.80002 8.69988C13 2.89989 20.6 -0.000111818 30.6 -0.000111818V11.9999C25.4 11.9999 21.6 13.3999 19.2 16.1999C17 18.9999 15.9 23.1999 15.9 28.7999V35.6999H30.9V61.4999H3.60003ZM44.1 61.4999C41.7 50.8999 40.5 41.6999 40.5 33.8999C40.5 22.6999 43.1 14.2999 48.3 8.69988C53.5 2.89989 61.1 -0.000111818 71.1 -0.000111818V11.9999C65.9 11.9999 62.1 13.3999 59.7 16.1999C57.5 18.9999 56.4 23.1999 56.4 28.7999V35.6999H71.4V61.4999H44.1Z" fill="white"/>
</svg>
