<svg width="51" height="54" viewBox="0 0 51 54" fill="none" xmlns="http://www.w3.org/2000/svg">
<g clip-path="url(#clip0_1352_966)">
<path d="M13.6229 17.0261C13.7022 16.0582 13.7257 15.1177 13.8718 14.1954C14.0034 13.3658 14.2433 12.549 14.4813 11.7394C14.7464 10.8407 15.1161 9.98021 15.5507 9.15064C16.5462 7.25501 17.8483 5.60498 19.4388 4.17871C20.1927 3.50196 21.024 2.94709 21.877 2.41042C22.7391 1.86829 23.6552 1.44623 24.5966 1.08057C25.8427 0.596658 27.1321 0.272836 28.4666 0.129117C29.4747 0.0199638 30.481 -0.0400705 31.4927 0.0272407C33.1771 0.140033 34.8146 0.471131 36.3944 1.07147C38.1599 1.74277 39.7667 2.68331 41.2239 3.90037C42.58 5.03374 43.7522 6.32357 44.6774 7.83171C45.2707 8.79953 45.7973 9.80556 46.212 10.8734C46.6034 11.8831 46.9082 12.9201 47.0867 13.9807C47.3247 15.3888 47.4365 16.8169 47.2724 18.2468C47.1751 19.0927 47.1101 19.9514 46.9172 20.7755C46.1615 23.9955 44.6323 26.7898 42.2897 29.1221C41.4493 29.9589 40.5259 30.6903 39.5323 31.3288C39.2672 31.498 38.9912 31.649 38.728 31.8218C38.6811 31.8527 38.6378 31.9637 38.6576 32.0092C38.8073 32.3621 38.966 32.7132 39.1391 33.0552C39.1626 33.1025 39.296 33.1426 39.3465 33.1189C39.7415 32.9388 40.122 32.7278 40.5187 32.5513C41.1463 32.273 41.7631 32.4331 42.1255 33.1007C42.874 34.4761 43.5935 35.8696 44.3239 37.2558C45.1949 38.9077 46.0696 40.5577 46.9388 42.2114C47.4113 43.1119 47.873 44.0179 48.3473 44.9166C48.7927 45.7625 49.2508 46.603 49.6998 47.4471C50.0965 48.1912 50.4969 48.9334 50.881 49.6848C51.1353 50.1814 50.9604 50.8418 50.4933 51.182C49.1768 52.1425 47.772 52.9375 46.2463 53.5051C45.763 53.6852 45.2707 53.8471 44.7693 53.9617C44.2373 54.0836 43.7576 53.8417 43.516 53.345C43.2328 52.7629 42.9912 52.1607 42.7279 51.5695C42.2301 50.4561 41.7288 49.3446 41.2329 48.2294C40.7784 47.2033 40.333 46.1737 39.8785 45.1476C39.1842 43.5849 38.4827 42.0258 37.792 40.4613C37.3592 39.4826 36.939 38.4984 36.5116 37.5178C36.3168 37.0684 36.1076 36.6264 35.9183 36.1734C35.6333 35.4912 35.8696 34.8545 36.526 34.5252C36.8795 34.3469 37.2347 34.1668 37.5954 34.0012C37.7307 33.9394 37.7613 33.8539 37.7072 33.7338C37.5539 33.3991 37.4007 33.0625 37.2275 32.7369C37.2041 32.6914 37.0598 32.6732 36.9895 32.6968C36.1978 32.9461 35.4169 33.2335 34.6198 33.4609C32.7533 33.9921 30.8435 34.1213 28.9229 33.9357C27.6515 33.8139 26.3927 33.5664 25.1881 33.1025C24.4974 32.8369 23.7814 32.6168 23.1268 32.2766C22.2972 31.8473 21.4875 31.3615 20.7247 30.823C18.9195 29.5478 17.4317 27.9505 16.2595 26.0658C15.6391 25.067 15.1197 24.0137 14.7031 22.9076C14.3046 21.8506 14.0196 20.7646 13.8483 19.6548C13.7131 18.778 13.6914 17.8811 13.6211 17.0206L13.6229 17.0261ZM30.4991 1.5663C21.9528 1.60451 15.1251 8.4648 15.2135 17.157C15.3001 25.631 21.96 32.5313 30.7353 32.4094C39.0706 32.293 45.7973 25.651 45.7828 16.9242C45.7684 8.30471 38.847 1.59177 30.4991 1.5663ZM37.4674 35.8077C37.5684 36.0606 37.6694 36.3335 37.7884 36.6009C38.4376 38.0672 39.0958 39.528 39.7433 40.9961C40.2085 42.0495 40.6576 43.1083 41.1247 44.1616C41.7757 45.6261 42.4375 47.0869 43.0958 48.5496C43.2996 49.0025 43.5051 49.4555 43.7035 49.9122C44.0335 50.6708 44.3618 51.4312 44.6864 52.1935C44.7423 52.3226 44.8108 52.3645 44.9461 52.3099C45.1679 52.2189 45.3915 52.1334 45.6187 52.057C46.7098 51.6877 47.7305 51.1711 48.6917 50.538C48.9081 50.3961 49.1173 50.2396 49.3247 50.0941C48.3815 48.2894 47.4456 46.492 46.5042 44.7001C45.3103 42.4261 44.1147 40.1557 42.919 37.8835C42.2806 36.67 41.6422 35.4584 41.0056 34.245C40.9461 34.1304 40.8848 34.0886 40.7586 34.1631C40.5981 34.2596 40.4286 34.3396 40.2608 34.4233C39.3375 34.8817 38.4142 35.3402 37.4674 35.8095V35.8077Z" fill="white"/>
<path d="M6.8295 11.5539C7.00803 11.5539 7.14689 11.5539 7.28576 11.5539C8.98636 11.5539 10.687 11.5557 12.3876 11.5594C12.9268 11.5594 13.2243 11.8577 13.2297 12.3635C13.2334 12.7146 12.9033 13.1676 12.3713 13.1621C10.2145 13.1476 8.05581 13.1585 5.89894 13.1476C5.58876 13.1476 5.3417 13.2258 5.15775 13.4805C4.73035 14.0717 4.29753 14.6593 3.87554 15.256C3.70241 15.5016 3.52568 15.749 3.39403 16.0183C3.28042 16.2493 3.165 16.5113 3.1632 16.7587C3.15238 18.3069 3.15959 19.855 3.19025 21.4014C3.20648 22.2546 3.27861 23.106 3.3273 23.9592C3.33993 24.1921 3.36337 24.4267 3.36698 24.6596C3.36878 24.8142 3.42469 24.8688 3.57978 24.8688C3.97653 24.8688 4.37327 24.887 4.77002 24.8906C6.91967 24.9106 9.06931 24.9288 11.219 24.9452C11.6951 24.9489 11.7041 24.947 11.8015 24.4686C11.9079 23.9446 11.998 23.4152 12.0918 22.8877C12.1766 22.4165 12.4849 22.1563 12.9502 22.1691C13.3957 22.1818 13.769 22.6202 13.6878 23.066C13.5814 23.6445 13.4516 24.2175 13.3325 24.7942C13.3217 24.8433 13.3199 24.8961 13.3109 24.9834C13.5616 24.9834 13.7996 24.9761 14.0359 24.9834C14.3659 24.9962 14.6977 25.2799 14.7789 25.6074C14.8474 25.8857 14.7085 26.2332 14.4146 26.3951C14.2451 26.4879 14.0377 26.5534 13.8447 26.557C12.631 26.5698 11.4173 26.5607 10.2036 26.5589C9.87182 26.5589 9.89707 26.5443 9.90428 26.8645C9.91691 27.3557 9.9115 27.8469 9.90428 28.3381C9.89707 28.7983 9.59771 29.1094 9.14325 29.1112C6.97016 29.1167 4.79887 29.1167 2.62578 29.1131C2.27412 29.1131 1.96754 28.8274 1.92246 28.4745C1.90623 28.3472 1.90623 28.218 1.91164 28.0907C1.97476 26.3569 1.81967 24.6359 1.63933 22.915C1.55637 22.12 1.54916 21.3159 1.53473 20.5154C1.51489 19.5039 1.51309 18.4906 1.5185 17.4773C1.52211 16.4767 1.7836 15.5671 2.41298 14.7612C3.09827 13.8843 3.73667 12.9711 4.39672 12.0742C4.41836 12.0433 4.4418 12.0105 4.47066 11.9887C5.29661 11.3447 5.61762 10.3732 6.06486 9.48182C6.76277 8.09557 7.39576 6.67294 8.32992 5.42313C8.52288 5.1648 8.7447 4.9283 8.96472 4.6918C9.3795 4.24791 9.93855 4.19697 10.4922 4.14058C11.5183 4.03506 12.5445 3.90772 13.5742 3.83313C14.6562 3.75308 15.7419 3.71852 16.8275 3.67486C17.1666 3.66212 17.4353 3.80402 17.5831 4.13512C17.7292 4.4644 17.6968 4.77003 17.4677 5.04473C17.2856 5.26304 17.0277 5.32489 16.7608 5.33217C15.6084 5.36673 14.4542 5.36855 13.3019 5.43223C12.3551 5.48498 11.4119 5.60869 10.4669 5.69965C10.1784 5.72694 9.9674 5.88157 9.78887 6.09988C9.29113 6.70022 8.89979 7.3697 8.55174 8.06464C8.06482 9.04156 7.57971 10.0203 7.0964 10.9972C7.01164 11.1701 6.92868 11.3447 6.8295 11.5503V11.5539ZM8.27041 26.5498C6.72129 26.5152 5.1866 26.4843 3.65372 26.4461C3.52748 26.4424 3.47338 26.4843 3.47518 26.6098C3.47518 26.8445 3.486 27.0792 3.46797 27.312C3.45354 27.5194 3.53469 27.5613 3.72585 27.5594C5.13431 27.5522 6.54276 27.5594 7.95121 27.5594C8.054 27.5594 8.1568 27.5594 8.27221 27.5594V26.5498H8.27041Z" fill="white"/>
<path d="M9.78342 20.5754C8.58417 20.4571 7.3813 20.3716 6.18926 20.2134C5.13427 20.0733 4.48685 19.18 4.58784 18.1122C4.63112 17.661 4.65817 17.208 4.73572 16.7623C4.94672 15.5416 6.20909 15.1123 7.03144 15.2887C7.60132 15.4106 8.18201 15.487 8.75549 15.5962C9.48226 15.7363 10.2162 15.8509 10.9286 16.0473C12.1387 16.3803 12.6328 17.5864 12.1873 18.6779C12.0719 18.9636 11.9385 19.2455 11.7834 19.5111C11.374 20.2152 10.7681 20.579 9.94392 20.5354C9.89163 20.5335 9.83933 20.5354 9.78703 20.5354C9.78703 20.5481 9.78523 20.5608 9.78342 20.5736V20.5754ZM9.74916 18.9163C9.74916 18.9163 9.74916 18.909 9.74916 18.9053C9.78703 18.9072 9.8231 18.909 9.86097 18.9126C10.1567 18.9472 10.3912 18.8835 10.4922 18.5561C10.5336 18.4214 10.6094 18.2959 10.6743 18.1686C10.8438 17.8356 10.7897 17.6846 10.4308 17.59C10.0269 17.4845 9.61751 17.3972 9.20634 17.3172C8.41465 17.1607 7.61935 17.0224 6.82946 16.8624C6.49042 16.7932 6.23073 16.9624 6.20729 17.3099C6.18926 17.5882 6.17663 17.8666 6.16221 18.1467C6.14237 18.5379 6.22713 18.6488 6.61666 18.6798C7.66083 18.7634 8.70499 18.838 9.74916 18.9163Z" fill="white"/>
<path d="M3.05316 7.80993C3.48056 7.80993 3.90616 7.81356 4.33357 7.80993C4.63113 7.80629 4.89803 7.89179 5.11083 8.10464C5.34527 8.3375 5.37232 8.62858 5.27313 8.92329C5.18657 9.18344 4.98639 9.33989 4.71769 9.39265C4.60047 9.41448 4.47964 9.4163 4.36062 9.4163C3.53647 9.42176 2.71231 9.43449 1.88816 9.42176C1.61946 9.41812 1.65733 9.60004 1.63388 9.74922C1.61044 9.89657 1.57978 10.0476 1.81422 10.0767C2.30294 10.1385 2.78986 10.2295 3.27858 10.295C3.715 10.3532 3.99092 10.5933 4.05043 10.9917C4.10273 11.3447 3.92059 11.7322 3.58155 11.8286C3.34891 11.8959 3.08021 11.8723 2.83314 11.8413C2.34442 11.7813 1.85931 11.6776 1.37059 11.6121C0.690709 11.523 0.0937853 10.9354 0.0162393 10.2422C-0.0378625 9.76741 0.0541106 9.30351 0.205596 8.86144C0.438234 8.17559 0.988269 7.89361 1.66274 7.84813C2.12441 7.8172 2.59149 7.84267 3.05496 7.84267C3.05496 7.83176 3.05496 7.82266 3.05496 7.81174L3.05316 7.80993Z" fill="white"/>
<path d="M25.8949 24.9816C25.8012 24.5304 25.7164 24.1265 25.6335 23.7227C25.5613 23.3752 25.491 23.0277 25.4225 22.6802C25.3413 22.2691 25.2205 22.1618 24.7967 22.1618C22.5262 22.1581 20.2575 22.1599 17.9871 22.1545C17.8248 22.1545 17.6534 22.1436 17.5001 22.0963C17.1214 21.978 16.9357 21.6451 16.9862 21.223C17.0367 20.7973 17.2639 20.5645 17.6769 20.5208C17.7652 20.5117 17.8572 20.5099 17.9456 20.5099C20.1259 20.5081 22.3062 20.5044 24.4847 20.5081C24.7606 20.5081 25.0419 20.5135 25.3124 20.559C25.8084 20.6427 26.1979 20.9338 26.4973 21.3231C26.7822 21.6942 26.9662 22.1181 27.0383 22.5984C27.1429 23.2988 27.2944 23.9937 27.4224 24.6905C27.4567 24.876 27.5396 24.9543 27.7398 24.9524C30.3006 24.9179 32.8633 24.8942 35.4241 24.8615C35.8623 24.856 35.8064 24.907 35.8262 24.4904C35.9272 22.431 36.0246 20.3698 36.0949 18.3105C36.1148 17.7247 36.0426 17.1352 35.9976 16.5476C35.9867 16.4094 35.9507 16.2529 35.8731 16.1419C35.2203 15.2123 34.553 14.2936 33.8912 13.3695C33.7794 13.213 33.6279 13.1548 33.4458 13.1548C33.1536 13.1548 32.8615 13.153 32.5693 13.153C27.7452 13.1548 22.9211 13.1493 18.0971 13.1712C17.4821 13.173 17.1034 12.6509 17.1882 12.2233C17.2567 11.8722 17.556 11.5848 17.9131 11.5611C18.0556 11.552 18.1981 11.5557 18.3405 11.5557C22.9482 11.5539 27.5541 11.5502 32.1617 11.5466C32.2104 11.5466 32.2591 11.5357 32.3421 11.5266C32.1888 11.2064 32.0481 10.9117 31.9057 10.6151C31.5973 9.97842 31.3069 9.33078 30.9787 8.70496C30.49 7.77898 30.0193 6.84208 29.3484 6.02707C29.0779 5.69961 28.7028 5.64867 28.3367 5.61774C27.2565 5.52496 26.1727 5.45947 25.0888 5.39034C24.5262 5.35395 24.2034 4.93917 24.326 4.38795C24.3999 4.05321 24.7083 3.78578 25.0564 3.80398C25.6082 3.83308 26.16 3.88584 26.7119 3.94042C27.5306 4.02228 28.3476 4.12598 29.1681 4.20057C29.6947 4.24787 30.0896 4.51529 30.4413 4.88641C31.0635 5.54497 31.5125 6.31996 31.9201 7.12042C32.5765 8.40843 33.2149 9.70554 33.8678 10.9954C33.9579 11.1755 34.0697 11.3574 34.2122 11.4938C35.0688 12.3198 35.7234 13.3076 36.4105 14.2681C36.6901 14.6593 36.9624 15.0577 37.2275 15.4597C37.4872 15.8527 37.5864 16.2948 37.6278 16.7623C37.7378 18.023 37.7072 19.2856 37.6477 20.5463C37.5864 21.8288 37.5377 23.1132 37.3988 24.3885C37.2599 25.6783 37.2996 26.9681 37.2708 28.2598C37.2581 28.831 36.9804 29.1076 36.4214 29.1076C34.3457 29.1094 32.2717 29.1094 30.196 29.1076C30.077 29.1076 29.9526 29.1076 29.8408 29.0748C29.453 28.9638 29.2979 28.7601 29.2871 28.3289C29.2745 27.8086 29.2709 27.2865 29.2781 26.7644C29.2799 26.6061 29.242 26.557 29.0797 26.557C26.1889 26.5606 23.2963 26.557 20.4054 26.5588C20.0501 26.5588 19.776 26.446 19.5578 26.1477C19.1935 25.6474 19.6967 24.9779 20.1313 24.9834C20.3116 24.9852 20.4902 24.9779 20.6705 24.9779C22.3188 24.9779 23.9671 24.9779 25.6136 24.9779C25.6876 24.9779 25.7597 24.9779 25.8895 24.9779L25.8949 24.9816ZM35.7126 26.4569C35.5756 26.4569 35.4638 26.4569 35.3537 26.4569C33.9705 26.4806 32.5855 26.5061 31.2023 26.5315C30.8813 26.537 30.8813 26.5388 30.8795 26.8735C30.8795 26.9936 30.8795 27.1155 30.8795 27.2356C30.8795 27.5558 30.8795 27.5558 31.2005 27.5558C32.2934 27.5558 33.3862 27.5558 34.4791 27.5558C34.8308 27.5558 35.1824 27.5612 35.5341 27.5521C35.5954 27.5521 35.7036 27.4866 35.7054 27.4466C35.7198 27.1246 35.7126 26.8026 35.7126 26.4569Z" fill="white"/>
<path d="M29.6388 20.5445C29.0274 20.5736 28.4323 20.5499 27.9382 20.1224C27.7921 19.9969 27.6352 19.8623 27.5432 19.6985C27.3268 19.3129 27.105 18.9217 26.9571 18.5069C26.5351 17.3299 27.3178 16.2329 28.398 16.0073C29.7091 15.7344 31.022 15.4579 32.3457 15.2687C33.2546 15.1396 34.1978 15.6708 34.4232 16.5913C34.5693 17.1935 34.6378 17.8393 34.5981 18.456C34.535 19.4511 33.9363 20.1206 32.8164 20.2534C31.7614 20.3771 30.6992 20.4517 29.6406 20.5463L29.6388 20.5445ZM29.6911 18.8908C30.1491 18.8617 30.4773 18.8417 30.8056 18.818C31.4025 18.7744 31.9994 18.7307 32.5963 18.6798C32.948 18.6507 33.0688 18.5015 33.0436 18.1467C33.0237 17.8538 33.0093 17.5573 32.9714 17.2662C32.9282 16.9406 32.6685 16.7878 32.3547 16.8569C31.8948 16.9588 31.4331 17.0443 30.9697 17.1352C30.2429 17.279 29.5161 17.4118 28.793 17.5646C28.3728 17.6537 28.3584 17.7974 28.5026 18.1868C28.7461 18.8471 29.1573 19.08 29.6911 18.889V18.8908Z" fill="white"/>
<path d="M36.1491 7.87544C36.6865 7.87544 37.2329 7.81723 37.7613 7.88818C38.5728 7.99915 38.9624 8.44304 39.0832 9.25987C39.1481 9.70194 39.2725 10.1404 39.0724 10.5934C38.8433 11.1137 38.4971 11.4757 37.9308 11.5739C37.2834 11.6867 36.6342 11.7959 35.9813 11.8741C35.5305 11.9287 35.1824 11.6176 35.1265 11.1701C35.0778 10.7826 35.3538 10.4005 35.774 10.3223C36.2519 10.235 36.7352 10.1749 37.2167 10.1076C37.5936 10.0549 37.7036 9.85112 37.5142 9.51638C37.4818 9.45999 37.3645 9.42906 37.287 9.42906C36.4412 9.41996 35.5936 9.42906 34.7478 9.40723C34.5476 9.40177 34.3204 9.35447 34.1599 9.24532C33.8858 9.05976 33.7866 8.7614 33.8804 8.42485C33.976 8.08101 34.2248 7.90455 34.5549 7.83906C34.6775 7.81359 34.8073 7.81905 34.9354 7.81905C35.3393 7.81723 35.7433 7.81905 36.1491 7.81905C36.1491 7.83724 36.1491 7.85725 36.1491 7.87544Z" fill="white"/>
</g>
<defs>
<clipPath id="clip0_1352_966">
<rect width="51" height="54" fill="white"/>
</clipPath>
</defs>
</svg>
