<svg width="61" height="54" viewBox="0 0 61 54" fill="none" xmlns="http://www.w3.org/2000/svg">
<g clip-path="url(#clip0_1352_985)">
<path d="M4.2549 52.6777C3.55306 47.9732 3.4434 43.359 3.72225 38.7199C3.86011 36.419 4.8596 34.7311 6.86014 33.6001C6.9698 33.5378 7.06223 33.4476 7.20949 33.3356C6.98547 33.2563 6.81471 33.1987 6.64708 33.1365C5.93585 32.8751 5.56613 32.3477 5.48937 31.6181C5.41261 30.8854 5.77292 30.3471 6.38703 30.0204C7.47738 29.4417 8.62099 29.1865 9.87583 29.7404C10.2001 29.1274 10.5134 28.5067 10.8503 27.8984C11.2027 27.2637 11.5678 26.6352 11.9437 26.0129C12.7302 24.7139 13.902 24.0932 15.4169 23.9438C20.289 23.4631 25.1642 23.4616 30.0441 23.7478C31.0327 23.8054 32.0149 23.95 33.0019 24.0496C34.2442 24.1756 35.1481 24.8352 35.7747 25.8604C36.5439 27.1206 37.2567 28.4149 38.0212 29.7419C38.8343 29.2363 39.7273 29.4183 40.6046 29.6595C41.7466 29.9722 42.3137 30.5665 42.345 31.3988C42.3795 32.3322 41.9362 32.8642 40.6484 33.348C40.9304 33.5425 41.1607 33.7183 41.4067 33.8676C43.2819 35.0002 44.0009 36.7395 44.1294 38.8288C44.391 43.0836 44.2892 47.3245 43.7377 51.5529C43.6954 51.8811 43.603 52.2032 43.5059 52.6668C44.7498 52.6668 45.9341 52.6761 47.1184 52.6497C47.2203 52.6481 47.3707 52.421 47.402 52.2778C47.4506 52.0554 47.4192 51.8142 47.4192 51.5809C47.4192 38.6437 47.413 25.7064 47.4365 12.7692C47.4365 11.9991 47.1983 11.8373 46.4652 11.8389C37.6406 11.8638 28.8159 11.8545 19.9913 11.8529C18.7756 11.8529 18.6848 11.7611 18.6848 10.585C18.6848 7.44715 18.6817 4.31085 18.6848 1.173C18.6848 0.161793 18.8461 0.0015557 19.8644 0.0015557C33.2008 0 46.5419 0 59.883 0C60.8653 0 60.9985 0.13379 60.9985 1.14189C61 18.3837 61.0016 35.624 60.9985 52.8659C60.9985 53.8771 60.8794 53.9984 59.8815 53.9984C40.274 54 20.6665 53.9984 1.06061 53.9984C0.95565 53.9984 0.852255 53.9984 0.747293 53.9953C0.291415 53.9891 -0.0877008 53.7853 0.017261 53.317C0.0736583 53.065 0.465307 52.7321 0.728494 52.7103C1.63555 52.6341 2.55358 52.6777 3.4669 52.6761C3.74419 52.6761 4.02147 52.6761 4.25333 52.6761L4.2549 52.6777ZM22.8786 49.7094C27.8353 49.6083 31.7517 49.5911 35.6604 49.4231C37.686 49.336 39.7022 49.0015 41.7168 48.7371C42.3074 48.6593 42.7962 48.4041 42.7915 47.6434C42.7743 44.7187 42.7915 41.794 42.7868 38.8677C42.7837 36.9775 41.9205 35.5743 40.2333 34.7388C38.9753 34.1166 38.1293 33.1614 37.5356 31.9355C37.2536 31.3521 36.981 30.7625 36.6661 30.1962C35.9627 28.9283 35.2546 27.662 34.5105 26.4174C34.0985 25.7282 33.4374 25.3891 32.6259 25.33C31.0139 25.2148 29.4003 24.9706 27.7898 24.9846C23.7245 25.0219 19.6608 25.1822 15.5955 25.2771C14.2607 25.3082 13.4242 26.0285 12.8367 27.1283C12.1161 28.4771 11.3594 29.8104 10.703 31.1903C9.93693 32.802 8.94841 34.1275 7.27842 34.9644C6.02045 35.596 5.17135 36.6819 5.14315 38.1816C5.08676 41.209 5.05229 44.2364 5.03976 47.2638C5.03506 48.387 5.21365 48.6064 6.35726 48.7962C7.6685 49.014 8.98914 49.2364 10.3145 49.2909C14.8482 49.4791 19.3866 49.5958 22.8833 49.7078L22.8786 49.7094ZM20.0853 10.4901C20.3579 10.5072 20.5866 10.5352 20.8169 10.5352C33.5032 10.5368 46.191 10.5337 58.8773 10.5477C59.4804 10.5477 59.6919 10.3983 59.6841 9.76826C59.6496 7.25424 59.6387 4.73867 59.6888 2.22466C59.7029 1.47481 59.4413 1.33635 58.7551 1.33635C46.1472 1.35502 33.5377 1.34879 20.9297 1.34879C20.654 1.34879 20.3783 1.34879 20.0869 1.34879V10.4885L20.0853 10.4901ZM48.8041 37.6293C48.7728 37.8689 48.7477 37.97 48.7477 38.0712C48.7446 42.7367 48.7524 47.4007 48.732 52.0663C48.7289 52.6372 49.0031 52.6854 49.4527 52.6839C52.5326 52.6745 55.6125 52.6512 58.6909 52.6979C59.4898 52.7103 59.6888 52.491 59.6872 51.7038C59.6622 38.7448 59.6684 25.7873 59.6684 12.8283C59.6684 12.6992 59.6559 12.5685 59.6684 12.4394C59.7139 12.0038 59.5227 11.8342 59.0825 11.8482C58.3791 11.87 57.6742 11.8529 56.9692 11.8529C54.4642 11.8529 51.9577 11.8498 49.4527 11.856C49.1315 11.856 48.7305 11.7564 48.7399 12.3072C48.7508 12.9715 48.743 13.6357 48.743 14.3871C49.1253 14.3871 49.4072 14.3871 49.6877 14.3871C51.8276 14.3871 53.9676 14.4027 56.1076 14.3809C56.8376 14.3731 57.1728 14.6609 57.1462 15.3921C57.1258 15.9615 57.1431 16.5325 57.1431 17.1018C57.1431 23.5285 57.1431 29.9566 57.1431 36.3832C57.1431 37.4955 57.0084 37.6278 55.8804 37.6293C54.6538 37.6309 53.4271 37.6293 52.2005 37.6293C51.0851 37.6293 49.9681 37.6293 48.8025 37.6293H48.8041ZM55.7284 36.2743V15.7702H48.7853C48.7696 16.0533 48.7446 16.282 48.7446 16.5107C48.743 22.833 48.7446 29.1554 48.7446 35.4778C48.7446 35.6069 48.6991 35.7687 48.7602 35.859C48.8668 36.0207 49.0391 36.2557 49.1848 36.2572C51.3467 36.2821 53.5102 36.2743 55.7284 36.2743ZM10.6325 52.5936H37.216C37.0985 51.934 36.9951 51.3569 36.9058 50.859H10.9395C10.8456 51.3818 10.7437 51.9605 10.6309 52.5936H10.6325ZM5.19485 49.9738C5.28885 50.5152 5.34211 51.0006 5.4643 51.4673C5.5395 51.7505 5.66013 52.0803 5.87162 52.2592C6.3698 52.6792 8.69775 52.6668 9.09097 52.1876C9.36825 51.8485 9.44032 51.3086 9.48732 50.8466C9.49672 50.7579 8.97661 50.5557 8.68522 50.5059C7.56511 50.313 6.43716 50.1605 5.19485 49.9754V49.9738ZM42.6521 49.9816C41.2954 50.1776 40.0923 50.3737 38.8829 50.5137C38.4442 50.565 38.2954 50.7299 38.3361 51.15C38.3925 51.7489 38.4944 52.3292 39.2338 52.3992C40.2615 52.4941 41.3471 52.8799 42.2354 51.9729C42.2683 51.9387 42.2824 51.8796 42.2918 51.8298C42.4108 51.2309 42.5268 50.6303 42.6521 49.9816ZM8.44083 31.9868C8.47216 31.6025 8.50193 31.2307 8.54423 30.7065C8.03352 30.8558 7.58704 30.9538 7.17189 31.1265C7.02933 31.1856 6.86327 31.461 6.89617 31.5885C6.93064 31.7254 7.17816 31.8624 7.35362 31.8966C7.70453 31.9635 8.06798 31.9588 8.44083 31.9853V31.9868ZM39.3748 31.9915C39.7884 31.9604 40.1549 31.9619 40.5043 31.8919C40.675 31.8577 40.9194 31.7037 40.9429 31.5714C40.9664 31.4361 40.7941 31.1794 40.6469 31.1203C40.2364 30.9538 39.7946 30.862 39.2902 30.7189C39.3231 31.2261 39.3466 31.5761 39.3732 31.993L39.3748 31.9915Z" fill="white"/>
<path d="M23.9094 32.7662C20.0258 32.8923 16.1422 33.0167 12.257 33.1474C10.9113 33.1925 10.7045 32.8814 11.3124 31.6586C11.9703 30.3362 12.6424 29.0201 13.3051 27.6993C13.8252 26.6617 14.6774 26.1187 15.8226 25.9694C21.2305 25.2646 26.6384 25.2646 32.0447 25.974C33.0959 26.1125 33.9324 26.5932 34.4165 27.5437C35.1685 29.0217 35.8891 30.5167 36.6035 32.0133C36.9873 32.8176 36.6928 33.1878 35.7215 33.1583C32.463 33.0572 29.2044 32.9483 25.9459 32.8502C25.2676 32.83 24.5893 32.8471 23.9109 32.8471C23.9109 32.8207 23.9094 32.7927 23.9078 32.7662H23.9094ZM34.9053 31.6321C34.4384 30.6536 33.9371 29.7155 33.5376 28.737C33.1209 27.7164 32.3893 27.2746 31.3178 27.2093C29.6525 27.1066 27.9872 26.8219 26.325 26.8483C22.9381 26.9012 19.5527 27.0879 16.1704 27.2793C15.6973 27.3057 15.0424 27.5469 14.8168 27.9031C14.0649 29.0948 13.4696 30.386 12.8179 31.6306H34.9037L34.9053 31.6321Z" fill="white"/>
<path d="M23.8811 44.1586C21.5845 44.1586 19.2879 44.1617 16.9928 44.1586C15.4795 44.1555 14.8622 43.3683 15.221 41.9091C15.3573 41.3568 15.4904 40.8014 15.6518 40.2569C15.9119 39.3841 16.5213 38.891 17.4189 38.8879C21.7505 38.8754 26.0822 38.8754 30.4138 38.8879C31.3491 38.891 31.971 39.4075 32.2185 40.316C32.3673 40.8652 32.4864 41.4237 32.6149 41.9791C32.947 43.4056 32.3438 44.1555 30.8477 44.1586C28.5261 44.1633 26.2028 44.1586 23.8811 44.1601V44.1586ZM31.418 42.7507C31.2284 41.9822 31.1094 41.2914 30.8712 40.6443C30.7961 40.4389 30.406 40.2258 30.1584 40.2242C25.9866 40.1978 21.8132 40.1993 17.6414 40.2211C17.4095 40.2211 17.0414 40.414 16.974 40.6007C16.7343 41.2728 16.598 41.9806 16.4038 42.7507H31.4196H31.418Z" fill="white"/>
<path d="M10.4586 43.1163C8.71498 43.1288 7.36614 41.8157 7.35204 40.0936C7.33794 38.3605 8.65231 37.0055 10.374 36.9791C12.1301 36.9511 13.526 38.3092 13.5307 40.0485C13.5338 41.7722 12.2022 43.1039 10.4602 43.1163H10.4586ZM12.2069 40.1698C12.2821 39.2473 11.4706 38.3434 10.5181 38.2874C9.62517 38.2361 8.74631 39.0155 8.66485 39.9302C8.58182 40.8512 9.39488 41.7535 10.3552 41.8064C11.2623 41.8562 12.1348 41.0861 12.2085 40.1698H12.2069Z" fill="white"/>
<path d="M37.3946 43.1148C35.6338 43.1055 34.2849 41.7458 34.3022 40.0018C34.321 38.3217 35.7027 36.976 37.4134 36.9775C39.1633 36.9775 40.5247 38.3575 40.498 40.0998C40.4714 41.8236 39.1335 43.1226 37.3946 43.1148ZM39.1586 40.0298C39.1461 39.0886 38.3581 38.2983 37.4228 38.2906C36.4656 38.2812 35.6306 39.1135 35.6369 40.0703C35.6432 41.0208 36.5064 41.8422 37.462 41.808C38.4066 41.7738 39.1711 40.9726 39.1586 40.0314V40.0298Z" fill="white"/>
<path d="M10.4821 46.5078C10.952 46.5078 11.4408 46.43 11.8857 46.5358C12.1677 46.6027 12.3839 46.9449 12.6299 47.1627C12.3917 47.3899 12.1693 47.7928 11.9155 47.813C10.9301 47.8908 9.93063 47.8908 8.94524 47.8146C8.69929 47.7959 8.4831 47.3836 8.25281 47.1518C8.50033 46.9372 8.72122 46.5965 9.00164 46.5358C9.47475 46.4331 9.98703 46.5078 10.4836 46.5062L10.4821 46.5078Z" fill="white"/>
<path d="M37.4541 46.5092C37.9241 46.5092 38.4113 46.4315 38.8562 46.5373C39.1413 46.6041 39.3622 46.9417 39.6113 47.158C39.3732 47.3867 39.1507 47.7943 38.8954 47.8145C37.91 47.8923 36.9121 47.8907 35.9282 47.8145C35.6838 47.7958 35.4692 47.3867 35.2421 47.1564C35.4849 46.9417 35.6979 46.5995 35.9752 46.5388C36.4483 46.4361 36.9606 46.5108 37.4557 46.5092H37.4541Z" fill="white"/>
<path d="M42.0442 4.02146C41.8844 4.29993 41.781 4.53484 41.6275 4.73242C40.7753 5.83696 39.9058 6.92907 39.0536 8.03517C38.7606 8.41476 38.4113 8.61389 37.9961 8.30586C37.5669 7.9885 37.7 7.59024 37.9852 7.22465C38.875 6.08277 39.7444 4.92532 40.6687 3.81144C40.8426 3.60297 41.2311 3.48474 41.521 3.48785C41.687 3.48785 41.8515 3.81299 42.0442 4.02146Z" fill="white"/>
<path d="M27.5846 3.34628C27.7773 3.47852 28.0499 3.56875 28.1204 3.73988C28.2049 3.94678 28.2159 4.29371 28.0937 4.45861C27.1491 5.72962 26.184 6.98663 25.1689 8.20163C25.0295 8.36965 24.4749 8.4101 24.301 8.27319C24.1271 8.13629 24.0425 7.59646 24.1741 7.416C25.1031 6.13566 26.0947 4.89887 27.0801 3.65898C27.182 3.52986 27.3762 3.47229 27.5861 3.34473L27.5846 3.34628Z" fill="white"/>
<path d="M52.26 8.44126C51.6208 8.46771 51.237 7.91699 51.5535 7.4814C52.5169 6.16372 53.5274 4.87715 54.5739 3.62481C54.696 3.47857 55.1566 3.60925 55.4621 3.61236C55.4558 3.94062 55.5765 4.35599 55.4198 4.58001C54.7399 5.55855 53.9786 6.47952 53.2454 7.42228C53.0543 7.66808 52.8772 7.92788 52.6642 8.15346C52.531 8.29503 52.3415 8.38526 52.2584 8.44126H52.26Z" fill="white"/>
<path d="M51.1837 4.04481C51.0302 4.30306 50.9331 4.51152 50.7952 4.68887C49.9446 5.79498 49.0798 6.89175 48.2307 7.99941C47.9284 8.393 47.5727 8.64969 47.1216 8.29188C46.7064 7.96207 46.8521 7.56848 47.1388 7.20289C48.0349 6.06567 48.9043 4.90667 49.8318 3.7959C50.0025 3.59055 50.4004 3.48943 50.6887 3.49876C50.8516 3.50343 51.0036 3.83324 51.1837 4.04326V4.04481Z" fill="white"/>
<path d="M43.0499 8.44904C42.4155 8.42104 42.1006 7.87343 42.428 7.43161C43.382 6.14349 44.3706 4.88026 45.3983 3.65126C45.533 3.48946 46.0907 3.46457 46.2599 3.60614C46.4291 3.74615 46.5011 4.27665 46.3695 4.45866C45.4437 5.73434 44.4599 6.96801 43.476 8.20169C43.3617 8.34481 43.1361 8.40082 43.0499 8.44904Z" fill="white"/>
<path d="M29.3328 8.45526C28.7046 8.42104 28.3991 7.86565 28.7313 7.41294C29.6665 6.14038 30.6425 4.89426 31.6545 3.68237C31.7955 3.5128 32.3501 3.4599 32.5099 3.59214C32.6869 3.73837 32.7825 4.27042 32.6524 4.44933C31.7266 5.72812 30.7396 6.9649 29.7542 8.20169C29.6399 8.34637 29.4174 8.40548 29.3313 8.45526H29.3328Z" fill="white"/>
<path d="M37.4478 4.04947C37.299 4.31083 37.2081 4.52707 37.0703 4.70598C36.2165 5.81519 35.347 6.91196 34.4932 8.01962C34.205 8.39299 33.8587 8.62324 33.4373 8.30898C33.0128 7.99318 33.1428 7.58247 33.4248 7.21844C34.3131 6.07033 35.1841 4.90977 36.1115 3.79278C36.2823 3.58743 36.6849 3.48786 36.9731 3.50031C37.1345 3.50808 37.2817 3.84567 37.4494 4.04947H37.4478Z" fill="white"/>
</g>
<defs>
<clipPath id="clip0_1352_985">
<rect width="61" height="54" fill="white"/>
</clipPath>
</defs>
</svg>
