<svg width="60" height="22" viewBox="0 0 60 22" fill="none" xmlns="http://www.w3.org/2000/svg">
<g clip-path="url(#clip0_1352_976)">
<path d="M28.2301 0.00160395C26.7971 -0.0127668 25.3705 0.0942153 23.955 0.284228C22.6255 0.461468 21.296 0.662658 19.9872 0.950073C18.0685 1.37002 16.2693 2.15402 14.4701 2.92525C12.7552 3.65975 11.0738 4.46771 9.45455 5.39382C9.02147 5.64132 8.58678 5.73553 8.10593 5.76906C7.18881 5.83293 6.27487 5.93352 5.35775 6.01815C4.70652 6.07883 4.05212 6.12833 3.40249 6.20178C2.61911 6.2896 2.09845 6.72711 1.86121 7.47119C1.59849 8.29512 1.36762 9.13181 1.11923 9.96052C0.824669 10.9425 0.54921 11.9309 0.224392 12.9017C-0.0287704 13.6554 -0.0622063 14.3979 0.104977 15.1675C0.289677 16.0202 0.444126 16.8792 0.620861 17.7335C0.765755 18.4329 1.17496 18.8752 1.89783 18.9901C2.95507 19.1594 4.01231 19.3318 5.06955 19.4995C6.24462 19.6863 7.42127 19.8636 8.59475 20.0584C8.7269 20.0807 8.8718 20.1606 8.96415 20.2564C9.78415 21.1154 10.7681 21.7014 11.9352 21.9026C13.8682 22.2347 15.5225 21.6455 16.8998 20.2564C16.9635 20.1925 17.0829 20.1526 17.1769 20.1526C19.441 20.1494 21.7052 20.1542 23.9677 20.1542C29.9115 20.1542 35.8569 20.1542 41.8007 20.1542C42.1048 20.1542 42.4105 20.1366 42.7131 20.151C42.8181 20.1558 42.9439 20.2085 43.0172 20.2819C44.1381 21.4188 45.4915 22.0351 47.0853 21.9952C48.5756 21.9585 49.8542 21.3629 50.9003 20.2915C51.0022 20.1877 51.1041 20.1478 51.2458 20.1398C53.3141 20.0264 55.349 19.7103 57.3154 19.0412C58.1274 18.765 58.8917 18.3882 59.492 17.7431C59.8327 17.3806 60.0047 16.9591 59.9983 16.4513C59.9856 15.6162 59.984 14.7811 59.9999 13.9476C60.0079 13.5021 59.9362 13.0822 59.7706 12.6702C59.5318 12.0746 59.3312 11.4631 59.0748 10.8755C58.742 10.1138 58.1768 9.5805 57.4173 9.21644C56.4827 8.76775 55.5114 8.43403 54.5178 8.14822C53.0641 7.73146 51.5786 7.48876 50.0867 7.26521C48.1139 6.97141 46.1284 6.83569 44.1397 6.72551C43.5378 6.69198 42.936 6.6808 42.3341 6.66963C42.1574 6.66643 42.0172 6.61214 41.8867 6.49558C41.253 5.93353 40.6304 5.3587 39.9744 4.82219C38.3854 3.52243 36.7374 2.30412 34.9318 1.30934C34.0864 0.84309 33.2138 0.451887 32.2617 0.274648C30.9831 0.0383292 29.687 -0.01117 28.3878 0.00160395C28.3352 0.00160395 28.2811 0.00160395 28.2285 0.00160395H28.2301ZM1.12082 16.2501C1.21317 16.2453 1.26571 16.2389 1.31667 16.2389C2.58089 16.2389 3.84513 16.2405 5.10936 16.2389C5.24151 16.2389 5.37526 16.2373 5.50423 16.2198C5.70963 16.191 5.80676 16.0793 5.81631 15.8765C5.82427 15.6881 5.73033 15.5555 5.55518 15.4996C5.45009 15.4661 5.33386 15.4629 5.2224 15.4629C4.55367 15.4597 3.88493 15.4613 3.21619 15.4597C2.51402 15.4597 1.81344 15.4597 1.11127 15.4501C1.05076 15.4501 0.945675 15.3975 0.936119 15.3511C0.815109 14.8226 0.671814 14.2877 0.810337 13.7432C0.945679 13.2051 1.11604 12.675 1.26571 12.1417C1.3087 11.9868 1.40424 11.9453 1.56028 11.9469C2.26882 11.9549 2.97736 11.9501 3.68431 11.9517C3.92633 11.9517 4.11581 11.8926 4.22248 11.6403C4.32598 11.3976 4.46291 11.1693 4.5887 10.9377C4.9565 10.2559 5.33068 9.5805 5.69212 8.89549C5.91184 8.47715 5.81631 8.28075 5.36889 8.14342C4.74314 7.95182 4.12058 7.75062 3.49643 7.55582C3.27192 7.48556 3.04742 7.4169 2.79266 7.33866C2.96621 7.12151 3.18117 7.01772 3.42637 6.98898C3.912 6.93309 4.39922 6.88998 4.88644 6.84687C6.05196 6.74308 7.21906 6.63769 8.38457 6.54189C8.76989 6.50995 9.13451 6.45407 9.4864 6.26246C10.5532 5.67964 11.6136 5.07607 12.7154 4.56511C14.2249 3.86574 15.7662 3.22863 17.3042 2.59313C18.6338 2.04544 20.0158 1.66222 21.4393 1.44347C22.4121 1.29337 23.3882 1.15286 24.3658 1.0363C25.1396 0.943686 25.9182 0.867042 26.6968 0.831913C28.1712 0.763253 29.6488 0.737705 31.1184 0.910154C31.6359 0.97083 32.1629 1.02512 32.6597 1.17362C33.717 1.48977 34.6866 2.00552 35.6197 2.59153C37.7421 3.92162 39.6687 5.5024 41.5173 7.18538C41.694 7.34665 41.8771 7.42968 42.1176 7.43926C44.127 7.51431 46.1395 7.57179 48.1362 7.82887C49.4211 7.99333 50.706 8.17217 51.9846 8.38453C53.467 8.63043 54.927 8.98331 56.3139 9.57571C56.8107 9.78808 57.2788 10.0659 57.7517 10.3278C57.8663 10.3916 57.9491 10.5146 58.0462 10.612C58.0335 10.6312 58.0223 10.6519 58.0096 10.6711C57.9268 10.6775 57.844 10.6902 57.7612 10.6902C56.3839 10.695 55.0083 10.695 53.631 10.7014C53.0594 10.703 52.6088 11.0447 52.5021 11.5461C52.3874 12.0858 52.6422 12.5824 53.1836 12.8139C53.5466 12.9704 53.9192 13.1141 54.2981 13.2259C55.4604 13.566 56.6562 13.6937 57.8615 13.7496C58.3026 13.7704 58.7436 13.7863 59.1958 13.8055C59.2006 13.871 59.2054 13.9221 59.2054 13.9732C59.2054 14.6358 59.1974 15.2985 59.2101 15.9611C59.2133 16.1543 59.1481 16.191 58.9729 16.1894C57.61 16.1847 56.2454 16.1894 54.8825 16.1894C54.7774 16.1894 54.6707 16.1958 54.5672 16.215C54.3777 16.2485 54.2376 16.4178 54.2472 16.587C54.2567 16.7675 54.4159 16.9415 54.599 16.9607C54.6978 16.9703 54.7981 16.9687 54.8968 16.9687C56.1945 16.9702 57.4921 16.9718 58.7882 16.975C58.8821 16.975 58.9745 16.9894 59.1114 17.0006C59.0446 17.0916 59.0079 17.1443 58.9681 17.1938C58.6178 17.6249 58.1338 17.8596 57.6466 18.0832C56.9587 18.3993 56.2327 18.6085 55.4955 18.757C54.5497 18.947 53.5959 19.0891 52.6422 19.2408C52.319 19.2919 51.991 19.3095 51.655 19.3414C52.9256 16.5838 52.5578 14.1632 50.1599 12.2551C48.3432 10.8084 45.888 10.7254 43.9884 12.081C41.3485 13.9652 40.9743 16.4832 42.2545 19.3622H17.5813C19.0828 16.5503 18.1035 13.9476 16.4922 12.5457C14.564 10.8659 12.026 10.7062 9.91471 12.081C8.86065 12.7676 8.17281 13.7289 7.77793 14.9057C7.28434 16.3763 7.46108 17.7974 8.19351 19.2153C7.98333 19.1849 7.81933 19.1642 7.65374 19.137C6.44524 18.9454 5.23674 18.7538 4.02983 18.559C3.33084 18.4472 2.63344 18.3291 1.93604 18.2157C1.58416 18.1582 1.41857 17.9331 1.36284 17.5978C1.31189 17.2912 1.24979 16.9862 1.19247 16.6812C1.167 16.5455 1.14152 16.4114 1.11286 16.2533L1.12082 16.2501ZM42.3405 16.5854C42.3039 14.0147 44.3929 11.9549 46.9341 11.9517C49.66 11.9485 51.6104 14.1648 51.6009 16.6094C51.5913 19.062 49.5214 21.2495 46.9388 21.224C44.4295 21.2 42.2943 19.169 42.3405 16.5854ZM12.9208 11.9533C15.7853 11.9533 17.5033 14.3292 17.5622 16.429C17.6354 19.046 15.4716 21.2543 12.8572 21.224C10.3287 21.1936 8.29063 19.137 8.28904 16.5663C8.28745 14.0147 10.4099 11.9229 12.9208 11.9549V11.9533ZM59.0748 12.9896C58.9904 12.9991 58.9331 13.0135 58.8774 13.0103C57.5861 12.9369 56.2852 12.9289 55.0242 12.592C54.4971 12.4515 53.9844 12.2582 53.4654 12.0826C53.3157 12.0315 53.2472 11.9229 53.2727 11.7585C53.303 11.5605 53.4049 11.479 53.6564 11.479C55.1038 11.4774 56.5511 11.479 58.0001 11.4758C58.4793 11.4758 58.4841 11.471 58.6688 11.9213C58.8105 12.2662 58.9363 12.6175 59.0764 12.988L59.0748 12.9896ZM4.87211 8.7965C4.84982 8.84919 4.84027 8.87953 4.82594 8.90827C4.46132 9.57411 4.08555 10.2352 3.73526 10.909C3.63018 11.1118 3.50917 11.1757 3.28785 11.1677C2.81973 11.1501 2.34843 11.1629 1.88032 11.1677C1.57779 11.1693 1.55709 11.1485 1.64466 10.8531C1.90579 9.9733 2.17488 9.09509 2.43122 8.21528C2.46944 8.08435 2.53631 8.07956 2.63503 8.10989C2.83725 8.17217 3.03787 8.23923 3.23849 8.3015C3.77507 8.46597 4.31006 8.62724 4.87053 8.79809L4.87211 8.7965Z" fill="white"/>
<path d="M35.2711 8.78056C36.9111 8.84284 38.5511 8.9083 40.1911 8.96738C40.3153 8.97217 40.4442 8.96419 40.5636 8.93704C40.8725 8.86679 40.9713 8.54744 40.7563 8.31112C40.5923 8.13069 40.4092 7.96622 40.2261 7.80176C38.5702 6.31359 36.8378 4.92122 34.9494 3.73484C34.1581 3.23825 33.3397 2.79276 32.456 2.48139C31.7299 2.22431 30.9641 2.19717 30.2062 2.14607C28.3178 2.01674 26.4358 2.11094 24.5569 2.30575C22.8517 2.48139 21.1559 2.74326 19.5096 3.22547C18.6498 3.47776 17.8139 3.81946 16.9779 4.14999C16.1006 4.49808 15.2344 4.87971 14.3667 5.25494C13.9527 5.43378 13.7712 5.70363 13.8524 6.06609C13.8922 6.24652 14.0021 6.44452 14.1406 6.56428C15.3809 7.6325 16.8123 8.21691 18.4603 8.26162C20.8359 8.32709 23.2099 8.41331 25.5839 8.48995C26.9803 8.53466 28.3751 8.57618 29.7715 8.62089C31.6042 8.67837 33.4352 8.73745 35.2679 8.79653C35.2679 8.79014 35.2679 8.78535 35.2679 8.77897L35.2711 8.78056ZM39.422 8.13548C39.2182 8.13548 39.0542 8.14027 38.8902 8.13548C38.0049 8.10194 37.1196 8.05883 36.2328 8.03169C34.1231 7.96782 32.0134 7.91512 29.9037 7.84966C27.8736 7.78579 25.8451 7.71074 23.815 7.64368C23.6956 7.64048 23.6462 7.61494 23.6287 7.48081C23.4472 6.14433 23.2577 4.80785 23.0666 3.47297C23.0475 3.34523 23.081 3.29413 23.2115 3.27817C23.7752 3.20951 24.3372 3.10891 24.9025 3.06101C26.6428 2.91571 28.3863 2.80393 30.1345 2.93966C30.7523 2.98756 31.3749 3.04504 31.9815 3.17118C32.8047 3.34363 33.5308 3.76997 34.2457 4.19949C36.0736 5.29646 37.7263 6.62655 39.336 8.01412C39.3631 8.03807 39.379 8.0732 39.4236 8.13548H39.422ZM14.6182 6.0597C14.6405 6.03096 14.6628 6.00062 14.6851 5.97188C14.7472 5.93675 14.8077 5.89683 14.8714 5.86969C15.7424 5.50403 16.6149 5.14157 17.4859 4.77432C18.9539 4.15638 20.4681 3.70131 22.046 3.46818C22.2291 3.44104 22.2928 3.48574 22.3135 3.66937C22.3772 4.21386 22.4552 4.75835 22.5348 5.30125C22.6447 6.06449 22.7609 6.82774 22.8787 7.62611C22.7721 7.62611 22.6813 7.62931 22.5921 7.62611C21.1703 7.57342 19.7484 7.51913 18.3265 7.46963C17.0177 7.42333 15.8681 6.95229 14.8332 6.16988C14.7711 6.12198 14.6899 6.09802 14.6182 6.0629V6.0597Z" fill="white"/>
<path d="M29.8957 17.5211C33.0722 17.5211 36.2487 17.5211 39.4252 17.5211C39.551 17.5211 39.6783 17.5243 39.8009 17.5067C39.9984 17.478 40.1417 17.3135 40.1337 17.1475C40.1258 16.9782 39.9602 16.785 39.7786 16.7754C39.4491 16.7547 39.1179 16.7467 38.7867 16.7467C34.744 16.7451 30.6998 16.7467 26.6571 16.7467C24.506 16.7467 22.3565 16.7467 20.2054 16.7531C20.0732 16.7531 19.9283 16.7866 19.8137 16.8489C19.6704 16.9271 19.621 17.0804 19.6624 17.2465C19.7022 17.4045 19.8089 17.4956 19.9713 17.5115C20.0764 17.5227 20.1831 17.5243 20.2882 17.5243C23.4901 17.5243 26.6937 17.5243 29.8957 17.5243V17.5211Z" fill="white"/>
<path d="M26.2543 10.0963C25.8897 10.0963 25.5267 10.0947 25.1636 10.0963C24.8898 10.0979 24.7003 10.256 24.6987 10.4795C24.6987 10.6919 24.9009 10.8787 25.1588 10.8803C25.8801 10.8851 26.6014 10.8883 27.3227 10.8803C27.6937 10.8755 27.8832 10.5721 27.716 10.2783C27.638 10.1394 27.5138 10.0979 27.3657 10.0979C26.9947 10.0979 26.6253 10.0979 26.2543 10.0979V10.0963Z" fill="white"/>
<path d="M43.8978 16.5934C43.9743 18.4216 45.4041 19.6847 47.0218 19.6463C48.6045 19.6096 50.0375 18.3546 50.0072 16.5295C49.9786 14.8114 48.5981 13.4717 46.8992 13.526C45.1923 13.5803 43.9217 14.9184 43.8994 16.5934H43.8978ZM49.2525 16.5518C49.2414 17.7015 48.407 18.8176 47.0059 18.8639C45.799 18.9039 44.6748 17.933 44.6812 16.5997C44.6876 15.3431 45.6429 14.3004 46.9661 14.3132C48.3147 14.3244 49.2079 15.3335 49.2541 16.5534L49.2525 16.5518Z" fill="white"/>
<path d="M9.875 16.5694C9.87819 18.2444 11.1918 19.6192 12.905 19.6383C14.6023 19.6575 15.9717 18.2779 15.9764 16.571C15.9812 14.9902 14.6883 13.5116 12.905 13.5276C11.0724 13.5436 9.87182 15.0445 9.875 16.5694ZM15.2042 16.5758C15.1819 17.9298 14.1422 18.8607 12.9353 18.8575C11.5882 18.8543 10.6552 17.8133 10.6393 16.6237C10.6233 15.3639 11.6726 14.3052 12.9178 14.3004C14.1915 14.2972 15.201 15.3016 15.2042 16.5742V16.5758Z" fill="white"/>
</g>
<defs>
<clipPath id="clip0_1352_976">
<rect width="60" height="22" fill="white" transform="matrix(-1 0 0 1 60 0)"/>
</clipPath>
</defs>
</svg>
