<svg width="54" height="54" viewBox="0 0 54 54" fill="none" xmlns="http://www.w3.org/2000/svg">
<path d="M29.25 6.75C34.0239 6.75 38.6023 8.64642 41.9779 12.0221C45.3536 15.3977 47.25 19.9761 47.25 24.75M30.375 14.625C32.7619 14.625 35.0511 15.5732 36.739 17.261C38.4268 18.9489 39.375 21.2381 39.375 23.625" stroke="white" stroke-width="1.5" stroke-linecap="round" stroke-linejoin="round"/>
<path d="M20.6055 12.852L19.701 10.8135C19.107 9.4815 18.8122 8.8155 18.369 8.30475C17.8145 7.6651 17.0907 7.19485 16.281 6.948C15.6352 6.75 14.904 6.75 13.446 6.75C11.313 6.75 10.2465 6.75 9.35098 7.1595C8.24629 7.69622 7.39119 8.63836 6.96373 9.78975C6.64198 10.719 6.73423 11.6752 6.91873 13.59C8.88373 33.9525 20.0475 45.1162 40.41 47.0812C42.3225 47.2657 43.281 47.358 44.2125 47.0363C45.3626 46.6088 46.3038 45.7547 46.8405 44.6512C47.25 43.7535 47.25 42.687 47.25 40.554C47.25 39.0938 47.25 38.3647 47.052 37.719C46.8051 36.9092 46.3349 36.1855 45.6952 35.631C45.1845 35.1878 44.5185 34.893 43.1865 34.299L41.148 33.3945C39.7035 32.7533 38.9835 32.4315 38.25 32.3618C37.5477 32.2943 36.8394 32.393 36.1822 32.6497C35.496 32.9175 34.8885 33.4215 33.6757 34.434C32.4675 35.4397 31.8645 35.9415 31.1265 36.2115C30.4174 36.4568 29.6611 36.5346 28.917 36.4387C28.1407 36.3262 27.5445 36.0068 26.3542 35.37C22.6507 33.39 20.61 31.3492 18.63 27.6457C17.9932 26.4532 17.676 25.8593 17.5612 25.0808C17.4654 24.3382 17.5424 23.5836 17.7862 22.8757C18.0562 22.1355 18.5602 21.5325 19.566 20.3242C20.5785 19.1092 21.0825 18.504 21.3502 17.8178C21.6067 17.1608 21.7057 16.452 21.6382 15.75C21.5685 15.0188 21.2467 14.2965 20.6055 12.852Z" stroke="white" stroke-width="1.5" stroke-linecap="round"/>
</svg>
