<svg width="54" height="54" viewBox="0 0 54 54" fill="none" xmlns="http://www.w3.org/2000/svg">
<g clip-path="url(#clip0_1352_556)">
<path d="M47.9308 38.2901C48.0255 38.3738 48.1489 38.4773 48.2678 38.5874C48.9221 39.18 49.3737 39.8915 49.4002 40.7946C49.4354 42.0039 48.8142 42.8894 47.8625 43.5436C46.6376 44.3828 45.2475 44.6428 43.7847 44.5436C42.9189 44.4842 42.0972 44.2485 41.3151 43.863C40.3282 43.3762 39.6409 42.6383 39.3589 41.5589C39.306 41.3563 39.2179 41.2043 39.0549 41.0677C38.427 40.5369 37.8036 39.9972 37.1977 39.4399C37.0391 39.2923 36.8959 39.0853 36.8386 38.8782C36.7505 38.55 36.8981 38.2702 37.1867 38.0808C37.4687 37.8958 37.8124 37.8958 38.0811 38.1183C38.5394 38.4949 38.98 38.8958 39.4294 39.2857C39.5021 39.3496 39.5792 39.4047 39.632 39.4465C40.0021 39.0522 40.3502 38.6822 40.7313 38.2769C40.5463 38.0808 40.3392 37.8671 40.1387 37.6469C38.3741 35.6798 36.7549 33.6093 35.6358 31.1951C35.0278 29.8822 34.5982 28.5165 34.6356 27.0473C34.7127 24.1551 35.8561 21.7542 38.0349 19.8598C40.0484 18.1108 42.4254 17.3465 45.0602 17.5601C49.7394 17.9412 52.9073 21.2387 53.8084 25.3204C54.2093 27.142 53.9339 28.8558 53.262 30.5475C52.4844 32.5057 51.3124 34.2238 50.0038 35.8538C49.3407 36.6777 48.6335 37.4662 47.9263 38.2923L47.9308 38.2901ZM44.3553 39.5588C45.5339 38.3297 46.7059 37.1491 47.8316 35.9221C49.2085 34.4221 50.4201 32.7943 51.3432 30.9704C52.2266 29.2258 52.6364 27.4152 52.209 25.4547C51.352 21.5251 47.4307 18.4038 42.7735 19.2739C40.5749 19.6836 38.8786 20.8841 37.6273 22.7212C36.3628 24.5781 35.9376 26.6156 36.4575 28.8051C36.8012 30.2523 37.515 31.5475 38.3367 32.7744C39.903 35.1115 41.8064 37.1601 43.8376 39.0963C43.9808 39.2328 44.135 39.3628 44.3553 39.5566V39.5588ZM44.4654 42.9577C44.6218 42.9466 44.8796 42.9444 45.1329 42.9048C45.9701 42.7792 46.7544 42.5259 47.3646 41.9003C47.7171 41.5391 47.8933 41.1118 47.7567 40.6007C47.6422 40.1712 47.3271 39.8915 47.0011 39.6205C46.8315 39.4795 46.7213 39.4685 46.5473 39.6381C46.0163 40.1536 45.4722 40.6558 44.9104 41.1382C44.4764 41.5105 44.168 41.5061 43.7384 41.1426C43.2207 40.7065 42.7052 40.2659 42.225 39.7901C41.7998 39.3672 41.8615 39.5016 41.5112 39.7637C41.4826 39.7857 41.4561 39.8122 41.4297 39.8364C40.6785 40.5435 40.7115 41.3453 41.4892 42.0237C42.3197 42.7484 43.3111 42.9466 44.4654 42.9577Z" fill="white"/>
<path d="M12.5814 47.1803C12.8171 47.3389 13.0176 47.4622 13.207 47.6032C13.9384 48.1451 14.4759 48.8345 14.6302 49.7421C14.8042 50.7641 14.4143 51.6298 13.7203 52.3611C12.914 53.2114 11.8764 53.6277 10.7573 53.859C9.09401 54.2004 7.50785 53.9251 6.04726 53.088C5.02286 52.4999 4.37518 51.6012 4.243 50.3875C4.16589 49.6848 4.41263 49.0746 4.80476 48.5129C5.16165 48.0019 5.63089 47.612 6.16622 47.297C6.24332 47.2508 6.32043 47.2067 6.42838 47.1406C6.25214 46.9071 6.08911 46.6891 5.92389 46.4754C5.17267 45.5018 4.33552 44.6097 3.41026 43.7991C1.59279 42.2087 0.460443 40.213 0.118978 37.8275C-0.372292 34.3802 0.704977 31.4572 3.2935 29.1223C5.24757 27.3579 7.58055 26.5341 10.1933 26.6795C13.0925 26.8403 15.5092 28.0429 17.3332 30.347C18.7476 32.1334 19.4746 34.1776 19.4591 36.442C19.4393 39.1315 18.4369 41.451 16.5181 43.3475C15.5422 44.3123 14.5266 45.2353 13.5353 46.1847C13.2136 46.493 12.9162 46.8301 12.5814 47.1803ZM9.43988 48.7332C9.48614 48.6781 9.51919 48.6473 9.54342 48.6099C11.026 46.3499 12.8832 44.4291 14.9055 42.6537C15.2558 42.3475 15.6061 42.0325 15.9079 41.6801C17.5491 39.7637 18.1439 37.5279 17.7518 35.0609C17.1151 31.0409 13.3436 27.6244 8.39345 28.3866C5.61987 28.8139 3.62836 30.4153 2.43213 32.8691C1.03763 35.7283 1.33944 38.5632 3.18335 41.1624C3.68784 41.8761 4.39941 42.4444 5.02727 43.0678C6.51209 44.5458 7.78322 46.1913 8.91997 47.9468C9.0874 48.2068 9.26144 48.4623 9.43988 48.731V48.7332ZM9.46411 52.3986C9.87167 52.3479 10.2836 52.3259 10.6846 52.2378C11.427 52.077 12.1187 51.7972 12.643 51.2135C13.207 50.5835 13.2092 49.8324 12.6166 49.2266C12.3721 48.9777 12.0548 48.7971 11.7707 48.5856C11.6275 48.4777 11.5261 48.524 11.4358 48.6649C11.2353 48.9799 11.026 49.2927 10.819 49.6033C10.5766 49.9689 10.3541 50.35 10.0876 50.6958C9.72847 51.1628 9.17111 51.1518 8.80542 50.6914C8.67985 50.5351 8.5741 50.3632 8.46395 50.1936C8.1357 49.687 7.81186 49.1804 7.48141 48.6759C7.41532 48.5746 7.35143 48.4292 7.18621 48.5504C6.89101 48.7641 6.56496 48.9469 6.30941 49.2002C5.69918 49.8081 5.69478 50.621 6.30501 51.2245C6.57818 51.4954 6.91304 51.7245 7.25671 51.9029C7.94184 52.2576 8.69306 52.3677 9.46632 52.3964L9.46411 52.3986Z" fill="white"/>
<path d="M17.5535 13.4169C18.2585 13.5711 18.904 13.8089 19.4966 14.1878C21.1488 15.2429 22.0719 17.3487 21.7084 19.2717C21.3229 21.3137 19.7191 22.8952 17.7518 23.3225C15.0862 23.8997 11.9205 22.0582 11.709 18.6131C11.5768 16.4566 12.7708 14.5997 14.8967 13.701C15.1655 13.5887 15.4497 13.5116 15.7316 13.4389C15.8837 13.3992 15.9387 13.331 15.9387 13.1746C15.9299 9.63477 15.9255 6.09277 15.9211 2.55298C15.9211 1.98688 15.9211 1.41857 15.9497 0.852472C15.9894 0.107948 16.5446 -0.20484 17.2187 0.143192C18.177 0.636604 19.1221 1.15425 20.0716 1.66748C21.7216 2.55519 23.3717 3.43848 25.0107 4.34601C25.2442 4.47597 25.4667 4.69184 25.5989 4.92312C25.7817 5.24472 25.6275 5.61478 25.2596 5.82624C24.6979 6.15225 24.1207 6.44962 23.5501 6.7558C21.6115 7.79989 19.6706 8.84179 17.7342 9.89029C17.6549 9.93214 17.5601 10.0423 17.5601 10.1216C17.5491 11.2097 17.5513 12.2979 17.5513 13.4191L17.5535 13.4169ZM15.9057 15.0997C14.7711 15.2694 13.2334 16.558 13.3061 18.4876C13.3766 20.3114 14.8571 21.7674 16.6525 21.8313C18.3664 21.893 20.0694 20.4634 20.1773 18.5514C20.2632 17.0404 18.9877 15.2958 17.5535 15.0909C17.5535 15.1923 17.5535 15.2914 17.5535 15.3905C17.5535 16.3223 17.5579 17.2562 17.5491 18.188C17.5491 18.3488 17.5227 18.5184 17.472 18.6704C17.3597 19.0008 17.0182 19.21 16.6767 19.1836C16.3154 19.1572 16.0202 18.8995 15.9564 18.5404C15.9299 18.3884 15.9189 18.232 15.9189 18.0778C15.9145 17.1813 15.9189 16.2848 15.9167 15.3883C15.9167 15.3002 15.9079 15.2099 15.9035 15.0997H15.9057ZM17.5734 2.13446V8.13911C19.4217 7.14568 21.2436 6.16767 23.1205 5.15882C21.2612 4.14336 19.4327 3.14772 17.5734 2.13226V2.13446Z" fill="white"/>
<path d="M35.964 36.5103C35.9266 36.9178 35.7966 37.1689 35.5168 37.3209C35.2216 37.4795 34.9308 37.4575 34.6753 37.2416C34.0893 36.7482 33.5077 36.246 32.9283 35.7459C32.6375 35.4948 32.3379 35.2547 32.0691 34.9838C31.8378 34.7503 31.7959 34.4529 31.9215 34.1445C32.0427 33.8494 32.2696 33.6533 32.5868 33.6555C32.7829 33.6555 33.0208 33.715 33.1662 33.8362C34.021 34.5498 34.8603 35.2834 35.6864 36.0301C35.8362 36.1645 35.9001 36.3935 35.9662 36.5125L35.964 36.5103Z" fill="white"/>
<path d="M30.0732 33.1004C29.9696 33.0454 29.7626 32.9793 29.6105 32.8471C28.8087 32.1554 28.0134 31.4506 27.2269 30.7413C26.8788 30.4263 26.8524 29.9769 27.13 29.6355C27.4097 29.2919 27.89 29.217 28.2557 29.5188C28.9452 30.0893 29.6105 30.6906 30.2825 31.2832C30.4609 31.4396 30.6416 31.5982 30.8002 31.7722C31.0337 32.0255 31.0822 32.3273 30.9279 32.6356C30.7759 32.9374 30.5138 33.0872 30.071 33.1026L30.0732 33.1004Z" fill="white"/>
<path d="M26.1408 27.9924C26.0747 28.5871 25.427 28.9638 24.9314 28.6928C24.8366 28.64 24.7441 28.5761 24.6626 28.5056C23.8916 27.8316 23.1205 27.1575 22.3517 26.4791C22.138 26.2897 21.9926 26.065 22.0234 25.761C22.0785 25.2103 22.7526 24.7522 23.3188 25.2257C23.9202 25.7302 24.5106 26.2522 25.1032 26.7699C25.3499 26.9857 25.6077 27.1972 25.828 27.4417C25.9668 27.5959 26.0395 27.8073 26.143 27.9946L26.1408 27.9924Z" fill="white"/>
<path d="M28.9871 46.6693C28.639 46.6693 28.3526 46.4666 28.2315 46.1582C28.1147 45.8609 28.1852 45.5062 28.4275 45.308C28.5377 45.2177 28.6721 45.1406 28.8087 45.1009C29.8066 44.808 30.809 44.5238 31.8091 44.2397C32.0955 44.1582 32.3709 44.1692 32.6176 44.3608C33.1089 44.7441 32.9988 45.4776 32.3996 45.7111C32.0272 45.8565 31.6329 45.949 31.2474 46.0591C30.5975 46.2464 29.9476 46.4292 29.2977 46.612C29.1832 46.6428 29.0642 46.6561 28.9871 46.6693Z" fill="white"/>
<path d="M19.4459 47.7905C19.9041 47.7861 20.2104 48.0328 20.3095 48.4072C20.3998 48.7486 20.2456 49.1121 19.8909 49.2663C19.5847 49.4007 19.2542 49.4822 18.9304 49.5747C18.1594 49.7972 17.3883 50.0174 16.6151 50.2267C16.148 50.3544 15.7559 50.1276 15.6127 49.6672C15.4915 49.2773 15.6986 48.861 16.1436 48.7244C17.0843 48.4337 18.0338 48.1737 18.9811 47.905C19.1639 47.8521 19.3512 47.8147 19.4481 47.7905H19.4459Z" fill="white"/>
<path d="M35.3053 44.8762C34.9396 44.8762 34.64 44.656 34.5254 44.3256C34.4131 44.0018 34.5166 43.6559 34.8074 43.4577C34.9242 43.3762 35.0652 43.3189 35.2018 43.2793C36.1645 42.9995 37.1272 42.7176 38.0943 42.4598C38.286 42.4092 38.5151 42.407 38.7045 42.4598C39.0174 42.5458 39.22 42.8762 39.2178 43.1956C39.2178 43.5216 38.9975 43.8255 38.634 43.9445C38.167 44.0965 37.6912 44.2242 37.2175 44.3586C36.6381 44.5216 36.0587 44.6846 35.4794 44.8432C35.4089 44.863 35.3362 44.8718 35.3009 44.8762H35.3053Z" fill="white"/>
<path d="M22.6887 48.469C22.3428 48.4734 22.0234 48.2289 21.9221 47.8941C21.8251 47.5747 21.9507 47.209 22.2415 47.035C22.3803 46.9513 22.5389 46.894 22.6953 46.8478C23.669 46.568 24.6406 46.2861 25.6187 46.0262C26.0747 45.905 26.4536 46.1385 26.5836 46.5658C26.7048 46.9645 26.5285 47.3764 26.099 47.5108C25.0107 47.8478 23.9092 48.1452 22.8121 48.458C22.768 48.4712 22.7217 48.4668 22.6887 48.4712V48.469Z" fill="white"/>
<path d="M44.3046 32.2767C41.5773 32.3053 39.2597 30.0277 39.2465 27.2655C39.2333 24.2433 41.5024 22.1684 44.2451 22.1287C47.5606 22.0802 49.3627 24.7301 49.4002 27.0849C49.4464 29.9881 47.2126 32.2459 44.3024 32.2767H44.3046ZM44.3597 23.7235C42.4277 23.6948 40.8922 25.2037 40.8415 27.1377C40.793 29.0299 42.4078 30.6841 44.331 30.6885C46.1948 30.6929 47.7787 29.151 47.8074 27.2699C47.836 25.3139 46.3182 23.7521 44.3597 23.7235Z" fill="white"/>
<path d="M9.67999 41.951C6.78965 41.9444 4.15045 39.6183 4.15926 36.3098C4.16807 33.2612 6.78524 30.7942 9.89148 30.8382C12.914 30.8823 15.3902 33.4727 15.2844 36.5984C15.1831 39.6381 12.6739 41.9841 9.67778 41.951H9.67999ZM9.74167 32.4771C7.76558 32.2986 5.74322 34.2591 5.77847 36.3583C5.81592 38.5918 7.58713 40.4003 9.73727 40.3695C11.9491 40.3386 13.6961 38.5654 13.7027 36.4023C13.7093 34.0806 11.5239 32.3008 9.74387 32.4793L9.74167 32.4771Z" fill="white"/>
</g>
<defs>
<clipPath id="clip0_1352_556">
<rect width="54" height="54" fill="white"/>
</clipPath>
</defs>
</svg>
