<svg width="54" height="54" viewBox="0 0 54 54" fill="none" xmlns="http://www.w3.org/2000/svg">
<g clip-path="url(#clip0_1352_576)">
<path d="M38.8489 52.1382C34.1888 52.1382 29.5287 52.1382 24.8687 52.1461C24.6828 52.1461 24.4819 52.2224 24.3153 52.3249C23.999 52.5222 23.6935 52.7457 23.4008 52.9902C22.1957 53.9921 20.8432 54.0947 19.4629 53.9422C14.8648 53.4373 10.9803 51.0259 7.70694 47.1024C4.28614 43.0002 1.91871 38.109 0.734997 32.3974C0.0747667 29.2129 -0.168813 25.9731 0.119637 22.6913C0.337577 20.1879 0.74568 17.7371 1.50633 15.3888C1.65376 14.9339 1.83538 14.4947 2.01272 14.0582C2.37382 13.1641 2.91012 12.483 3.62377 11.986C4.76475 11.1918 5.89078 10.3609 7.0168 9.53254C8.08086 8.75153 9.18124 8.60953 10.3201 9.24064C11.0914 9.66928 11.6769 10.353 11.9974 11.3312C12.7602 13.6532 13.5187 15.9805 14.2729 18.3077C14.4631 18.8941 14.6981 19.4726 14.7964 20.0827C15.0763 21.8078 14.4396 23.5092 13.1939 24.4479C12.1512 25.2342 11.1 26.0047 10.0274 26.7305C9.63208 26.9987 9.17056 27.1276 8.73468 27.2985C8.59793 27.3511 8.52529 27.3905 8.52956 27.593C8.61075 30.5514 9.15774 33.3362 10.5637 35.7949C11.632 37.662 13.0401 39.0531 14.6661 40.1286C14.8028 40.218 14.8776 40.168 14.9823 40.0418C15.2942 39.6737 15.5934 39.2687 15.9545 38.9899C16.9844 38.1984 18.0335 37.4463 19.0954 36.7206C19.4287 36.4918 19.824 36.3971 20.1872 36.2314C20.4244 36.1236 20.6808 36.0395 20.8838 35.8659C22.3965 34.5642 24.0311 33.6044 25.8451 33.1284C26.4391 32.9707 26.9818 33.1284 27.5224 33.423C28.6719 34.0488 29.815 34.6983 30.9838 35.2664C32.1953 35.8554 33.4645 36.0868 34.7678 35.9027C35.834 35.7528 36.8383 35.3216 37.8211 34.8114C38.7271 34.3407 39.6202 33.8332 40.5176 33.3414C41.039 33.0574 41.5646 33.0233 42.1265 33.1889C44.1264 33.7806 45.9041 34.9166 47.5259 36.4497C50.3078 39.0767 52.2565 42.4374 53.3846 46.5134C53.7692 47.9019 53.9722 49.3429 53.9978 50.8155C54.0128 51.6044 53.7008 52.0357 53.0663 52.133C52.9167 52.1566 52.765 52.1514 52.6133 52.1514C48.0237 52.1514 43.4363 52.1514 38.8467 52.1514C38.8467 52.1461 38.8467 52.1435 38.8467 52.1382H38.8489ZM27.3686 49.8504H52.1432C52.1368 49.719 52.1454 49.619 52.1283 49.527C51.9317 48.533 51.7992 47.51 51.5172 46.5555C50.5792 43.3867 48.9852 40.7729 46.902 38.6008C45.5046 37.1466 43.9491 36.0526 42.1778 35.4268C41.665 35.2453 41.2291 35.3058 40.7548 35.5845C39.4279 36.3629 38.0925 37.1255 36.6759 37.6357C35.3618 38.109 34.0328 38.3641 32.659 38.0722C31.6141 37.8513 30.6056 37.4805 29.6313 36.9835C28.6976 36.5076 27.7745 36.0027 26.8579 35.482C26.4797 35.2664 26.1101 35.2111 25.7276 35.3899C24.9755 35.7423 24.2277 36.1052 23.4841 36.4839C23.2597 36.597 23.0546 36.7705 22.8281 36.9257C23.0504 37.2097 23.2683 37.4516 23.4499 37.7303C23.7619 38.2037 24.0524 38.7033 24.3559 39.1872C25.4605 40.9517 26.5801 42.7004 27.6677 44.4807C28.4818 45.8139 28.7382 47.8966 27.6378 49.477C27.5651 49.5822 27.4925 49.6874 27.3728 49.8583L27.3686 49.8504ZM3.29045 15.9042C3.21139 16.0962 3.14516 16.2224 3.10242 16.3591C2.98491 16.7483 2.87166 17.1375 2.7691 17.532C1.90589 20.8085 1.73282 24.1797 1.90589 27.5904C2.07041 30.8406 2.77338 33.9226 3.90154 36.8573C4.84381 39.3055 6.05744 41.5328 7.48046 43.605C10.1278 47.4653 13.3584 50.1607 17.3796 51.3441C18.4074 51.6465 19.4458 51.82 20.5526 51.8122C20.4735 51.6623 20.4201 51.5413 20.3517 51.4361C18.5163 48.5619 16.6788 45.6877 14.837 42.8187C14.7473 42.6794 14.6212 42.5584 14.4909 42.4795C13.4738 41.8773 12.4909 41.1883 11.6149 40.3153C8.52101 37.2333 7.00612 33.1653 6.77322 28.3293C6.72194 27.2591 6.86296 26.1599 6.38648 25.1711C6.32879 25.0501 6.29461 24.9134 6.24974 24.7819C5.27328 21.8498 4.29682 18.9178 3.29259 15.9042H3.29045ZM13.0999 20.8295C13.0401 20.5482 13.0037 20.2536 12.9161 19.9854C12.0743 17.3847 11.2282 14.7866 10.3692 12.1964C10.2859 11.9439 10.1385 11.6889 9.9654 11.5258C9.3009 10.8947 8.63212 10.8684 7.82019 11.4706C6.84159 12.199 5.85445 12.909 4.87159 13.6269C4.53399 13.8715 4.53186 13.8741 4.68142 14.3264C5.80745 17.7134 6.93561 21.1004 8.0659 24.4848C8.30735 25.2079 8.42059 25.2579 9.01245 24.9292C9.05304 24.9081 9.09364 24.8845 9.1321 24.8555C10.1791 24.1008 11.2324 23.3593 12.2709 22.5835C12.7901 22.197 13.0721 21.6079 13.102 20.8295H13.0999ZM20.7983 38.2931C20.5077 38.4088 20.1915 38.4666 19.9308 38.6481C18.8753 39.3844 17.8305 40.1444 16.7963 40.928C16.2408 41.3488 16.2408 41.4855 16.6468 42.114C16.6639 42.1403 16.6809 42.1639 16.6959 42.1902C18.5484 45.0881 20.4052 47.9834 22.2512 50.8891C22.3837 51.0969 22.4777 51.1284 22.6636 50.9891C23.4884 50.3737 24.3238 49.7768 25.155 49.172C25.375 49.0116 25.6037 48.8617 25.8131 48.6802C26.6613 47.9439 26.8344 46.7264 26.2062 45.7087C24.843 43.5024 23.4627 41.3119 22.0846 39.1214C21.7684 38.6165 21.341 38.3588 20.7962 38.2957L20.7983 38.2931Z" fill="white"/>
<path d="M20.8475 16.0751C20.9607 8.29127 25.3195 1.98536 31.1697 0.397044C34.191 -0.423409 37.1032 0.0183733 39.8168 1.79076C43.6628 4.30208 46.0025 8.23868 46.7674 13.5453C46.8144 13.8767 46.8358 14.2159 46.8806 14.5499C46.9875 15.3388 46.7759 16.0067 46.3956 16.622C45.9063 17.4136 45.2717 17.9789 44.5709 18.4444C44.3871 18.5653 44.2995 18.7126 44.2696 18.9624C43.8487 22.3994 42.774 25.526 41.2206 28.4003C40.0454 30.575 38.5519 32.3658 36.599 33.4913C34.8448 34.5037 33.0564 34.5852 31.2231 33.7884C29.7381 33.1442 28.5673 31.974 27.516 30.5881C25.9862 28.5659 24.8772 26.2203 24.061 23.6564C24.0055 23.4802 23.9371 23.4355 23.7897 23.4434C23.4991 23.4591 23.1978 23.4986 22.9179 23.4249C22.3004 23.2672 21.841 22.7938 21.6765 22.047C21.4244 20.9031 21.215 19.7434 21.0462 18.5759C20.9265 17.7528 20.9073 16.906 20.8432 16.0698L20.8475 16.0751ZM38.4023 18.5022C38.4707 18.5022 38.5049 18.5075 38.5369 18.5022C39.9343 18.1998 41.3189 17.8369 42.6415 17.1821C43.4107 16.8035 44.1436 16.3538 44.7525 15.6359C45.0474 15.2888 45.182 14.9101 45.0837 14.4079C45.0281 14.1239 45.0217 13.8241 44.9769 13.5348C44.3765 9.71918 42.7462 6.72663 40.1416 4.56768C37.3041 2.21414 34.1846 1.6698 30.9112 2.74796C27.9968 3.70778 25.7874 5.8904 24.2341 9.07491C23.1273 11.3469 22.6658 13.8109 22.7213 16.4537C22.7534 17.9894 22.9029 19.4962 23.2341 20.9767C23.2769 21.1687 23.326 21.3133 23.5397 21.2713C23.8709 21.2029 24.2106 21.1897 24.5439 21.1293C26.2511 20.8268 27.9092 20.2746 29.5309 19.5699C32.2487 18.3865 34.864 16.9534 37.1118 14.6603C37.2314 14.5393 37.3831 14.4499 37.5327 14.3894C38.1182 14.1423 38.7399 14.6997 38.7207 15.4571C38.7122 15.8279 38.6801 16.1987 38.6395 16.5642C38.569 17.2005 38.4857 17.8317 38.4023 18.5049V18.5022ZM25.7939 23.0989C25.8131 23.1856 25.8195 23.2409 25.8387 23.2882C26.2468 24.2796 26.6165 25.2973 27.0737 26.2545C27.9647 28.1189 29.095 29.7361 30.5736 30.9379C32.1654 32.229 33.8769 32.5341 35.6631 31.6242C36.975 30.9537 38.0327 29.8334 38.9322 28.5028C40.5988 26.0362 41.6543 23.1883 42.2847 20.0905C42.3103 19.9591 42.3253 19.8249 42.353 19.6304C42.1137 19.704 41.9193 19.775 41.7227 19.8223C40.6266 20.0774 39.5369 20.3982 38.4322 20.5613C37.4024 20.7138 36.5904 19.6935 36.5883 18.4154C36.5883 18.2472 36.5883 18.0815 36.5883 17.8816C33.2423 20.4587 29.6356 22.1049 25.7917 23.1068L25.7939 23.0989Z" fill="white"/>
</g>
<defs>
<clipPath id="clip0_1352_576">
<rect width="54" height="54" fill="white"/>
</clipPath>
</defs>
</svg>
