<svg width="54" height="54" viewBox="0 0 54 54" fill="none" xmlns="http://www.w3.org/2000/svg">
<g clip-path="url(#clip0_1352_585)">
<path d="M6.29545 37.8014V33.3025C6.17356 33.3025 6.05618 33.3025 5.9388 33.3025C5.09685 33.2912 4.25264 33.3499 3.41972 33.149C1.58458 32.7066 0.257325 31.2099 0.05643 29.3386C-0.24604 26.5215 1.76516 24.3341 4.69055 24.3048C5.81465 24.2935 6.93876 24.3048 8.10124 24.3048C8.10124 23.7969 8.09673 23.3048 8.1035 22.8127C8.10575 22.6366 8.1193 22.456 8.16219 22.2844C8.25925 21.9007 8.63846 21.6118 9.00639 21.6185C9.38787 21.6253 9.74903 21.9052 9.84609 22.2912C9.88672 22.4515 9.89801 22.623 9.90026 22.7901C9.90703 23.2844 9.90252 23.7788 9.90252 24.3025C10.038 24.3025 10.1463 24.3025 10.2569 24.3025C11.5029 24.3183 12.7534 24.2686 13.9926 24.368C16.4485 24.5621 17.7803 26.5373 17.9451 28.3431C18.1798 30.9142 16.4824 32.9707 13.9227 33.2528C13.6541 33.2822 13.3809 33.2957 13.1101 33.3002C12.6518 33.307 12.1936 33.3002 11.7173 33.3002V37.7856H16.2002C16.2002 37.6885 16.2002 37.5892 16.2002 37.4921C16.2047 37.0045 16.1596 36.5124 16.2205 36.0316C16.3627 34.8984 17.1866 34.2054 18.3423 34.2032C20.8073 34.1987 23.2722 34.2032 25.7393 34.2032C25.8499 34.2032 25.9605 34.2032 26.1005 34.2032C26.1005 34.079 26.1005 33.9774 26.1005 33.8781C26.1005 32.5756 26.1005 31.2732 26.1005 29.9684C26.1005 29.8555 26.1005 29.7427 26.1208 29.6321C26.2111 29.1332 26.6174 28.7811 27.044 28.8194C27.5496 28.8668 27.8927 29.2641 27.895 29.833C27.9018 31.0339 27.895 32.2325 27.895 33.4334C27.895 33.6772 27.895 33.9187 27.895 34.2009H28.2336C30.6804 34.2009 33.1273 34.2009 35.5741 34.2009C36.9601 34.2009 37.793 35.0361 37.7953 36.4289C37.7953 36.8759 37.7953 37.3251 37.7953 37.7856H41.3956C41.3956 37.6795 41.3956 37.5711 41.3956 37.4628C41.3956 33.7224 41.3956 29.982 41.3956 26.2416C41.3956 24.6411 42.5264 23.4763 44.1246 23.4673C46.533 23.4537 48.9438 23.4537 51.3523 23.4628C52.8127 23.4673 53.9323 24.6095 53.9932 26.1287C53.9955 26.2032 53.9932 26.2777 53.9932 26.3544C53.9932 34.6682 53.9932 42.9842 53.9932 51.298C53.9932 52.3567 53.5824 53.1874 52.6276 53.7043C52.2055 53.9323 51.745 54 51.2687 54C41.0705 54 30.87 54 20.6718 54C14.6721 54 8.67232 54 2.67257 54C1.36563 54 0.363415 53.2551 0.0835169 52.0587C0.0248286 51.8059 -1.05868e-06 51.5395 -0.0022583 51.2799C-1.05868e-06 47.6704 -1.05868e-06 44.061 -1.05868e-06 40.4515C-1.05868e-06 38.8826 1.0451 37.8172 2.6184 37.8036C3.76282 37.7923 4.90499 37.8036 6.04941 37.8014C6.12164 37.8014 6.19387 37.8014 6.29319 37.8014H6.29545ZM41.3865 39.6005C41.2646 39.6005 41.1631 39.6005 41.0615 39.6005C28.2381 39.6005 15.4124 39.6005 2.58906 39.6005C2.01346 39.6005 1.80128 39.8172 1.79902 40.4018C1.79902 44.0294 1.79902 47.6569 1.79902 51.2844C1.79902 51.9639 2.03377 52.2009 2.70869 52.2009C15.4869 52.2009 28.2629 52.2009 41.0412 52.2009C41.1518 52.2009 41.2601 52.2009 41.3843 52.2009V39.6005H41.3865ZM43.2014 52.2009H43.5557C46.1245 52.2009 48.6932 52.2009 51.2597 52.2009C51.9549 52.2009 52.201 51.9549 52.201 51.2528C52.201 42.9662 52.201 34.6817 52.201 26.395C52.201 26.2822 52.2055 26.1693 52.1942 26.0587C52.1513 25.5937 51.8421 25.2912 51.3748 25.2551C51.1514 25.237 50.9256 25.2212 50.7022 25.2212C49.0815 25.2212 47.4585 25.2235 45.8378 25.228C45.2577 25.228 44.6753 25.2077 44.0952 25.2461C43.4429 25.289 43.2014 25.5802 43.2014 26.2235C43.2014 34.772 43.2014 43.3206 43.2014 51.8691C43.2014 51.9707 43.2014 52.07 43.2014 52.2009ZM8.99962 31.5034C10.4804 31.5034 11.9611 31.5034 13.4419 31.5034C13.6202 31.5034 13.7985 31.5034 13.9746 31.4718C15.4034 31.228 16.4169 29.8488 16.1573 28.4063C15.9181 27.0722 14.8391 26.1016 13.4915 26.1016C10.4917 26.1016 7.49179 26.1016 4.49191 26.1016C4.35196 26.1016 4.20976 26.0993 4.07206 26.1219C2.62291 26.3522 1.67487 27.6072 1.80128 29.1197C1.90963 30.4109 3.14434 31.5011 4.49868 31.5011C5.99749 31.5011 7.49856 31.5011 8.99737 31.5011L8.99962 31.5034ZM35.9917 36.0203H18.0218V37.7788H35.9917V36.0203ZM9.87995 37.7878V33.3228H8.11478V37.7878H9.87995Z" fill="white"/>
<path d="M22.8884 11.6908C22.1616 10.3386 21.4506 9.02485 20.744 7.70431C19.5951 5.55984 18.4484 3.41311 17.3085 1.26413C16.988 0.661421 17.225 0.180608 17.8932 0.0338812C18.0196 0.00679315 18.1527 0.00453581 18.2837 0.00453581C20.1955 0.00453581 22.1074 0.00905049 24.0193 2.11422e-05C24.5249 -0.00223619 24.8838 0.176093 25.157 0.618531C27.2991 4.1174 29.4615 7.60047 31.5924 11.1061C31.861 11.5486 32.1296 11.7224 32.6623 11.7179C36.3935 11.6908 40.1225 11.6908 43.8537 11.7179C44.3864 11.7224 44.9439 11.8217 45.4428 12.0045C46.9845 12.5756 47.8626 14.1535 47.6413 15.8352C47.4359 17.3905 46.1132 18.675 44.5218 18.851C44.2239 18.8849 43.9237 18.903 43.6257 18.903C33.1002 18.9052 22.5724 18.903 12.0469 18.912C11.5187 18.912 11.1395 18.7382 10.837 18.3025C9.13731 15.8556 7.42632 13.4176 5.71984 10.9774C5.39706 10.517 5.07202 10.0587 4.75149 9.59822C4.53705 9.28896 4.42645 8.95939 4.63185 8.60047C4.83275 8.24833 5.16231 8.11063 5.55055 8.10837C7.17125 8.10386 8.79421 8.10837 10.4149 8.10837C10.7874 8.10837 11.0763 8.27542 11.3088 8.5621C12.1146 9.54855 12.9227 10.535 13.7398 11.5124C13.8233 11.6118 13.9836 11.6998 14.1078 11.7021C16.9677 11.7133 19.8253 11.7111 22.6853 11.7088C22.7417 11.7088 22.7959 11.7021 22.8907 11.6975L22.8884 11.6908ZM19.5003 1.82169C19.55 1.92553 19.5748 1.98648 19.6064 2.04291C20.9088 4.4244 22.218 6.80138 23.5114 9.18738C24.0464 10.1738 24.5588 11.1738 25.0531 12.1829C25.1479 12.3747 25.1705 12.6411 25.1254 12.8533C25.0328 13.2799 24.631 13.5034 24.0667 13.5034C20.6267 13.5034 17.1866 13.4989 13.7466 13.5102C13.2748 13.5102 12.9182 13.3477 12.6247 12.9887C11.8325 12.0158 11.0356 11.0452 10.2298 10.0835C10.1531 9.99325 10.0063 9.91424 9.89123 9.91198C9.04702 9.89844 8.20507 9.90296 7.36086 9.90521C7.29314 9.90521 7.22543 9.92101 7.13514 9.93456C7.19157 10.0294 7.22768 10.0948 7.27057 10.1535C8.83484 12.386 10.4014 14.6163 11.9566 16.8556C12.092 17.0497 12.2342 17.1084 12.4622 17.1084C22.9877 17.1039 33.5155 17.1061 44.041 17.1061C44.1991 17.1061 44.3616 17.1016 44.5151 17.0677C45.3841 16.8646 45.9732 16.0497 45.8784 15.1964C45.7678 14.1987 45.032 13.5057 44.0794 13.5057C40.0028 13.5057 35.924 13.4989 31.8474 13.5124C31.2628 13.5124 30.8858 13.289 30.5879 12.7991C28.3848 9.19641 26.1682 5.60273 23.9606 2.00228C23.8703 1.85555 23.78 1.79912 23.6085 1.80138C22.3331 1.80815 21.0578 1.80589 19.7847 1.80589C19.7035 1.80589 19.6222 1.81492 19.5003 1.82395V1.82169Z" fill="white"/>
<path d="M21.6063 46.8014C15.9903 46.8014 10.3766 46.8037 4.76054 46.7924C4.48742 46.7924 4.18721 46.6953 3.95245 46.5554C3.6861 46.3951 3.57324 46.0971 3.63418 45.7698C3.69964 45.4177 3.91182 45.1761 4.25267 45.0723C4.41067 45.0249 4.58448 45.0068 4.75152 45.0068C15.9903 45.0046 27.2314 45.0046 38.4702 45.0068C38.6282 45.0068 38.7885 45.0271 38.9397 45.0678C39.3099 45.1716 39.5875 45.5396 39.5875 45.8985C39.5875 46.2754 39.3076 46.6456 38.9216 46.7427C38.7523 46.7856 38.5695 46.8014 38.3935 46.8014C32.7977 46.8037 27.1998 46.8037 21.6041 46.8037L21.6063 46.8014Z" fill="white"/>
<path d="M21.6018 43.2009C15.9858 43.2009 10.3721 43.2009 4.75603 43.2009C4.44905 43.2009 4.15786 43.1625 3.92085 42.9435C3.41975 42.483 3.58452 41.6839 4.23235 41.4763C4.40616 41.4198 4.60028 41.404 4.78538 41.404C16.0061 41.4018 27.2269 41.4018 38.4476 41.404C38.6147 41.404 38.7862 41.4221 38.9465 41.4672C39.3144 41.5711 39.592 41.9435 39.5898 42.3002C39.5875 42.6794 39.3076 43.0429 38.9194 43.1399C38.7501 43.1828 38.5673 43.1986 38.3912 43.1986C32.7955 43.2009 27.1975 43.2009 21.6018 43.2009Z" fill="white"/>
<path d="M21.5996 50.3996C15.9836 50.3996 10.3698 50.3996 4.75377 50.3996C4.44679 50.3996 4.15561 50.3612 3.9186 50.1423C3.41749 49.6818 3.58227 48.8827 4.23009 48.675C4.4039 48.6186 4.59803 48.6028 4.78312 48.6028C16.0039 48.6005 27.2246 48.6005 38.4454 48.6028C38.6124 48.6028 38.784 48.6208 38.9442 48.666C39.3121 48.7698 39.5898 49.1423 39.5875 49.4989C39.5853 49.8782 39.3031 50.2416 38.9171 50.3387C38.7478 50.3815 38.565 50.3973 38.3889 50.3973C32.7932 50.3996 27.1953 50.3996 21.5996 50.3996Z" fill="white"/>
<path d="M47.6887 45C48.1853 45 48.6819 45 49.1785 45C49.2259 45 49.2733 45 49.3185 45C49.9347 45.0045 50.3794 45.377 50.3861 45.8894C50.3929 46.4108 49.9415 46.7968 49.3117 46.7991C48.235 46.8036 47.156 46.8014 46.0793 46.7991C45.9597 46.7991 45.8355 46.781 45.7204 46.7517C45.3186 46.6546 45.0184 46.2912 45.0116 45.912C45.0071 45.526 45.2938 45.1625 45.6978 45.0564C45.831 45.0226 45.9732 45.0045 46.1132 45.0045C46.6369 44.9977 47.1628 45.0023 47.6865 45.0023L47.6887 45Z" fill="white"/>
<path d="M47.691 27.0022C48.2057 27.0022 48.7226 27.0022 49.2372 27.0022C49.2936 27.0022 49.3501 27.0022 49.4065 27.0022C49.9573 27.0248 50.3839 27.4108 50.3884 27.8916C50.3929 28.3611 49.9934 28.7494 49.4539 28.7968C49.3975 28.8013 49.341 28.8013 49.2846 28.8013C48.226 28.8013 47.1673 28.8036 46.1087 28.799C45.9597 28.799 45.8085 28.7787 45.6663 28.7404C45.3028 28.641 45.0184 28.2686 45.0139 27.9097C45.0094 27.5462 45.278 27.176 45.6482 27.0699C45.7994 27.027 45.9597 27.0067 46.1177 27.0045C46.6414 26.9977 47.1673 27.0022 47.691 27.0022Z" fill="white"/>
<path d="M47.691 30.6027C48.2057 30.6027 48.7226 30.6027 49.2372 30.6027C49.2936 30.6027 49.3501 30.6027 49.4065 30.6027C49.9573 30.6252 50.3839 31.0112 50.3884 31.4921C50.3929 31.9616 49.9934 32.3498 49.4539 32.3973C49.3975 32.4018 49.341 32.4018 49.2846 32.4018C48.226 32.4018 47.1673 32.404 46.1087 32.3995C45.9597 32.3995 45.8085 32.3792 45.6663 32.3408C45.3028 32.2415 45.0184 31.869 45.0139 31.5101C45.0094 31.1467 45.278 30.7765 45.6482 30.6704C45.7994 30.6275 45.9597 30.6072 46.1177 30.6049C46.6414 30.5982 47.1673 30.6027 47.691 30.6027Z" fill="white"/>
<path d="M47.7023 36.0022C47.1583 36.0022 46.6143 36.0203 46.0726 35.9932C45.8491 35.9819 45.6031 35.921 45.4112 35.8081C45.0749 35.6117 44.9507 35.2031 45.0591 34.8555C45.181 34.465 45.5353 34.2099 46.0116 34.2054C46.8829 34.1964 47.7542 34.2031 48.6255 34.2031C48.8964 34.2031 49.1695 34.1918 49.4404 34.2076C49.9641 34.237 50.3636 34.6094 50.3862 35.0745C50.4065 35.5214 50.0431 35.9097 49.5261 35.9909C49.4336 36.0045 49.3388 36.0045 49.2463 36.0045C48.7316 36.0045 48.2147 36.0045 47.7 36.0045L47.7023 36.0022Z" fill="white"/>
<path d="M47.691 37.8014C48.2057 37.8014 48.7226 37.8014 49.2372 37.8014C49.2936 37.8014 49.3501 37.8014 49.4065 37.8014C49.9573 37.824 50.3839 38.21 50.3884 38.6908C50.3929 39.1603 49.9934 39.5486 49.4539 39.596C49.3975 39.6005 49.341 39.6005 49.2846 39.6005C48.226 39.6005 47.1673 39.6028 46.1087 39.5982C45.9597 39.5982 45.8085 39.5779 45.6663 39.5396C45.3028 39.4402 45.0184 39.0678 45.0139 38.7088C45.0094 38.3454 45.278 37.9752 45.6482 37.8691C45.7994 37.8262 45.9597 37.8059 46.1177 37.8037C46.6414 37.7969 47.1673 37.8014 47.691 37.8014Z" fill="white"/>
<path d="M47.6933 43.2009C47.1312 43.2009 46.5692 43.2122 46.0071 43.1987C45.3164 43.1829 44.8582 42.5959 45.0726 42.0181C45.2193 41.623 45.5376 41.4176 45.9394 41.4108C47.1109 41.3928 48.2824 41.3905 49.4539 41.4086C49.9866 41.4176 50.3997 41.8443 50.3907 42.3093C50.3794 42.7968 49.9708 43.1806 49.411 43.1964C48.84 43.2122 48.2689 43.2009 47.6955 43.2009H47.6933Z" fill="white"/>
<path d="M47.7 48.6004C48.1966 48.6004 48.6932 48.6004 49.1898 48.6004C49.2462 48.6004 49.3027 48.6004 49.3591 48.6004C49.946 48.6117 50.3907 49 50.3884 49.4988C50.3884 50.0022 49.9528 50.3927 49.3614 50.3973C48.3298 50.4063 47.3005 50.4018 46.2689 50.3973C46.0838 50.3973 45.892 50.3882 45.7137 50.3453C45.3119 50.2528 45.0139 49.8781 45.0139 49.4988C45.0139 49.1083 45.2961 48.7246 45.7114 48.6591C46.1042 48.5959 46.5127 48.6117 46.9123 48.6004C47.1741 48.5936 47.4359 48.6004 47.7 48.6004Z" fill="white"/>
</g>
<defs>
<clipPath id="clip0_1352_585">
<rect width="54" height="54" fill="white"/>
</clipPath>
</defs>
</svg>
