<svg width="54" height="54" viewBox="0 0 54 54" fill="none" xmlns="http://www.w3.org/2000/svg">
<g clip-path="url(#clip0_1352_601)">
<path d="M3.48886 52.0644C3.48886 51.8153 3.48886 51.6045 3.48886 51.3937C3.48886 34.7103 3.48886 18.0269 3.48886 1.34572C3.48886 1.24777 3.48886 1.15195 3.4931 1.054C3.52272 0.391775 3.90355 0.0170121 4.56789 0.00210669C4.89371 -0.00428132 5.21742 0.00210669 5.54325 0.00210669C10.3417 0.00210669 15.1402 0.00210669 19.9387 0.00423603C20.7914 0.00423603 21.1468 0.340671 21.1511 1.20731C21.1616 4.71007 21.1637 8.21283 21.1659 11.7156C21.1659 13.3083 21.1659 14.899 21.1616 16.4917C21.1616 16.6237 21.1595 16.7579 21.1468 16.8899C21.0982 17.3881 20.7575 17.748 20.2582 17.7799C19.8118 17.8098 19.3633 17.8076 18.9147 17.7991C18.7074 17.7948 18.6206 17.846 18.6185 18.0738C18.6164 18.587 18.6037 18.5827 19.103 18.5827C20.9141 18.5784 22.723 18.5742 24.5341 18.5806C24.7436 18.5806 24.8621 18.538 24.9488 18.3229C25.7824 16.2255 26.6287 14.1324 27.4729 12.0371C27.5681 11.8008 27.6548 11.558 27.7606 11.3259C27.8368 11.1556 27.8029 11.0619 27.6358 10.9682C26.3854 10.2527 25.1392 9.52663 23.8909 8.80479C23.1927 8.40234 23.0637 7.95092 23.4657 7.24611C24.4326 5.55329 25.4016 3.8626 26.3748 2.1719C26.7726 1.47987 27.2148 1.36062 27.9108 1.7652C31.3891 3.77742 34.8653 5.79178 38.3414 7.80613C39.6955 8.59185 41.0453 9.38397 42.3952 10.174C42.5158 10.2442 42.6364 10.3187 42.7549 10.3954C43.0532 10.5913 43.2055 10.8788 43.1738 11.2258C43.1378 11.6134 42.9326 11.9157 42.5496 12.0371C42.0905 12.1819 41.6208 12.299 41.1554 12.4247C39.7844 12.7973 38.4113 13.1635 37.0403 13.5404C36.7123 13.6299 36.4182 13.5852 36.1326 13.4084C35.8576 13.2381 35.5762 13.0784 35.2715 12.8995C35.1319 13.1359 35.0049 13.3552 34.878 13.5724C34.7891 13.7236 34.7087 13.8833 34.605 14.0259C34.2898 14.4646 33.818 14.5604 33.3525 14.2878C32.0852 13.5468 30.8157 12.8079 29.5484 12.0691C29.5357 12.0605 29.5167 12.0627 29.4744 12.052C29.2332 12.6504 28.9877 13.253 28.7444 13.8577C27.9722 15.7911 27.1936 17.7225 26.4319 19.658C26.2098 20.2223 25.8374 20.4906 25.2302 20.4885C23.1293 20.4799 21.0283 20.4885 18.9295 20.4885C18.8364 20.4885 18.7412 20.4885 18.6354 20.4885C18.6354 20.9697 18.6376 21.419 18.6354 21.8683C18.6354 22.045 18.6376 22.226 18.5995 22.3963C18.4873 22.8882 18.0832 23.1757 17.5141 23.1799C16.6699 23.1863 15.8257 23.1799 14.9837 23.1799H14.6705V52.0367H25.336C25.025 51.3617 24.7076 50.6654 24.3691 49.9308C23.5609 49.9308 22.6828 49.9308 21.8048 49.9308C21.0939 49.9308 20.7258 49.5752 20.7258 48.864C20.7237 45.5657 20.7216 42.2652 20.7258 38.9669C20.7258 38.1449 21.0897 37.7851 21.9043 37.7829C22.924 37.7808 23.9438 37.7744 24.9636 37.7893C25.1583 37.7915 25.2239 37.7318 25.2535 37.553C25.5349 35.8538 25.8247 34.1567 26.1103 32.4575C26.2288 31.7527 26.3388 31.0457 26.4764 30.343C26.5843 29.7937 26.9461 29.4998 27.5004 29.5019C29.2311 29.5062 30.9639 29.5275 32.6945 29.5275C34.3194 29.5275 35.9464 29.5105 37.5713 29.5062C39.3295 29.5019 41.0877 29.5147 42.8437 29.4956C43.4848 29.4892 43.8931 29.7319 44.147 30.343C45.133 32.7215 46.1485 35.0893 47.1387 37.4657C47.2445 37.7191 47.3693 37.8064 47.6359 37.8021C48.7128 37.7808 49.7495 37.9682 50.7143 38.4835C52.5169 39.4481 53.5472 40.9684 53.8942 42.9721C53.964 43.3703 54.0021 43.7792 54.0042 44.1837C54.0148 45.7147 54 47.2436 54.0042 48.7746C54.0042 49.4198 53.7123 49.9713 52.8385 49.9393C52.0493 49.9095 51.2559 49.9393 50.4667 49.9287C50.2954 49.9287 50.2213 49.9755 50.179 50.1459C50.014 50.8294 49.7199 51.4533 49.2544 52.0559C49.4067 52.0559 49.4998 52.0559 49.5929 52.0559C50.6212 52.0559 51.6494 52.0516 52.6777 52.0559C53.3293 52.0602 53.7736 52.4839 53.7588 53.0673C53.744 53.5784 53.3864 53.9659 52.8766 53.968C50.837 53.9766 48.7995 53.9723 46.76 53.9723C41.3204 53.9723 35.8808 53.9723 30.4413 53.9723C25.2746 53.9723 20.1059 53.9723 14.9392 53.9723C11.4589 53.9744 7.97846 53.9872 4.49807 53.9915C3.4 53.9915 2.30193 53.9808 1.20175 53.9659C0.818802 53.9616 0.52683 53.787 0.351224 53.44C0.0782936 52.8991 0.351224 52.2752 0.935168 52.1176C1.09385 52.0751 1.26522 52.0601 1.43025 52.058C2.10517 52.0516 2.78009 52.0559 3.49944 52.0559L3.48886 52.0644ZM5.36764 52.0452H12.7473C12.7473 51.5661 12.7473 51.1083 12.7473 50.6505C12.741 39.9762 12.7346 29.2997 12.7262 18.6253C12.7262 18.4315 12.7177 18.2356 12.7262 18.0419C12.7325 17.8864 12.686 17.8204 12.5188 17.8204C10.2085 17.8247 7.89595 17.8247 5.58556 17.8204C5.42477 17.8204 5.36976 17.8736 5.37399 18.0355C5.38033 18.4251 5.36764 18.8127 5.36764 19.2023C5.36764 29.9214 5.36764 40.6405 5.36764 51.3596C5.36764 51.581 5.36764 51.8004 5.36764 52.0431V52.0452ZM40.472 48.0314C41.0432 45.67 42.8776 44.1071 45.2155 44.0176C46.2797 43.9772 47.2593 44.2987 48.15 44.8885C49.2819 45.6359 49.8891 46.7432 50.234 48.0144H52.0937C52.0937 47.8675 52.0937 47.7355 52.0937 47.6056C52.0916 46.4217 52.0578 45.2356 52.0937 44.0517C52.1636 41.6519 50.3715 39.727 47.9892 39.7036C47.3227 39.6972 46.6542 39.7504 45.9877 39.7504C38.3689 39.7355 30.7523 39.7142 23.1335 39.6993C22.5496 39.6993 22.5961 39.5695 22.594 40.2274C22.5834 42.7379 22.5876 45.2505 22.5876 47.761C22.5876 47.8462 22.5982 47.9314 22.6024 48.0229H24.4601C24.4833 47.9378 24.5066 47.8526 24.5299 47.7695C25.19 45.3187 27.5237 43.7387 30.016 44.0602C32.0154 44.3179 33.6255 45.7722 34.1628 47.8164C34.1988 47.9484 34.2221 48.0378 34.3913 48.0357C36.4119 48.0314 38.4324 48.0314 40.472 48.0314ZM19.2575 1.89722C19.1094 1.89722 18.9972 1.89722 18.8851 1.89722C14.4738 1.89722 10.0625 1.89722 5.65115 1.89296C5.43323 1.89296 5.36976 1.95045 5.36976 2.17403C5.3761 4.0223 5.36976 5.87056 5.36976 7.71883C5.36976 10.3635 5.36976 13.0081 5.36764 15.6527C5.36764 15.8252 5.41419 15.887 5.58979 15.8784C5.92408 15.8657 6.25837 15.8742 6.59054 15.8742C10.712 15.8742 14.8335 15.8742 18.9549 15.8827C19.1855 15.8827 19.2638 15.8359 19.2638 15.5761C19.2532 11.1811 19.2575 6.78405 19.2575 2.38909C19.2575 2.24004 19.2575 2.09099 19.2575 1.89509V1.89722ZM45.1901 37.7574C45.1562 37.6552 45.1393 37.587 45.1118 37.5253C44.2888 35.5684 43.4594 33.6116 42.6427 31.6526C42.5644 31.4652 42.4608 31.4077 42.2682 31.4077C39.8796 31.4141 37.4909 31.4141 35.1022 31.4162C35.0091 31.4162 34.9139 31.4162 34.8166 31.4162C34.8018 31.5078 34.7828 31.5674 34.7828 31.627C34.7828 33.5988 34.787 35.5684 34.7828 37.5402C34.7828 37.7254 34.8505 37.7638 35.0134 37.7595C35.3731 37.751 35.7327 37.7595 36.0945 37.7595C38.8005 37.7595 41.5045 37.7595 44.2105 37.7595C44.5236 37.7595 44.8389 37.7595 45.1922 37.7595L45.1901 37.7574ZM33.5112 12.2053C33.5662 12.1138 33.6149 12.0414 33.6572 11.9647C34.2792 10.8681 34.8949 9.76938 35.5296 8.67916C35.646 8.48113 35.6375 8.39596 35.4302 8.27671C33.3546 7.0928 31.2833 5.90037 29.212 4.70581C28.681 4.39919 28.1605 4.07553 27.6168 3.74974C26.8889 5.02096 26.1759 6.26449 25.4439 7.54209C28.1351 9.09864 30.8157 10.6467 33.5112 12.2032V12.2053ZM27.1069 37.7382C27.2105 37.7489 27.293 37.7638 27.3756 37.7638C29.1316 37.7638 30.8877 37.7595 32.6459 37.7638C32.8151 37.7638 32.8701 37.7318 32.8701 37.5466C32.8638 35.6195 32.868 33.6925 32.868 31.7654C32.868 31.4226 32.868 31.4183 32.5231 31.4162C31.1881 31.412 29.8531 31.4226 28.5181 31.4034C28.2345 31.3992 28.1457 31.4929 28.1034 31.759C27.8939 33.075 27.6654 34.3866 27.4433 35.7026C27.3311 36.3712 27.2232 37.0377 27.1069 37.7361V37.7382ZM45.3191 52.0772C47.0731 52.0963 48.4145 50.7783 48.4377 49.0152C48.461 47.3245 47.1027 45.9575 45.4313 45.8936C43.8339 45.8318 42.2619 47.2138 42.2513 48.9556C42.2386 50.8422 43.8424 52.1645 45.3191 52.0772ZM29.3284 52.0772C30.9998 52.1687 32.4047 50.7336 32.4385 49.0897C32.4766 47.2287 31.0083 45.9532 29.4892 45.8936C27.8791 45.8297 26.2584 47.2053 26.2352 48.9556C26.2098 50.8273 27.9616 52.1879 29.3263 52.0751L29.3284 52.0772ZM33.2912 52.0474H41.3331C41.0221 51.3596 40.7111 50.6718 40.3831 49.9436C40.4275 49.95 40.4022 49.9436 40.3768 49.9436C38.3922 49.9436 36.4076 49.9436 34.4231 49.9393C34.2686 49.9393 34.22 50.0053 34.1713 50.1395C34.0232 50.5632 33.8666 50.9848 33.6868 51.3937C33.5895 51.6151 33.4371 51.811 33.2912 52.0474ZM16.7165 17.8225C16.0542 17.8225 15.4322 17.8183 14.8102 17.831C14.7594 17.831 14.6663 17.9482 14.6663 18.012C14.6536 19.0384 14.6515 20.0626 14.6579 21.0889C14.6579 21.1507 14.7361 21.2657 14.7806 21.2678C15.4195 21.2784 16.0564 21.2763 16.7186 21.2763V17.8225H16.7165ZM39.8373 10.8511C38.9508 10.3294 38.1362 9.85029 37.3068 9.36055C36.9535 9.98018 36.6192 10.5679 36.2849 11.1556C36.2638 11.1918 36.2511 11.2344 36.2363 11.2684C36.6763 11.656 36.7673 11.6815 37.2814 11.5474C37.8739 11.3919 38.4641 11.2322 39.0566 11.0725C39.2893 11.0087 39.522 10.9405 39.8351 10.849L39.8373 10.8511Z" fill="white"/>
<path d="M16.2425 33.5009C16.2425 31.3439 16.2383 29.1847 16.251 27.0277C16.251 26.7998 16.3208 26.5507 16.4308 26.3527C16.6234 26.0077 17.0592 25.8608 17.4147 25.9609C17.8251 26.0759 18.1129 26.457 18.1404 26.9319C18.1425 26.9681 18.1404 27.0021 18.1404 27.0383C18.1404 31.363 18.1404 35.6856 18.1404 40.0103C18.1404 40.3509 18.0705 40.6661 17.7743 40.8748C17.4654 41.092 17.1333 41.1601 16.7821 40.9812C16.4287 40.8002 16.2574 40.5 16.2425 40.1061C16.2383 39.9826 16.2425 39.8591 16.2425 39.7356C16.2425 37.6573 16.2425 35.5791 16.2425 33.5009Z" fill="white"/>
<path d="M1.8978 7.59753C1.8978 9.75455 1.8978 11.9137 1.8978 14.0707C1.8978 14.4838 1.7772 14.8415 1.39002 15.0481C0.763761 15.3824 0.061336 14.948 0.00209536 14.1921C-0.00213612 14.1389 -2.03817e-05 14.0856 -2.03817e-05 14.0324C-2.03817e-05 9.73326 -2.03817e-05 5.43625 -2.03817e-05 1.13925C-2.03817e-05 0.574976 0.279257 0.166143 0.738373 0.0447712C1.33924 -0.114929 1.89145 0.368431 1.8978 1.07111C1.90414 1.9633 1.8978 2.85763 1.8978 3.74982C1.8978 5.03168 1.8978 6.31354 1.8978 7.5954V7.59753Z" fill="white"/>
<path d="M35.3858 28.1008C33.452 28.1008 31.5203 28.1008 29.5865 28.1008C29.4723 28.1008 29.358 28.0944 29.2438 28.0838C28.7381 28.0369 28.3848 27.6728 28.37 27.1895C28.3552 26.6848 28.7042 26.2738 29.2141 26.2078C29.3961 26.1844 29.5823 26.1801 29.7663 26.1801C33.5366 26.1801 37.3068 26.178 41.075 26.1801C41.2844 26.1801 41.4981 26.1865 41.7055 26.2206C42.1519 26.2951 42.5116 26.7444 42.501 27.1809C42.4883 27.6409 42.135 28.0391 41.6568 28.0795C41.2633 28.1115 40.8676 28.0944 40.472 28.0965C38.7752 28.0965 37.0805 28.0965 35.3836 28.0965C35.3836 28.0987 35.3836 28.1008 35.3836 28.1029L35.3858 28.1008Z" fill="white"/>
<path d="M38.4028 42.6017C38.1214 42.6017 37.84 42.6123 37.5607 42.6017C36.9937 42.5782 36.6129 42.2099 36.5981 41.686C36.5833 41.1665 36.9726 40.73 37.5311 40.7044C38.1426 40.6767 38.7582 40.6789 39.3718 40.7044C39.8669 40.7236 40.2583 41.1494 40.2837 41.6349C40.3091 42.0821 39.9536 42.5122 39.4543 42.5697C39.1094 42.6102 38.754 42.5782 38.4049 42.5782C38.4049 42.5868 38.4049 42.5953 38.4049 42.6038L38.4028 42.6017Z" fill="white"/>
<path d="M9.07231 8.93891C9.07231 7.57613 9.07019 6.21548 9.07231 4.85271C9.07231 4.61422 9.08923 4.37574 9.11885 4.13938C9.17175 3.72203 9.47641 3.40902 9.88475 3.33662C10.0307 3.31107 10.181 3.29616 10.3291 3.29616C11.6387 3.2919 12.9483 3.2919 14.258 3.29616C14.3976 3.29616 14.5394 3.31107 14.6769 3.33449C15.1762 3.41541 15.4766 3.73268 15.5063 4.24585C15.5338 4.73985 15.5317 5.23599 15.5359 5.73C15.5401 6.72014 15.5422 7.71028 15.5401 8.70255C15.5401 9.47124 15.2079 9.83749 14.4442 9.846C13.3905 9.85878 12.3348 9.84388 11.2811 9.82471C11.0484 9.82045 10.9786 9.89072 10.9807 10.1228C10.9913 11.2194 10.9849 12.316 10.987 13.4126C10.987 14.0898 10.5745 14.5327 9.96938 14.4922C9.52507 14.4624 9.17175 14.1281 9.11674 13.6618C9.08288 13.3722 9.07019 13.0805 9.06807 12.7887C9.06384 11.5069 9.06596 10.225 9.06596 8.94104L9.07231 8.93891ZM13.6317 6.57747C13.6317 6.57747 13.6296 6.57747 13.6275 6.57747C13.6275 6.18993 13.6254 5.80026 13.6275 5.41272C13.6275 5.29348 13.6296 5.21044 13.4688 5.21257C12.7071 5.21683 11.9434 5.20831 11.1817 5.21683C11.1203 5.21683 11.0061 5.30839 11.0061 5.35949C10.9934 6.16225 10.9955 6.96501 10.9913 7.76777C10.9913 7.91895 11.0548 7.96367 11.1986 7.96154C11.9349 7.95302 12.6712 7.94664 13.4075 7.95089C13.5852 7.95089 13.636 7.88276 13.6338 7.71667C13.6275 7.33765 13.6317 6.95862 13.6317 6.57747Z" fill="white"/>
</g>
<defs>
<clipPath id="clip0_1352_601">
<rect width="54" height="54" fill="white"/>
</clipPath>
</defs>
</svg>
