<svg width="12" height="16" viewBox="0 0 12 16" fill="none" xmlns="http://www.w3.org/2000/svg">
<path d="M3.18442 0.0832745L2.47971 0.295574C1.85222 0.484805 1.29185 0.849348 0.864552 1.3463C0.437252 1.84325 0.160805 2.45192 0.0677495 3.10068C-0.224162 5.13325 0.428462 7.50983 2.00203 10.2353C3.57167 12.9539 5.29956 14.7054 7.20141 15.472C7.81248 15.7183 8.48143 15.7839 9.12871 15.6611C9.776 15.5383 10.3744 15.2321 10.8528 14.7791L11.3855 14.2739C11.7314 13.9465 11.9467 13.5047 11.9913 13.0305C12.036 12.5563 11.907 12.0821 11.6282 11.6959L10.2955 9.84807C10.1153 9.59861 9.86156 9.41179 9.56985 9.31379C9.27814 9.21579 8.96308 9.21153 8.66883 9.3016L6.65297 9.91785L6.60087 9.92768C6.37875 9.96012 5.86569 9.4795 5.22682 8.37279C4.55847 7.21497 4.42087 6.53777 4.60467 6.36282L5.6298 5.40649C6.0043 5.05679 6.26012 4.59877 6.36145 4.0965C6.46278 3.59424 6.40457 3.07286 6.19495 2.60531L5.54429 1.15952C5.34864 0.724442 5.00145 0.375362 4.56745 0.177347C4.13344 -0.020667 3.64126 -0.0541022 3.18442 0.0832745ZM4.64988 1.56249L5.29857 3.00829C5.42446 3.28872 5.45955 3.60149 5.39893 3.90284C5.3383 4.20419 5.185 4.47906 4.96047 4.689L3.93239 5.64631C3.27387 6.26945 3.49206 7.33291 4.37664 8.86422C5.20815 10.3051 5.96692 11.0167 6.7827 10.8929L6.90458 10.8673L8.95681 10.2412C9.05491 10.2111 9.15997 10.2124 9.25727 10.245C9.35458 10.2776 9.43923 10.3399 9.49935 10.423L10.8321 12.2708C10.9717 12.4639 11.0364 12.7011 11.0141 12.9383C10.9919 13.1755 10.8842 13.3966 10.7112 13.5604L10.1775 14.0656C9.83583 14.3889 9.40848 14.6074 8.94625 14.6951C8.48401 14.7827 8.00634 14.7358 7.56998 14.5599C5.90107 13.8877 4.32357 12.2885 2.85418 9.74389C1.38086 7.19334 0.784261 5.02415 1.04079 3.24025C1.10719 2.77676 1.30464 2.34189 1.60989 1.98684C1.91514 1.63179 2.31547 1.37135 2.76376 1.23618L3.46847 1.02388C3.69695 0.955225 3.9426 0.972014 4.15961 1.07111C4.37662 1.17022 4.55017 1.34486 4.64792 1.56249" fill="white"/>
</svg>
