<svg width="24" height="24" viewBox="0 0 24 24" fill="none" xmlns="http://www.w3.org/2000/svg">
<path d="M12 20C7.58857 20 4 16.4114 4 12C4 7.58857 7.58857 4 12 4C16.4114 4 20 7.58857 20 12C20 16.4114 16.4114 20 12 20ZM12 5.14286C8.21714 5.14286 5.14286 8.21714 5.14286 12C5.14286 15.7829 8.21714 18.8571 12 18.8571C15.7829 18.8571 18.8571 15.7829 18.8571 12C18.8571 8.21714 15.7829 5.14286 12 5.14286Z" fill="white"/>
<path d="M14.2858 14.8572C14.1829 14.8572 14.08 14.8343 13.9886 14.7772L11.1315 13.0629C11.0472 13.0116 10.9777 12.9394 10.9296 12.8533C10.8816 12.7672 10.8566 12.6701 10.8572 12.5714V8.00002C10.8572 7.68002 11.1086 7.42859 11.4286 7.42859C11.7486 7.42859 12 7.68002 12 8.00002V12.2514L14.5829 13.7943C14.6893 13.8595 14.7715 13.9576 14.8171 14.0738C14.8627 14.1899 14.8692 14.3178 14.8356 14.4379C14.802 14.5581 14.7302 14.664 14.6309 14.7397C14.5317 14.8153 14.4105 14.8566 14.2858 14.8572Z" fill="white"/>
</svg>
