<svg width="36" height="36" viewBox="0 0 36 36" fill="none" xmlns="http://www.w3.org/2000/svg">
<g clip-path="url(#clip0_521_3869)">
<path d="M29.3991 33.6933H19.6394C19.7143 34.4473 19.467 35.0768 18.8748 35.5504C18.4775 35.8682 18.0187 36.0241 17.5045 35.9956C16.9153 35.9641 16.4506 35.6928 16.0803 35.2462C15.707 34.798 15.5826 34.2704 15.6036 33.6843C15.1223 33.6843 14.6576 33.6843 14.1928 33.6843C13.4522 33.6843 13.0654 33.2991 13.0669 32.5572C13.0669 32.2844 13.0549 32.0071 13.0939 31.7388C13.1794 31.1542 13.5152 30.874 14.1074 30.847C14.1493 30.8455 14.1928 30.841 14.2588 30.838C14.2588 30.7675 14.2588 30.7016 14.2588 30.6356C14.2588 27.0398 14.2468 23.4425 14.2708 19.8467C14.2768 18.9504 14.5121 18.0751 14.797 17.2237C15.3712 15.5045 16.3591 14.0581 17.6994 12.844C18.9617 11.6988 20.4384 10.9674 22.0755 10.5417C22.185 10.5132 22.2195 10.4728 22.218 10.3693C22.2165 10.2824 22.218 10.194 22.2315 10.1085C22.2914 9.69034 22.5328 9.44452 22.9541 9.40855C23.2629 9.38307 23.5762 9.39356 23.8866 9.38906C23.9465 9.38906 24.0065 9.38906 24.0875 9.38906C24.0875 9.2047 24.0994 9.04282 24.08 8.88544C24.074 8.83298 23.996 8.77303 23.9375 8.74605C23.3678 8.47925 23.0455 8.03858 23.0215 7.40755C22.999 6.8065 23.2404 6.32836 23.7666 6.01959C24.5192 5.57892 25.4877 5.86221 25.8835 6.62813C26.2883 7.41205 25.9704 8.34585 25.1714 8.72656C25.1039 8.75954 25.002 8.812 24.996 8.86446C24.9765 9.02184 24.9915 9.18522 25.0095 9.3441C25.0125 9.36508 25.1174 9.38457 25.1744 9.38607C25.4607 9.39356 25.7471 9.38157 26.0334 9.39956C26.5566 9.43103 26.81 9.69483 26.8385 10.2149C26.8535 10.4967 26.8535 10.4997 27.1368 10.5717C28.9463 11.0318 30.5175 11.9237 31.8158 13.2592C33.3689 14.8585 34.3599 16.7605 34.6867 18.9789C34.7752 19.5859 34.8216 20.2035 34.8246 20.818C34.8381 23.8367 34.8321 26.854 34.8306 29.8727C34.8306 30.147 34.8216 30.4198 34.8096 30.6941C34.8051 30.8065 34.8396 30.8425 34.9551 30.85C35.5697 30.8874 35.922 31.2112 35.979 31.8212C36.009 32.142 36.012 32.4703 35.973 32.7895C35.9056 33.3531 35.5053 33.6813 34.9386 33.6843C34.4543 33.6873 33.9686 33.6843 33.4589 33.6843C33.4994 34.4982 33.24 35.1727 32.5579 35.6374C32.1726 35.8997 31.7408 36.0376 31.2701 35.9881C30.1262 35.8667 29.4785 35.0708 29.4021 33.6918L29.3991 33.6933ZM33.9266 30.8365C33.9266 30.6251 33.9266 30.4333 33.9266 30.2414C33.9266 27.0368 33.9266 23.8307 33.9191 20.6261C33.9191 20.16 33.8996 19.6923 33.8457 19.2292C33.7107 18.0391 33.27 16.9449 32.7138 15.8957C32.1876 14.9034 31.4485 14.0865 30.5984 13.3626C29.522 12.4453 28.3152 11.7783 26.9419 11.4215C26.849 11.3976 26.792 11.3991 26.7485 11.495C26.6091 11.8023 26.3467 11.9372 26.0289 11.9416C25.0394 11.9521 24.05 11.9461 23.0605 11.9416C22.8221 11.9416 22.5628 11.8877 22.4518 11.6778C22.2764 11.3511 22.0546 11.4155 21.7997 11.5115C21.7532 11.5295 21.7052 11.5414 21.6573 11.5579C19.5329 12.2579 17.8688 13.5559 16.65 15.425C15.6455 16.9644 15.1373 18.6446 15.1493 20.4957C15.1718 23.8877 15.1553 27.2796 15.1553 30.6701C15.1553 30.7241 15.1613 30.778 15.1643 30.835H17.2811C17.2691 30.4543 17.2497 30.0825 17.2497 29.7123C17.2467 27.0173 17.2482 24.3224 17.2497 21.6289C17.2497 20.8869 17.6994 20.3623 18.4295 20.2529C18.557 20.2334 18.6874 20.2364 18.8223 20.2289C18.8073 20.0476 18.7818 19.8812 18.7803 19.7148C18.7758 18.0466 18.7683 16.3798 18.7773 14.7116C18.7818 13.9352 19.353 13.4031 20.1521 13.4031C23.071 13.4016 25.9899 13.4016 28.9088 13.4031C29.7169 13.4031 30.2671 13.9307 30.2716 14.7371C30.2836 16.3978 30.2776 18.0601 30.2761 19.7223C30.2761 19.8887 30.2536 20.0536 30.2416 20.2409C30.3391 20.2409 30.4185 20.2394 30.4965 20.2409C31.1082 20.2574 31.6119 20.6426 31.7543 21.2197C31.7948 21.3861 31.8038 21.5644 31.8038 21.7383C31.8068 24.4708 31.8053 27.2017 31.8053 29.9342C31.8053 30.2309 31.8053 30.5277 31.8053 30.8365H33.9251H33.9266ZM24.5537 20.2409C26.0034 20.2409 27.4546 20.2409 28.9043 20.2409C29.2701 20.2409 29.3916 20.1285 29.3961 19.7688C29.3991 19.514 29.3901 19.2592 29.3901 19.0029C29.3901 17.5969 29.3931 16.1895 29.3931 14.7835C29.3931 14.4313 29.2866 14.3144 28.9373 14.2859C28.8444 14.2784 28.7514 14.2754 28.657 14.2754C26.0424 14.2754 23.4293 14.2754 20.8147 14.2754C20.5839 14.2754 20.353 14.2679 20.1251 14.2874C19.7713 14.3159 19.6649 14.4283 19.6529 14.782C19.6424 15.0803 19.6499 15.3786 19.6499 15.6783C19.6544 17.0168 19.6529 18.3538 19.6663 19.6923C19.6708 20.1195 19.8163 20.2409 20.2405 20.2409C21.6783 20.2409 23.116 20.2409 24.5537 20.2409ZM24.1024 21.1373C24.026 21.1373 23.972 21.1373 23.9165 21.1373C22.137 21.1373 20.3575 21.1373 18.5779 21.1373C18.2811 21.1373 18.1447 21.2722 18.1447 21.5689C18.1447 24.4797 18.1447 27.3921 18.1447 30.3029C18.1447 30.6941 18.2976 30.847 18.6844 30.847C20.4264 30.847 22.1685 30.847 23.9106 30.847C23.9705 30.847 24.032 30.841 24.1009 30.838V21.1373H24.1024ZM24.975 30.847C25.0754 30.847 25.1444 30.847 25.2118 30.847C26.9299 30.847 28.648 30.847 30.3661 30.847C30.7798 30.847 30.9148 30.7166 30.9163 30.3029C30.9193 29.4875 30.9223 28.6721 30.9208 27.8567C30.9193 25.7898 30.9163 23.7243 30.9103 21.6574C30.9103 21.2826 30.7558 21.1373 30.3855 21.1373C28.6495 21.1373 26.9119 21.1388 25.1759 21.1328C25.0095 21.1328 24.969 21.1792 24.969 21.3426C24.9735 24.4423 24.9735 27.5419 24.9735 30.6416C24.9735 30.7016 24.9735 30.763 24.9735 30.847H24.975ZM13.9679 32.7865C14.6366 32.7865 15.2887 32.788 15.9409 32.7835C15.9858 32.7835 16.0413 32.7386 16.0743 32.6996C16.9033 31.7238 18.2706 31.6863 19.1326 32.6276C19.2466 32.752 19.356 32.794 19.5164 32.7925C21.4399 32.788 23.3618 32.7895 25.2853 32.7895C26.729 32.7895 28.1727 32.7895 29.6165 32.7865C29.6989 32.7865 29.8069 32.7565 29.8578 32.6996C30.7558 31.6923 32.1066 31.6923 33.0016 32.7041C33.0406 32.749 33.1141 32.7865 33.171 32.788C33.7617 32.794 34.3539 32.788 34.9446 32.794C35.075 32.794 35.1035 32.7386 35.1005 32.6261C35.096 32.4088 35.09 32.19 35.1035 31.9726C35.114 31.7958 35.0555 31.7418 34.8741 31.7418C27.9719 31.7463 21.0711 31.7463 14.1688 31.7463H13.9679V32.7895V32.7865ZM31.4365 35.1083C32.0751 35.1083 32.5699 34.6166 32.5744 33.9736C32.5789 33.3801 32.0376 32.8225 31.453 32.8195C30.7993 32.815 30.2911 33.3096 30.2896 33.9511C30.2896 34.5867 30.8053 35.1083 31.435 35.1083H31.4365ZM16.5001 33.9646C16.4941 34.6047 16.9813 35.0948 17.6275 35.1023C18.2661 35.1098 18.7788 34.6136 18.7803 33.9841C18.7818 33.3876 18.2361 32.8285 17.6424 32.8195C17.0053 32.809 16.5061 33.3096 16.5001 33.9646ZM24.5117 11.0543C24.891 11.0543 25.2703 11.0543 25.6496 11.0543C25.8525 11.0543 25.9544 10.9509 25.9554 10.744C25.9554 10.6391 25.9524 10.5327 25.9569 10.4278C25.9614 10.3334 25.9255 10.2974 25.8265 10.2974C24.963 10.3019 24.0995 10.3019 23.2359 10.3004C23.137 10.3004 23.104 10.3349 23.1055 10.4308C23.1085 10.5732 23.116 10.7186 23.095 10.858C23.068 11.0378 23.146 11.0633 23.3004 11.0588C23.7037 11.0498 24.1084 11.0558 24.5117 11.0558V11.0543ZM23.8941 7.32361C23.8926 7.68934 24.1849 7.97562 24.5612 7.97862C24.8775 7.98012 25.1609 7.69234 25.1639 7.36708C25.1669 7.00435 24.8775 6.70458 24.5252 6.70458C24.1744 6.70458 23.8956 6.97737 23.8941 7.32511V7.32361Z" fill="#152B52"/>
<path d="M2.45119 22.6121C2.11087 22.6121 1.78705 22.6316 1.46622 22.6076C0.665656 22.5507 0.0135092 21.9181 0.0030149 20.9469C1.65291e-05 20.6921 0.00151572 20.4372 0.00151572 20.1809C0.00151572 17.6853 -0.00148266 15.1897 0.00151572 12.694C0.0030149 11.6928 0.355324 10.8489 1.16489 10.2239C1.70459 9.80721 2.32826 9.65133 2.99689 9.63634C3.34171 9.62885 3.68652 9.63634 4.01484 9.63634C3.81845 9.4235 3.62056 9.21965 3.43466 9.00681C2.74653 8.21841 2.42121 7.2936 2.4287 6.25188C2.4287 6.12298 2.38972 6.03604 2.30127 5.94311C0.788589 4.36929 0.908524 1.94411 2.83648 0.595123C3.39268 0.206914 4.03433 0.0165565 4.71646 0.0120599C5.9368 0.00306661 7.15714 -0.0104233 8.37598 0.0120599C10.1285 0.0435363 11.5483 1.33857 11.7581 3.07426C11.8916 4.17444 11.5408 5.12173 10.7972 5.92662C10.6997 6.03304 10.6682 6.13497 10.6622 6.27286C10.6128 7.47796 10.211 8.53167 9.30847 9.36205C9.2635 9.40402 9.21253 9.43999 9.16455 9.48046C9.12258 9.51493 9.0806 9.55091 9.04312 9.63334C9.11058 9.63334 9.17954 9.63035 9.24701 9.63334C9.74324 9.65733 10.25 9.62435 10.7327 9.71728C12.1359 9.98708 12.902 11.1172 13.031 12.2579C13.0564 12.4857 13.0654 12.7165 13.0654 12.9474C13.0684 15.5869 13.0669 18.2249 13.0654 20.8644C13.0654 21.7308 12.5632 22.4128 11.7686 22.5701C11.4493 22.6346 11.1135 22.6211 10.7852 22.6256C10.6487 22.6286 10.6038 22.6631 10.6038 22.8055C10.6128 26.5587 10.6203 30.3118 10.6203 34.0635C10.6203 34.3333 10.5933 34.6151 10.5183 34.8729C10.3264 35.5294 9.68777 35.9956 9.00414 35.9971C7.38652 36.0001 5.76739 36.0016 4.14977 35.9911C3.14082 35.9851 2.46768 35.3346 2.45719 34.3228C2.4392 32.5182 2.44819 30.7135 2.44969 28.9089C2.44969 26.8614 2.45569 24.814 2.45868 22.7665C2.45868 22.7305 2.45569 22.6931 2.45119 22.6121ZM6.08822 13.2876C5.98627 13.3296 5.92331 13.3521 5.86334 13.382C5.35961 13.6383 4.86038 13.9051 4.35066 14.1495C3.94738 14.3428 3.65654 14.1525 3.65504 13.7058C3.65204 12.7405 3.65504 11.7767 3.65504 10.8115C3.65504 10.7215 3.65504 10.6301 3.65504 10.5072C3.23077 10.5327 2.82599 10.5147 2.44069 10.5896C1.71509 10.732 0.869546 11.486 0.881539 12.5936C0.896531 13.9066 0.889035 15.2197 0.892033 16.5327C0.892033 16.6481 0.892033 16.7635 0.892033 16.9044C1.37027 16.9044 1.82303 16.8984 2.27578 16.9074C2.4242 16.9104 2.45119 16.8579 2.44969 16.7245C2.44519 16.3138 2.44969 15.9031 2.46018 15.4925C2.46618 15.2751 2.6131 15.1162 2.81999 15.0773C3.02238 15.0383 3.22177 15.1372 3.30273 15.3396C3.34021 15.434 3.3552 15.5449 3.3552 15.6483C3.3582 17.6029 3.3567 19.5574 3.3567 21.5104C3.3567 21.5824 3.3567 21.6543 3.3567 21.7173H9.72075C9.72075 19.7103 9.72075 17.7183 9.72075 15.7278C9.72075 15.6229 9.72375 15.5149 9.74174 15.4115C9.77472 15.2242 9.92914 15.0922 10.115 15.0773C10.4254 15.0503 10.6083 15.2316 10.6203 15.6019C10.6323 15.9811 10.6323 16.3618 10.6203 16.741C10.6158 16.8729 10.6622 16.9029 10.7777 16.9014C10.9891 16.8984 11.2004 16.9029 11.4118 16.9029C11.6577 16.9029 11.9051 16.9029 12.1689 16.9029C12.1689 16.816 12.1689 16.7425 12.1689 16.6691C12.1689 15.2991 12.1689 13.9306 12.1689 12.5606C12.1689 11.6478 11.6037 10.8474 10.7207 10.6136C10.3564 10.5177 9.95762 10.5552 9.57533 10.5267C9.4434 10.5162 9.40442 10.5641 9.40592 10.696C9.41642 11.6164 9.42091 12.5382 9.42541 13.4585C9.42541 13.5889 9.42541 13.7208 9.40892 13.8497C9.37144 14.13 9.11658 14.2874 8.84523 14.1989C8.75677 14.1704 8.67282 14.1285 8.59036 14.085C8.12562 13.8482 7.66237 13.6084 7.19762 13.37C7.13015 13.3356 7.05819 13.3071 6.97124 13.2696C6.96674 13.3401 6.96225 13.3775 6.96225 13.4135C6.96524 14.9004 6.97124 16.3888 6.97274 17.8757C6.97274 17.9806 6.96674 18.0885 6.94126 18.1889C6.89478 18.3748 6.71788 18.4962 6.52148 18.4947C6.32809 18.4932 6.16018 18.3643 6.1227 18.1664C6.09871 18.045 6.09122 17.9191 6.09122 17.7962C6.08822 16.7635 6.09122 15.7293 6.09122 14.6965C6.09122 14.2364 6.09122 13.7777 6.09122 13.2831L6.08822 13.2876ZM3.3567 22.6391V22.7995C3.3567 26.6576 3.3567 30.5172 3.3567 34.3753C3.3567 34.8055 3.63255 35.0977 4.06132 35.1037C4.67748 35.1127 5.29365 35.1022 5.90982 35.1097C6.06573 35.1112 6.08972 35.0513 6.08972 34.9104C6.08522 31.9666 6.08522 29.0228 6.08522 26.079C6.08522 25.7073 6.25613 25.4885 6.53947 25.49C6.82732 25.4915 6.97724 25.6968 6.97724 26.085C6.97724 29.0408 6.98024 31.9966 6.97724 34.9539C6.97724 35.0798 7.01472 35.1127 7.13615 35.1112C7.72083 35.1052 8.30702 35.1112 8.8917 35.1067C9.46889 35.1037 9.72075 34.8444 9.72075 34.2689C9.72075 30.4407 9.72075 26.6141 9.72075 22.786C9.72075 22.7395 9.71026 22.6916 9.70576 22.6391H3.3552H3.3567ZM3.29973 5.60287C3.29973 5.60287 3.30423 5.60287 3.30573 5.60287C3.30573 5.83969 3.29673 6.07651 3.30872 6.31184C3.32072 6.55315 3.33121 6.79747 3.37919 7.03429C3.62505 8.27836 4.8319 9.44748 6.3071 9.5539C8.00568 9.67681 9.6383 8.33232 9.74174 6.6311C9.78522 5.91763 9.76873 5.20117 9.76723 4.4862C9.76723 4.42625 9.68627 4.33482 9.6233 4.31234C8.63384 3.96609 7.63988 3.62735 6.64592 3.2916C6.58145 3.26912 6.4975 3.26612 6.43303 3.2886C5.44507 3.62135 4.4586 3.9616 3.47064 4.29585C3.34321 4.33931 3.29523 4.40527 3.29823 4.53867C3.30573 4.8924 3.30123 5.24763 3.30123 5.60137L3.29973 5.60287ZM2.4287 4.4937C2.4287 4.37679 2.4272 4.25838 2.4287 4.14146C2.4362 3.8312 2.51266 3.71278 2.802 3.61236C3.95787 3.21366 5.11674 2.82095 6.27412 2.42225C6.45402 2.3608 6.62193 2.3623 6.80033 2.42375C7.92772 2.81196 9.05661 3.19567 10.184 3.58388C10.5708 3.71728 10.6982 3.91963 10.6682 4.33332C10.6637 4.39477 10.6682 4.45623 10.6682 4.51768C10.9981 3.94811 10.9681 2.94986 10.6158 2.32033C10.1075 1.41201 9.33546 0.912884 8.28453 0.900893C7.13315 0.887403 5.98178 0.890401 4.8304 0.894898C4.59653 0.894898 4.35516 0.914383 4.12878 0.969842C2.89345 1.26662 2.02842 2.51218 2.17084 3.77574C2.19933 4.03055 2.2458 4.28386 2.4302 4.4937H2.4287ZM2.44969 18.5936C2.44969 18.3823 2.44369 18.1709 2.45119 17.9596C2.45569 17.8442 2.41371 17.8067 2.30127 17.8082C1.8845 17.8127 1.46772 17.8142 1.05095 17.8082C0.931012 17.8067 0.887536 17.8442 0.889035 17.9671C0.893533 18.3898 0.893533 18.8125 0.886037 19.2351C0.883038 19.3625 0.934011 19.394 1.05095 19.3925C1.46172 19.3865 1.8725 19.382 2.28178 19.388C2.42121 19.3895 2.45269 19.3281 2.44969 19.2097C2.44519 19.0043 2.44969 18.799 2.44969 18.5936ZM12.1584 17.8097C11.6997 17.8097 11.2544 17.8172 10.8077 17.8067C10.6517 17.8037 10.6203 17.8652 10.6233 18.0016C10.6293 18.4063 10.6308 18.8095 10.6218 19.2142C10.6188 19.3596 10.6772 19.3925 10.8092 19.391C11.2199 19.385 11.6307 19.391 12.04 19.3895C12.0805 19.3895 12.121 19.379 12.1584 19.373V17.8097ZM2.44669 21.7308C2.44669 21.2841 2.44669 20.8569 2.44669 20.4312C2.44669 20.4133 2.45868 20.3863 2.44969 20.3773C2.41821 20.3428 2.38223 20.2859 2.34625 20.2859C1.90548 20.2799 1.46472 20.2844 1.02246 20.2829C0.91752 20.2829 0.883038 20.3263 0.887536 20.4297C0.895032 20.6096 0.884537 20.7895 0.892033 20.9693C0.908524 21.4025 1.17988 21.6993 1.60865 21.7278C1.88 21.7458 2.15435 21.7308 2.44669 21.7308ZM12.1824 20.2829C11.6802 20.2829 11.2094 20.2799 10.7387 20.2889C10.6982 20.2889 10.6263 20.3638 10.6248 20.4058C10.6128 20.797 10.6173 21.1882 10.6068 21.5794C10.6038 21.7038 10.6458 21.7428 10.7672 21.7383C10.9966 21.7308 11.2274 21.7398 11.4568 21.7353C11.8046 21.7278 12.076 21.5254 12.1314 21.1822C12.1794 20.8854 12.1674 20.5811 12.1824 20.2829ZM7.89324 10.5477H5.13623C5.60098 11.0033 6.02825 11.4185 6.45102 11.8397C6.54997 11.9386 6.60094 11.8652 6.66241 11.8037C7.03121 11.4335 7.40001 11.0648 7.76881 10.693C7.80629 10.6556 7.83777 10.6121 7.89324 10.5477ZM4.55905 13.0718C4.97882 12.8574 5.3791 12.6536 5.79888 12.4392C5.36711 12.033 4.95034 11.6433 4.55905 11.2761V13.0718ZM7.29656 12.4512C7.70884 12.6626 8.10613 12.8679 8.51241 13.0763V11.2446C8.10763 11.6463 7.71034 12.0405 7.29656 12.4527V12.4512Z" fill="#152B52"/>
<path d="M25.4667 16.9298C24.8865 16.9298 24.3273 16.9298 23.7696 16.9298C23.6422 16.9298 23.5972 16.9973 23.5987 17.1187C23.6017 17.4289 23.6062 17.7407 23.5987 18.051C23.5882 18.3882 23.2958 18.5906 22.993 18.4766C22.8011 18.4047 22.7127 18.2488 22.7097 18.0555C22.7037 17.7137 22.6962 17.3705 22.7217 17.0302C22.7651 16.4262 23.1519 16.053 23.7651 16.0305C24.2928 16.011 24.822 16.011 25.3497 16.0305C25.9434 16.053 26.3527 16.4936 26.3632 17.0857C26.3692 17.384 26.3677 17.6822 26.3632 17.9805C26.3587 18.2743 26.1773 18.4811 25.9269 18.4871C25.6721 18.4931 25.4817 18.2998 25.4727 18C25.4622 17.6598 25.4697 17.318 25.4697 16.9268L25.4667 16.9298Z" fill="#152B52"/>
<path d="M21.4264 26.9318V25.0477C21.179 25.0477 20.9392 25.0507 20.7008 25.0477C20.5464 25.0447 20.389 25.0477 20.2361 25.0237C20.0382 24.9937 19.9017 24.8289 19.8957 24.6385C19.8882 24.4257 20.0157 24.2488 20.2211 24.1993C20.287 24.1828 20.356 24.1723 20.4235 24.1708C20.7338 24.1678 21.0456 24.1619 21.356 24.1678C21.8807 24.1798 22.3109 24.583 22.3289 25.1076C22.3484 25.6967 22.3499 26.2888 22.3304 26.8778C22.3139 27.3799 21.9092 27.7861 21.4129 27.8131C21.0591 27.8326 20.7038 27.8266 20.35 27.8131C20.0786 27.8041 19.9062 27.6288 19.8957 27.3874C19.8853 27.1491 20.0472 26.9737 20.3245 26.9378C20.4414 26.9228 20.5599 26.9303 20.6783 26.9288C20.9197 26.9288 21.1626 26.9288 21.4264 26.9288V26.9318Z" fill="#152B52"/>
<path d="M29.2147 25.9919C29.1997 26.3202 29.2087 26.6529 29.1637 26.9767C29.0947 27.4713 28.6914 27.8071 28.1952 27.8176C27.8594 27.8251 27.5236 27.8236 27.1877 27.8176C26.9029 27.8131 26.708 27.6287 26.708 27.3769C26.708 27.1176 26.8924 26.9347 27.1803 26.9272C27.4726 26.9197 27.7649 26.9212 28.0573 26.9272C28.2252 26.9317 28.3061 26.8808 28.3031 26.6949C28.2941 26.2033 28.2971 25.7116 28.3031 25.22C28.3046 25.0911 28.2447 25.0581 28.1337 25.0581C27.8234 25.0581 27.5116 25.0626 27.2012 25.0536C26.9209 25.0446 26.741 24.8723 26.7335 24.6235C26.726 24.4031 26.8489 24.2113 27.0663 24.1993C27.4996 24.1753 27.9388 24.1468 28.3676 24.1993C28.8623 24.2577 29.1877 24.7089 29.2027 25.244C29.2102 25.4928 29.2027 25.7416 29.2027 25.9904C29.2072 25.9904 29.2132 25.9904 29.2176 25.9904L29.2147 25.9919Z" fill="#152B52"/>
</g>
<defs>
<clipPath id="clip0_521_3869">
<rect width="36" height="36" fill="white"/>
</clipPath>
</defs>
</svg>
