<svg width="36" height="36" viewBox="0 0 36 36" fill="none" xmlns="http://www.w3.org/2000/svg">
<g clip-path="url(#clip0_521_4121)">
<path d="M27.0254 8.76332C26.6968 9.14004 26.395 9.48149 26.0975 9.82717C25.8436 10.1206 25.6871 10.4663 25.5954 10.8402C25.4276 11.533 25.5052 12.199 25.8154 12.8409C26.3964 14.0416 26.9803 15.2409 27.5556 16.4445C28.4398 18.297 29.317 20.1552 30.1998 22.0092C30.974 23.636 31.7454 25.2656 32.5309 26.8868C33.4602 28.8028 32.2474 30.8854 30.3422 31.231C29.2028 31.4385 28.2509 31.0744 27.4823 30.2265C27.1326 29.8399 26.8068 29.4321 26.474 29.03C26.4077 28.9496 26.3612 28.9228 26.2568 28.9792C25.807 29.2219 25.3768 29.1725 24.9806 28.855C24.7803 28.6942 24.5843 28.5249 24.3967 28.3485C24.1711 28.1383 23.9286 28.1115 23.6536 28.2356C23.2911 28.3993 22.9273 28.5616 22.5606 28.7139C22.4506 28.7605 22.4281 28.8254 22.4154 28.9383C22.3886 29.1739 22.3717 29.4251 22.2758 29.6339C22.0812 30.06 21.7244 30.2914 21.2463 30.3069C21.0179 30.3139 20.7908 30.3069 20.5454 30.3069V32.199C20.929 32.199 21.314 32.1947 21.699 32.199C21.9613 32.2032 22.2292 32.1891 22.4859 32.2356C22.9513 32.3189 23.2911 32.6885 23.3123 33.1584C23.3391 33.7778 23.3433 34.4014 23.3151 35.0208C23.2883 35.5866 22.8103 35.9915 22.2222 35.9944C21.5777 35.9986 20.9333 35.9944 20.2888 35.9944C17.5826 35.9944 14.875 35.9944 12.1688 35.993C12.0531 35.993 11.9333 35.9831 11.8233 35.9492C11.6033 35.8829 11.4566 35.6557 11.4707 35.437C11.4862 35.2057 11.6456 35.018 11.8797 34.9728C11.9939 34.9503 12.1124 34.946 12.228 34.946C15.456 34.9446 18.684 34.9432 21.9119 34.9432C22.2575 34.9432 22.2575 34.9418 22.256 34.5989C22.256 34.2236 22.2462 33.8483 22.2589 33.473C22.2659 33.2967 22.2208 33.2459 22.0389 33.2459C20.2465 33.2529 18.4541 33.2487 16.6603 33.2487C11.599 33.2487 6.53636 33.2487 1.47509 33.2487C1.05485 33.2487 1.05344 33.2487 1.05062 33.6748C1.0478 34.0261 1.05908 34.3788 1.04639 34.7302C1.04075 34.8938 1.07318 34.9503 1.25228 34.9503C4.05297 34.9446 6.85366 34.946 9.65294 34.9475C9.78691 34.9475 9.9237 34.9517 10.0548 34.9757C10.2692 35.0124 10.4271 35.1972 10.4497 35.4131C10.4737 35.6374 10.3693 35.8406 10.1606 35.9252C10.0548 35.9676 9.93498 35.9958 9.82075 35.9958C6.9143 36 4.00925 36 1.1028 35.9986C0.480891 35.9986 0.00846823 35.5344 0.00141715 34.9136C-0.00563394 34.3746 -0.00422372 33.8342 0.00141715 33.2952C0.00846823 32.6547 0.465378 32.2046 1.10703 32.2004C1.66829 32.1975 2.22956 32.2004 2.81339 32.2004C2.81339 32.1072 2.81339 32.0282 2.81339 31.9478C2.81339 23.8462 2.81339 15.7446 2.81339 7.64304C2.81339 5.39401 4.43655 3.37779 6.63084 2.90371C7.2598 2.76826 7.89158 2.64692 8.52335 2.52417C8.78142 2.47338 8.99437 2.57073 9.11 2.77532C9.21718 2.9672 9.21013 3.19295 9.05219 3.34251C8.95629 3.43422 8.81809 3.50477 8.68835 3.53299C8.0608 3.67126 7.42762 3.78696 6.79866 3.92241C5.1064 4.28925 3.79208 5.97955 3.84708 7.74322C3.87669 8.69137 3.85554 9.64234 3.85554 10.5919C3.85554 17.5154 3.85554 24.4388 3.85554 31.3623C3.85554 31.5965 3.85272 31.8307 3.84426 32.0649C3.84144 32.1482 3.85272 32.2004 3.95284 32.2004C4.5677 32.199 5.18255 32.2004 5.8101 32.2004C5.81574 32.1453 5.82561 32.1002 5.82561 32.055C5.82561 24.0353 5.82279 16.0155 5.82279 7.99719C5.82279 7.66279 5.81997 7.3284 5.95253 7.01094C6.25714 6.28149 6.82968 5.92876 7.58556 5.78625C9.10859 5.49983 10.6274 5.18801 12.1476 4.88749C13.9485 4.53052 15.7507 4.17355 17.5516 3.81659C18.9054 3.5471 20.2592 3.27902 21.613 3.00671C21.9909 2.93052 22.1037 2.77955 22.0445 2.40424C21.9937 2.07549 21.9275 1.74675 21.8541 1.42223C21.7822 1.10477 21.5904 0.989073 21.2491 1.05257C20.6625 1.16262 20.0773 1.27973 19.4934 1.39542C17.6742 1.75521 15.8565 2.11641 14.0373 2.47902C13.0107 2.68361 11.984 2.89384 10.956 3.09278C10.8121 3.121 10.6486 3.12241 10.5089 3.0829C10.296 3.02364 10.1846 2.81623 10.1931 2.58907C10.2015 2.36897 10.3298 2.18837 10.5625 2.13193C10.9489 2.0374 11.3396 1.96403 11.7302 1.88784C13.7778 1.48149 15.8269 1.07514 17.8745 0.668791C18.942 0.457151 20.0082 0.242689 21.0757 0.0338705C21.9148 -0.131209 22.6594 0.347098 22.8526 1.17955C22.9442 1.5732 23.0204 1.96967 23.0852 2.36756C23.2093 3.14216 22.6481 3.86033 21.8048 4.02399C21.3859 4.10583 20.9671 4.18766 20.5426 4.27232V21.2642C20.7344 21.2642 20.9192 21.2741 21.1039 21.2628C21.8978 21.2134 22.4309 21.8427 22.421 22.5439C22.4196 22.6836 22.4732 22.7104 22.5973 22.7048C23.1882 22.6737 23.7593 22.7485 24.3135 22.9813C24.9665 23.255 25.4742 23.6896 25.8338 24.285C26.3344 25.1104 26.8082 25.9527 27.2919 26.7894C27.519 27.1817 27.5246 27.5781 27.306 27.976C27.2581 28.0649 27.1664 28.1566 27.1735 28.2413C27.1805 28.3217 27.2891 28.3951 27.354 28.4698C27.6811 28.8452 28.0027 29.2247 28.3369 29.5944C28.9997 30.3281 30.0912 30.4635 30.9091 29.9217C31.7496 29.3644 32.0528 28.3048 31.6213 27.3975C31.0205 26.1348 30.4113 24.8762 29.8092 23.6148C28.9193 21.751 28.0323 19.8857 27.1438 18.0219C26.6277 16.9397 26.1087 15.8589 25.5926 14.7753C25.3388 14.242 25.0779 13.7115 24.8424 13.1697C24.15 11.5795 24.4405 10.1418 25.5489 8.84375C25.8422 8.50089 26.1496 8.17073 26.4543 7.83775C26.5205 7.76579 26.5403 7.70794 26.5022 7.60636C26.3767 7.27338 26.4007 6.94322 26.6164 6.65398C27.0028 6.13899 27.3977 5.62823 27.8038 5.12876C28.014 4.86914 28.303 4.84798 28.5329 5.03705C28.7628 5.22752 28.791 5.50406 28.5879 5.77355C28.2523 6.218 27.9082 6.65539 27.5599 7.08854C27.4823 7.18449 27.4654 7.26068 27.5161 7.37214C27.6402 7.64163 27.7531 7.91676 27.88 8.21447C27.9505 8.16509 28.014 8.12699 28.0675 8.07902C28.4257 7.75874 28.7867 7.44128 29.1379 7.11535C29.5017 6.77814 29.9389 6.63563 30.4226 6.63846C31.2137 6.6441 32.0035 6.66667 32.7946 6.68361C32.8595 6.68361 32.9286 6.70195 32.9864 6.6822C33.0329 6.66667 33.0964 6.60742 33.0964 6.5665C33.0992 5.58731 33.0964 4.60953 33.0921 3.63034C33.0921 3.60777 33.0823 3.58519 33.0724 3.54004C32.7692 3.612 32.4716 3.68396 32.1727 3.75592C31.7017 3.8702 31.2264 3.97461 30.7596 4.10442C30.4564 4.18907 30.1645 4.31182 29.867 4.41482C29.5539 4.52347 29.2662 4.36685 29.1901 4.0508C29.1351 3.82364 29.2183 3.60636 29.4538 3.49489C29.7372 3.35944 30.0362 3.25786 30.3338 3.15204C30.4748 3.10124 30.6243 3.07443 30.7864 3.03211C30.7484 2.89666 30.7089 2.77673 30.6821 2.65398C30.6299 2.40847 30.754 2.17708 30.981 2.08537C31.2194 1.98802 31.4774 2.06562 31.603 2.29137C31.6847 2.4381 31.7355 2.60036 31.8103 2.77955C31.9809 2.74004 32.1558 2.70054 32.3292 2.65962C32.466 2.62717 32.6014 2.58766 32.7382 2.56227C32.9553 2.52135 33.1302 2.4635 33.2261 2.218C33.3276 1.95839 33.5871 1.8441 33.8537 1.8314C34.3092 1.81165 34.7703 1.79048 35.2216 1.83281C35.7377 1.88078 35.9958 2.21941 35.9958 2.7471C35.9972 3.86597 35.9958 4.98625 35.9958 6.10512C35.9958 6.52135 35.9958 6.93757 35.9958 7.3538C35.9958 7.90971 35.6855 8.24974 35.1355 8.28078C35.0143 8.28784 34.9748 8.32876 34.9607 8.44022C34.9127 8.78167 34.8662 9.12452 34.8041 9.46456C34.6377 10.3619 33.5914 10.9827 32.6804 10.5115C32.5238 10.431 32.3701 10.3478 32.2108 10.273C31.9992 10.1728 31.8088 10.2025 31.6312 10.3647C30.9839 10.9545 30.1815 10.9531 29.5553 10.3422C29.1943 9.99084 28.8671 9.60565 28.5188 9.24163C28.4779 9.19789 28.3862 9.15556 28.3383 9.17108C27.8052 9.35451 27.4485 9.27267 27.0733 8.86209C27.0536 8.84093 27.0465 8.80988 27.0226 8.76473L27.0254 8.76332ZM19.4638 32.1933C19.4638 31.9464 19.4638 31.7192 19.4638 31.4921C19.4638 22.5467 19.4638 13.6014 19.468 4.65609C19.468 4.54745 19.4427 4.50089 19.3298 4.52488C19.2325 4.54463 19.1324 4.5545 19.0351 4.57426C16.8718 5.00177 14.71 5.4307 12.5467 5.85962C10.9066 6.18555 9.26513 6.50865 7.62646 6.84022C7.10186 6.94604 6.89314 7.21553 6.89314 7.75027C6.89314 15.8335 6.89314 23.9182 6.89314 32.0014C6.89314 32.0635 6.89314 32.1256 6.89314 32.1961H19.4638V32.1933ZM22.4337 23.7827V27.6416C22.493 27.6205 22.5353 27.6078 22.5747 27.5908C22.8215 27.4836 23.0669 27.375 23.3137 27.2691C23.6818 27.1111 24.0541 27.0773 24.4419 27.1972C24.762 27.2959 24.9975 27.5132 25.2415 27.7221C25.3952 27.8547 25.5503 27.9859 25.7139 28.127C25.9353 27.9139 26.1384 27.7122 26.3499 27.5203C26.4402 27.4385 26.45 27.375 26.388 27.2663C25.9635 26.5397 25.5489 25.806 25.123 25.0794C24.5237 24.0564 23.6338 23.6176 22.4337 23.7827ZM33.9538 8.29489C33.5928 8.23987 33.3206 8.10724 33.1598 7.79542C33.1387 7.75309 33.0414 7.73334 32.9779 7.73334C32.1177 7.71923 31.2574 7.70653 30.3986 7.70512C30.252 7.70512 30.0785 7.72629 29.9657 7.8053C29.6992 7.99013 29.4622 8.21588 29.2183 8.42047C29.238 8.46562 29.2408 8.48537 29.2507 8.49807C29.5948 8.87338 29.9333 9.25292 30.2872 9.61835C30.4593 9.79472 30.7159 9.78484 30.9091 9.63105C30.9416 9.60565 30.9698 9.57602 31.0022 9.55063C31.5071 9.14004 32.05 9.03281 32.6479 9.33899C32.7988 9.41659 32.9469 9.49842 33.1006 9.57038C33.4179 9.71712 33.6985 9.60283 33.7846 9.26421C33.8621 8.9538 33.8974 8.63352 33.9538 8.29772V8.29489ZM20.5454 22.321V29.2445C20.7556 29.2445 20.9544 29.2332 21.1518 29.2473C21.3281 29.26 21.3817 29.2049 21.3817 29.0243C21.3761 26.8684 21.3761 24.7125 21.3817 22.5552C21.3817 22.3803 21.3098 22.3238 21.1603 22.321C20.9615 22.3168 20.7626 22.321 20.5454 22.321ZM34.9494 5.06385C34.9494 4.38519 34.9466 3.70512 34.9522 3.02646C34.9522 2.90371 34.9127 2.85997 34.79 2.86703C34.6377 2.87549 34.4854 2.87973 34.3345 2.86703C34.1836 2.85433 34.147 2.91077 34.147 3.05468C34.1512 3.99154 34.147 4.9284 34.147 5.86526C34.147 6.2575 34.1512 6.64974 34.147 7.04198C34.147 7.17461 34.1879 7.23528 34.3303 7.22399C34.4586 7.21271 34.587 7.22258 34.7167 7.22117C34.948 7.21976 34.9494 7.21835 34.9494 6.99542C34.9494 6.35063 34.9494 5.70724 34.9494 5.06244V5.06385Z" fill="#152B52"/>
<path d="M17.0171 12.4162C17.0171 13.7354 17.0171 15.0532 17.0171 16.3724C17.0171 16.9848 16.5827 17.4391 15.9693 17.4659C15.8353 17.4715 15.6999 17.4701 15.5645 17.4701C13.9075 17.4701 12.2491 17.4701 10.5921 17.4673C10.4694 17.4673 10.3453 17.4701 10.2241 17.4518C9.66702 17.3671 9.29332 16.9326 9.28486 16.3527C9.27921 15.9252 9.28486 15.4976 9.28486 15.0687C9.28486 12.8945 9.28486 10.7202 9.28486 8.54597C9.28486 7.98865 9.54575 7.57666 9.99843 7.43274C10.1239 7.39323 10.2621 7.37489 10.3947 7.37489C12.228 7.37066 14.0613 7.37207 15.8945 7.37348C16.57 7.37348 17.0171 7.82216 17.0171 8.49659C17.0171 9.80311 17.0171 11.111 17.0171 12.4176V12.4162ZM10.3355 16.4021H15.9651V8.43027C15.9171 8.42745 15.8833 8.42322 15.8494 8.42322C14.0641 8.42322 12.2773 8.42322 10.492 8.4204C10.351 8.4204 10.3298 8.4726 10.3298 8.59535C10.3341 10.9855 10.3355 13.3756 10.3369 15.7657C10.3369 15.9703 10.3369 16.1749 10.3369 16.4006L10.3355 16.4021Z" fill="#152B52"/>
<path d="M12.2632 24.975C11.5708 24.7874 10.9052 24.6082 10.2395 24.4276C10.076 24.3839 9.91097 24.343 9.7502 24.2879C9.26368 24.1228 9.03804 23.6742 9.22137 23.2001C9.6938 21.9782 10.1789 20.7606 10.6584 19.5415C10.8079 19.1606 11.0885 18.9715 11.4975 18.9701C12.5114 18.9673 13.5239 18.9616 14.5379 18.9659C14.9807 18.9673 15.2529 19.1606 15.3812 19.5232C15.4531 19.725 15.415 19.9183 15.3431 20.1059C15.1781 20.5377 15.0174 20.9708 14.8312 21.3941C14.7579 21.5606 14.803 21.6297 14.9398 21.7116C15.4672 22.0262 15.9904 22.3507 16.5136 22.671C16.5982 22.7232 16.6828 22.7754 16.7646 22.8318C17.2469 23.1676 17.3202 23.6474 16.9381 24.096C16.4064 24.7197 15.8635 25.3348 15.3206 25.95C14.669 26.6879 14.0133 27.4216 13.3561 28.1539C13.2038 28.3232 13.0459 28.4911 12.871 28.6364C12.6017 28.8608 12.2886 28.8721 11.9896 28.6999C11.7005 28.5334 11.5369 28.2329 11.6032 27.8999C11.7245 27.2974 11.8698 26.7006 12.0066 26.1024C12.0898 25.7327 12.1744 25.3631 12.2632 24.9736V24.975ZM14.2685 20.0142C13.3702 20.0142 12.5227 20.0114 11.6737 20.0198C11.6244 20.0198 11.5525 20.0989 11.5299 20.1567C11.135 21.1514 10.7486 22.1504 10.3566 23.1465C10.2663 23.3779 10.2635 23.3722 10.499 23.4357C11.2281 23.6304 11.9558 23.828 12.6835 24.0241C13.146 24.1482 13.4393 24.5546 13.3039 25.0724C13.1488 25.6664 13.0219 26.2675 12.8837 26.8671C12.8668 26.9419 12.8569 27.0195 12.8442 27.0957C12.8569 27.0999 12.8696 27.1042 12.8823 27.1084C13.9216 25.9387 14.9595 24.7691 16.0116 23.5839C15.9157 23.5204 15.8311 23.4625 15.7422 23.4075C15.1894 23.0661 14.6324 22.7317 14.0824 22.3846C13.7214 22.1574 13.6029 21.8188 13.7327 21.4139C13.7806 21.2643 13.8441 21.119 13.9005 20.9708C14.0161 20.6661 14.1332 20.3613 14.2657 20.0142H14.2685Z" fill="#152B52"/>
<path d="M13.1531 10.9586C12.7427 10.9586 12.3337 10.9629 11.9234 10.9572C11.6061 10.9516 11.3903 10.7484 11.3734 10.4578C11.3579 10.1883 11.5652 9.9597 11.8726 9.92866C12.0531 9.91032 12.235 9.91173 12.4155 9.91032C13.012 9.9075 13.61 9.90891 14.2065 9.91032C14.2996 9.91032 14.3941 9.91455 14.4857 9.93007C14.7847 9.97805 14.9596 10.1911 14.9426 10.4761C14.9257 10.7442 14.7198 10.9502 14.4335 10.9572C14.0062 10.9671 13.579 10.9601 13.1517 10.9601L13.1531 10.9586Z" fill="#152B52"/>
<path d="M13.1728 13.8723C13.5945 13.8723 14.0161 13.8681 14.4378 13.8737C14.6564 13.8765 14.8171 13.988 14.9031 14.1898C14.9863 14.3845 14.9694 14.5792 14.8157 14.7259C14.7283 14.8092 14.5999 14.8727 14.4829 14.8924C14.2939 14.9221 14.0979 14.9108 13.9047 14.9108C13.3195 14.9122 12.7342 14.9108 12.149 14.9108C12.0616 14.9108 11.9727 14.915 11.8867 14.9065C11.5722 14.8741 11.3621 14.6526 11.3705 14.3704C11.379 14.0981 11.6032 13.8822 11.9092 13.8751C12.3309 13.8653 12.7526 13.8723 13.1742 13.8723H13.1728Z" fill="#152B52"/>
<path d="M13.1573 11.8942C13.5733 11.8942 13.9893 11.8857 14.4039 11.897C14.71 11.904 14.9088 12.0832 14.9427 12.3485C14.9793 12.6391 14.7819 12.8973 14.4843 12.9256C14.2869 12.9439 14.0866 12.9411 13.8878 12.9425C13.3251 12.9439 12.7639 12.9425 12.2012 12.9425C12.0841 12.9425 11.9671 12.9425 11.85 12.9298C11.5736 12.9016 11.3734 12.6829 11.3706 12.4148C11.3678 12.1566 11.5779 11.9181 11.8571 11.9083C12.29 11.8928 12.723 11.904 13.1559 11.904C13.1559 11.9012 13.1559 11.8984 13.1559 11.8956L13.1573 11.8942Z" fill="#152B52"/>
</g>
<defs>
<clipPath id="clip0_521_4121">
<rect width="36" height="36" fill="white"/>
</clipPath>
</defs>
</svg>
