<svg width="32" height="36" viewBox="0 0 32 36" fill="none" xmlns="http://www.w3.org/2000/svg">
<g clip-path="url(#clip0_521_4133)">
<path d="M28.2366 14.8313C28.3165 14.8342 28.3679 14.8398 28.4207 14.8398C29.197 14.8398 29.9734 14.8398 30.7498 14.8398C31.5676 14.8398 31.9986 15.2672 31.9986 16.0768C31.9986 22.2533 31.9986 28.4285 31.9957 34.605C31.9957 34.8081 31.9957 35.0197 31.9472 35.2144C31.8302 35.677 31.4077 35.9831 30.9096 36.0014C30.8683 36.0028 30.8269 36.0014 30.7855 36.0014C20.928 36.0014 11.0706 36.0014 1.21309 36.0014C0.632236 36.0014 0.202658 35.7278 0.0627955 35.244C0.0142717 35.0719 0.00142717 34.8857 0.00142717 34.7066C0 30.0111 0 25.3169 0.00142717 20.6242C0.00142717 19.1065 0.00142717 17.5889 0 16.0712C0 15.7905 0.0356792 15.5211 0.209794 15.2883C0.446704 14.971 0.774953 14.8398 1.166 14.8384C1.93667 14.8384 2.70734 14.8384 3.47801 14.8384C3.56507 14.8384 3.65355 14.8384 3.76916 14.8384C3.73348 14.7411 3.71064 14.6705 3.6821 14.6028C2.51467 11.7015 1.34725 8.80007 0.179823 5.89869C0.0656498 5.61377 -0.0399608 5.33026 0.0413879 5.01431C0.185532 4.45999 0.830613 4.04248 1.45429 4.31047C2.03514 4.56013 2.61315 4.81402 3.19115 5.06791C4.70966 5.73507 6.22817 6.40506 7.7481 7.07081C8.11489 7.2316 8.42744 7.44459 8.51021 7.86209C8.54304 8.02571 8.54018 8.20061 8.53019 8.36987C8.46597 9.54481 9.37793 10.3587 10.327 10.5251C11.2504 10.6873 12.188 10.1993 12.6019 9.34875C13.0115 8.50669 12.7989 7.46857 12.091 6.86347C11.9797 6.76755 11.8584 6.68151 11.7456 6.58701C11.2946 6.20335 11.2147 5.65044 11.5644 5.1737C12.0196 4.55167 12.4906 3.94234 12.9558 3.32877C13.6552 2.4049 14.3516 1.47962 15.0609 0.562795C15.1936 0.390715 15.3649 0.227098 15.5547 0.122722C15.9443 -0.0916732 16.3996 -0.0112752 16.7136 0.303265C16.8834 0.472524 17.0247 0.671403 17.1703 0.86323C18.2349 2.26385 19.2953 3.66447 20.3586 5.06509C20.5698 5.34295 20.6954 5.63916 20.6226 5.99742C20.557 6.32043 20.3443 6.532 20.0917 6.71677C19.7963 6.93258 19.5579 7.19352 19.3967 7.52499C18.723 8.91573 19.7563 10.5449 21.3162 10.5477C22.5664 10.5491 23.4998 9.59841 23.4655 8.36C23.4612 8.19074 23.4498 8.01584 23.4869 7.85363C23.5654 7.50242 23.8038 7.27533 24.1306 7.13146C24.7257 6.87052 25.318 6.60535 25.9131 6.3444C27.4102 5.6857 28.9116 5.03547 30.403 4.36407C31.1037 4.04953 31.6346 4.381 31.8544 4.76465C32.0442 5.0933 32.0114 5.42617 31.8758 5.76187C31.4876 6.72383 31.1009 7.68578 30.7127 8.64633C29.8992 10.6676 29.0843 12.6888 28.2708 14.71C28.258 14.7411 28.2508 14.7749 28.2323 14.8342L28.2366 14.8313ZM2.1222 33.88H29.8721C29.8749 33.8307 29.8792 33.7926 29.8792 33.7531C29.8792 33.0972 29.8778 32.4413 29.8764 31.784C29.8764 26.915 29.8764 22.046 29.8764 17.177C29.8764 16.9372 29.8764 16.9386 29.6366 16.9386C28.8959 16.9386 28.1552 16.9386 27.4145 16.9386C19.1226 16.9386 10.8308 16.94 2.53894 16.9414C2.12934 16.9414 2.12506 16.9414 2.12506 17.3477C2.12363 22.7611 2.12363 28.176 2.1222 33.5895C2.1222 33.6826 2.1222 33.7743 2.1222 33.8815V33.88ZM3.06984 7.29649C3.05557 7.30777 3.04273 7.31905 3.02845 7.33034C3.06413 7.42625 3.09839 7.52358 3.13549 7.61949C4.07314 9.95103 5.01365 12.2798 5.94273 14.6141C6.01409 14.7947 6.10258 14.844 6.28811 14.844C11.3974 14.8384 16.5066 14.8384 21.6159 14.8384C22.9974 14.8384 24.3775 14.8398 25.759 14.844C25.8789 14.844 25.9659 14.8327 26.0202 14.6973C26.9778 12.2995 27.9411 9.90308 28.9016 7.50524C28.9244 7.446 28.933 7.38112 28.9544 7.29225C28.8745 7.32329 28.8303 7.33739 28.7874 7.35714C27.8041 7.78875 26.8222 8.22882 25.8332 8.64915C25.6391 8.73237 25.5635 8.83815 25.5335 9.03986C25.0725 12.1683 21.4047 13.6973 18.8358 11.8355C16.9319 10.456 16.5138 7.83529 17.8996 5.96639C17.9852 5.85073 18.0808 5.74071 18.165 5.63493C17.8011 5.15536 17.4471 4.68566 17.0904 4.21879C16.7321 3.74769 16.3725 3.27658 16.0057 2.79419C15.9586 2.84779 15.9229 2.88588 15.893 2.92678C15.2536 3.77026 14.6199 4.61796 13.9706 5.45438C13.8564 5.60107 13.8635 5.67865 13.9763 5.81688C14.6342 6.62368 14.9639 7.5532 14.9154 8.58568C14.8597 9.76203 14.4201 10.7804 13.4982 11.566C12.5334 12.3884 11.4202 12.7664 10.1486 12.6126C8.20765 12.3785 6.67915 10.8523 6.44082 8.92702C6.42797 8.82123 6.39515 8.76058 6.29382 8.71544C5.53028 8.38257 4.7696 8.04264 4.00892 7.70694C3.69637 7.57012 3.38382 7.43612 3.06984 7.30072V7.29649Z" fill="#152B52"/>
<path d="M8.90982 25.4059C9.14816 25.4496 9.38935 25.4792 9.62198 25.5398C11.453 26.0166 12.7518 27.6641 12.7903 29.5527C12.7974 29.8926 12.796 30.2326 12.7931 30.5725C12.7874 31.2439 12.335 31.6981 11.6543 31.7051C10.925 31.7122 10.1957 31.7065 9.46642 31.7065C8.13915 31.7065 6.81045 31.7037 5.48319 31.7051C5.23629 31.7051 4.99795 31.6713 4.7853 31.5387C4.52127 31.3736 4.32718 31.1395 4.30292 30.8348C4.23727 29.9815 4.19588 29.1211 4.49416 28.296C5.05932 26.7317 6.17822 25.7909 7.82232 25.4566C7.93221 25.4341 8.04353 25.4143 8.15342 25.3932C8.16484 25.3903 8.17483 25.3833 8.21336 25.3664C7.25145 25.2027 6.44224 24.8233 5.90706 24.0038C5.38471 23.2041 5.18919 22.3409 5.44037 21.4057C5.82 19.9952 7.1858 19.0022 8.64722 19.0643C10.1201 19.1263 11.3988 20.2166 11.66 21.6243C11.827 22.527 11.6186 23.3409 11.0977 24.0899C10.5653 24.8529 9.7704 25.183 8.90982 25.4087V25.4059ZM8.51021 29.6035C8.51021 29.6035 8.51021 29.6021 8.51021 29.6007C9.161 29.6007 9.81179 29.6007 10.464 29.6007C10.6781 29.6007 10.6795 29.5964 10.6595 29.3792C10.5568 28.2847 9.58773 27.4553 8.46454 27.4849C7.30568 27.5159 6.47507 28.4582 6.39229 29.4243C6.38088 29.5612 6.40942 29.6091 6.55927 29.6063C7.21006 29.5978 7.86085 29.6035 8.51307 29.6035H8.51021ZM7.45982 22.2069C7.45553 22.8021 7.92079 23.2661 8.52306 23.269C9.09963 23.2718 9.58059 22.8077 9.59058 22.2393C9.602 21.6652 9.13246 21.1701 8.57301 21.1645C7.93078 21.1574 7.4641 21.5947 7.45982 22.2069Z" fill="#152B52"/>
<path d="M21.3348 23.276C23.0773 23.276 24.8185 23.276 26.5611 23.276C27.1576 23.276 27.6057 23.6173 27.7042 24.1322C27.8284 24.7824 27.3303 25.3579 26.6181 25.3748C26.2571 25.3833 25.896 25.3762 25.5335 25.3762C22.4351 25.3762 19.3353 25.3762 16.2369 25.372C16.0614 25.372 15.8773 25.3649 15.7103 25.3156C15.2122 25.1689 14.8868 24.6837 14.9525 24.2224C15.0295 23.6709 15.4548 23.2943 16.0371 23.2788C16.4695 23.2675 16.902 23.276 17.3344 23.276C18.6674 23.276 20.0004 23.276 21.3333 23.276H21.3348Z" fill="#152B52"/>
<path d="M21.3376 29.5949C19.6079 29.5949 17.8782 29.5949 16.147 29.5949C15.8416 29.5949 15.5576 29.5357 15.3221 29.3326C14.9881 29.0448 14.8668 28.6118 15.0053 28.2197C15.1537 27.7965 15.5248 27.5285 16.0029 27.4989C16.0557 27.4961 16.1099 27.4961 16.1627 27.4961C19.6164 27.4961 23.0716 27.4961 26.5254 27.4961C27.1433 27.4961 27.5943 27.8191 27.6999 28.3367C27.8355 28.9926 27.3346 29.5794 26.6167 29.5963C26.2371 29.6048 25.8589 29.5977 25.4793 29.5977C24.0992 29.5977 22.7177 29.5977 21.3376 29.5977V29.5949Z" fill="#152B52"/>
<path d="M17.0661 19.053C17.6455 19.0544 18.1279 19.5325 18.1293 20.1066C18.1322 20.6652 17.6113 21.1659 17.0361 21.1574C16.4795 21.1504 16.0057 20.6708 16.0043 20.1109C16.0029 19.5424 16.4952 19.0516 17.0661 19.053Z" fill="#152B52"/>
<path d="M21.349 19.0528C21.9242 19.0599 22.4108 19.5564 22.398 20.122C22.3852 20.6819 21.8785 21.1643 21.3076 21.1587C20.7439 21.153 20.2601 20.6565 20.2729 20.0966C20.2858 19.5197 20.7753 19.0458 21.349 19.0528Z" fill="#152B52"/>
<path d="M25.6049 19.053C26.1829 19.0558 26.6667 19.5368 26.6667 20.1094C26.6667 20.6624 26.1586 21.156 25.5877 21.1588C25.0254 21.1617 24.5402 20.675 24.5402 20.1094C24.5402 19.5396 25.034 19.0516 25.6049 19.0544V19.053Z" fill="#152B52"/>
</g>
<defs>
<clipPath id="clip0_521_4133">
<rect width="32" height="36" fill="white"/>
</clipPath>
</defs>
</svg>
