<svg width="36" height="36" viewBox="0 0 36 36" fill="none" xmlns="http://www.w3.org/2000/svg">
<g clip-path="url(#clip0_521_4098)">
<path d="M7.79799 14.0436C9.70782 12.5425 10.6132 10.5814 10.5201 8.14718C10.2828 8.11369 10.095 8.11078 9.91161 8.29568C7.85476 10.3689 5.79063 12.4348 3.71922 14.4934C3.53872 14.6725 3.48195 14.8472 3.48195 15.0918C3.48777 21.7919 3.48631 28.4934 3.48631 35.1934C3.48631 35.2414 3.48631 35.2895 3.48631 35.339C3.47612 35.7365 3.23739 35.9898 2.84 35.9941C2.1078 36.0029 1.37706 36.0029 0.644859 35.9941C0.259108 35.9898 0.017468 35.7335 0.00436699 35.3492C0.00145566 35.2764 0.00436699 35.2036 0.00436699 35.1308C0.00436699 27.959 0.00582265 20.7858 0 13.6141C0 13.2792 0.106263 13.0288 0.340625 12.7959C2.79633 10.3514 5.24621 7.90113 7.69755 5.45231C7.88533 5.2645 8.07311 5.07523 8.25943 4.88597C8.41955 4.72145 8.6117 4.64429 8.84315 4.64429C14.9555 4.64429 21.0693 4.64429 27.1816 4.64429C27.4232 4.64429 27.6066 4.74766 27.7726 4.91217C29.598 6.73787 31.4263 8.56211 33.2517 10.3863C34.0509 11.1856 34.8442 11.9922 35.6506 12.7842C35.8981 13.0259 36 13.2894 36 13.6359C35.9927 20.8077 35.9942 27.9809 35.9942 35.1526C35.9942 35.2138 35.9942 35.2735 35.9942 35.3346C35.984 35.7335 35.7467 35.9883 35.3508 35.9927C34.6186 36.0014 33.8878 36.0014 33.1556 35.9927C32.7699 35.9883 32.5268 35.735 32.5122 35.3506C32.5093 35.2778 32.5122 35.2051 32.5122 35.1323C32.5122 28.4133 32.5122 21.6943 32.5151 14.9768C32.5151 14.8108 32.4758 14.6929 32.3507 14.5677C30.2356 12.4581 28.1278 10.3427 26.0185 8.22725C25.9341 8.14281 25.6284 8.07875 25.5309 8.13699C25.4988 8.15591 25.4756 8.21415 25.4741 8.25492C25.4275 9.93939 25.8599 11.4754 26.9414 12.7886C27.3155 13.2443 27.7478 13.6519 28.1656 14.0945C27.9691 14.3537 27.7522 14.6419 27.5077 14.9637C25.3227 13.2035 24.2732 10.9381 24.3169 8.1268C24.1 8.1268 23.8787 8.11952 23.6589 8.13262C23.6181 8.13553 23.5686 8.21415 23.5453 8.26802C23.0475 9.44438 22.4798 10.5829 21.7724 11.6472C21.1348 12.6066 20.4084 13.4918 19.551 14.3246C19.305 14.0421 19.0619 13.7626 18.8043 13.467C19.5234 12.7405 20.2206 11.9092 20.8233 11.0007C21.4215 10.0995 21.9427 9.15757 22.3663 8.13553H13.6279C14.4882 10.1694 15.695 11.9514 17.2438 13.5165C16.9789 13.8077 16.7299 14.0814 16.4796 14.358C15.7823 13.7087 15.2524 13.0273 14.7357 12.3329C13.7997 11.0764 13.0471 9.71518 12.4605 8.26365C12.4168 8.15446 12.3629 8.11369 12.2494 8.12097C12.1111 8.12971 11.9699 8.13262 11.8331 8.12097C11.6788 8.10641 11.6569 8.17193 11.6584 8.31024C11.705 10.96 10.6846 13.1191 8.66119 14.8181C8.52727 14.9302 8.45158 14.9273 8.35114 14.7832C8.17937 14.5357 7.99159 14.2998 7.79653 14.0407L7.79799 14.0436ZM2.32761 34.8265C2.32761 34.7348 2.32761 34.6576 2.32761 34.579C2.32761 27.9751 2.32761 21.3711 2.32761 14.7671C2.32761 14.7133 2.3145 14.6536 2.33052 14.6041C2.38438 14.4425 2.41931 14.262 2.51684 14.1295C2.6595 13.9373 2.85164 13.7815 3.02196 13.6112C5.13703 11.4943 7.25502 9.37887 9.36719 7.25762C9.5739 7.04943 9.80243 6.96208 10.095 6.96208C15.3733 6.96645 20.6515 6.96645 25.9297 6.96208C26.2165 6.96208 26.4378 7.05234 26.6386 7.25471C27.4116 8.03799 28.1947 8.81107 28.9721 9.58997C30.4335 11.0517 31.8936 12.5178 33.3594 13.9751C33.5807 14.195 33.6782 14.4337 33.6782 14.7482C33.6724 21.3638 33.6739 27.9794 33.6739 34.595C33.6739 34.6707 33.6739 34.7464 33.6739 34.8178H34.8355C34.8355 34.7304 34.8355 34.6576 34.8355 34.5863C34.8355 27.662 34.8355 20.7378 34.8384 13.815C34.8384 13.6476 34.7962 13.5311 34.6724 13.4073C32.1862 10.9265 29.7057 8.43981 27.2267 5.94877C27.1175 5.83958 27.0113 5.80173 26.8628 5.80173C21.0765 5.80464 15.2903 5.80901 9.50402 5.79445C9.08188 5.79445 8.79512 5.91674 8.50107 6.21375C6.12106 8.6218 3.72359 11.0138 1.32756 13.4059C1.21111 13.5224 1.16162 13.6301 1.16162 13.7961C1.16599 20.7261 1.16599 27.6562 1.16599 34.5863V34.8251H2.32761V34.8265Z" fill="#152B52"/>
<path d="M29.467 23.5185C29.6999 23.7281 29.9415 23.929 30.1613 24.1518C30.9678 24.9598 31.3419 25.9527 31.3462 27.0811C31.3564 29.6449 31.3506 32.2102 31.3491 34.774C31.3491 35.4947 30.8499 35.9941 30.1249 35.997C29.007 36.0013 27.8876 36.0028 26.7696 35.997C26.0331 35.9926 25.5469 35.4962 25.5454 34.758C25.5454 34.2135 25.5454 33.6705 25.5454 33.1114H10.4531C10.4531 33.2191 10.4531 33.3312 10.4531 33.4433C10.4531 33.8845 10.4546 34.3256 10.4531 34.7682C10.4487 35.4991 9.95381 35.9955 9.2187 35.9984C8.1124 36.0013 7.0061 36.0013 5.89979 35.9984C5.13848 35.997 4.65083 35.5049 4.65083 34.7478C4.65083 32.1898 4.64647 29.6318 4.65229 27.0738C4.6552 25.9557 5.02931 24.9787 5.81973 24.1765C6.0439 23.948 6.28118 23.7339 6.54465 23.4806C6.45003 23.4457 6.40636 23.4209 6.35833 23.4122C5.99004 23.3481 5.62031 23.287 5.25057 23.2273C4.84735 23.1618 4.65229 22.9347 4.65083 22.5197C4.65083 22.0233 4.64938 21.5283 4.65083 21.0318C4.65229 20.5717 4.8983 20.3257 5.35829 20.3242C6.40491 20.3228 7.45007 20.3242 8.4967 20.3242H8.69612C8.91156 19.6793 9.12845 19.0474 9.33225 18.4097C9.67724 17.3353 10.3789 16.6335 11.4764 16.354C11.737 16.2885 12.015 16.2637 12.2843 16.2637C16.1113 16.2579 19.9397 16.2594 23.7666 16.2608C25.1306 16.2608 26.1524 16.9757 26.6139 18.2641C26.8555 18.9397 27.0724 19.6239 27.3082 20.3242C27.3766 20.3242 27.448 20.3242 27.5193 20.3242C28.5528 20.3242 29.5878 20.3242 30.6213 20.3242C31.1148 20.3242 31.3521 20.5645 31.3535 21.0609C31.3535 21.5501 31.3535 22.0407 31.3535 22.5299C31.3535 22.9303 31.173 23.1501 30.7814 23.2229C30.3608 23.3001 29.9386 23.3671 29.5165 23.4369C29.5005 23.4646 29.4859 23.4923 29.4699 23.5199L29.467 23.5185ZM22.6443 26.7069C22.6938 26.34 22.9398 26.1944 23.2498 26.0998C24.7623 25.6412 26.2718 25.1753 27.7828 24.7109C28.1147 24.6089 28.4466 24.5041 28.7974 24.3964C28.7581 24.3411 28.7406 24.3105 28.7173 24.2872C28.1976 23.7645 27.6794 23.2404 27.1525 22.7236C27.1015 22.6726 27.004 22.6464 26.9283 22.6464C20.9805 22.6435 15.0326 22.642 9.08478 22.6464C8.99453 22.6464 8.8839 22.6944 8.8184 22.757C8.36423 23.1996 7.92171 23.6553 7.47045 24.1008C7.38602 24.1853 7.27976 24.2493 7.18369 24.3221C7.27394 24.4051 7.32198 24.4299 7.37147 24.4459C7.65969 24.5361 7.94791 24.625 8.23613 24.7138C9.72382 25.1709 11.2101 25.631 12.6992 26.0838C13.0282 26.1842 13.3135 26.3138 13.3673 26.7054H13.577C14.6163 26.7054 15.6556 26.7084 16.6964 26.704C16.9425 26.704 17.1419 26.7841 17.3107 26.9588C17.4869 27.1408 17.6703 27.3169 17.8508 27.496C17.9003 27.5455 17.9527 27.5906 18.0182 27.6532C18.2365 27.429 18.4447 27.2281 18.6383 27.0126C18.8435 26.7855 19.0896 26.6982 19.3952 26.7011C20.471 26.7113 21.5467 26.7054 22.6443 26.7054V26.7069ZM26.5018 21.4759C26.1597 20.464 25.8584 19.4638 25.4814 18.4927C25.2063 17.7822 24.6313 17.4183 23.851 17.4183C19.963 17.4183 16.0749 17.4183 12.1883 17.4183C11.3396 17.4183 10.7326 17.839 10.4546 18.6383C10.2187 19.3168 9.99748 19.9996 9.7704 20.6809C9.68306 20.9415 9.59718 21.2021 9.50692 21.4759H26.5018ZM23.8336 27.0796C23.6967 27.777 23.5846 27.8687 22.8874 27.8687C21.7753 27.8687 20.6631 27.8658 19.551 27.8745C19.4506 27.8745 19.3283 27.9284 19.254 27.9968C18.9804 28.2531 18.7286 28.5311 18.4578 28.7903C18.1303 29.1048 17.8697 29.1018 17.5466 28.7859C17.2904 28.537 17.0356 28.2865 16.7925 28.0259C16.679 27.9051 16.5611 27.8643 16.3966 27.8643C15.2306 27.8716 14.0631 27.8687 12.8957 27.8672C12.491 27.8672 12.2436 27.6561 12.1955 27.2805C12.1883 27.2252 12.1839 27.1684 12.1795 27.1131C12.165 27.1087 12.149 27.1029 12.1344 27.0985C12.0674 27.2004 11.9947 27.3009 11.935 27.4072C11.523 28.1351 10.9029 28.47 10.0674 28.4525C9.23326 28.435 8.39917 28.4525 7.56507 28.4481C7.10654 28.4467 6.66402 28.3623 6.24915 28.1599C6.1065 28.09 5.9653 28.0128 5.811 27.9328C5.811 28.0041 5.811 28.058 5.811 28.1133C5.811 29.1717 5.811 30.2302 5.811 31.2871C5.811 31.721 6.01916 31.9365 6.45294 31.9365C7.6495 31.9365 8.84751 31.9365 10.0441 31.9292C10.1183 31.9292 10.2173 31.8797 10.2639 31.82C10.6438 31.3265 11.0194 30.83 11.3847 30.3263C11.7559 29.8152 12.28 29.6158 12.8782 29.6143C16.3063 29.607 19.733 29.607 23.161 29.6143C23.7884 29.6143 24.3037 29.8764 24.6793 30.3961C25.0228 30.8708 25.3809 31.3352 25.7245 31.8098C25.7943 31.9059 25.8642 31.9365 25.9778 31.935C27.1568 31.9307 28.3359 31.9336 29.5136 31.9336C29.9779 31.9336 30.1919 31.7225 30.1919 31.2609C30.1919 30.2156 30.1919 29.1688 30.1919 28.1235C30.1919 28.0667 30.1861 28.0085 30.1803 27.9328C30.1147 27.9692 30.0667 27.991 30.023 28.0187C29.5645 28.304 29.0594 28.4394 28.5252 28.4467C27.595 28.4598 26.6634 28.4613 25.7317 28.4467C25.0694 28.435 24.525 28.1774 24.1771 27.5804C24.1101 27.4654 24.0359 27.3548 23.9617 27.2456C23.9267 27.1932 23.8845 27.1466 23.8336 27.0811V27.0796ZM11.6045 31.919H24.4042C24.1436 31.5798 23.9063 31.2609 23.656 30.9523C23.5439 30.8154 23.3838 30.7689 23.2018 30.7703C19.7373 30.7732 16.2728 30.7732 12.8084 30.7703C12.5973 30.7703 12.4299 30.8402 12.3033 31.0032C12.0747 31.2988 11.8505 31.5973 11.606 31.919H11.6045ZM30.1803 34.8279V33.0095C29.0245 33.1915 27.8643 33.0342 26.7172 33.1099V34.8279H30.1803ZM5.81536 34.8221H9.27839V33.0925C9.13719 33.0925 9.01054 33.0968 8.8839 33.0925C7.86348 33.0575 6.83724 33.1769 5.81536 33.0066V34.8221ZM8.82568 27.2878C9.29731 27.2878 9.76894 27.2791 10.2391 27.2907C10.5142 27.298 10.7137 27.1946 10.8651 26.9704C11.0019 26.768 11.0019 26.7506 10.7719 26.6792C9.33661 26.2396 7.89987 25.7999 6.46605 25.3573C6.3656 25.3267 6.29864 25.3427 6.25497 25.4301C6.14871 25.6455 6.04973 25.8654 5.94492 26.0823C5.86777 26.2425 5.90125 26.3837 6.00169 26.5205C6.35978 27.0097 6.83142 27.2849 7.44571 27.2893C7.9057 27.2922 8.36423 27.2893 8.82422 27.2893L8.82568 27.2878ZM25.0388 26.7418C25.1116 27.0825 25.3868 27.2907 25.7536 27.2907C26.6968 27.2907 27.6401 27.2922 28.5819 27.2863C29.2064 27.282 29.681 26.9922 30.0158 26.4783C30.0725 26.391 30.0958 26.241 30.0638 26.142C29.9881 25.9091 29.8658 25.6907 29.7698 25.4636C29.7144 25.334 29.6373 25.3252 29.5121 25.3646C28.5106 25.6776 27.5062 25.9833 26.5032 26.292C26.0141 26.4419 25.5265 26.5919 25.0388 26.7418ZM5.81973 22.1616C6.26662 22.2373 6.7106 22.2941 7.14438 22.3945C7.43406 22.46 7.64804 22.4091 7.81981 22.1674C7.85766 22.1135 7.90861 22.0669 7.96101 22.0276C8.14734 21.8879 8.15607 21.7001 8.11968 21.4962H5.81973V22.163V22.1616ZM30.1817 21.4919H27.8832C27.8308 21.7117 27.8701 21.8922 28.0477 22.0335C28.1088 22.0815 28.1656 22.1383 28.2137 22.1994C28.3752 22.4076 28.5732 22.4862 28.8309 22.3931C28.9095 22.3654 28.9968 22.3639 29.0798 22.3494C29.4466 22.2882 29.8134 22.2271 30.1803 22.1645V21.4904L30.1817 21.4919Z" fill="#152B52"/>
<path d="M18.0182 0C23.7506 0 29.483 0 35.2154 0C35.7744 0 35.9956 0.221297 35.9956 0.780362C35.9956 1.43988 35.9956 2.09941 35.9956 2.75747C35.9956 3.24374 35.7569 3.48251 35.2707 3.48251C23.7579 3.48251 12.245 3.48251 0.732205 3.48251C0.248925 3.48251 0.00582886 3.23937 0.00582886 2.75747C0.00582886 2.0863 0.00582886 1.41513 0.00582886 0.743964C0.00582886 0.237311 0.241646 0 0.749673 0C6.50536 0 12.2625 0 18.0182 0ZM1.17473 2.31051H34.8195V1.17054H1.17473V2.31051Z" fill="#152B52"/>
<path d="M29.0216 18.011V19.1495H27.8832V18.011H29.0216Z" fill="#152B52"/>
<path d="M30.1832 15.6902V16.8243H29.039V15.6902H30.1832Z" fill="#152B52"/>
<path d="M6.96097 16.8287H5.8241V15.6887H6.96097V16.8287Z" fill="#152B52"/>
<path d="M24.9573 14.5269V15.6654H23.819V14.5269H24.9573Z" fill="#152B52"/>
<path d="M6.97992 19.1466V18.0066H8.11825V19.1466H6.97992Z" fill="#152B52"/>
<path d="M11.0427 15.6624V14.5239H12.181V15.6624H11.0427Z" fill="#152B52"/>
<path d="M13.3484 12.2063V13.3448H12.2101V12.2063H13.3484Z" fill="#152B52"/>
<path d="M18.567 12.7652H17.4286V11.6267H18.567V12.7652Z" fill="#152B52"/>
<path d="M20.3094 10.4417H19.1696V9.30322H20.3094V10.4417Z" fill="#152B52"/>
<path d="M16.826 10.4432H15.6891V9.30469H16.826V10.4432Z" fill="#152B52"/>
<path d="M23.7957 13.3448H22.6574V12.2034H23.7957V13.3448Z" fill="#152B52"/>
<path d="M26.7114 30.7587V29.6245H29.0157V30.7587H26.7114Z" fill="#152B52"/>
<path d="M6.97845 30.7589V29.6204H9.27695V30.7589H6.97845Z" fill="#152B52"/>
</g>
<defs>
<clipPath id="clip0_521_4098">
<rect width="36" height="36" fill="white"/>
</clipPath>
</defs>
</svg>
