<svg width="36" height="36" viewBox="0 0 36 36" fill="none" xmlns="http://www.w3.org/2000/svg">
<g clip-path="url(#clip0_521_4115)">
<path d="M31.2507 14.4445C31.2422 15.006 31.0531 15.5053 30.6579 15.8928C30.3714 16.1742 30.346 16.4048 30.5027 16.7838C32.2824 21.0833 34.0354 25.3942 35.7996 29.7007C36.0875 30.4051 36.0847 31.0797 35.6613 31.7331C35.4594 32.0457 35.1729 32.2578 34.8384 32.3979C33.7968 32.8349 32.7552 33.2719 31.7052 33.6863C30.8852 34.0102 30.1541 33.832 29.5331 33.2083C29.4611 33.1361 29.4089 33.1347 29.3214 33.1743C27.5021 33.9819 25.6814 34.7852 23.8622 35.59C23.4373 35.7781 23.004 35.9351 22.5383 35.9817C21.6364 36.0722 20.8164 35.8417 20.091 35.3071C19.2018 34.6523 18.7586 33.7429 18.5653 32.668C18.1955 30.613 17.7862 28.5665 17.3924 26.5157C16.9521 24.2174 16.5117 21.9192 16.0699 19.6223C15.6169 17.2675 15.1638 14.9112 14.7108 12.5564C14.6642 12.3146 14.6035 12.0741 14.5781 11.8294C14.5527 11.5876 14.4271 11.4292 14.2464 11.2821C13.3248 10.5283 12.4102 9.76596 11.4943 9.00647C11.4322 8.95414 11.3771 8.89191 11.3178 8.83534C10.9509 8.486 10.5303 8.25688 10.0349 8.11262C7.25307 7.30929 4.47971 6.47485 1.6993 5.66303C0.73674 5.38158 0.1736 4.75787 0.0155261 3.77492C-0.0141128 3.5953 -0.00141041 3.39447 0.0465764 3.21768C0.215942 2.59538 0.386718 1.97308 0.599836 1.36492C0.958326 0.346614 2.05779 -0.219112 3.09939 0.0793086C4.81421 0.571491 6.52339 1.08206 8.23539 1.58697C9.72862 2.02682 11.2205 2.4695 12.7137 2.90794C13.0891 3.01826 13.425 3.18798 13.7313 3.43972C15.4673 4.86535 17.2117 6.27967 18.9506 7.70247C19.3274 8.01079 19.6958 8.32901 20.0599 8.65148C20.1545 8.73492 20.2039 8.73068 20.2843 8.63592C20.5892 8.27103 20.8954 7.90896 21.2116 7.55256C21.9893 6.67709 23.2651 6.55971 24.1684 7.30505C24.9828 7.97685 25.7689 8.68259 26.5664 9.37419C27.8112 10.4547 29.0518 11.5409 30.2994 12.6186C30.7511 13.009 31.1053 13.4545 31.2112 14.0598C31.2338 14.1871 31.238 14.3158 31.2507 14.4445ZM15.2386 10.5509C15.2782 10.5919 15.3106 10.6329 15.3487 10.6655C15.5209 10.8126 15.6141 10.9964 15.6564 11.2213C16.2351 14.2508 16.8194 17.2802 17.4009 20.3097C18.1898 24.4225 18.9957 28.5311 19.755 32.6482C20.0444 34.2152 21.6392 35.293 23.2849 34.5575C24.637 33.9536 25.9919 33.3568 27.3454 32.7571C28.0201 32.4587 28.6919 32.1546 29.3693 31.8632C29.7405 31.7034 30.0383 31.7826 30.1936 32.1079C30.4067 32.552 30.8245 32.7868 31.4144 32.5407C31.9282 32.3271 32.4419 32.1164 32.9557 31.9057C33.4045 31.7204 33.8589 31.5464 34.3021 31.3484C34.7636 31.1405 34.9175 30.7544 34.7552 30.2735C34.7213 30.1731 34.6832 30.0755 34.6423 29.978C33.6726 27.6076 32.703 25.2372 31.7334 22.8668C30.8795 20.7792 30.0299 18.6889 29.1647 16.6042C29.0109 16.2336 29.0306 15.9366 29.3185 15.6439C29.5317 15.4275 29.7307 15.1913 29.9057 14.9438C30.1569 14.5902 30.1174 14.1645 29.828 13.8434C29.7264 13.7303 29.6135 13.6256 29.4992 13.5266C27.9043 12.142 26.3081 10.7602 24.7146 9.37561C24.2757 8.99516 23.848 8.60198 23.4035 8.23001C23.0111 7.90048 22.5129 7.92735 22.1445 8.27951C22.0302 8.38842 21.9272 8.51005 21.8255 8.63026C21.4812 9.03759 21.1481 9.45622 20.7924 9.85365C20.4396 10.2468 20.1474 10.2553 19.7452 9.92012C19.0564 9.34449 18.3663 8.7717 17.6817 8.19183C17.5716 8.09848 17.511 8.10414 17.4136 8.21304C17.0367 8.63168 16.6486 9.039 16.2633 9.45057C15.9246 9.81405 15.5844 10.1775 15.2344 10.5509H15.2386ZM16.6176 7.33475C16.5526 7.27676 16.5004 7.22302 16.4411 7.17635C16.221 7.00097 15.9951 6.83267 15.7778 6.65446C14.8674 5.90629 13.9585 5.1567 13.0496 4.4057C12.8449 4.23598 12.6234 4.10445 12.3637 4.02949C9.73709 3.25869 7.11193 2.48365 4.48677 1.7086C3.94198 1.54878 3.40142 1.37765 2.85239 1.2348C2.27796 1.08489 1.84608 1.31825 1.66543 1.87125C1.50735 2.35636 1.3648 2.84571 1.23778 3.33931C1.10652 3.84988 1.35633 4.28973 1.85314 4.47076C1.97452 4.5146 2.09731 4.5542 2.2201 4.59098C5.03721 5.41977 7.8529 6.24997 10.67 7.07593C11.0708 7.19332 11.4223 7.38849 11.7427 7.6558C12.5514 8.33467 13.3657 9.00647 14.1773 9.67969C14.2253 9.71929 14.2761 9.75747 14.3212 9.79425C14.3509 9.77727 14.3678 9.77162 14.3791 9.75889C15.1201 8.95839 15.8596 8.15788 16.6176 7.33616V7.33475Z" fill="#152B52"/>
<path d="M4.19038 20.6646C3.11491 20.6533 2.15235 20.3181 1.35775 19.5968C0.574432 18.8854 0.141139 17.9774 0.0225834 16.9181C-0.0748016 16.0553 0.189126 15.269 0.509508 14.4968C1.12205 13.0245 1.98158 11.6964 2.93002 10.4235C3.04152 10.2736 3.14878 10.118 3.27299 9.97944C3.7839 9.40947 4.62508 9.39391 5.10495 9.98934C6.42177 11.6243 7.5551 13.3724 8.20151 15.392C8.91567 17.6224 7.5297 20.2049 4.85373 20.608C4.63496 20.6406 4.41055 20.6476 4.19038 20.6674V20.6646ZM4.2172 10.7234C4.14804 10.7983 4.10287 10.8365 4.07041 10.8832C3.67099 11.4404 3.24899 11.9835 2.88062 12.562C2.31466 13.4516 1.79527 14.3723 1.41985 15.3637C1.1785 16.0002 1.10511 16.6494 1.28435 17.3141C1.57228 18.3847 2.68867 19.6237 4.47971 19.4624C5.7316 19.3493 6.72945 18.5799 7.0837 17.4074C7.31094 16.6536 7.20508 15.9196 6.91575 15.2053C6.38931 13.9042 5.67656 12.7077 4.86078 11.5705C4.66037 11.2905 4.44443 11.0218 4.21861 10.7248L4.2172 10.7234Z" fill="#152B52"/>
<path d="M23.4754 18.802C24.6666 18.8543 25.8099 19.4582 26.2657 20.7495C26.7442 22.103 27.1859 23.4692 27.6446 24.8298C28.1203 26.2399 28.5959 27.65 29.0715 29.0615C29.1054 29.1619 29.1351 29.2623 29.1619 29.3641C29.2522 29.7007 29.1548 29.9426 28.8401 30.0911C28.4181 30.2919 27.9876 30.4772 27.5585 30.6667C26.1034 31.3116 24.6412 31.941 23.1946 32.6043C22.2264 33.0484 21.3316 32.3936 21.2116 31.5167C21.0704 30.4772 20.9039 29.4391 20.7487 28.401C20.5793 27.2695 20.4071 26.1395 20.2377 25.008C20.098 24.0689 19.9357 23.1312 19.8284 22.1879C19.6478 20.5897 20.6484 19.2942 22.2348 19.0212C22.6837 18.9434 23.1325 18.8628 23.474 18.8034L23.4754 18.802ZM20.9815 21.5161C20.9815 21.6731 20.9702 21.789 20.9829 21.9022C21.0338 22.3335 21.0846 22.7635 21.1495 23.1935C21.3527 24.5569 21.563 25.9188 21.7691 27.2822C21.9709 28.6216 22.1699 29.9624 22.3746 31.3017C22.4183 31.5874 22.4861 31.6242 22.7472 31.5096C23.5559 31.1546 24.3632 30.794 25.1733 30.4418C25.2891 30.3909 25.2975 30.3372 25.2566 30.2283C25.1409 29.9214 25.0322 29.6116 24.9292 29.3005C24.3336 27.517 23.7365 25.7336 23.148 23.9487C22.9603 23.3787 22.678 22.8738 22.2165 22.4849C21.8707 22.1935 21.5164 21.9163 21.1636 21.6335C21.1213 21.5995 21.0704 21.5741 20.9815 21.5175V21.5161ZM27.8874 29.2397C27.6743 28.606 27.4725 28.0007 27.2678 27.3954C26.8105 26.0419 26.3504 24.6884 25.8945 23.3349C25.6532 22.6192 25.4274 21.8979 25.1776 21.1837C24.9193 20.4454 24.2616 19.9716 23.5319 20.0296C23.0732 20.0664 22.6187 20.164 22.1671 20.2602C21.9921 20.2969 21.834 20.4073 21.6378 20.4992C21.7225 20.5685 21.7677 20.6053 21.8128 20.6406C22.2278 20.9744 22.6582 21.2926 23.0563 21.6476C23.7295 22.2473 24.095 23.0379 24.3731 23.878C25.0167 25.8184 25.6645 27.7575 26.3109 29.6979C26.3335 29.7672 26.3688 29.8308 26.3998 29.9001C26.9051 29.6767 27.3906 29.4617 27.8874 29.2411V29.2397Z" fill="#152B52"/>
<path d="M17.7213 14.9734C17.7213 14.6552 17.9315 14.4077 18.2039 14.3639C18.4919 14.3172 18.7657 14.4671 18.8461 14.7571C18.9717 15.2082 19.0719 15.6665 19.1806 16.1233C19.3599 16.8757 19.5419 17.6267 19.7141 18.3805C19.8256 18.8685 19.4488 19.2532 18.9929 19.1216C18.7487 19.0509 18.6231 18.8671 18.5653 18.6295C18.4396 18.1047 18.3169 17.58 18.1941 17.0553C18.043 16.4104 17.8934 15.7655 17.7438 15.1205C17.7297 15.0583 17.7241 14.9932 17.7213 14.9734Z" fill="#152B52"/>
<path d="M16.7714 11.8153C16.7714 11.5013 16.9591 11.2779 17.247 11.2156C17.5081 11.1591 17.7848 11.2977 17.8821 11.5678C17.9711 11.8153 18.0261 12.0741 18.0939 12.3287C18.1404 12.5041 18.1884 12.6794 18.2279 12.8562C18.2929 13.1433 18.1602 13.3993 17.892 13.5167C17.6436 13.6256 17.3487 13.5478 17.1906 13.3201C17.1412 13.2494 17.1017 13.166 17.0791 13.0839C16.976 12.7049 16.8815 12.3244 16.7855 11.944C16.7728 11.8931 16.7728 11.8393 16.7714 11.8167V11.8153Z" fill="#152B52"/>
</g>
<defs>
<clipPath id="clip0_521_4115">
<rect width="36" height="36" fill="white"/>
</clipPath>
</defs>
</svg>
