<svg width="37" height="36" viewBox="0 0 37 36" fill="none" xmlns="http://www.w3.org/2000/svg">
<g clip-path="url(#clip0_521_4128)">
<path d="M-5.09655e-06 24.1511C-5.09655e-06 24.0186 -5.09655e-06 23.9341 -5.09655e-06 23.851C-5.09655e-06 16.7894 -5.09655e-06 9.72782 -5.09655e-06 2.66623C-5.09655e-06 2.40107 -0.0333489 2.4171 0.253698 2.4069C1.79911 2.35299 3.12271 2.85562 4.2448 3.94247C5.93084 5.57565 7.64587 7.1797 9.34495 8.79832C10.525 9.92159 11.6993 11.0521 12.875 12.1783C12.9098 12.2118 12.9461 12.241 12.9983 12.2876C13.165 12.021 13.3274 11.7617 13.4883 11.5023C15.0728 8.93381 16.64 6.35364 18.2477 3.79969C19.5525 1.72798 21.4444 0.511471 23.848 0.106452C24.1974 0.0481765 24.5541 0.040892 24.9064 0.0030126C25.0252 -0.0100995 25.0716 0.026323 25.0687 0.148703C25.0629 0.438626 25.0629 0.730006 25.0687 1.01993C25.0716 1.14959 25.0296 1.20058 24.8933 1.2035C24.067 1.21515 23.2682 1.36958 22.4998 1.6799C21.0718 2.25684 19.9657 3.2213 19.1567 4.52814C18.3623 5.81167 17.5838 7.10394 16.7951 8.39039C16.6472 8.63223 16.4805 8.86242 16.337 9.10718C16.2993 9.17128 16.2863 9.28347 16.3153 9.34903C16.9604 10.8263 17.6142 12.2992 18.2622 13.7736C18.3101 13.8829 18.3739 13.9441 18.4985 13.9645C20.215 14.2384 21.9301 14.5181 23.6465 14.7891C23.7277 14.8022 23.8466 14.7745 23.9002 14.7206C25.6472 12.968 27.3897 11.2109 29.1323 9.45247C29.1483 9.43644 29.1642 9.41896 29.1975 9.38399C29.1048 9.33591 29.0221 9.29221 28.938 9.24996C27.626 8.58998 26.9287 7.52644 26.8678 6.05206C26.8504 5.64267 26.8649 5.23183 26.8649 4.7933C26.5025 4.7933 26.1676 4.7933 25.8327 4.7933C25.6341 4.7933 25.4355 4.7933 25.2369 4.79767C25.1079 4.80058 25.0455 4.7729 25.0542 4.6141C25.0716 4.28921 25.06 3.96432 25.06 3.61904H26.8475C26.8823 3.3568 26.8997 3.11058 26.9476 2.87019C27.2172 1.50216 28.4031 0.17347 30.1486 0.0190385C32.0535 -0.148505 33.812 1.27634 33.9556 3.1878C34.0367 4.26882 34.0063 5.3644 33.9556 6.44979C33.9193 7.23506 33.5351 7.90232 33.0002 8.47488C32.9683 8.50839 32.9408 8.54627 32.8987 8.59581C32.9712 8.63077 33.0277 8.66283 33.0872 8.68614C34.6007 9.27618 35.4821 10.3965 35.7996 11.9758C36.1751 13.8348 36.5419 15.6953 36.9014 17.5572C36.9623 17.8704 36.9942 18.1939 36.9942 18.5115C37 23.8903 36.9985 29.2707 36.9985 34.6496C36.9985 35.4596 36.494 35.9957 35.6894 35.9986C32.8233 36.0059 29.9572 35.9986 27.0911 36.0016C26.1183 36.0016 25.5935 35.1624 25.6863 34.4922C25.7544 34.0012 26.0226 33.6603 26.4503 33.4389C26.9534 33.1795 27.4579 32.926 27.9667 32.6769C28.0813 32.6215 28.1407 32.5502 28.1639 32.422C28.2726 31.8523 28.3915 31.2856 28.506 30.7174C28.5133 30.6824 28.5104 30.646 28.5133 30.595C28.4495 30.5906 28.3915 30.5819 28.3321 30.5819C24.1293 30.5848 19.9265 30.5863 15.7223 30.5921C15.5672 30.5921 15.5034 30.5702 15.5063 30.3867C15.5208 29.7515 15.5223 29.1162 15.5092 28.481C15.4788 26.9892 15.0569 25.6066 14.2595 24.3536C12.9316 22.263 11.0542 20.9256 8.61574 20.522C5.65539 20.0325 3.09517 20.8862 1.01191 23.089C0.713262 23.4052 0.417517 23.7228 0.120322 24.0404C0.0927776 24.0695 0.0623333 24.0958 -5.09655e-06 24.154V24.1511ZM27.3694 17.9943C27.3216 17.9141 27.2984 17.8661 27.268 17.8253C26.7504 17.1303 26.1096 16.584 25.2775 16.3305C24.7338 16.1659 24.1655 16.077 23.6045 15.9823C22.2823 15.7594 20.9573 15.554 19.6337 15.3413C18.1666 15.1052 16.6994 14.8736 15.2352 14.6303C14.3146 14.4773 13.3955 14.3258 12.4561 14.368C11.969 14.3899 11.4804 14.3739 10.9933 14.3739C10.7149 14.3739 10.7135 14.3739 10.7004 14.6565C10.6251 16.2678 10.3047 17.8311 9.75523 19.3463C9.69579 19.5124 9.73638 19.5648 9.8915 19.6114C10.6787 19.8474 11.4253 20.1796 12.1212 20.6181C14.0131 21.8084 15.357 23.4489 16.1239 25.557C16.1877 25.7348 16.2573 25.7974 16.4486 25.7974C20.5485 25.7887 24.6497 25.7872 28.7496 25.7858C28.8685 25.7858 28.9873 25.7858 29.1236 25.7858C29.1236 25.7086 29.1251 25.6503 29.1236 25.592C29.099 24.8971 29.07 24.2021 29.0526 23.5057C29.041 23.0366 28.8859 22.8341 28.4234 22.7481C27.3955 22.5558 26.3662 22.3693 25.3355 22.1829C24.0989 21.9585 22.8622 21.7341 21.6242 21.5171C21.4937 21.4937 21.4734 21.4296 21.4734 21.3189C21.4806 20.2423 21.485 19.1656 21.4908 18.0875C21.4908 18.0598 21.5009 18.0322 21.5096 17.9943H27.3694ZM9.53342 14.3899C9.49862 14.3812 9.48123 14.3739 9.46383 14.3739C7.80244 14.3739 6.14105 14.3739 4.47966 14.3782C3.98385 14.3782 3.55473 14.2034 3.15751 13.9164C3.05892 13.845 2.9212 13.7955 2.79942 13.7911C2.31811 13.7765 1.8368 13.7838 1.35549 13.7853C1.3033 13.7853 1.24966 13.7897 1.19457 13.7926V21.2708C1.24241 21.249 1.26271 21.2417 1.28156 21.23C1.77881 20.9154 2.25722 20.5613 2.77768 20.2918C4.5043 19.3958 6.33821 19.0258 8.27795 19.272C8.47801 19.2982 8.5418 19.2428 8.60849 19.0695C9.0985 17.7976 9.3725 16.4776 9.49572 15.1242C9.51747 14.8794 9.52182 14.6332 9.53487 14.3899H9.53342ZM28.074 16.9453C28.5283 17.6456 28.8573 18.3434 29.0613 19.0389C29.0888 19.1336 29.1352 19.1627 29.228 19.1569C29.8209 19.1132 30.4182 19.1015 31.0083 19.0258C32.5682 18.8262 34.0614 18.376 35.5039 17.7539C35.6793 17.6781 35.7344 17.6009 35.6938 17.4042C35.4096 16.0202 35.1443 14.6332 34.8616 13.2491C34.7442 12.6766 34.6326 12.0997 34.463 11.5417C34.2847 10.9604 33.8816 10.5277 33.3699 10.146C33.3699 10.2348 33.3699 10.2916 33.3699 10.347C33.3684 10.6005 33.396 10.8569 33.3583 11.1046C33.2829 11.6189 33.0089 12.0355 32.6465 12.3983C31.2779 13.7693 29.9137 15.1431 28.5452 16.5141C28.393 16.667 28.2262 16.8054 28.074 16.9438V16.9453ZM35.8127 18.9092C35.7561 18.9194 35.7315 18.9209 35.7112 18.9296C34.6717 19.3681 33.6018 19.7047 32.5015 19.948C32.3725 19.9757 32.3928 20.0456 32.4087 20.133C32.5725 21.0858 32.7697 22.0343 32.8886 22.9929C33.0712 24.4746 33.2452 25.9591 33.3351 27.4481C33.4163 28.7986 33.38 30.1565 33.396 31.5114C33.396 31.6003 33.4047 31.6877 33.409 31.7795H35.8127V18.9092ZM16.5342 27.0081C16.5443 27.0839 16.5574 27.1494 16.5617 27.2135C16.611 27.8691 16.669 28.5262 16.6994 29.1833C16.7081 29.3523 16.7429 29.3974 16.9082 29.3974C20.9239 29.3916 24.9397 29.3916 28.9569 29.3901C29.0439 29.3901 29.1323 29.3799 29.199 29.3756V27.0096H16.5342V27.0081ZM29.2309 20.3807C29.2309 20.7828 29.241 21.1703 29.2265 21.5549C29.2207 21.6963 29.2642 21.772 29.3788 21.8463C29.9137 22.1945 30.2109 22.6899 30.2414 23.3353C30.2602 23.7461 30.2776 24.157 30.2906 24.5678C30.337 26.1223 30.3791 27.6754 30.424 29.2299C30.4385 29.7209 30.2689 30.1142 29.8514 30.391C29.8006 30.4245 29.7513 30.4872 29.7383 30.544C29.647 30.949 29.5643 31.357 29.4773 31.7736H32.2231C32.226 31.7358 32.2289 31.711 32.2289 31.6877C32.2565 28.9502 32.168 26.2199 31.7868 23.5057C31.6374 22.448 31.4345 21.3976 31.2605 20.3428C31.2402 20.2219 31.204 20.184 31.0735 20.2029C30.7096 20.2539 30.3443 20.2874 29.979 20.3224C29.7354 20.3457 29.4889 20.3603 29.2323 20.3792L29.2309 20.3807ZM1.18442 3.63652C1.18442 4.03571 1.20182 4.40431 1.17718 4.76999C1.16558 4.9419 1.22212 4.99872 1.36274 5.057C1.73967 5.21289 2.06731 5.44162 2.35581 5.733C3.65041 7.03984 4.96532 8.32774 6.24253 9.65352C7.44291 10.8992 8.70127 12.0705 10.1264 13.0554C10.2597 13.1486 10.3902 13.2069 10.5569 13.204C11.0556 13.1952 11.5558 13.2011 12.0559 13.1996C12.1052 13.1996 12.1545 13.1923 12.2589 13.1821C12.1719 13.1093 12.1255 13.0714 12.0806 13.0306C10.7265 11.75 9.37105 10.4708 8.02135 9.18585C6.48319 7.72312 4.95372 6.2502 3.40686 4.79476C3.10242 4.50775 2.75303 4.26299 2.39785 4.04008C2.04121 3.81426 1.63384 3.69771 1.18587 3.63652H1.18442ZM27.2665 16.1382C27.3013 16.1134 27.3115 16.1076 27.3202 16.1003C28.809 14.6026 30.2979 13.1064 31.7868 11.6072C31.8795 11.514 31.9738 11.4164 32.0448 11.3056C32.3072 10.9021 32.2753 10.4941 32.0289 10.095C31.8027 9.72928 31.3736 9.53842 30.9633 9.59816C30.6429 9.64332 30.4182 9.83563 30.2037 10.0513C28.7322 11.5315 27.2607 13.0117 25.7892 14.4933C25.6037 14.6813 25.421 14.8721 25.2209 15.079C25.9806 15.2946 26.6576 15.6457 27.2665 16.1367V16.1382ZM32.7856 4.79476H28.0392C28.0392 5.16627 28.0392 5.52612 28.0392 5.88743C28.0392 7.2846 28.9424 8.26946 30.3269 8.3831C31.4925 8.47926 32.6131 7.62406 32.7697 6.45854C32.8422 5.91803 32.7929 5.36149 32.7972 4.81224C32.7972 4.80787 32.7914 4.80204 32.7856 4.7933V4.79476ZM1.25836 6.30265C1.23371 6.31722 1.21052 6.33179 1.18587 6.34635C1.18587 6.45999 1.18587 6.57217 1.18587 6.68581C1.18587 8.53608 1.18297 10.3849 1.18587 12.2351C1.18587 12.5906 1.19602 12.5921 1.54396 12.5935C1.82955 12.595 2.11515 12.5935 2.40075 12.5935C2.35871 11.7005 2.65155 10.991 3.41121 10.5131C3.77944 10.2814 4.18681 10.1969 4.61593 10.1955C4.76671 10.1955 4.91603 10.1955 5.0668 10.1955C5.07115 10.1751 5.07405 10.1561 5.0784 10.1358C3.81133 8.85222 2.54862 7.56578 1.25981 6.3041L1.25836 6.30265ZM28.0392 21.4835C28.0392 20.9882 28.0479 20.5045 28.0349 20.0223C28.0291 19.8008 27.9841 19.5794 27.9551 19.3594C27.9377 19.2268 27.8754 19.1744 27.729 19.1744C26.3271 19.1773 24.9252 19.1714 23.5233 19.1671C23.2493 19.1671 22.9753 19.1671 22.6897 19.1671C22.6897 19.5852 22.6955 19.9582 22.6868 20.3326C22.6839 20.471 22.726 20.5147 22.8622 20.538C24.0278 20.7449 25.1905 20.9605 26.3546 21.1732C26.9099 21.2752 27.4637 21.3772 28.0378 21.4821L28.0392 21.4835ZM32.8175 3.60301C32.8262 2.66623 32.3942 1.98294 31.6345 1.52839C30.7546 1.00245 29.8528 1.06072 29.0265 1.65951C28.3843 2.12426 28.0479 2.77841 28.0392 3.60156H32.8175V3.60301ZM35.8098 32.9625C34.9878 32.9625 34.1991 32.9625 33.4119 32.9654C33.3713 32.9654 33.3119 33.0076 33.2959 33.0455C33.1495 33.3762 32.9031 33.6064 32.587 33.7652C32.1304 33.9954 31.6679 34.2139 31.2156 34.4529C31.1286 34.4995 31.0764 34.6117 31.0068 34.6933C31.101 34.7253 31.1953 34.785 31.2895 34.785C32.7102 34.788 34.131 34.7836 35.5517 34.7807C35.8054 34.7807 35.8083 34.7807 35.8098 34.5213C35.8127 34.0143 35.8098 33.5088 35.8098 32.961V32.9625ZM8.31564 13.1923C8.32289 13.1792 8.33159 13.1661 8.33884 13.1515C8.31854 13.1384 8.2968 13.1282 8.27795 13.1137C7.65022 12.6722 7.07178 12.1725 6.55132 11.6072C6.402 11.4455 6.23673 11.3799 6.01057 11.3901C5.45823 11.4149 4.90298 11.3829 4.35208 11.4251C3.78959 11.4688 3.4634 11.9904 3.60547 12.5411C3.70985 12.9432 4.05054 13.1967 4.5101 13.1982C5.73803 13.2011 6.9645 13.1982 8.19242 13.1982C8.23301 13.1982 8.2736 13.1938 8.31419 13.1909L8.31564 13.1923ZM16.9676 13.7183C16.4747 12.6067 16.0021 11.5387 15.5179 10.4446C14.9757 11.3231 14.4581 12.1579 13.9435 12.9927C13.8449 13.153 13.8638 13.1909 14.0464 13.2419C14.0928 13.255 14.1392 13.2652 14.187 13.2725C14.6263 13.3438 15.0641 13.4138 15.5034 13.4852C15.9702 13.5595 16.4385 13.6338 16.9676 13.7183ZM31.4301 33.0076C31.4243 32.996 31.4185 32.9858 31.4127 32.9741C31.3359 32.9741 31.2576 32.9741 31.1808 32.9741C30.5791 32.9697 29.979 32.9668 29.3773 32.9581C29.2686 32.9566 29.2005 32.9858 29.1512 33.0907C29.0337 33.3383 28.8453 33.5234 28.6061 33.6516C28.2451 33.8424 27.8812 34.0289 27.5173 34.2139C27.3404 34.3043 27.1563 34.38 26.9853 34.4805C26.9244 34.5155 26.8968 34.6058 26.8533 34.6714C26.9142 34.7078 26.9722 34.753 27.0375 34.7763C27.0853 34.7938 27.1447 34.7807 27.1984 34.7807C28.0349 34.7807 28.8699 34.7792 29.7064 34.788C29.8485 34.7894 29.8427 34.7239 29.8485 34.6248C29.8717 34.1294 30.092 33.7448 30.5212 33.4971C30.7662 33.3558 31.0228 33.2378 31.2736 33.1067C31.3287 33.0776 31.3779 33.0411 31.4316 33.0076H31.4301Z" fill="#152B52"/>
<path d="M7.13268 35.9913C3.18362 35.8981 -0.15076 32.7614 0.0232078 28.4723C0.181228 24.5561 3.32714 21.501 7.43713 21.6263C11.5036 21.7516 14.4118 25.1665 14.3059 28.9851C14.2016 32.7337 11.2514 35.9083 7.13268 35.9913ZM10.6497 23.9122C10.6048 23.9777 10.5685 24.0229 10.5395 24.0739C10.4033 24.3084 10.2626 24.5415 10.1365 24.7819C10.08 24.8912 10.0321 24.9028 9.92921 24.8387C9.69435 24.6916 9.45805 24.5444 9.21159 24.4221C9.06517 24.3492 9.06517 24.2866 9.14201 24.1627C9.30728 23.8932 9.46095 23.6149 9.62042 23.3367C9.57838 23.3075 9.55663 23.2871 9.52909 23.2755C8.99703 23.038 8.43889 22.9011 7.86335 22.8297C7.74302 22.8151 7.74447 22.8865 7.74737 22.9768C7.75752 23.2609 7.75752 23.545 7.76476 23.8291C7.76766 23.9413 7.72852 23.9923 7.60674 23.9894C7.31245 23.9821 7.0167 23.9835 6.72241 23.9894C6.60063 23.9923 6.55424 23.9588 6.56004 23.8247C6.57454 23.5406 6.56584 23.2565 6.57309 22.9725C6.57599 22.8603 6.54409 22.818 6.42666 22.8413C6.15556 22.8967 5.88012 22.9287 5.61337 23.0001C5.31037 23.0817 5.01463 23.1939 4.68699 23.3032C4.874 23.6266 5.03637 23.9078 5.19729 24.1904C5.23499 24.256 5.29153 24.323 5.1799 24.3856C4.88125 24.5517 4.58551 24.7236 4.26657 24.9058C4.07085 24.5692 3.87949 24.2414 3.68378 23.9049C3.14013 24.3128 2.68346 24.7499 2.31088 25.2962C2.64432 25.4914 2.96471 25.6779 3.2996 25.8731C3.13433 26.1703 2.97051 26.4588 2.81394 26.7487C2.75015 26.8682 2.68346 26.8755 2.57183 26.8056C2.30218 26.638 2.02673 26.4807 1.73244 26.3088C1.69185 26.3947 1.64835 26.4603 1.62951 26.5331C1.49903 27.0212 1.37581 27.5122 1.24533 28.0002C1.20474 28.1561 1.27287 28.1882 1.4106 28.1867C1.6933 28.1809 1.97599 28.1896 2.25869 28.1867C2.35147 28.1867 2.38917 28.2158 2.38772 28.3105C2.38482 28.6252 2.38482 28.9399 2.38772 29.2546C2.38772 29.3551 2.34857 29.3945 2.24709 29.3916C1.97599 29.3857 1.70489 29.3857 1.43379 29.3872C1.36566 29.3872 1.29752 29.4003 1.22213 29.4076C1.30622 30.0588 1.43379 30.6722 1.73389 31.2564C2.02818 31.0859 2.30363 30.9373 2.56748 30.7683C2.68781 30.6911 2.74145 30.7144 2.80379 30.8295C2.94006 31.0786 3.07924 31.3263 3.23001 31.5653C3.30395 31.6818 3.2677 31.7313 3.16332 31.7882C2.91977 31.9193 2.68346 32.065 2.43846 32.1932C2.32248 32.2544 2.32538 32.3156 2.39497 32.403C2.4776 32.5064 2.55154 32.6186 2.64577 32.7118C2.97196 33.0367 3.3054 33.3543 3.63303 33.6719C3.68522 33.6282 3.70407 33.6195 3.71277 33.6049C3.836 33.398 3.96212 33.1912 4.081 32.9814C4.29266 32.6055 4.21148 32.6361 4.58986 32.8386C4.82616 32.9639 5.05377 33.1052 5.29297 33.2421C5.08566 33.5903 4.89575 33.9109 4.69859 34.243C5.26833 34.5082 5.84822 34.6539 6.44841 34.7267C6.56584 34.7413 6.57454 34.6728 6.57309 34.5825C6.56729 34.3101 6.57019 34.0376 6.55569 33.7666C6.54844 33.6268 6.58758 33.5656 6.73546 33.5743C6.89783 33.5845 7.0602 33.5758 7.22257 33.5758C7.58693 33.5758 7.76573 33.7584 7.75897 34.1236C7.75607 34.3202 7.75897 34.5184 7.75897 34.7326C8.41569 34.6801 9.02313 34.5126 9.62622 34.2518C9.4305 33.9094 9.24494 33.5816 9.05067 33.2421C9.12026 33.1999 9.17535 33.1649 9.23189 33.1329C9.46095 33.0018 9.69725 32.8779 9.92051 32.7366C10.0365 32.6623 10.0843 32.6929 10.1423 32.7992C10.2699 33.0323 10.4062 33.2596 10.5424 33.4884C10.5743 33.5408 10.6193 33.5845 10.6555 33.6297C11.1383 33.2757 11.5515 32.8808 11.911 32.4292C12.0052 32.3112 11.9893 32.2514 11.8602 32.183C11.621 32.0562 11.3862 31.9207 11.1557 31.778C11.1093 31.7488 11.0528 31.6498 11.0701 31.6192C11.2383 31.3074 11.4195 31.0043 11.6036 30.6882C11.8921 30.8543 12.1647 31.0058 12.4329 31.1661C12.5503 31.236 12.6199 31.2141 12.6634 31.0859C12.7634 30.7887 12.8794 30.4973 12.9606 30.1958C13.0302 29.9379 13.0592 29.6698 13.1085 29.3916C12.7431 29.3916 12.4198 29.3872 12.0966 29.393C11.9719 29.3959 11.9255 29.3537 11.9284 29.2269C11.9342 28.937 11.9342 28.6456 11.9269 28.3557C11.924 28.2231 11.9617 28.1765 12.1024 28.1823C12.4256 28.194 12.7489 28.1867 13.094 28.1867C13.0302 27.5165 12.8736 26.9075 12.5967 26.3117C12.2995 26.4836 12.0226 26.6395 11.7501 26.8056C11.6544 26.8638 11.5935 26.8697 11.5326 26.7619C11.3833 26.4996 11.2224 26.2447 11.0788 25.9795C11.06 25.9445 11.0962 25.844 11.1354 25.8192C11.3325 25.6925 11.5399 25.5818 11.7414 25.4623C11.8313 25.4084 11.9168 25.3472 12.011 25.286C11.6225 24.7484 11.1832 24.307 10.6483 23.9151L10.6497 23.9122Z" fill="#152B52"/>
<path d="M10.1278 28.778C10.1278 30.3384 8.94918 31.7778 7.16747 31.7749C5.3756 31.7705 4.20132 30.3442 4.19697 28.8217C4.19262 27.04 5.50608 25.8293 7.14427 25.806C8.78971 25.7827 10.1249 27.1303 10.1278 28.778ZM7.16747 30.5933C8.14893 30.5933 8.95933 29.7906 8.95788 28.8145C8.95788 27.7932 8.19243 27.0079 7.22256 26.9846C6.15701 26.9584 5.38575 27.7553 5.3611 28.8247C5.33936 29.7833 6.186 30.5919 7.16747 30.5933Z" fill="#152B52"/>
<path d="M6.56147 28.7841C6.56147 28.6209 6.56292 28.4577 6.56147 28.2946C6.56147 28.2028 6.59192 28.1722 6.6905 28.1751C6.99784 28.1838 7.30518 28.1853 7.61108 28.1751C7.73575 28.1707 7.76765 28.2159 7.7662 28.3295C7.76185 28.6326 7.7633 28.9341 7.7633 29.2372C7.7633 29.3348 7.7401 29.396 7.62122 29.3931C7.31968 29.3872 7.01959 29.3872 6.71804 29.3931C6.58902 29.396 6.55132 29.345 6.56147 29.2211C6.57307 29.0769 6.56437 28.9312 6.56437 28.7855H6.56147V28.7841Z" fill="#152B52"/>
</g>
<defs>
<clipPath id="clip0_521_4128">
<rect width="37" height="36" fill="white"/>
</clipPath>
</defs>
</svg>
