<svg width="36" height="36" viewBox="0 0 36 36" fill="none" xmlns="http://www.w3.org/2000/svg">
<path d="M12 4.5H9C8.20435 4.5 7.44129 4.81607 6.87868 5.37868C6.31607 5.94129 6 6.70435 6 7.5V28.5C6 29.2956 6.31607 30.0587 6.87868 30.6213C7.44129 31.1839 8.20435 31.5 9 31.5H27C27.7956 31.5 28.5587 31.1839 29.1213 30.6213C29.6839 30.0587 30 29.2956 30 28.5V7.5C30 6.70435 29.6839 5.94129 29.1213 5.37868C28.5587 4.81607 27.7956 4.5 27 4.5H21M12 4.5V18L16.5 13.5L21 18V4.5M12 4.5H21" stroke="#152B52" stroke-width="2" stroke-linecap="round" stroke-linejoin="round"/>
</svg>
