<svg width="36" height="36" viewBox="0 0 36 36" fill="none" xmlns="http://www.w3.org/2000/svg">
<path fill-rule="evenodd" clip-rule="evenodd" d="M18 4.5C16.2272 4.5 14.4717 4.84919 12.8338 5.52763C11.1959 6.20606 9.70765 7.20047 8.45406 8.45406C7.20047 9.70765 6.20606 11.1959 5.52763 12.8338C4.84919 14.4717 4.5 16.2272 4.5 18C4.5 19.7728 4.84919 21.5283 5.52763 23.1662C6.20606 24.8041 7.20047 26.2923 8.45406 27.5459C9.70765 28.7995 11.1959 29.7939 12.8338 30.4724C14.4717 31.1508 16.2272 31.5 18 31.5C21.5804 31.5 25.0142 30.0777 27.5459 27.5459C30.0777 25.0142 31.5 21.5804 31.5 18C31.5 14.4196 30.0777 10.9858 27.5459 8.45406C25.0142 5.92232 21.5804 4.5 18 4.5ZM1.5 18C1.5 8.8875 8.8875 1.5 18 1.5C27.1125 1.5 34.5 8.8875 34.5 18C34.5 27.1125 27.1125 34.5 18 34.5C8.8875 34.5 1.5 27.1125 1.5 18Z" fill="#00C31D"/>
<path fill-rule="evenodd" clip-rule="evenodd" d="M26.412 13.4999L14.823 25.0889L9 18.1394L11.2665 16.1744L14.9805 20.6894L24.291 11.3789L26.412 13.4999Z" fill="#00C31D"/>
</svg>
