<svg width="140" height="140" viewBox="0 0 140 140" fill="none" xmlns="http://www.w3.org/2000/svg">
<path d="M70.0001 11.6665C37.9167 11.6665 11.6667 37.9165 11.6667 69.9998C11.6667 102.083 37.9167 128.333 70.0001 128.333C102.083 128.333 128.333 102.083 128.333 69.9998C128.333 37.9165 102.083 11.6665 70.0001 11.6665ZM70.0001 116.666C44.2751 116.666 23.3334 95.7248 23.3334 69.9998C23.3334 44.2748 44.2751 23.3332 70.0001 23.3332C95.7251 23.3332 116.667 44.2748 116.667 69.9998C116.667 95.7248 95.7251 116.666 70.0001 116.666ZM96.7751 44.2165L58.3334 82.6582L43.2251 67.6082L35.0001 75.8332L58.3334 99.1665L105 52.4998L96.7751 44.2165Z" fill="#E68531"/>
</svg>
