<svg width="36" height="36" viewBox="0 0 36 36" fill="none" xmlns="http://www.w3.org/2000/svg">
<path d="M18 30C11.3829 30 6 24.6171 6 18C6 11.3829 11.3829 6 18 6C24.6171 6 30 11.3829 30 18C30 24.6171 24.6171 30 18 30ZM18 7.71429C12.3257 7.71429 7.71429 12.3257 7.71429 18C7.71429 23.6743 12.3257 28.2857 18 28.2857C23.6743 28.2857 28.2857 23.6743 28.2857 18C28.2857 12.3257 23.6743 7.71429 18 7.71429Z" fill="white"/>
<path d="M21.4285 22.2854C21.2742 22.2854 21.1199 22.2512 20.9828 22.1654L16.6971 19.594C16.5707 19.5171 16.4664 19.4088 16.3943 19.2796C16.3222 19.1504 16.2848 19.0048 16.2857 18.8569V11.9997C16.2857 11.5197 16.6628 11.1426 17.1428 11.1426C17.6228 11.1426 17.9999 11.5197 17.9999 11.9997V18.3769L21.8742 20.6911C22.0338 20.789 22.1571 20.9361 22.2256 21.1103C22.294 21.2846 22.3037 21.4763 22.2533 21.6566C22.2029 21.8368 22.0951 21.9957 21.9463 22.1092C21.7975 22.2227 21.6157 22.2846 21.4285 22.2854Z" fill="white"/>
</svg>
