<svg width="48" height="48" viewBox="0 0 48 48" fill="none" xmlns="http://www.w3.org/2000/svg">
<path fill-rule="evenodd" clip-rule="evenodd" d="M24 2.5C24.2166 2.49986 24.4306 2.54663 24.6274 2.63708C24.8242 2.72754 24.9991 2.85953 25.14 3.024L31.14 10.024C31.3989 10.3263 31.527 10.7191 31.4962 11.116C31.4655 11.5128 31.2783 11.8811 30.976 12.14C30.6737 12.3989 30.2809 12.527 29.884 12.4962C29.4872 12.4655 29.1189 12.2783 28.86 11.976L25.5 8.056V30C25.5 30.3978 25.342 30.7794 25.0607 31.0607C24.7794 31.342 24.3978 31.5 24 31.5C23.6022 31.5 23.2206 31.342 22.9393 31.0607C22.658 30.7794 22.5 30.3978 22.5 30V8.054L19.14 11.976C19.0118 12.1257 18.8554 12.2487 18.6797 12.338C18.504 12.4272 18.3125 12.481 18.116 12.4962C17.9195 12.5115 17.7219 12.4878 17.5346 12.4267C17.3472 12.3656 17.1737 12.2682 17.024 12.14C16.8743 12.0118 16.7513 11.8554 16.662 11.6797C16.5728 11.504 16.519 11.3125 16.5038 11.116C16.4885 10.9195 16.5122 10.7219 16.5733 10.5346C16.6344 10.3472 16.7318 10.1737 16.86 10.024L22.86 3.024C23.0009 2.85953 23.1758 2.72754 23.3726 2.63708C23.5694 2.54663 23.7834 2.49986 24 2.5ZM13.992 16.504C14.3898 16.5019 14.7722 16.6579 15.055 16.9377C15.3378 17.2175 15.4979 17.5982 15.5 17.996C15.5021 18.3938 15.3461 18.7762 15.0663 19.059C14.7865 19.3418 14.4058 19.5019 14.008 19.504C11.822 19.516 10.272 19.572 9.094 19.788C7.962 19.998 7.304 20.332 6.818 20.818C6.264 21.372 5.904 22.15 5.706 23.618C5.504 25.128 5.5 27.13 5.5 30V32C5.5 34.872 5.504 36.874 5.706 38.384C5.904 39.852 6.266 40.628 6.818 41.184C7.372 41.736 8.148 42.096 9.618 42.294C11.126 42.498 13.13 42.5 16 42.5H32C34.87 42.5 36.872 42.498 38.384 42.294C39.852 42.096 40.628 41.736 41.182 41.182C41.736 40.628 42.096 39.852 42.294 38.384C42.496 36.874 42.5 34.872 42.5 32V30C42.5 27.13 42.496 25.128 42.294 23.616C42.096 22.15 41.734 21.372 41.182 20.818C40.694 20.332 40.038 19.998 38.906 19.788C37.728 19.572 36.178 19.516 33.992 19.504C33.795 19.5029 33.6002 19.4631 33.4186 19.3868C33.237 19.3104 33.0722 19.199 32.9337 19.059C32.7951 18.919 32.6855 18.753 32.6111 18.5706C32.5367 18.3882 32.4989 18.193 32.5 17.996C32.5011 17.799 32.5409 17.6042 32.6172 17.4226C32.6936 17.241 32.805 17.0762 32.945 16.9377C33.085 16.7991 33.251 16.6895 33.4334 16.6151C33.6158 16.5407 33.811 16.5029 34.008 16.504C36.172 16.516 37.974 16.568 39.448 16.838C40.964 17.118 42.254 17.648 43.304 18.698C44.508 19.9 45.024 21.418 45.268 23.218C45.5 24.95 45.5 27.156 45.5 29.89V32.11C45.5 34.846 45.5 37.05 45.268 38.784C45.024 40.584 44.508 42.1 43.304 43.304C42.1 44.508 40.584 45.024 38.784 45.268C37.05 45.5 34.844 45.5 32.11 45.5H15.89C13.156 45.5 10.95 45.5 9.216 45.268C7.416 45.026 5.9 44.508 4.696 43.304C3.492 42.1 2.976 40.584 2.734 38.784C2.5 37.05 2.5 34.844 2.5 32.11V29.89C2.5 27.156 2.5 24.95 2.734 23.216C2.974 21.416 3.494 19.9 4.696 18.696C5.746 17.648 7.036 17.116 8.552 16.838C10.026 16.568 11.828 16.516 13.992 16.504Z" fill="#152B52"/>
</svg>
