<svg width="20" height="20" viewBox="0 0 20 20" fill="none" xmlns="http://www.w3.org/2000/svg">
<path d="M9.6 1.2C9.12261 1.2 8.66477 1.38964 8.32721 1.72721C7.98964 2.06477 7.8 2.52261 7.8 3C7.8 3.47739 7.98964 3.93523 8.32721 4.27279C8.66477 4.61036 9.12261 4.8 9.6 4.8C10.0774 4.8 10.5352 4.61036 10.8728 4.27279C11.2104 3.93523 11.4 3.47739 11.4 3C11.4 2.52261 11.2104 2.06477 10.8728 1.72721C10.5352 1.38964 10.0774 1.2 9.6 1.2ZM6.6 3C6.6 2.20435 6.91607 1.44129 7.47868 0.87868C8.04129 0.316071 8.80435 0 9.6 0C10.3956 0 11.1587 0.316071 11.7213 0.87868C12.2839 1.44129 12.6 2.20435 12.6 3C12.6 3.79565 12.2839 4.55871 11.7213 5.12132C11.1587 5.68393 10.3956 6 9.6 6C8.80435 6 8.04129 5.68393 7.47868 5.12132C6.91607 4.55871 6.6 3.79565 6.6 3ZM16.2 2.4C15.8817 2.4 15.5765 2.52643 15.3515 2.75147C15.1264 2.97652 15 3.28174 15 3.6C15 3.91826 15.1264 4.22348 15.3515 4.44853C15.5765 4.67357 15.8817 4.8 16.2 4.8C16.5183 4.8 16.8235 4.67357 17.0485 4.44853C17.2736 4.22348 17.4 3.91826 17.4 3.6C17.4 3.28174 17.2736 2.97652 17.0485 2.75147C16.8235 2.52643 16.5183 2.4 16.2 2.4ZM13.8 3.6C13.8 2.96348 14.0529 2.35303 14.5029 1.90294C14.953 1.45286 15.5635 1.2 16.2 1.2C16.8365 1.2 17.447 1.45286 17.8971 1.90294C18.3471 2.35303 18.6 2.96348 18.6 3.6C18.6 4.23652 18.3471 4.84697 17.8971 5.29706C17.447 5.74714 16.8365 6 16.2 6C15.5635 6 14.953 5.74714 14.5029 5.29706C14.0529 4.84697 13.8 4.23652 13.8 3.6ZM1.8 3.6C1.8 3.28174 1.92643 2.97652 2.15147 2.75147C2.37652 2.52643 2.68174 2.4 3 2.4C3.31826 2.4 3.62348 2.52643 3.84853 2.75147C4.07357 2.97652 4.2 3.28174 4.2 3.6C4.2 3.91826 4.07357 4.22348 3.84853 4.44853C3.62348 4.67357 3.31826 4.8 3 4.8C2.68174 4.8 2.37652 4.67357 2.15147 4.44853C1.92643 4.22348 1.8 3.91826 1.8 3.6ZM3 1.2C2.36348 1.2 1.75303 1.45286 1.30294 1.90294C0.852856 2.35303 0.6 2.96348 0.6 3.6C0.6 4.23652 0.852856 4.84697 1.30294 5.29706C1.75303 5.74714 2.36348 6 3 6C3.63652 6 4.24697 5.74714 4.69706 5.29706C5.14714 4.84697 5.4 4.23652 5.4 3.6C5.4 2.96348 5.14714 2.35303 4.69706 1.90294C4.24697 1.45286 3.63652 1.2 3 1.2ZM3.72 15.5976L3.6 15.6C2.96348 15.6 2.35303 15.3471 1.90294 14.8971C1.45286 14.447 1.2 13.8365 1.2 13.2V8.7C1.2 8.62044 1.23161 8.54413 1.28787 8.48787C1.34413 8.43161 1.42044 8.4 1.5 8.4H3.6168C3.6648 7.9596 3.8208 7.5504 4.0548 7.2H1.5C0.672 7.2 2.14057e-08 7.872 2.14057e-08 8.7V13.2C-5.5999e-05 13.7137 0.109846 14.2215 0.322322 14.6893C0.534798 15.157 0.844925 15.5739 1.23187 15.9118C1.61881 16.2498 2.0736 16.501 2.56568 16.6486C3.05776 16.7962 3.57574 16.8368 4.0848 16.7676C3.92358 16.3911 3.80135 15.999 3.72 15.5976ZM15.1152 16.7676C15.2736 16.7892 15.4352 16.8 15.6 16.8C16.5548 16.8 17.4705 16.4207 18.1456 15.7456C18.8207 15.0705 19.2 14.1548 19.2 13.2V8.7C19.2 7.872 18.528 7.2 17.7 7.2H15.1452C15.3804 7.5504 15.5352 7.9596 15.5832 8.4H17.7C17.7796 8.4 17.8559 8.43161 17.9121 8.48787C17.9684 8.54413 18 8.62044 18 8.7V13.2C18.0001 13.5253 17.934 13.8473 17.8058 14.1463C17.6776 14.4453 17.49 14.7151 17.2543 14.9394C17.0186 15.1636 16.7398 15.3376 16.4348 15.4507C16.1298 15.5639 15.8049 15.6139 15.48 15.5976C15.3987 15.999 15.2764 16.3911 15.1152 16.7676ZM6.3 7.2C5.472 7.2 4.8 7.872 4.8 8.7V14.4C4.8 15.673 5.30571 16.8939 6.20589 17.7941C7.10606 18.6943 8.32696 19.2 9.6 19.2C10.873 19.2 12.0939 18.6943 12.9941 17.7941C13.8943 16.8939 14.4 15.673 14.4 14.4V8.7C14.4 7.872 13.728 7.2 12.9 7.2H6.3ZM6 8.7C6 8.62044 6.03161 8.54413 6.08787 8.48787C6.14413 8.43161 6.22044 8.4 6.3 8.4H12.9C12.9796 8.4 13.0559 8.43161 13.1121 8.48787C13.1684 8.54413 13.2 8.62044 13.2 8.7V14.4C13.2 15.3548 12.8207 16.2705 12.1456 16.9456C11.4705 17.6207 10.5548 18 9.6 18C8.64522 18 7.72955 17.6207 7.05442 16.9456C6.37928 16.2705 6 15.3548 6 14.4V8.7Z" fill="white"/>
</svg>
