<svg width="27" height="24" viewBox="0 0 27 24" fill="none" xmlns="http://www.w3.org/2000/svg">
<path d="M3.18316 11.7021C2.62128 11.145 2.17611 10.4819 1.87359 9.75128C1.57106 9.02071 1.41723 8.23734 1.42105 7.44683C1.42105 5.84801 2.05735 4.31467 3.18997 3.18413C4.32259 2.05359 5.85876 1.41846 7.46053 1.41846C9.70579 1.41846 11.6668 2.63832 12.7042 4.45392H14.2958C14.8232 3.5306 15.5863 2.76327 16.5074 2.23006C17.4285 1.69685 18.4747 1.41682 19.5395 1.41846C21.1412 1.41846 22.6774 2.05359 23.81 3.18413C24.9426 4.31467 25.5789 5.84801 25.5789 7.44683C25.5789 9.1064 24.8684 10.6383 23.8168 11.7021L13.5 21.9858L3.18316 11.7021ZM24.8116 12.7092C26.1616 11.3475 27 9.50356 27 7.44683C27 5.47181 26.214 3.57769 24.8149 2.18114C23.4157 0.784597 21.5181 2.56057e-05 19.5395 2.56057e-05C17.0526 2.56057e-05 14.85 1.2057 13.5 3.07804C12.8109 2.12272 11.9036 1.34516 10.8533 0.809852C9.80292 0.274548 8.63985 -0.00306993 7.46053 2.56057e-05C5.48187 2.56057e-05 3.58426 0.784597 2.18514 2.18114C0.786018 3.57769 0 5.47181 0 7.44683C0 9.50356 0.838421 11.3475 2.18842 12.7092L13.5 24L24.8116 12.7092Z" fill="white"/>
</svg>
