<svg width="24" height="24" viewBox="0 0 24 24" fill="none" xmlns="http://www.w3.org/2000/svg">
<path d="M12 5.84277C18.6705 5.84277 21.75 12.0003 21.75 12.0003C21.75 12.0003 18.6705 18.1578 12 18.1578C5.3295 18.1578 2.25 12.0003 2.25 12.0003C2.25 12.0003 5.3295 5.84277 12 5.84277Z" stroke="#152B52" stroke-width="1.5" stroke-linejoin="round"/>
<path d="M14.9104 12C14.9193 12.3995 14.8483 12.7968 14.7016 13.1685C14.5549 13.5402 14.3354 13.8788 14.056 14.1645C13.7766 14.4503 13.443 14.6773 13.0747 14.8323C12.7063 14.9872 12.3107 15.0671 11.9111 15.0671C11.5115 15.0671 11.1159 14.9872 10.7476 14.8323C10.3793 14.6773 10.0456 14.4503 9.76623 14.1645C9.48684 13.8788 9.26734 13.5402 9.12063 13.1685C8.97392 12.7968 8.90295 12.3995 8.91188 12C8.91188 11.2044 9.22795 10.4413 9.79056 9.87868C10.3532 9.31607 11.1162 9 11.9119 9C12.7075 9 13.4706 9.31607 14.0332 9.87868C14.5958 10.4413 14.9119 11.2044 14.9119 12H14.9104Z" stroke="#152B52" stroke-width="1.5" stroke-linejoin="round"/>
</svg>
