<svg width="14" height="14" viewBox="0 0 14 14" fill="none" xmlns="http://www.w3.org/2000/svg">
<g clip-path="url(#clip0_663_3090)">
<path d="M12.3322 10.2265C11.898 9.78905 10.8463 9.15057 10.3361 8.89327C9.67164 8.55858 9.61695 8.53124 9.09469 8.91924C8.74633 9.17819 8.51473 9.40952 8.10703 9.32256C7.69934 9.23561 6.8134 8.74534 6.03766 7.97206C5.26191 7.19877 4.7432 6.28713 4.65598 5.88081C4.56875 5.47448 4.80391 5.24561 5.06039 4.89643C5.42188 4.40424 5.39453 4.32221 5.08555 3.65776C4.84465 3.14096 4.18758 2.09917 3.74844 1.66713C3.27867 1.20311 3.27867 1.28514 2.97598 1.41092C2.72954 1.51459 2.49312 1.64062 2.26969 1.78745C1.83219 2.07811 1.58938 2.31956 1.41957 2.68241C1.24977 3.04526 1.17348 3.89592 2.05039 5.48897C2.92731 7.08202 3.54254 7.89659 4.81594 9.16643C6.08934 10.4363 7.06852 11.119 8.49996 11.9219C10.2707 12.9136 10.95 12.7203 11.3139 12.5508C11.6779 12.3812 11.9204 12.1406 12.2116 11.7031C12.3588 11.4801 12.4851 11.2439 12.5889 10.9976C12.715 10.696 12.797 10.696 12.3322 10.2265Z" stroke="white" stroke-miterlimit="10"/>
</g>
<defs>
<clipPath id="clip0_663_3090">
<rect width="14" height="14" fill="white"/>
</clipPath>
</defs>
</svg>
