<svg width="16" height="16" viewBox="0 0 16 16" fill="none" xmlns="http://www.w3.org/2000/svg">
<path d="M1.58594 8.91652C1.07394 9.84239 0.930291 10.9887 0.889758 11.5569C0.886998 11.603 0.893814 11.6491 0.909776 11.6924C0.925738 11.7357 0.9505 11.7753 0.982501 11.8085C1.0145 11.8418 1.05305 11.8681 1.09571 11.8857C1.13837 11.9034 1.18423 11.912 1.23038 11.911H2.29847M1.58594 8.91652C1.58594 6.68008 2.2366 3.98142 3.53864 2.81662C3.65535 2.71682 3.80468 2.66342 3.9582 2.66658H7.36797C7.78042 2.66658 8.19073 2.74978 8.53633 2.97377C9.38895 3.52702 10.6768 4.64346 11.7712 6.35653C11.8615 6.49875 11.9966 6.60541 12.1552 6.66301C12.7845 6.89199 13.4857 7.20844 13.9344 7.41964C14.2373 7.56186 14.4791 7.81075 14.5936 8.12506C14.9093 8.99048 15.0878 9.95617 15.1105 11.5547C15.1111 11.6014 15.1024 11.6478 15.0848 11.6911C15.0673 11.7344 15.0414 11.7738 15.0085 11.8069C14.9756 11.8401 14.9364 11.8664 14.8933 11.8842C14.8501 11.9021 14.8038 11.9112 14.7571 11.911H13.689M1.58594 8.91652C1.84193 8.45288 2.19109 8.0447 2.66611 7.79155M10.8417 11.911H5.14575" stroke="white" stroke-linecap="round" stroke-linejoin="round"/>
<path d="M5.15548 11.9111C5.15548 12.2883 5.00564 12.6501 4.73892 12.9168C4.4722 13.1835 4.11045 13.3333 3.73326 13.3333C3.35606 13.3333 2.99431 13.1835 2.72759 12.9168C2.46088 12.6501 2.31104 12.2883 2.31104 11.9111C2.31104 11.5339 2.46088 11.1722 2.72759 10.9055C2.99431 10.6387 3.35606 10.4889 3.73326 10.4889C4.11045 10.4889 4.4722 10.6387 4.73892 10.9055C5.00564 11.1722 5.15548 11.5339 5.15548 11.9111ZM13.6888 11.9111C13.6888 12.2883 13.539 12.6501 13.2722 12.9168C13.0055 13.1835 12.6438 13.3333 12.2666 13.3333C11.8894 13.3333 11.5276 13.1835 11.2609 12.9168C10.9942 12.6501 10.8444 12.2883 10.8444 11.9111C10.8444 11.5339 10.9942 11.1722 11.2609 10.9055C11.5276 10.6387 11.8894 10.4889 12.2666 10.4889C12.6438 10.4889 13.0055 10.6387 13.2722 10.9055C13.539 11.1722 13.6888 11.5339 13.6888 11.9111Z" stroke="white"/>
<path d="M11.9115 6.57779C9.77815 5.86668 7.28927 5.51113 4.44482 5.86668C4.44482 4.44446 5.15593 3.02224 5.51149 2.66669M5.15593 7.2889H5.86704" stroke="white" stroke-linecap="round" stroke-linejoin="round"/>
</svg>
