<svg width="16" height="16" viewBox="0 0 16 16" fill="none" xmlns="http://www.w3.org/2000/svg">
<path d="M14.3332 8.00002H12.9258M12.9258 8.00002C12.9258 9.30657 12.4071 10.5593 11.4833 11.4831C10.5594 12.407 9.30638 12.926 7.99984 12.926M12.9258 8.00002C12.9258 6.69348 12.4071 5.44011 11.4833 4.51624C10.5594 3.59238 9.30638 3.07402 7.99984 3.07402M7.99984 1.66669V3.07402M7.99984 3.07402C6.69338 3.07402 5.44043 3.59234 4.51663 4.51615C3.59283 5.43995 3.07384 6.6929 3.07384 7.99935C3.07384 9.30581 3.59283 10.5588 4.51663 11.4826C5.44043 12.4064 6.69338 12.926 7.99984 12.926M1.6665 8.00002H3.07384M7.99984 14.3334V12.926" stroke="white" stroke-miterlimit="10" stroke-linecap="round"/>
<path d="M7.99973 10.8147C8.74622 10.8147 9.46214 10.5182 9.99 9.9903C10.5178 9.46245 10.8144 8.74653 10.8144 8.00003C10.8144 7.25353 10.5178 6.53761 9.99 6.00976C9.46214 5.48191 8.74622 5.18536 7.99973 5.18536C7.25323 5.18536 6.53731 5.48191 6.00946 6.00976C5.4816 6.53761 5.18506 7.25353 5.18506 8.00003C5.18506 8.74653 5.4816 9.46245 6.00946 9.9903C6.53731 10.5182 7.25323 10.8147 7.99973 10.8147Z" stroke="white" stroke-miterlimit="10" stroke-linecap="round"/>
</svg>
