<svg width="14" height="14" viewBox="0 0 14 14" fill="none" xmlns="http://www.w3.org/2000/svg">
<path d="M7 12.6875C9.1875 9.625 10.9375 7 10.9375 5.25C10.9375 4.20571 10.5227 3.20419 9.78423 2.46577C9.04581 1.72734 8.04429 1.3125 7 1.3125C5.95571 1.3125 4.95419 1.72734 4.21577 2.46577C3.47734 3.20419 3.0625 4.20571 3.0625 5.25C3.0625 7 4.8125 9.625 7 12.6875Z" stroke="white"/>
<path d="M8.75 5.25C8.75 5.71413 8.56563 6.15925 8.23744 6.48744C7.90925 6.81563 7.46413 7 7 7C6.53587 7 6.09075 6.81563 5.76256 6.48744C5.43437 6.15925 5.25 5.71413 5.25 5.25C5.25 4.78587 5.43437 4.34075 5.76256 4.01256C6.09075 3.68437 6.53587 3.5 7 3.5C7.46413 3.5 7.90925 3.68437 8.23744 4.01256C8.56563 4.34075 8.75 4.78587 8.75 5.25Z" stroke="white"/>
</svg>
