<svg width="12" height="12" viewBox="0 0 12 12" fill="none" xmlns="http://www.w3.org/2000/svg">
<g clip-path="url(#clip0_663_4225)">
<path d="M5.99976 4V6M5.99976 8.005L6.00476 7.9995M5.78776 0.712004C5.84401 0.655823 5.92026 0.624268 5.99976 0.624268C6.07926 0.624268 6.15551 0.655823 6.21176 0.712004L11.2878 5.788C11.3439 5.84425 11.3755 5.9205 11.3755 6C11.3755 6.0795 11.3439 6.15575 11.2878 6.212L6.21176 11.288C6.15551 11.3442 6.07926 11.3757 5.99976 11.3757C5.92026 11.3757 5.84401 11.3442 5.78776 11.288L0.711759 6.212C0.655579 6.15575 0.624023 6.0795 0.624023 6C0.624023 5.9205 0.655579 5.84425 0.711759 5.788L5.78776 0.712004Z" stroke="white" stroke-width="0.5" stroke-linecap="round" stroke-linejoin="round"/>
</g>
<defs>
<clipPath id="clip0_663_4225">
<rect width="12" height="12" fill="white"/>
</clipPath>
</defs>
</svg>
