<svg width="48" height="48" viewBox="0 0 48 48" fill="none" xmlns="http://www.w3.org/2000/svg">
<path d="M43 24H38.778M38.778 24C38.778 27.9196 37.2219 31.6777 34.4503 34.4493C31.6787 37.2209 27.9196 38.778 24 38.778M38.778 24C38.778 20.0804 37.2219 16.3203 34.4503 13.5487C31.6787 10.7771 27.9196 9.222 24 9.222M24 5V9.222M24 9.222C20.0806 9.222 16.3218 10.777 13.5504 13.5484C10.779 16.3198 9.222 20.0786 9.222 23.998C9.222 27.9174 10.779 31.6762 13.5504 34.4476C16.3218 37.219 20.0806 38.778 24 38.778M5 24H9.222M24 43V38.778" stroke="#D9D9D9" stroke-width="2" stroke-miterlimit="10" stroke-linecap="round"/>
<path d="M23.9997 32.444C26.2392 32.444 28.3869 31.5544 29.9705 29.9708C31.554 28.3873 32.4437 26.2395 32.4437 24C32.4437 21.7605 31.554 19.6128 29.9705 18.0292C28.3869 16.4457 26.2392 15.556 23.9997 15.556C21.7602 15.556 19.6124 16.4457 18.0289 18.0292C16.4453 19.6128 15.5557 21.7605 15.5557 24C15.5557 26.2395 16.4453 28.3873 18.0289 29.9708C19.6124 31.5544 21.7602 32.444 23.9997 32.444Z" stroke="#D9D9D9" stroke-width="2" stroke-miterlimit="10" stroke-linecap="round"/>
</svg>
