<svg width="40" height="40" viewBox="0 0 40 40" fill="none" xmlns="http://www.w3.org/2000/svg">
<g clip-path="url(#clip0_663_5698)">
<path d="M23.8791 11.3936C24.0743 11.1913 24.2486 11.0051 24.4292 10.8255C25.991 9.26024 27.5559 7.69663 29.1144 6.12816C29.3322 5.90802 29.5775 5.78662 29.8856 5.81252C30.0324 5.82547 30.1389 5.78015 30.2325 5.66037C30.5148 5.29617 30.8746 5.09708 31.3522 5.16506C31.4183 5.17477 31.4861 5.16506 31.5538 5.16182C31.5651 5.16182 31.5764 5.15211 31.6071 5.13755C31.6071 5.00643 31.6151 4.86723 31.6055 4.72803C31.5829 4.41563 31.7071 4.17283 31.9265 3.95755C32.4702 3.42664 33.0059 2.88924 33.5447 2.35347C33.7964 2.10258 34.0497 1.85169 34.2966 1.59433C34.4837 1.40009 34.6999 1.28355 34.9725 1.29488C35.079 1.29973 35.1355 1.2625 35.1807 1.15406C35.2872 0.901546 35.4194 0.658749 35.5404 0.411096C35.6727 0.140782 35.8986 0.00805329 36.1874 0.00643464C37.2232 -3.9949e-05 38.2573 -0.00327724 39.2931 0.00643464C39.711 0.00967193 39.9901 0.292935 39.9933 0.712165C40.0014 1.7481 39.9998 2.78241 39.9933 3.81835C39.9933 4.09352 39.8675 4.31042 39.6174 4.43991C39.3544 4.57587 39.0866 4.69889 38.8285 4.84133C38.7736 4.87209 38.7107 4.95626 38.7123 5.01453C38.7188 5.30588 38.5945 5.52602 38.3929 5.72511C37.6394 6.47293 36.8844 7.22074 36.1455 7.98313C35.8647 8.27286 35.5614 8.44606 35.1484 8.39588C35.0564 8.38455 34.9613 8.39426 34.8338 8.39426C34.8338 8.49786 34.8241 8.59497 34.8354 8.69209C34.8887 9.11942 34.7354 9.45933 34.4014 9.7167C34.2304 9.84943 34.1659 10.0032 34.1852 10.2169C34.2094 10.5001 34.0578 10.7105 33.8642 10.9032C32.5767 12.1819 31.2957 13.4671 30.0066 14.7458C29.55 15.1991 29.0789 15.6409 28.6014 16.1006C28.6837 16.1929 28.724 16.2431 28.7676 16.2884C29.1112 16.638 29.4726 16.9731 29.8001 17.3373C31.0037 18.684 31.2489 20.212 30.6165 21.8889C30.3438 22.6125 29.8824 23.2324 29.4452 23.8572C28.7547 24.8413 28.048 25.8158 27.3107 26.7643C26.1959 28.2 24.9358 29.5063 23.65 30.7882C21.2687 33.1596 18.9067 35.5519 16.5125 37.9103C15.2363 39.1664 13.6633 39.8429 11.8805 39.9773C9.50245 40.1553 7.47769 39.3525 5.79334 37.6756C4.5688 36.4567 3.34426 35.2395 2.13586 34.0029C0.87905 32.7144 0.177239 31.1524 0.0288099 29.3654C-0.164793 27.0281 0.587032 25.0081 2.23588 23.3457C4.87695 20.683 7.53254 18.0333 10.1962 15.3933C12.2419 13.3651 14.5248 11.6348 16.9304 10.0582C17.545 9.65519 18.1694 9.27157 18.9067 9.14208C20.4007 8.88148 21.7156 9.23434 22.8062 10.3188C23.1531 10.6636 23.4983 11.0132 23.8791 11.3952V11.3936ZM11.3046 38.739C11.6918 38.7018 12.0838 38.6889 12.4662 38.6241C13.8133 38.3975 14.9346 37.729 15.8865 36.7789C18.6195 34.0466 21.3671 31.3272 24.0517 28.548C25.9636 26.5684 27.6318 24.3816 29.1112 22.054C29.6178 21.256 29.7969 20.4176 29.592 19.4966C29.442 18.8264 29.0386 18.3133 28.5643 17.8439C26.3621 15.6555 24.1614 13.4639 21.956 11.2771C21.7624 11.0845 21.5575 10.887 21.3219 10.7559C20.6266 10.3642 19.878 10.233 19.0874 10.3949C18.5679 10.5017 18.1355 10.7818 17.6983 11.0602C15.7558 12.2984 13.9231 13.6856 12.2274 15.2411C10.8125 16.5409 9.44921 17.8973 8.08592 19.2521C6.38222 20.942 4.69787 22.6513 3.01514 24.3622C2.45369 24.932 2.00356 25.5972 1.7309 26.3467C0.799995 28.9058 1.23722 31.2172 3.12646 33.1984C4.2913 34.4189 5.50455 35.5908 6.70327 36.7789C7.97621 38.0414 9.48632 38.7471 11.3062 38.739H11.3046ZM31.7345 9.21006C30.0566 10.8756 28.3804 12.5396 26.7363 14.1712C27.0881 14.5322 27.422 14.8753 27.7802 15.2444C27.9819 15.034 28.1835 14.8171 28.3917 14.6082C29.8388 13.1563 31.2892 11.7076 32.7348 10.2557C32.8058 10.1845 32.8962 10.076 32.8881 9.99349C32.8413 9.53541 33.0672 9.22301 33.3915 8.95431C33.5028 8.86043 33.5528 8.7536 33.5463 8.60469C33.535 8.35703 33.5399 8.10776 33.5447 7.85849C33.5528 7.38585 33.8271 7.11229 34.303 7.10582C34.5724 7.10258 34.8402 7.11229 35.1097 7.10096C35.1887 7.09773 35.2839 7.06373 35.3388 7.0087C35.9615 6.39523 36.573 5.77205 37.1974 5.16021C37.3506 5.00967 37.4361 4.85914 37.4216 4.63415C37.4023 4.3088 37.5539 4.06762 37.854 3.92518C38.0896 3.81187 38.3203 3.68562 38.559 3.58203C38.6784 3.53023 38.7107 3.45901 38.7091 3.33599C38.7042 2.70472 38.7075 2.07183 38.7059 1.44056C38.7059 1.39523 38.6962 1.35153 38.6913 1.29488C37.9895 1.29488 37.2974 1.29164 36.6069 1.29973C36.5536 1.29973 36.4794 1.36286 36.4504 1.41628C36.3407 1.61537 36.2326 1.8177 36.1471 2.02974C35.9809 2.4425 35.6792 2.60598 35.2452 2.59303C35.1468 2.5898 35.0242 2.64645 34.9516 2.71605C34.4676 3.18222 33.9949 3.65972 33.5205 4.1356C33.3172 4.33955 33.0365 4.51437 32.9365 4.76202C32.8332 5.01615 32.9058 5.34311 32.901 5.63771C32.901 5.65713 32.901 5.67817 32.901 5.6976C32.8945 6.17348 32.6235 6.44865 32.1492 6.45674C31.9072 6.4616 31.6652 6.46645 31.4232 6.45512C31.2602 6.44703 31.144 6.49721 31.0408 6.62346C30.7794 6.94881 30.4632 7.15923 30.0163 7.10906C29.9469 7.10096 29.8534 7.16409 29.7969 7.22074C28.1658 8.8491 26.5363 10.4807 24.9084 12.1123C24.8584 12.1625 24.8148 12.2191 24.7906 12.2483C25.1391 12.6092 25.4683 12.9508 25.799 13.2955C27.4688 11.6202 29.1322 9.9514 30.7939 8.28419C31.1118 8.59821 31.4006 8.88148 31.7361 9.21168L31.7345 9.21006Z" fill="#D9D9D9"/>
<path d="M25.7972 21.9618C25.752 23.4008 25.2535 24.6633 24.2209 25.6976C21.5524 28.37 18.8791 31.0392 16.2106 33.7115C15.4926 34.4318 14.623 34.8171 13.6179 34.843C12.6402 34.8673 11.7545 34.5516 11.0462 33.8686C9.95236 32.8148 8.88916 31.7287 7.81466 30.6572C7.29678 30.1392 6.76598 29.6326 6.26584 29.0984C5.20264 27.9621 4.8719 26.6478 5.39301 25.1586C5.57694 24.6309 5.90445 24.1874 6.29972 23.7925C8.96499 21.1266 11.6319 18.4607 14.2955 15.7915C15.3023 14.7831 16.522 14.2457 17.9369 14.2166C19.3712 14.1874 20.6473 14.6487 21.6879 15.662C22.5882 16.5393 23.4755 17.4296 24.3468 18.3344C25.3132 19.3396 25.7552 20.5681 25.7988 21.9618H25.7972ZM11.6012 20.2622C11.5593 20.2994 11.5286 20.3253 11.5012 20.3529C10.73 21.1217 9.9572 21.889 9.18763 22.6578C8.51809 23.3279 7.84532 23.9964 7.18223 24.673C6.49978 25.369 6.28843 26.1994 6.52236 27.1398C6.63691 27.6028 6.91118 27.9686 7.24838 28.3037C8.75041 29.796 10.2395 31.2998 11.7432 32.7905C11.9352 32.9815 12.1627 33.1547 12.4031 33.2761C13.4404 33.7909 14.5472 33.5966 15.4152 32.7387C16.8204 31.3499 18.2128 29.9466 19.6083 28.5481C19.6535 28.5027 19.6971 28.4542 19.7584 28.3878C19.2614 27.8974 18.7807 27.4199 18.2918 26.9505C18.2531 26.9132 18.145 26.9197 18.0821 26.9408C17.7691 27.0443 17.4577 27.135 17.1189 27.088C16.6107 27.0184 16.1961 26.7854 15.8395 26.4244C15.0828 25.6604 14.3197 24.9029 13.5631 24.1389C12.9258 23.4963 12.7257 22.7533 13.0661 21.8906C13.0871 21.8372 13.0758 21.7384 13.0387 21.7012C12.5692 21.2221 12.0917 20.7494 11.6012 20.2606V20.2622ZM20.6134 27.5138C20.6699 27.4733 20.6925 27.462 20.7119 27.4441C21.6363 26.515 22.585 25.6102 23.4755 24.6504C24.8937 23.1207 24.8759 20.7462 23.4546 19.2263C22.7253 18.4461 21.9525 17.7064 21.2023 16.9472C20.7506 16.4908 20.2682 16.0602 19.668 15.8239C18.0869 15.2023 16.6059 15.3998 15.3361 16.5523C14.3778 17.4231 13.4905 18.3733 12.5725 19.2894C12.5499 19.3121 12.5354 19.3428 12.5128 19.3768C12.5515 19.4221 12.5838 19.4642 12.6209 19.5014C13.0339 19.9142 13.4534 20.3237 13.8599 20.743C13.9712 20.8579 14.0648 20.8676 14.2116 20.8126C14.9489 20.539 15.6443 20.641 16.2154 21.18C17.0641 21.9828 17.882 22.8197 18.7032 23.6517C19.3292 24.2862 19.4986 25.0291 19.1759 25.8724C19.155 25.9275 19.1614 26.0278 19.1969 26.0651C19.6616 26.549 20.1343 27.0265 20.6151 27.5138H20.6134ZM18.0627 25.0194C18.0772 24.8721 17.9691 24.6973 17.8175 24.5435C17.2464 23.9657 16.6736 23.3894 16.0993 22.8148C15.8573 22.572 15.6185 22.326 15.362 22.0994C15.1264 21.8922 14.8441 21.8857 14.5698 22.0184C14.2875 22.1544 14.1697 22.3972 14.1729 22.708C14.1761 22.9427 14.302 23.1143 14.4552 23.268C15.0683 23.888 15.6846 24.5063 16.3025 25.123C16.4881 25.3075 16.672 25.4937 16.8721 25.6636C17.1044 25.8611 17.3738 25.8805 17.6465 25.7559C17.924 25.6296 18.0514 25.3982 18.0627 25.0162V25.0194Z" fill="#D9D9D9"/>
<path d="M14.5172 28.3684C14.5285 29.4739 13.5863 30.2412 12.507 29.9984C11.1614 29.6957 10.3338 28.8378 10.0192 27.5154C9.71908 26.2544 10.7774 25.2266 12.0391 25.5309C13.3588 25.8481 14.1687 26.6866 14.4833 28.0058C14.4914 28.0382 14.4995 28.0722 14.5011 28.1045C14.5075 28.1984 14.5124 28.2923 14.5156 28.3684H14.5172ZM12.8667 28.7828C13.1475 28.7633 13.2604 28.6371 13.2362 28.3603C13.1701 27.6206 12.4941 26.897 11.7551 26.7772C11.3486 26.7109 11.1759 26.876 11.2598 27.2806C11.4034 27.9815 11.8794 28.4024 12.5005 28.684C12.6135 28.7358 12.7441 28.7504 12.8667 28.7828Z" fill="#D9D9D9"/>
<path d="M22.2772 20.6215C22.2901 21.7174 21.3108 22.5024 20.2266 22.245C18.8939 21.9294 18.0792 21.0699 17.7565 19.7604C17.4419 18.4833 18.5923 17.4377 19.8942 17.8083C21.1397 18.1628 21.898 19.0013 22.2255 20.2428C22.2578 20.3642 22.261 20.4953 22.2772 20.6215ZM18.9795 19.3978C18.9811 19.4254 18.9827 19.4512 18.9859 19.4788C19.0746 20.1813 19.9023 20.9857 20.6041 21.0569C20.8332 21.0796 21.0671 20.853 21.0284 20.628C20.8832 19.809 20.1701 19.1113 19.4086 19.0158C19.1214 18.9802 18.9778 19.1146 18.9795 19.3995V19.3978Z" fill="#D9D9D9"/>
</g>
<defs>
<clipPath id="clip0_663_5698">
<rect width="40" height="40" fill="white"/>
</clipPath>
</defs>
</svg>
