<svg width="48" height="48" viewBox="0 0 48 48" fill="none" xmlns="http://www.w3.org/2000/svg">
<path d="M4.75732 26.7499C3.22132 29.5275 2.79039 32.9664 2.66879 34.6709C2.66051 34.8092 2.68095 34.9476 2.72884 35.0776C2.77672 35.2075 2.85101 35.3261 2.94702 35.426C3.04302 35.5258 3.15866 35.6046 3.28665 35.6575C3.41463 35.7104 3.55219 35.7362 3.69065 35.7333H6.89492M4.75732 26.7499C4.75732 20.0405 6.70931 11.9446 10.6154 8.45016C10.9656 8.15077 11.4135 7.99056 11.8741 8.00003H22.1034C23.3408 8.00003 24.5717 8.24963 25.6085 8.92163C28.1664 10.5814 32.0298 13.9307 35.313 19.0699C35.5839 19.4965 35.9893 19.8165 36.465 19.9893C38.353 20.6763 40.4565 21.6256 41.8026 22.2592C42.7114 22.6859 43.4367 23.4325 43.7802 24.3755C44.7274 26.9717 45.2629 29.8688 45.3311 34.6645C45.3328 34.8046 45.3066 34.9437 45.2541 35.0736C45.2015 35.2034 45.1236 35.3216 45.0249 35.421C44.9262 35.5205 44.8087 35.5994 44.6793 35.653C44.5498 35.7066 44.411 35.7339 44.2709 35.7333H41.0666M4.75732 26.7499C5.52532 25.3589 6.57278 24.1344 7.99785 23.3749M32.5248 35.7333H15.4368" stroke="#D9D9D9" stroke-width="2" stroke-linecap="round" stroke-linejoin="round"/>
<path d="M15.4669 35.7333C15.4669 36.8649 15.0174 37.9502 14.2172 38.7503C13.4171 39.5505 12.3318 40 11.2003 40C10.0687 40 8.98342 39.5505 8.18327 38.7503C7.38312 37.9502 6.93359 36.8649 6.93359 35.7333C6.93359 34.6017 7.38312 33.5165 8.18327 32.7164C8.98342 31.9162 10.0687 31.4667 11.2003 31.4667C12.3318 31.4667 13.4171 31.9162 14.2172 32.7164C15.0174 33.5165 15.4669 34.6017 15.4669 35.7333ZM41.0669 35.7333C41.0669 36.8649 40.6174 37.9502 39.8172 38.7503C39.0171 39.5505 37.9318 40 36.8002 40C35.6686 40 34.5834 39.5505 33.7832 38.7503C32.9831 37.9502 32.5336 36.8649 32.5336 35.7333C32.5336 34.6017 32.9831 33.5165 33.7832 32.7164C34.5834 31.9162 35.6686 31.4667 36.8002 31.4667C37.9318 31.4667 39.0171 31.9162 39.8172 32.7164C40.6174 33.5165 41.0669 34.6017 41.0669 35.7333Z" stroke="#D9D9D9" stroke-width="2"/>
<path d="M35.734 19.7333C29.334 17.6 21.8673 16.5334 13.334 17.6C13.334 13.3334 15.4673 9.0667 16.534 8.00003M15.4673 21.8667H17.6006" stroke="#D9D9D9" stroke-width="2" stroke-linecap="round" stroke-linejoin="round"/>
</svg>
