<svg width="14" height="12" viewBox="0 0 14 12" fill="none" xmlns="http://www.w3.org/2000/svg">
<g clip-path="url(#clip0_663_3113)">
<path d="M7.01585 0C8.91257 0 10.8093 0.0012258 12.706 0C12.9386 0 13.167 0.0177741 13.3805 0.124419C13.7542 0.311967 13.9563 0.62516 13.9892 1.04255C14.0096 1.29506 13.9958 1.55064 13.9958 1.805C13.9958 4.75979 13.9958 7.71459 13.9988 10.6694C13.9988 10.947 13.9659 11.2106 13.8158 11.449C13.5958 11.7996 13.2747 11.9663 12.8764 11.9933C12.7975 11.9988 12.7174 11.9982 12.6384 11.9982C8.85517 11.9982 5.07188 11.9982 1.288 11.9994C0.992013 11.9994 0.716354 11.943 0.474181 11.7604C0.20809 11.5593 0.0591979 11.286 0.0179388 10.9532C0.00179388 10.8202 0.00298979 10.6841 0.00298979 10.5499C0.00179388 7.48108 0.00179388 4.41228 0 1.34287C0 1.10874 0.0197326 0.880127 0.126169 0.669289C0.335455 0.253741 0.674497 0.0392257 1.12476 0.00551611C1.2312 -0.00245161 1.33823 0.000612902 1.44467 0.000612902C3.30133 0.000612902 5.15859 0.000612902 7.01525 0.000612902L7.01585 0ZM1.16124 10.8097C1.19651 10.8097 1.22103 10.8097 1.24555 10.8097C3.41016 10.8097 5.57477 10.8104 7.73937 10.8104C9.42024 10.8104 11.1005 10.8104 12.7814 10.8122C12.8328 10.8122 12.8495 10.8006 12.8489 10.7448C12.8459 10.5413 12.8501 10.3378 12.8501 10.1343C12.8483 7.17708 12.8465 4.21983 12.8441 1.26258C12.8441 1.23867 12.8441 1.21477 12.8441 1.18351C12.6636 1.18351 12.4949 1.18351 12.3263 1.18351C8.66442 1.18474 5.00312 1.18658 1.34122 1.1878C1.16124 1.1878 1.16064 1.1878 1.16064 1.35513C1.16064 4.44231 1.16064 7.52888 1.16064 10.6161C1.16064 10.6767 1.16064 10.7374 1.16064 10.8097H1.16124Z" fill="white"/>
<path d="M7.69455 5.3531C7.73223 5.39477 7.77887 5.44319 7.82312 5.49406C8.02104 5.72268 8.01207 6.04567 7.80458 6.26571C7.63297 6.44774 7.42727 6.55132 7.17732 6.55254C6.90704 6.55377 6.63617 6.55193 6.36589 6.55561C6.2768 6.55683 6.22059 6.51761 6.20205 6.43425C6.18172 6.34355 6.16498 6.24977 6.16438 6.15722C6.16199 5.64668 6.16557 5.13552 6.16677 4.62497C6.16677 4.60474 6.16677 4.58452 6.16856 4.56429C6.17933 4.40923 6.24032 4.33445 6.3928 4.3222C6.55066 4.30932 6.70972 4.30871 6.86877 4.31178C7.03202 4.31484 7.19825 4.31116 7.3579 4.33997C7.71548 4.40494 7.93075 4.80148 7.80697 5.15206C7.78305 5.21948 7.73761 5.27832 7.69455 5.35371V5.3531ZM6.72287 6.04016C6.93455 6.03158 7.13965 6.02545 7.34475 6.0138C7.37943 6.01197 7.4189 5.99419 7.4458 5.9709C7.46853 5.95067 7.48886 5.91206 7.48886 5.88142C7.48766 5.73555 7.41591 5.64668 7.27539 5.63932C7.09301 5.62951 6.91003 5.63687 6.72347 5.63687V6.04077L6.72287 6.04016ZM6.72287 4.75981V5.14655C6.87715 5.14655 7.02783 5.14961 7.17852 5.14594C7.30289 5.14287 7.37584 5.073 7.38362 4.96023C7.39139 4.85542 7.32561 4.77207 7.20064 4.76287C7.04338 4.75123 6.88492 4.76042 6.72287 4.76042V4.75981Z" fill="white"/>
<path d="M5.46629 6.49367C5.38198 6.49919 5.31919 6.43729 5.27853 6.34964C5.23369 6.25342 5.19422 6.15474 5.15595 6.05606C5.13981 6.01438 5.11828 5.99906 5.07343 5.99906C4.84501 6.00151 4.61719 6.0009 4.38877 5.99906C4.34273 5.99906 4.31821 6.01132 4.30087 6.0579C4.26141 6.16454 4.21776 6.26935 4.17112 6.37293C4.13584 6.45138 4.08202 6.51512 3.99352 6.53229C3.84044 6.56232 3.7065 6.42012 3.73939 6.25464C3.75613 6.16822 3.78842 6.08425 3.82131 6.00274C4.02222 5.50629 4.22553 5.01045 4.42824 4.51461C4.44438 4.47477 4.46292 4.43555 4.48445 4.39877C4.54544 4.29581 4.64111 4.24739 4.75353 4.25229C4.86534 4.25781 4.94786 4.32278 4.99271 4.43065C5.11051 4.71564 5.22711 5.00064 5.34491 5.28564C5.4639 5.57555 5.58349 5.86545 5.70249 6.15474C5.77903 6.34045 5.68335 6.48938 5.46629 6.49183V6.49367ZM4.97836 5.52897C4.90361 5.35429 4.83604 5.19616 4.7601 5.01842C4.69313 5.19984 4.63393 5.3598 4.57175 5.52897H4.97836Z" fill="white"/>
<path d="M10.5927 9.19107C10.5927 9.28852 10.5927 9.38719 10.5927 9.48587C10.5915 9.63052 10.5335 9.68997 10.3697 9.71448C10.2567 9.73165 10.1436 9.66423 10.1203 9.549C10.1012 9.45339 10.1018 9.35226 10.1006 9.2542C10.1006 9.20149 10.088 9.18555 10.0336 9.18616C9.82552 9.18861 9.61684 9.18555 9.40875 9.18432C9.3053 9.18432 9.22159 9.13836 9.15581 9.05991C9.08226 8.97226 9.07628 8.86071 9.15402 8.74242C9.25208 8.59287 9.36151 8.45129 9.46675 8.30665C9.64374 8.06455 9.82074 7.82246 9.99953 7.5822C10.1269 7.4112 10.3141 7.38852 10.4809 7.52091C10.5598 7.58343 10.5921 7.66801 10.5921 7.76668C10.5921 8.05659 10.5921 8.34587 10.5921 8.63578C10.5921 8.66091 10.5921 8.68604 10.5921 8.70933C10.79 8.75284 10.8989 8.85458 10.8881 8.98023C10.8767 9.11384 10.7972 9.17207 10.5921 9.19168L10.5927 9.19107ZM9.69218 8.71729C9.82911 8.71729 9.94691 8.71852 10.0647 8.71545C10.0767 8.71545 10.097 8.69033 10.0976 8.67684C10.1 8.52117 10.0988 8.36549 10.0988 8.18284C9.96006 8.36549 9.8327 8.5322 9.69218 8.71729Z" fill="white"/>
<path d="M7.00278 2.65815C7.47158 2.65815 7.94097 2.65692 8.40977 2.65815C8.65374 2.65937 8.79307 2.87573 8.70038 3.10557C8.65015 3.22998 8.5479 3.27289 8.42711 3.28086C8.35775 3.28515 8.28839 3.28208 8.21843 3.28208C7.38727 3.28208 6.55551 3.28208 5.72434 3.28208C5.66515 3.28208 5.60535 3.27902 5.54675 3.26982C5.38052 3.24408 5.27767 3.10986 5.28724 2.9364C5.2962 2.76908 5.40623 2.6606 5.58083 2.65815C5.8242 2.65447 6.06697 2.65815 6.31034 2.65937C6.54115 2.65937 6.77197 2.65937 7.00278 2.65937V2.65815Z" fill="white"/>
<path d="M5.8259 9.22047C5.973 9.22047 6.1207 9.22047 6.26779 9.22047C6.33955 9.22047 6.4119 9.21801 6.48366 9.2223C6.62776 9.23027 6.71208 9.32159 6.71507 9.46747C6.71686 9.57288 6.61102 9.65869 6.4711 9.66114C6.33955 9.66359 6.208 9.66114 6.07645 9.66114C5.88032 9.66114 5.68419 9.66114 5.48865 9.66114C5.23093 9.66114 5.11852 9.51159 5.17831 9.25418C5.22376 9.05805 5.34813 8.92443 5.5036 8.81656C5.62678 8.73137 5.75773 8.65782 5.88032 8.57202C5.99213 8.49295 6.10096 8.40837 6.20381 8.31766C6.24208 8.28395 6.27377 8.22818 6.28394 8.17731C6.31443 8.02592 6.26301 7.95299 6.11412 7.92357C5.90603 7.8825 5.70511 7.90334 5.51317 8.00079C5.41211 8.05166 5.31226 8.02163 5.25724 7.92663C5.19805 7.82489 5.2124 7.67166 5.30448 7.62631C5.62559 7.46818 5.95805 7.36766 6.31324 7.50924C6.76828 7.69128 6.84363 8.24902 6.59248 8.56405C6.39277 8.81411 6.13564 8.98205 5.88271 9.1604C5.86178 9.17511 5.84085 9.18982 5.81992 9.20453C5.82172 9.21005 5.82411 9.21556 5.8259 9.22108V9.22047Z" fill="white"/>
<path d="M7.7999 9.70836C7.63367 9.67219 7.46624 9.64032 7.3012 9.59803C7.25097 9.58516 7.20314 9.549 7.16188 9.51407C7.07218 9.43684 7.05723 9.34981 7.10806 9.24868C7.15948 9.14694 7.26413 9.09116 7.36817 9.1212C7.53859 9.17084 7.70961 9.21252 7.8878 9.19229C7.96613 9.18371 8.04327 9.16349 8.11981 9.14326C8.17542 9.12855 8.23043 9.10649 8.2382 9.03416C8.24717 8.95326 8.23521 8.86868 8.15927 8.8362C8.06061 8.79391 7.95298 8.77307 7.84773 8.74978C7.79751 8.73875 7.74309 8.74917 7.69227 8.73997C7.57806 8.71975 7.5063 8.6321 7.51049 8.52423C7.51467 8.41207 7.5948 8.32933 7.7126 8.31891C7.79153 8.31217 7.87225 8.31523 7.94999 8.30236C8.01217 8.29194 8.07556 8.27294 8.13117 8.24291C8.19634 8.20797 8.21787 8.14178 8.20771 8.067C8.19874 7.99713 8.15269 7.96097 8.0935 7.93952C7.92786 7.88007 7.76163 7.88926 7.59659 7.94381C7.53799 7.96342 7.48059 7.98855 7.42318 8.01246C7.34844 8.0431 7.28805 8.02104 7.23662 7.96159C7.17682 7.89233 7.15769 7.81143 7.19716 7.74523C7.22167 7.70294 7.25516 7.65697 7.29582 7.63552C7.61931 7.46575 7.95537 7.40078 8.30697 7.53807C8.71238 7.6962 8.8248 8.15465 8.54137 8.49297C8.50429 8.5371 8.51027 8.57265 8.53539 8.61555C8.61432 8.751 8.66694 8.89381 8.65737 9.05562C8.64421 9.28545 8.54137 9.45645 8.34284 9.56371C8.17422 9.65442 7.99184 9.68568 7.80349 9.68507C7.80229 9.69242 7.8005 9.69977 7.7993 9.70652L7.7999 9.70836Z" fill="white"/>
<path d="M9.30894 4.2278C9.62347 4.22044 9.86146 4.31115 10.0863 4.44109C10.2101 4.5128 10.2471 4.63354 10.1975 4.75183C10.1706 4.8168 10.1234 4.84928 10.0558 4.85786C9.94876 4.87196 9.85608 4.82721 9.76459 4.78309C9.57743 4.6936 9.38309 4.69544 9.19055 4.74938C8.9699 4.81128 8.82938 4.9596 8.80188 5.19802C8.78872 5.31325 8.78035 5.43215 8.7941 5.54676C8.81982 5.76189 8.95914 5.89489 9.1463 5.97212C9.34124 6.05302 9.54095 6.06405 9.73948 5.97641C9.79867 5.95005 9.85787 5.9237 9.91826 5.90102C10.0331 5.85812 10.1503 5.90286 10.1963 6.00521C10.2388 6.10021 10.222 6.24118 10.1042 6.30676C9.92006 6.40973 9.73469 6.49798 9.52182 6.52128C8.94299 6.5844 8.46463 6.21973 8.3564 5.63441C8.28285 5.23725 8.40962 4.90199 8.63265 4.58818C8.81384 4.33383 9.05063 4.20635 9.30894 4.22657V4.2278Z" fill="white"/>
<path d="M3.7819 9.22052V8.07623C3.76396 8.07991 3.74542 8.08113 3.72868 8.08788C3.70775 8.09584 3.68862 8.1081 3.66829 8.1173C3.58637 8.15162 3.49966 8.18594 3.42372 8.11607C3.3424 8.0413 3.3125 7.93771 3.3424 7.83107C3.35615 7.78081 3.39921 7.72749 3.44405 7.70052C3.56783 7.62636 3.69878 7.56507 3.82794 7.50072C3.91225 7.45843 4.00015 7.45536 4.08865 7.48417C4.18193 7.5142 4.21542 7.59265 4.23037 7.68091C4.23874 7.73055 4.24053 7.78204 4.24053 7.83291C4.24053 8.27236 4.23994 8.71181 4.23635 9.15126C4.23635 9.20458 4.2501 9.21991 4.30272 9.22236C4.37089 9.22542 4.44145 9.23339 4.50603 9.25484C4.59213 9.28365 4.6316 9.35413 4.63519 9.4479C4.63877 9.54168 4.58914 9.59623 4.51261 9.62748C4.46776 9.64587 4.41693 9.65997 4.3691 9.66058C4.11138 9.66365 3.85306 9.66365 3.59534 9.66181C3.46319 9.66058 3.37828 9.58642 3.36692 9.46936C3.35376 9.33084 3.43628 9.23155 3.578 9.22113C3.64198 9.21684 3.70656 9.22052 3.7819 9.22052Z" fill="white"/>
<path d="M3.41601 3.59163C3.10028 3.59163 2.84197 3.31889 2.84376 2.98731C2.84555 2.66492 3.10507 2.40015 3.4184 2.40199C3.73472 2.40444 3.99423 2.67841 3.99184 3.00815C3.98945 3.32931 3.73053 3.59163 3.41601 3.59163Z" fill="white"/>
<path d="M10.6131 3.59163C10.292 3.59163 10.0432 3.33053 10.0444 2.9965C10.045 2.67779 10.3081 2.40383 10.6143 2.40199C10.9348 2.40015 11.1919 2.66676 11.1919 3.00079C11.1919 3.32379 10.9288 3.59224 10.6137 3.59163H10.6131Z" fill="white"/>
</g>
<defs>
<clipPath id="clip0_663_3113">
<rect width="14" height="12" fill="white"/>
</clipPath>
</defs>
</svg>
